  0
SECTION
  2
HEADER
  9
$ANGBASE
  50
0.0
  9
$ANGDIR
  70
1
  9
$MEASUREMENT
  70
1
  0
ENDSEC
  0
SECTION
  2
TABLES
  0
TABLE
  2
LTYPE
  70
4
  0
LTYPE
  5
40F
  2
CONTINUOUS
  70
0
  3
Solid line
  72
65
  73
0
  40
0.0
  0
LTYPE
  5
410
  2
DASHDOT
 70
0
  3
Dash Dot ____ _ ____ _
 72
65
 73
4
 40
2.0
 49
1.25
 49
-0.25
 49
0.25
 49
-0.25
  0
LTYPE
  5
411
  2
DASHED
 70
0
  3
Dashed __ __ __ __ __
 72
65
 73
2
 40
0.75
 49
0.5
 49
-0.25
  0
LTYPE
  5
43B
  2
DOTTED
 70
0
  3
Dotted .  .  .  .
 72
65
 73
2
 40
0.2
 49
0.0
 49
-0.2
  0
ENDTAB
  0
TABLE
  2
STYLE
  70
4
  0
STYLE
  2
KICAD
  70
0
  40
0
  41
1
  42
1
  50
0
  71
0
  3
isocp.shx
  0
STYLE
  2
KICADB
  70
0
  40
0
  41
1
  42
1
  50
0
  71
0
  3
isocp.shx
  0
STYLE
  2
KICADI
  70
0
  40
0
  41
1
  42
1
  50
15
  71
0
  3
isocp.shx
  0
STYLE
  2
KICADBI
  70
0
  40
0
  41
1
  42
1
  50
15
  71
0
  3
isocp.shx
  0
ENDTAB
  0
TABLE
  2
LAYER
  70
1
  0
LAYER
  2
BLACK
  70
0
  62
7
  6
CONTINUOUS
  0
ENDTAB
  0
ENDSEC
  0
SECTION
  2
ENTITIES
0
LINE
8
BLACK
6
CONTINUOUS
10
15
20
-100
11
15
21
-126
0
LINE
8
BLACK
6
CONTINUOUS
10
70
20
-100
11
15
21
-100
0
LINE
8
BLACK
6
CONTINUOUS
10
70
20
-126
11
70
21
-100
0
LINE
8
BLACK
6
CONTINUOUS
10
15
20
-126
11
70
21
-126
0
LINE
8
BLACK
6
CONTINUOUS
10
19.1
20
-111.4
11
19.5
21
-111.8
0
LINE
8
BLACK
6
CONTINUOUS
10
19.5
20
-111.4
11
19.1
21
-111.8
0
LINE
8
BLACK
6
CONTINUOUS
10
19.4
20
-119.5
11
19.8
21
-119.9
0
LINE
8
BLACK
6
CONTINUOUS
10
19.8
20
-119.5
11
19.4
21
-119.9
0
LINE
8
BLACK
6
CONTINUOUS
10
20.9
20
-111.4
11
21.3
21
-111.8
0
LINE
8
BLACK
6
CONTINUOUS
10
21.3
20
-111.4
11
20.9
21
-111.8
0
LINE
8
BLACK
6
CONTINUOUS
10
23
20
-116.9
11
23.4
21
-117.3
0
LINE
8
BLACK
6
CONTINUOUS
10
23.4
20
-116.9
11
23
21
-117.3
0
LINE
8
BLACK
6
CONTINUOUS
10
24
20
-105.2
11
24.4
21
-105.6
0
LINE
8
BLACK
6
CONTINUOUS
10
24.4
20
-105.2
11
24
21
-105.6
0
LINE
8
BLACK
6
CONTINUOUS
10
28.9
20
-108.5
11
29.3
21
-108.9
0
LINE
8
BLACK
6
CONTINUOUS
10
29.3
20
-108.5
11
28.9
21
-108.9
0
LINE
8
BLACK
6
CONTINUOUS
10
28.9
20
-119.7
11
29.3
21
-120.1
0
LINE
8
BLACK
6
CONTINUOUS
10
29.3
20
-119.7
11
28.9
21
-120.1
0
LINE
8
BLACK
6
CONTINUOUS
10
29.6
20
-101.4
11
30
21
-101.8
0
LINE
8
BLACK
6
CONTINUOUS
10
30
20
-101.4
11
29.6
21
-101.8
0
LINE
8
BLACK
6
CONTINUOUS
10
29.6
20
-104.5
11
30
21
-104.9
0
LINE
8
BLACK
6
CONTINUOUS
10
30
20
-104.5
11
29.6
21
-104.9
0
LINE
8
BLACK
6
CONTINUOUS
10
30.3
20
-119.7
11
30.7
21
-120.1
0
LINE
8
BLACK
6
CONTINUOUS
10
30.7
20
-119.7
11
30.3
21
-120.1
0
LINE
8
BLACK
6
CONTINUOUS
10
30.8
20
-105.8
11
31.2
21
-106.2
0
LINE
8
BLACK
6
CONTINUOUS
10
31.2
20
-105.8
11
30.8
21
-106.2
0
LINE
8
BLACK
6
CONTINUOUS
10
30.8
20
-107.3
11
31.2
21
-107.7
0
LINE
8
BLACK
6
CONTINUOUS
10
31.2
20
-107.3
11
30.8
21
-107.7
0
LINE
8
BLACK
6
CONTINUOUS
10
31.3
20
-103.3
11
31.7
21
-103.7
0
LINE
8
BLACK
6
CONTINUOUS
10
31.7
20
-103.3
11
31.3
21
-103.7
0
LINE
8
BLACK
6
CONTINUOUS
10
32.8
20
-117.2
11
33.2
21
-117.6
0
LINE
8
BLACK
6
CONTINUOUS
10
33.2
20
-117.2
11
32.8
21
-117.6
0
LINE
8
BLACK
6
CONTINUOUS
10
36
20
-119.7
11
36.4
21
-120.1
0
LINE
8
BLACK
6
CONTINUOUS
10
36.4
20
-119.7
11
36
21
-120.1
0
LINE
8
BLACK
6
CONTINUOUS
10
40.8
20
-103.9
11
41.2
21
-104.3
0
LINE
8
BLACK
6
CONTINUOUS
10
41.2
20
-103.9
11
40.8
21
-104.3
0
LINE
8
BLACK
6
CONTINUOUS
10
43.5
20
-120.4
11
43.9
21
-120.8
0
LINE
8
BLACK
6
CONTINUOUS
10
43.9
20
-120.4
11
43.5
21
-120.8
0
LINE
8
BLACK
6
CONTINUOUS
10
48
20
-104.3
11
48.4
21
-104.7
0
LINE
8
BLACK
6
CONTINUOUS
10
48.4
20
-104.3
11
48
21
-104.7
0
LINE
8
BLACK
6
CONTINUOUS
10
49.1
20
-104.3
11
49.5
21
-104.7
0
LINE
8
BLACK
6
CONTINUOUS
10
49.5
20
-104.3
11
49.1
21
-104.7
0
LINE
8
BLACK
6
CONTINUOUS
10
50.3
20
-104.3
11
50.7
21
-104.7
0
LINE
8
BLACK
6
CONTINUOUS
10
50.7
20
-104.3
11
50.3
21
-104.7
0
LINE
8
BLACK
6
CONTINUOUS
10
51.3
20
-116.5
11
51.7
21
-116.9
0
LINE
8
BLACK
6
CONTINUOUS
10
51.7
20
-116.5
11
51.3
21
-116.9
0
LINE
8
BLACK
6
CONTINUOUS
10
52.6
20
-124
11
53
21
-124.4
0
LINE
8
BLACK
6
CONTINUOUS
10
53
20
-124
11
52.6
21
-124.4
0
LINE
8
BLACK
6
CONTINUOUS
10
54.5
20
-110
11
54.9
21
-110.4
0
LINE
8
BLACK
6
CONTINUOUS
10
54.9
20
-110
11
54.5
21
-110.4
0
LINE
8
BLACK
6
CONTINUOUS
10
54.5
20
-115.6
11
54.9
21
-116
0
LINE
8
BLACK
6
CONTINUOUS
10
54.9
20
-115.6
11
54.5
21
-116
0
LINE
8
BLACK
6
CONTINUOUS
10
57.1
20
-123.7
11
57.5
21
-124.1
0
LINE
8
BLACK
6
CONTINUOUS
10
57.5
20
-123.7
11
57.1
21
-124.1
0
LINE
8
BLACK
6
CONTINUOUS
10
60.1
20
-110
11
60.5
21
-110.4
0
LINE
8
BLACK
6
CONTINUOUS
10
60.5
20
-110
11
60.1
21
-110.4
0
LINE
8
BLACK
6
CONTINUOUS
10
60.1
20
-107
11
60.5
21
-107.4
0
LINE
8
BLACK
6
CONTINUOUS
10
60.5
20
-107
11
60.1
21
-107.4
0
LINE
8
BLACK
6
CONTINUOUS
10
65
20
-105.5
11
65.4
21
-105.9
0
LINE
8
BLACK
6
CONTINUOUS
10
65.4
20
-105.5
11
65
21
-105.9
0
CIRCLE
8
BLACK
10
39.275
20
-113
40
0.3
0
CIRCLE
8
BLACK
10
40.2196
20
-110.72
40
0.3
0
CIRCLE
8
BLACK
10
40.2196
20
-115.28
40
0.3
0
CIRCLE
8
BLACK
10
42.5
20
-109.775
40
0.3
0
CIRCLE
8
BLACK
10
42.5
20
-116.225
40
0.3
0
CIRCLE
8
BLACK
10
44.7804
20
-110.72
40
0.3
0
CIRCLE
8
BLACK
10
44.7804
20
-115.28
40
0.3
0
CIRCLE
8
BLACK
10
45.725
20
-113
40
0.3
0
LINE
8
BLACK
6
CONTINUOUS
10
24.23
20
-101.905
11
24.23
21
-102.555
0
LINE
8
BLACK
6
CONTINUOUS
10
23.905
20
-102.23
11
24.555
21
-102.23
0
LINE
8
BLACK
6
CONTINUOUS
10
24.23
20
-103.175
11
24.23
21
-103.825
0
LINE
8
BLACK
6
CONTINUOUS
10
23.905
20
-103.5
11
24.555
21
-103.5
0
LINE
8
BLACK
6
CONTINUOUS
10
25.5
20
-101.905
11
25.5
21
-102.555
0
LINE
8
BLACK
6
CONTINUOUS
10
25.175
20
-102.23
11
25.825
21
-102.23
0
LINE
8
BLACK
6
CONTINUOUS
10
25.5
20
-103.175
11
25.5
21
-103.825
0
LINE
8
BLACK
6
CONTINUOUS
10
25.175
20
-103.5
11
25.825
21
-103.5
0
LINE
8
BLACK
6
CONTINUOUS
10
26.77
20
-101.905
11
26.77
21
-102.555
0
LINE
8
BLACK
6
CONTINUOUS
10
26.445
20
-102.23
11
27.095
21
-102.23
0
LINE
8
BLACK
6
CONTINUOUS
10
26.77
20
-103.175
11
26.77
21
-103.825
0
LINE
8
BLACK
6
CONTINUOUS
10
26.445
20
-103.5
11
27.095
21
-103.5
0
LINE
8
BLACK
6
CONTINUOUS
10
46.025
20
-122.73
11
46.025
21
-123.38
0
LINE
8
BLACK
6
CONTINUOUS
10
45.7
20
-123.055
11
46.35
21
-123.055
0
LINE
8
BLACK
6
CONTINUOUS
10
46.025
20
-124
11
46.025
21
-124.65
0
LINE
8
BLACK
6
CONTINUOUS
10
45.7
20
-124.325
11
46.35
21
-124.325
0
LINE
8
BLACK
6
CONTINUOUS
10
47.295
20
-122.73
11
47.295
21
-123.38
0
LINE
8
BLACK
6
CONTINUOUS
10
46.97
20
-123.055
11
47.62
21
-123.055
0
LINE
8
BLACK
6
CONTINUOUS
10
47.295
20
-124
11
47.295
21
-124.65
0
LINE
8
BLACK
6
CONTINUOUS
10
46.97
20
-124.325
11
47.62
21
-124.325
0
LINE
8
BLACK
6
CONTINUOUS
10
48.565
20
-122.73
11
48.565
21
-123.38
0
LINE
8
BLACK
6
CONTINUOUS
10
48.24
20
-123.055
11
48.89
21
-123.055
0
LINE
8
BLACK
6
CONTINUOUS
10
48.565
20
-124
11
48.565
21
-124.65
0
LINE
8
BLACK
6
CONTINUOUS
10
48.24
20
-124.325
11
48.89
21
-124.325
0
LINE
8
BLACK
6
CONTINUOUS
10
18.7828
20
-103.783
11
18.7828
21
-103.217
0
LINE
8
BLACK
6
CONTINUOUS
10
18.7828
20
-103.217
11
18.2172
21
-103.217
0
LINE
8
BLACK
6
CONTINUOUS
10
18.2172
20
-103.217
11
18.2172
21
-103.783
0
LINE
8
BLACK
6
CONTINUOUS
10
18.2172
20
-103.783
11
18.7828
21
-103.783
0
LINE
8
BLACK
6
CONTINUOUS
10
18.7828
20
-105.783
11
18.7828
21
-105.217
0
LINE
8
BLACK
6
CONTINUOUS
10
18.7828
20
-105.217
11
18.2172
21
-105.217
0
LINE
8
BLACK
6
CONTINUOUS
10
18.2172
20
-105.217
11
18.2172
21
-105.783
0
LINE
8
BLACK
6
CONTINUOUS
10
18.2172
20
-105.783
11
18.7828
21
-105.783
0
LINE
8
BLACK
6
CONTINUOUS
10
66.8828
20
-120.783
11
66.8828
21
-120.217
0
LINE
8
BLACK
6
CONTINUOUS
10
66.8828
20
-120.217
11
66.3172
21
-120.217
0
LINE
8
BLACK
6
CONTINUOUS
10
66.3172
20
-120.217
11
66.3172
21
-120.783
0
LINE
8
BLACK
6
CONTINUOUS
10
66.3172
20
-120.783
11
66.8828
21
-120.783
0
LINE
8
BLACK
6
CONTINUOUS
10
66.8828
20
-122.783
11
66.8828
21
-122.217
0
LINE
8
BLACK
6
CONTINUOUS
10
66.8828
20
-122.217
11
66.3172
21
-122.217
0
LINE
8
BLACK
6
CONTINUOUS
10
66.3172
20
-122.217
11
66.3172
21
-122.783
0
LINE
8
BLACK
6
CONTINUOUS
10
66.3172
20
-122.783
11
66.8828
21
-122.783
0
LINE
8
BLACK
6
CONTINUOUS
10
17
20
-113.5
11
17.5
21
-113
0
LINE
8
BLACK
6
CONTINUOUS
10
17.5
20
-113
11
17
21
-112.5
0
LINE
8
BLACK
6
CONTINUOUS
10
17
20
-112.5
11
16.5
21
-113
0
LINE
8
BLACK
6
CONTINUOUS
10
16.5
20
-113
11
17
21
-113.5
0
LINE
8
BLACK
6
CONTINUOUS
10
16.5
20
-110.5
11
16.5
21
-115.5
0
ARC
8
BLACK
10
17
20
-115.5
40
0.5
50
180
51
360
0
LINE
8
BLACK
6
CONTINUOUS
10
17.5
20
-115.5
11
17.5
21
-110.5
0
ARC
8
BLACK
10
17
20
-110.5
40
0.5
50
0
51
180
0
LINE
8
BLACK
6
CONTINUOUS
10
68
20
-113.5
11
68.5
21
-113
0
LINE
8
BLACK
6
CONTINUOUS
10
68.5
20
-113
11
68
21
-112.5
0
LINE
8
BLACK
6
CONTINUOUS
10
68
20
-112.5
11
67.5
21
-113
0
LINE
8
BLACK
6
CONTINUOUS
10
67.5
20
-113
11
68
21
-113.5
0
LINE
8
BLACK
6
CONTINUOUS
10
67.5
20
-110.5
11
67.5
21
-115.5
0
ARC
8
BLACK
10
68
20
-115.5
40
0.5
50
180
51
360
0
LINE
8
BLACK
6
CONTINUOUS
10
68.5
20
-115.5
11
68.5
21
-110.5
0
ARC
8
BLACK
10
68
20
-110.5
40
0.5
50
0
51
180
0
LINE
8
BLACK
6
CONTINUOUS
10
15.9
20
-123.4
11
17.1
21
-124.6
0
LINE
8
BLACK
6
CONTINUOUS
10
17.1
20
-123.4
11
15.9
21
-124.6
0
CIRCLE
8
BLACK
10
16.5
20
-124
40
0.6
0
LINE
8
BLACK
6
CONTINUOUS
10
37.9
20
-123.4
11
39.1
21
-124.6
0
LINE
8
BLACK
6
CONTINUOUS
10
39.1
20
-123.4
11
37.9
21
-124.6
0
CIRCLE
8
BLACK
10
38.5
20
-124
40
0.6
0
LINE
8
BLACK
6
CONTINUOUS
10
45.9
20
-101.4
11
47.1
21
-102.6
0
LINE
8
BLACK
6
CONTINUOUS
10
47.1
20
-101.4
11
45.9
21
-102.6
0
CIRCLE
8
BLACK
10
46.5
20
-102
40
0.6
0
LINE
8
BLACK
6
CONTINUOUS
10
67.9
20
-101.4
11
69.1
21
-102.6
0
LINE
8
BLACK
6
CONTINUOUS
10
69.1
20
-101.4
11
67.9
21
-102.6
0
CIRCLE
8
BLACK
10
68.5
20
-102
40
0.6
0
LINE
8
BLACK
6
CONTINUOUS
10
40.35
20
-110.85
11
44.65
21
-115.15
0
LINE
8
BLACK
6
CONTINUOUS
10
44.65
20
-110.85
11
40.35
21
-115.15
0
LINE
8
BLACK
6
CONTINUOUS
10
42.5
20
-110.85
11
42.5
21
-115.15
0
LINE
8
BLACK
6
CONTINUOUS
10
40.35
20
-113
11
44.65
21
-113
0
LINE
8
BLACK
6
CONTINUOUS
10
17.5828
20
-129.14
11
17.5828
21
-127.14
0
LINE
8
BLACK
6
CONTINUOUS
10
17.5828
20
-127.14
11
18.059
21
-127.14
0
LINE
8
BLACK
6
CONTINUOUS
10
18.059
20
-127.14
11
18.3447
21
-127.235
0
LINE
8
BLACK
6
CONTINUOUS
10
18.3447
20
-127.235
11
18.5351
21
-127.426
0
LINE
8
BLACK
6
CONTINUOUS
10
18.5351
20
-127.426
11
18.6304
21
-127.616
0
LINE
8
BLACK
6
CONTINUOUS
10
18.6304
20
-127.616
11
18.7256
21
-127.997
0
LINE
8
BLACK
6
CONTINUOUS
10
18.7256
20
-127.997
11
18.7256
21
-128.283
0
LINE
8
BLACK
6
CONTINUOUS
10
18.7256
20
-128.283
11
18.6304
21
-128.664
0
LINE
8
BLACK
6
CONTINUOUS
10
18.6304
20
-128.664
11
18.5351
21
-128.854
0
LINE
8
BLACK
6
CONTINUOUS
10
18.5351
20
-128.854
11
18.3447
21
-129.045
0
LINE
8
BLACK
6
CONTINUOUS
10
18.3447
20
-129.045
11
18.059
21
-129.14
0
LINE
8
BLACK
6
CONTINUOUS
10
18.059
20
-129.14
11
17.5828
21
-129.14
0
LINE
8
BLACK
6
CONTINUOUS
10
19.5828
20
-129.14
11
19.5828
21
-127.807
0
LINE
8
BLACK
6
CONTINUOUS
10
19.5828
20
-128.187
11
19.678
21
-127.997
0
LINE
8
BLACK
6
CONTINUOUS
10
19.678
20
-127.997
11
19.7732
21
-127.902
0
LINE
8
BLACK
6
CONTINUOUS
10
19.7732
20
-127.902
11
19.9637
21
-127.807
0
LINE
8
BLACK
6
CONTINUOUS
10
19.9637
20
-127.807
11
20.1542
21
-127.807
0
LINE
8
BLACK
6
CONTINUOUS
10
20.8209
20
-129.14
11
20.8209
21
-127.807
0
LINE
8
BLACK
6
CONTINUOUS
10
20.8209
20
-127.14
11
20.7256
21
-127.235
0
LINE
8
BLACK
6
CONTINUOUS
10
20.7256
20
-127.235
11
20.8209
21
-127.33
0
LINE
8
BLACK
6
CONTINUOUS
10
20.8209
20
-127.33
11
20.9161
21
-127.235
0
LINE
8
BLACK
6
CONTINUOUS
10
20.9161
20
-127.235
11
20.8209
21
-127.14
0
LINE
8
BLACK
6
CONTINUOUS
10
20.8209
20
-127.14
11
20.8209
21
-127.33
0
LINE
8
BLACK
6
CONTINUOUS
10
22.059
20
-129.14
11
21.8685
21
-129.045
0
LINE
8
BLACK
6
CONTINUOUS
10
21.8685
20
-129.045
11
21.7732
21
-128.854
0
LINE
8
BLACK
6
CONTINUOUS
10
21.7732
20
-128.854
11
21.7732
21
-127.14
0
LINE
8
BLACK
6
CONTINUOUS
10
23.1066
20
-129.14
11
22.9161
21
-129.045
0
LINE
8
BLACK
6
CONTINUOUS
10
22.9161
20
-129.045
11
22.8209
21
-128.854
0
LINE
8
BLACK
6
CONTINUOUS
10
22.8209
20
-128.854
11
22.8209
21
-127.14
0
LINE
8
BLACK
6
CONTINUOUS
10
25.3923
20
-129.14
11
25.3923
21
-127.14
0
LINE
8
BLACK
6
CONTINUOUS
10
25.3923
20
-127.14
11
26.059
21
-128.568
0
LINE
8
BLACK
6
CONTINUOUS
10
26.059
20
-128.568
11
26.7256
21
-127.14
0
LINE
8
BLACK
6
CONTINUOUS
10
26.7256
20
-127.14
11
26.7256
21
-129.14
0
LINE
8
BLACK
6
CONTINUOUS
10
28.5351
20
-129.14
11
28.5351
21
-128.092
0
LINE
8
BLACK
6
CONTINUOUS
10
28.5351
20
-128.092
11
28.4399
21
-127.902
0
LINE
8
BLACK
6
CONTINUOUS
10
28.4399
20
-127.902
11
28.2494
21
-127.807
0
LINE
8
BLACK
6
CONTINUOUS
10
28.2494
20
-127.807
11
27.8685
21
-127.807
0
LINE
8
BLACK
6
CONTINUOUS
10
27.8685
20
-127.807
11
27.678
21
-127.902
0
LINE
8
BLACK
6
CONTINUOUS
10
28.5351
20
-129.045
11
28.3447
21
-129.14
0
LINE
8
BLACK
6
CONTINUOUS
10
28.3447
20
-129.14
11
27.8685
21
-129.14
0
LINE
8
BLACK
6
CONTINUOUS
10
27.8685
20
-129.14
11
27.678
21
-129.045
0
LINE
8
BLACK
6
CONTINUOUS
10
27.678
20
-129.045
11
27.5828
21
-128.854
0
LINE
8
BLACK
6
CONTINUOUS
10
27.5828
20
-128.854
11
27.5828
21
-128.664
0
LINE
8
BLACK
6
CONTINUOUS
10
27.5828
20
-128.664
11
27.678
21
-128.473
0
LINE
8
BLACK
6
CONTINUOUS
10
27.678
20
-128.473
11
27.8685
21
-128.378
0
LINE
8
BLACK
6
CONTINUOUS
10
27.8685
20
-128.378
11
28.3447
21
-128.378
0
LINE
8
BLACK
6
CONTINUOUS
10
28.3447
20
-128.378
11
28.5351
21
-128.283
0
LINE
8
BLACK
6
CONTINUOUS
10
29.4875
20
-127.807
11
29.4875
21
-129.807
0
LINE
8
BLACK
6
CONTINUOUS
10
29.4875
20
-127.902
11
29.678
21
-127.807
0
LINE
8
BLACK
6
CONTINUOUS
10
29.678
20
-127.807
11
30.059
21
-127.807
0
LINE
8
BLACK
6
CONTINUOUS
10
30.059
20
-127.807
11
30.2494
21
-127.902
0
LINE
8
BLACK
6
CONTINUOUS
10
30.2494
20
-127.902
11
30.3447
21
-127.997
0
LINE
8
BLACK
6
CONTINUOUS
10
30.3447
20
-127.997
11
30.4399
21
-128.187
0
LINE
8
BLACK
6
CONTINUOUS
10
30.4399
20
-128.187
11
30.4399
21
-128.759
0
LINE
8
BLACK
6
CONTINUOUS
10
30.4399
20
-128.759
11
30.3447
21
-128.949
0
LINE
8
BLACK
6
CONTINUOUS
10
30.3447
20
-128.949
11
30.2494
21
-129.045
0
LINE
8
BLACK
6
CONTINUOUS
10
30.2494
20
-129.045
11
30.059
21
-129.14
0
LINE
8
BLACK
6
CONTINUOUS
10
30.059
20
-129.14
11
29.678
21
-129.14
0
LINE
8
BLACK
6
CONTINUOUS
10
29.678
20
-129.14
11
29.4875
21
-129.045
0
LINE
8
BLACK
6
CONTINUOUS
10
31.2971
20
-128.949
11
31.3923
21
-129.045
0
LINE
8
BLACK
6
CONTINUOUS
10
31.3923
20
-129.045
11
31.2971
21
-129.14
0
LINE
8
BLACK
6
CONTINUOUS
10
31.2971
20
-129.14
11
31.2018
21
-129.045
0
LINE
8
BLACK
6
CONTINUOUS
10
31.2018
20
-129.045
11
31.2971
21
-128.949
0
LINE
8
BLACK
6
CONTINUOUS
10
31.2971
20
-128.949
11
31.2971
21
-129.14
0
LINE
8
BLACK
6
CONTINUOUS
10
31.2971
20
-127.902
11
31.3923
21
-127.997
0
LINE
8
BLACK
6
CONTINUOUS
10
31.3923
20
-127.997
11
31.2971
21
-128.092
0
LINE
8
BLACK
6
CONTINUOUS
10
31.2971
20
-128.092
11
31.2018
21
-127.997
0
LINE
8
BLACK
6
CONTINUOUS
10
31.2018
20
-127.997
11
31.2971
21
-127.902
0
LINE
8
BLACK
6
CONTINUOUS
10
31.2971
20
-127.902
11
31.2971
21
-128.092
0
LINE
8
BLACK
6
CONTINUOUS
10
14.575
20
-132.225
11
14.975
21
-132.625
0
LINE
8
BLACK
6
CONTINUOUS
10
14.975
20
-132.225
11
14.575
21
-132.625
0
LINE
8
BLACK
6
CONTINUOUS
10
17.9637
20
-131.34
11
18.1542
21
-131.34
0
LINE
8
BLACK
6
CONTINUOUS
10
18.1542
20
-131.34
11
18.3447
21
-131.435
0
LINE
8
BLACK
6
CONTINUOUS
10
18.3447
20
-131.435
11
18.4399
21
-131.53
0
LINE
8
BLACK
6
CONTINUOUS
10
18.4399
20
-131.53
11
18.5351
21
-131.721
0
LINE
8
BLACK
6
CONTINUOUS
10
18.5351
20
-131.721
11
18.6304
21
-132.102
0
LINE
8
BLACK
6
CONTINUOUS
10
18.6304
20
-132.102
11
18.6304
21
-132.578
0
LINE
8
BLACK
6
CONTINUOUS
10
18.6304
20
-132.578
11
18.5351
21
-132.959
0
LINE
8
BLACK
6
CONTINUOUS
10
18.5351
20
-132.959
11
18.4399
21
-133.149
0
LINE
8
BLACK
6
CONTINUOUS
10
18.4399
20
-133.149
11
18.3447
21
-133.245
0
LINE
8
BLACK
6
CONTINUOUS
10
18.3447
20
-133.245
11
18.1542
21
-133.34
0
LINE
8
BLACK
6
CONTINUOUS
10
18.1542
20
-133.34
11
17.9637
21
-133.34
0
LINE
8
BLACK
6
CONTINUOUS
10
17.9637
20
-133.34
11
17.7732
21
-133.245
0
LINE
8
BLACK
6
CONTINUOUS
10
17.7732
20
-133.245
11
17.678
21
-133.149
0
LINE
8
BLACK
6
CONTINUOUS
10
17.678
20
-133.149
11
17.5828
21
-132.959
0
LINE
8
BLACK
6
CONTINUOUS
10
17.5828
20
-132.959
11
17.4875
21
-132.578
0
LINE
8
BLACK
6
CONTINUOUS
10
17.4875
20
-132.578
11
17.4875
21
-132.102
0
LINE
8
BLACK
6
CONTINUOUS
10
17.4875
20
-132.102
11
17.5828
21
-131.721
0
LINE
8
BLACK
6
CONTINUOUS
10
17.5828
20
-131.721
11
17.678
21
-131.53
0
LINE
8
BLACK
6
CONTINUOUS
10
17.678
20
-131.53
11
17.7732
21
-131.435
0
LINE
8
BLACK
6
CONTINUOUS
10
17.7732
20
-131.435
11
17.9637
21
-131.34
0
LINE
8
BLACK
6
CONTINUOUS
10
19.4875
20
-133.149
11
19.5828
21
-133.245
0
LINE
8
BLACK
6
CONTINUOUS
10
19.5828
20
-133.245
11
19.4875
21
-133.34
0
LINE
8
BLACK
6
CONTINUOUS
10
19.4875
20
-133.34
11
19.3923
21
-133.245
0
LINE
8
BLACK
6
CONTINUOUS
10
19.3923
20
-133.245
11
19.4875
21
-133.149
0
LINE
8
BLACK
6
CONTINUOUS
10
19.4875
20
-133.149
11
19.4875
21
-133.34
0
LINE
8
BLACK
6
CONTINUOUS
10
21.2971
20
-132.007
11
21.2971
21
-133.34
0
LINE
8
BLACK
6
CONTINUOUS
10
20.8209
20
-131.245
11
20.3447
21
-132.673
0
LINE
8
BLACK
6
CONTINUOUS
10
20.3447
20
-132.673
11
21.5828
21
-132.673
0
LINE
8
BLACK
6
CONTINUOUS
10
22.7256
20
-131.34
11
22.9161
21
-131.34
0
LINE
8
BLACK
6
CONTINUOUS
10
22.9161
20
-131.34
11
23.1066
21
-131.435
0
LINE
8
BLACK
6
CONTINUOUS
10
23.1066
20
-131.435
11
23.2018
21
-131.53
0
LINE
8
BLACK
6
CONTINUOUS
10
23.2018
20
-131.53
11
23.2971
21
-131.721
0
LINE
8
BLACK
6
CONTINUOUS
10
23.2971
20
-131.721
11
23.3923
21
-132.102
0
LINE
8
BLACK
6
CONTINUOUS
10
23.3923
20
-132.102
11
23.3923
21
-132.578
0
LINE
8
BLACK
6
CONTINUOUS
10
23.3923
20
-132.578
11
23.2971
21
-132.959
0
LINE
8
BLACK
6
CONTINUOUS
10
23.2971
20
-132.959
11
23.2018
21
-133.149
0
LINE
8
BLACK
6
CONTINUOUS
10
23.2018
20
-133.149
11
23.1066
21
-133.245
0
LINE
8
BLACK
6
CONTINUOUS
10
23.1066
20
-133.245
11
22.9161
21
-133.34
0
LINE
8
BLACK
6
CONTINUOUS
10
22.9161
20
-133.34
11
22.7256
21
-133.34
0
LINE
8
BLACK
6
CONTINUOUS
10
22.7256
20
-133.34
11
22.5351
21
-133.245
0
LINE
8
BLACK
6
CONTINUOUS
10
22.5351
20
-133.245
11
22.4399
21
-133.149
0
LINE
8
BLACK
6
CONTINUOUS
10
22.4399
20
-133.149
11
22.3447
21
-132.959
0
LINE
8
BLACK
6
CONTINUOUS
10
22.3447
20
-132.959
11
22.2494
21
-132.578
0
LINE
8
BLACK
6
CONTINUOUS
10
22.2494
20
-132.578
11
22.2494
21
-132.102
0
LINE
8
BLACK
6
CONTINUOUS
10
22.2494
20
-132.102
11
22.3447
21
-131.721
0
LINE
8
BLACK
6
CONTINUOUS
10
22.3447
20
-131.721
11
22.4399
21
-131.53
0
LINE
8
BLACK
6
CONTINUOUS
10
22.4399
20
-131.53
11
22.5351
21
-131.435
0
LINE
8
BLACK
6
CONTINUOUS
10
22.5351
20
-131.435
11
22.7256
21
-131.34
0
LINE
8
BLACK
6
CONTINUOUS
10
24.6304
20
-131.34
11
24.8209
21
-131.34
0
LINE
8
BLACK
6
CONTINUOUS
10
24.8209
20
-131.34
11
25.0113
21
-131.435
0
LINE
8
BLACK
6
CONTINUOUS
10
25.0113
20
-131.435
11
25.1066
21
-131.53
0
LINE
8
BLACK
6
CONTINUOUS
10
25.1066
20
-131.53
11
25.2018
21
-131.721
0
LINE
8
BLACK
6
CONTINUOUS
10
25.2018
20
-131.721
11
25.2971
21
-132.102
0
LINE
8
BLACK
6
CONTINUOUS
10
25.2971
20
-132.102
11
25.2971
21
-132.578
0
LINE
8
BLACK
6
CONTINUOUS
10
25.2971
20
-132.578
11
25.2018
21
-132.959
0
LINE
8
BLACK
6
CONTINUOUS
10
25.2018
20
-132.959
11
25.1066
21
-133.149
0
LINE
8
BLACK
6
CONTINUOUS
10
25.1066
20
-133.149
11
25.0113
21
-133.245
0
LINE
8
BLACK
6
CONTINUOUS
10
25.0113
20
-133.245
11
24.8209
21
-133.34
0
LINE
8
BLACK
6
CONTINUOUS
10
24.8209
20
-133.34
11
24.6304
21
-133.34
0
LINE
8
BLACK
6
CONTINUOUS
10
24.6304
20
-133.34
11
24.4399
21
-133.245
0
LINE
8
BLACK
6
CONTINUOUS
10
24.4399
20
-133.245
11
24.3447
21
-133.149
0
LINE
8
BLACK
6
CONTINUOUS
10
24.3447
20
-133.149
11
24.2494
21
-132.959
0
LINE
8
BLACK
6
CONTINUOUS
10
24.2494
20
-132.959
11
24.1542
21
-132.578
0
LINE
8
BLACK
6
CONTINUOUS
10
24.1542
20
-132.578
11
24.1542
21
-132.102
0
LINE
8
BLACK
6
CONTINUOUS
10
24.1542
20
-132.102
11
24.2494
21
-131.721
0
LINE
8
BLACK
6
CONTINUOUS
10
24.2494
20
-131.721
11
24.3447
21
-131.53
0
LINE
8
BLACK
6
CONTINUOUS
10
24.3447
20
-131.53
11
24.4399
21
-131.435
0
LINE
8
BLACK
6
CONTINUOUS
10
24.4399
20
-131.435
11
24.6304
21
-131.34
0
LINE
8
BLACK
6
CONTINUOUS
10
26.1542
20
-133.34
11
26.1542
21
-132.007
0
LINE
8
BLACK
6
CONTINUOUS
10
26.1542
20
-132.197
11
26.2494
21
-132.102
0
LINE
8
BLACK
6
CONTINUOUS
10
26.2494
20
-132.102
11
26.4399
21
-132.007
0
LINE
8
BLACK
6
CONTINUOUS
10
26.4399
20
-132.007
11
26.7256
21
-132.007
0
LINE
8
BLACK
6
CONTINUOUS
10
26.7256
20
-132.007
11
26.9161
21
-132.102
0
LINE
8
BLACK
6
CONTINUOUS
10
26.9161
20
-132.102
11
27.0113
21
-132.292
0
LINE
8
BLACK
6
CONTINUOUS
10
27.0113
20
-132.292
11
27.0113
21
-133.34
0
LINE
8
BLACK
6
CONTINUOUS
10
27.0113
20
-132.292
11
27.1066
21
-132.102
0
LINE
8
BLACK
6
CONTINUOUS
10
27.1066
20
-132.102
11
27.2971
21
-132.007
0
LINE
8
BLACK
6
CONTINUOUS
10
27.2971
20
-132.007
11
27.5828
21
-132.007
0
LINE
8
BLACK
6
CONTINUOUS
10
27.5828
20
-132.007
11
27.7732
21
-132.102
0
LINE
8
BLACK
6
CONTINUOUS
10
27.7732
20
-132.102
11
27.8685
21
-132.292
0
LINE
8
BLACK
6
CONTINUOUS
10
27.8685
20
-132.292
11
27.8685
21
-133.34
0
LINE
8
BLACK
6
CONTINUOUS
10
28.8209
20
-133.34
11
28.8209
21
-132.007
0
LINE
8
BLACK
6
CONTINUOUS
10
28.8209
20
-132.197
11
28.9161
21
-132.102
0
LINE
8
BLACK
6
CONTINUOUS
10
28.9161
20
-132.102
11
29.1066
21
-132.007
0
LINE
8
BLACK
6
CONTINUOUS
10
29.1066
20
-132.007
11
29.3923
21
-132.007
0
LINE
8
BLACK
6
CONTINUOUS
10
29.3923
20
-132.007
11
29.5828
21
-132.102
0
LINE
8
BLACK
6
CONTINUOUS
10
29.5828
20
-132.102
11
29.678
21
-132.292
0
LINE
8
BLACK
6
CONTINUOUS
10
29.678
20
-132.292
11
29.678
21
-133.34
0
LINE
8
BLACK
6
CONTINUOUS
10
29.678
20
-132.292
11
29.7732
21
-132.102
0
LINE
8
BLACK
6
CONTINUOUS
10
29.7732
20
-132.102
11
29.9637
21
-132.007
0
LINE
8
BLACK
6
CONTINUOUS
10
29.9637
20
-132.007
11
30.2494
21
-132.007
0
LINE
8
BLACK
6
CONTINUOUS
10
30.2494
20
-132.007
11
30.4399
21
-132.102
0
LINE
8
BLACK
6
CONTINUOUS
10
30.4399
20
-132.102
11
30.5351
21
-132.292
0
LINE
8
BLACK
6
CONTINUOUS
10
30.5351
20
-132.292
11
30.5351
21
-133.34
0
LINE
8
BLACK
6
CONTINUOUS
10
34.4399
20
-131.245
11
32.7256
21
-133.816
0
LINE
8
BLACK
6
CONTINUOUS
10
37.0113
20
-131.34
11
37.2018
21
-131.34
0
LINE
8
BLACK
6
CONTINUOUS
10
37.2018
20
-131.34
11
37.3923
21
-131.435
0
LINE
8
BLACK
6
CONTINUOUS
10
37.3923
20
-131.435
11
37.4875
21
-131.53
0
LINE
8
BLACK
6
CONTINUOUS
10
37.4875
20
-131.53
11
37.5828
21
-131.721
0
LINE
8
BLACK
6
CONTINUOUS
10
37.5828
20
-131.721
11
37.678
21
-132.102
0
LINE
8
BLACK
6
CONTINUOUS
10
37.678
20
-132.102
11
37.678
21
-132.578
0
LINE
8
BLACK
6
CONTINUOUS
10
37.678
20
-132.578
11
37.5828
21
-132.959
0
LINE
8
BLACK
6
CONTINUOUS
10
37.5828
20
-132.959
11
37.4875
21
-133.149
0
LINE
8
BLACK
6
CONTINUOUS
10
37.4875
20
-133.149
11
37.3923
21
-133.245
0
LINE
8
BLACK
6
CONTINUOUS
10
37.3923
20
-133.245
11
37.2018
21
-133.34
0
LINE
8
BLACK
6
CONTINUOUS
10
37.2018
20
-133.34
11
37.0113
21
-133.34
0
LINE
8
BLACK
6
CONTINUOUS
10
37.0113
20
-133.34
11
36.8209
21
-133.245
0
LINE
8
BLACK
6
CONTINUOUS
10
36.8209
20
-133.245
11
36.7256
21
-133.149
0
LINE
8
BLACK
6
CONTINUOUS
10
36.7256
20
-133.149
11
36.6304
21
-132.959
0
LINE
8
BLACK
6
CONTINUOUS
10
36.6304
20
-132.959
11
36.5352
21
-132.578
0
LINE
8
BLACK
6
CONTINUOUS
10
36.5352
20
-132.578
11
36.5352
21
-132.102
0
LINE
8
BLACK
6
CONTINUOUS
10
36.5352
20
-132.102
11
36.6304
21
-131.721
0
LINE
8
BLACK
6
CONTINUOUS
10
36.6304
20
-131.721
11
36.7256
21
-131.53
0
LINE
8
BLACK
6
CONTINUOUS
10
36.7256
20
-131.53
11
36.8209
21
-131.435
0
LINE
8
BLACK
6
CONTINUOUS
10
36.8209
20
-131.435
11
37.0113
21
-131.34
0
LINE
8
BLACK
6
CONTINUOUS
10
38.5352
20
-133.149
11
38.6304
21
-133.245
0
LINE
8
BLACK
6
CONTINUOUS
10
38.6304
20
-133.245
11
38.5352
21
-133.34
0
LINE
8
BLACK
6
CONTINUOUS
10
38.5352
20
-133.34
11
38.4399
21
-133.245
0
LINE
8
BLACK
6
CONTINUOUS
10
38.4399
20
-133.245
11
38.5352
21
-133.149
0
LINE
8
BLACK
6
CONTINUOUS
10
38.5352
20
-133.149
11
38.5352
21
-133.34
0
LINE
8
BLACK
6
CONTINUOUS
10
39.8685
20
-131.34
11
40.059
21
-131.34
0
LINE
8
BLACK
6
CONTINUOUS
10
40.059
20
-131.34
11
40.2494
21
-131.435
0
LINE
8
BLACK
6
CONTINUOUS
10
40.2494
20
-131.435
11
40.3447
21
-131.53
0
LINE
8
BLACK
6
CONTINUOUS
10
40.3447
20
-131.53
11
40.4399
21
-131.721
0
LINE
8
BLACK
6
CONTINUOUS
10
40.4399
20
-131.721
11
40.5352
21
-132.102
0
LINE
8
BLACK
6
CONTINUOUS
10
40.5352
20
-132.102
11
40.5352
21
-132.578
0
LINE
8
BLACK
6
CONTINUOUS
10
40.5352
20
-132.578
11
40.4399
21
-132.959
0
LINE
8
BLACK
6
CONTINUOUS
10
40.4399
20
-132.959
11
40.3447
21
-133.149
0
LINE
8
BLACK
6
CONTINUOUS
10
40.3447
20
-133.149
11
40.2494
21
-133.245
0
LINE
8
BLACK
6
CONTINUOUS
10
40.2494
20
-133.245
11
40.059
21
-133.34
0
LINE
8
BLACK
6
CONTINUOUS
10
40.059
20
-133.34
11
39.8685
21
-133.34
0
LINE
8
BLACK
6
CONTINUOUS
10
39.8685
20
-133.34
11
39.678
21
-133.245
0
LINE
8
BLACK
6
CONTINUOUS
10
39.678
20
-133.245
11
39.5828
21
-133.149
0
LINE
8
BLACK
6
CONTINUOUS
10
39.5828
20
-133.149
11
39.4875
21
-132.959
0
LINE
8
BLACK
6
CONTINUOUS
10
39.4875
20
-132.959
11
39.3923
21
-132.578
0
LINE
8
BLACK
6
CONTINUOUS
10
39.3923
20
-132.578
11
39.3923
21
-132.102
0
LINE
8
BLACK
6
CONTINUOUS
10
39.3923
20
-132.102
11
39.4875
21
-131.721
0
LINE
8
BLACK
6
CONTINUOUS
10
39.4875
20
-131.721
11
39.5828
21
-131.53
0
LINE
8
BLACK
6
CONTINUOUS
10
39.5828
20
-131.53
11
39.678
21
-131.435
0
LINE
8
BLACK
6
CONTINUOUS
10
39.678
20
-131.435
11
39.8685
21
-131.34
0
LINE
8
BLACK
6
CONTINUOUS
10
42.4399
20
-133.34
11
41.2971
21
-133.34
0
LINE
8
BLACK
6
CONTINUOUS
10
41.8685
20
-133.34
11
41.8685
21
-131.34
0
LINE
8
BLACK
6
CONTINUOUS
10
41.8685
20
-131.34
11
41.678
21
-131.626
0
LINE
8
BLACK
6
CONTINUOUS
10
41.678
20
-131.626
11
41.4875
21
-131.816
0
LINE
8
BLACK
6
CONTINUOUS
10
41.4875
20
-131.816
11
41.2971
21
-131.911
0
LINE
8
BLACK
6
CONTINUOUS
10
44.2494
20
-131.34
11
43.2971
21
-131.34
0
LINE
8
BLACK
6
CONTINUOUS
10
43.2971
20
-131.34
11
43.2018
21
-132.292
0
LINE
8
BLACK
6
CONTINUOUS
10
43.2018
20
-132.292
11
43.2971
21
-132.197
0
LINE
8
BLACK
6
CONTINUOUS
10
43.2971
20
-132.197
11
43.4875
21
-132.102
0
LINE
8
BLACK
6
CONTINUOUS
10
43.4875
20
-132.102
11
43.9637
21
-132.102
0
LINE
8
BLACK
6
CONTINUOUS
10
43.9637
20
-132.102
11
44.1542
21
-132.197
0
LINE
8
BLACK
6
CONTINUOUS
10
44.1542
20
-132.197
11
44.2494
21
-132.292
0
LINE
8
BLACK
6
CONTINUOUS
10
44.2494
20
-132.292
11
44.3447
21
-132.483
0
LINE
8
BLACK
6
CONTINUOUS
10
44.3447
20
-132.483
11
44.3447
21
-132.959
0
LINE
8
BLACK
6
CONTINUOUS
10
44.3447
20
-132.959
11
44.2494
21
-133.149
0
LINE
8
BLACK
6
CONTINUOUS
10
44.2494
20
-133.149
11
44.1542
21
-133.245
0
LINE
8
BLACK
6
CONTINUOUS
10
44.1542
20
-133.245
11
43.9637
21
-133.34
0
LINE
8
BLACK
6
CONTINUOUS
10
43.9637
20
-133.34
11
43.4875
21
-133.34
0
LINE
8
BLACK
6
CONTINUOUS
10
43.4875
20
-133.34
11
43.2971
21
-133.245
0
LINE
8
BLACK
6
CONTINUOUS
10
43.2971
20
-133.245
11
43.2018
21
-133.149
0
LINE
8
BLACK
6
CONTINUOUS
10
45.0113
20
-131.34
11
46.3447
21
-131.34
0
LINE
8
BLACK
6
CONTINUOUS
10
46.3447
20
-131.34
11
45.4875
21
-133.34
0
LINE
8
BLACK
6
CONTINUOUS
10
47.0113
20
-131.34
11
47.0113
21
-131.721
0
LINE
8
BLACK
6
CONTINUOUS
10
47.7732
20
-131.34
11
47.7732
21
-131.721
0
LINE
8
BLACK
6
CONTINUOUS
10
50.7256
20
-134.102
11
50.6304
21
-134.007
0
LINE
8
BLACK
6
CONTINUOUS
10
50.6304
20
-134.007
11
50.4399
21
-133.721
0
LINE
8
BLACK
6
CONTINUOUS
10
50.4399
20
-133.721
11
50.3447
21
-133.53
0
LINE
8
BLACK
6
CONTINUOUS
10
50.3447
20
-133.53
11
50.2494
21
-133.245
0
LINE
8
BLACK
6
CONTINUOUS
10
50.2494
20
-133.245
11
50.1542
21
-132.768
0
LINE
8
BLACK
6
CONTINUOUS
10
50.1542
20
-132.768
11
50.1542
21
-132.387
0
LINE
8
BLACK
6
CONTINUOUS
10
50.1542
20
-132.387
11
50.2494
21
-131.911
0
LINE
8
BLACK
6
CONTINUOUS
10
50.2494
20
-131.911
11
50.3447
21
-131.626
0
LINE
8
BLACK
6
CONTINUOUS
10
50.3447
20
-131.626
11
50.4399
21
-131.435
0
LINE
8
BLACK
6
CONTINUOUS
10
50.4399
20
-131.435
11
50.6304
21
-131.149
0
LINE
8
BLACK
6
CONTINUOUS
10
50.6304
20
-131.149
11
50.7256
21
-131.054
0
LINE
8
BLACK
6
CONTINUOUS
10
51.3923
20
-131.53
11
51.4875
21
-131.435
0
LINE
8
BLACK
6
CONTINUOUS
10
51.4875
20
-131.435
11
51.678
21
-131.34
0
LINE
8
BLACK
6
CONTINUOUS
10
51.678
20
-131.34
11
52.1542
21
-131.34
0
LINE
8
BLACK
6
CONTINUOUS
10
52.1542
20
-131.34
11
52.3447
21
-131.435
0
LINE
8
BLACK
6
CONTINUOUS
10
52.3447
20
-131.435
11
52.4399
21
-131.53
0
LINE
8
BLACK
6
CONTINUOUS
10
52.4399
20
-131.53
11
52.5352
21
-131.721
0
LINE
8
BLACK
6
CONTINUOUS
10
52.5352
20
-131.721
11
52.5352
21
-131.911
0
LINE
8
BLACK
6
CONTINUOUS
10
52.5352
20
-131.911
11
52.4399
21
-132.197
0
LINE
8
BLACK
6
CONTINUOUS
10
52.4399
20
-132.197
11
51.2971
21
-133.34
0
LINE
8
BLACK
6
CONTINUOUS
10
51.2971
20
-133.34
11
52.5352
21
-133.34
0
LINE
8
BLACK
6
CONTINUOUS
10
53.678
20
-132.197
11
53.4875
21
-132.102
0
LINE
8
BLACK
6
CONTINUOUS
10
53.4875
20
-132.102
11
53.3923
21
-132.007
0
LINE
8
BLACK
6
CONTINUOUS
10
53.3923
20
-132.007
11
53.2971
21
-131.816
0
LINE
8
BLACK
6
CONTINUOUS
10
53.2971
20
-131.816
11
53.2971
21
-131.721
0
LINE
8
BLACK
6
CONTINUOUS
10
53.2971
20
-131.721
11
53.3923
21
-131.53
0
LINE
8
BLACK
6
CONTINUOUS
10
53.3923
20
-131.53
11
53.4875
21
-131.435
0
LINE
8
BLACK
6
CONTINUOUS
10
53.4875
20
-131.435
11
53.678
21
-131.34
0
LINE
8
BLACK
6
CONTINUOUS
10
53.678
20
-131.34
11
54.059
21
-131.34
0
LINE
8
BLACK
6
CONTINUOUS
10
54.059
20
-131.34
11
54.2494
21
-131.435
0
LINE
8
BLACK
6
CONTINUOUS
10
54.2494
20
-131.435
11
54.3447
21
-131.53
0
LINE
8
BLACK
6
CONTINUOUS
10
54.3447
20
-131.53
11
54.4399
21
-131.721
0
LINE
8
BLACK
6
CONTINUOUS
10
54.4399
20
-131.721
11
54.4399
21
-131.816
0
LINE
8
BLACK
6
CONTINUOUS
10
54.4399
20
-131.816
11
54.3447
21
-132.007
0
LINE
8
BLACK
6
CONTINUOUS
10
54.3447
20
-132.007
11
54.2494
21
-132.102
0
LINE
8
BLACK
6
CONTINUOUS
10
54.2494
20
-132.102
11
54.059
21
-132.197
0
LINE
8
BLACK
6
CONTINUOUS
10
54.059
20
-132.197
11
53.678
21
-132.197
0
LINE
8
BLACK
6
CONTINUOUS
10
53.678
20
-132.197
11
53.4875
21
-132.292
0
LINE
8
BLACK
6
CONTINUOUS
10
53.4875
20
-132.292
11
53.3923
21
-132.387
0
LINE
8
BLACK
6
CONTINUOUS
10
53.3923
20
-132.387
11
53.2971
21
-132.578
0
LINE
8
BLACK
6
CONTINUOUS
10
53.2971
20
-132.578
11
53.2971
21
-132.959
0
LINE
8
BLACK
6
CONTINUOUS
10
53.2971
20
-132.959
11
53.3923
21
-133.149
0
LINE
8
BLACK
6
CONTINUOUS
10
53.3923
20
-133.149
11
53.4875
21
-133.245
0
LINE
8
BLACK
6
CONTINUOUS
10
53.4875
20
-133.245
11
53.678
21
-133.34
0
LINE
8
BLACK
6
CONTINUOUS
10
53.678
20
-133.34
11
54.059
21
-133.34
0
LINE
8
BLACK
6
CONTINUOUS
10
54.059
20
-133.34
11
54.2494
21
-133.245
0
LINE
8
BLACK
6
CONTINUOUS
10
54.2494
20
-133.245
11
54.3447
21
-133.149
0
LINE
8
BLACK
6
CONTINUOUS
10
54.3447
20
-133.149
11
54.4399
21
-132.959
0
LINE
8
BLACK
6
CONTINUOUS
10
54.4399
20
-132.959
11
54.4399
21
-132.578
0
LINE
8
BLACK
6
CONTINUOUS
10
54.4399
20
-132.578
11
54.3447
21
-132.387
0
LINE
8
BLACK
6
CONTINUOUS
10
54.3447
20
-132.387
11
54.2494
21
-132.292
0
LINE
8
BLACK
6
CONTINUOUS
10
54.2494
20
-132.292
11
54.059
21
-132.197
0
LINE
8
BLACK
6
CONTINUOUS
10
56.8209
20
-133.34
11
56.8209
21
-131.34
0
LINE
8
BLACK
6
CONTINUOUS
10
57.678
20
-133.34
11
57.678
21
-132.292
0
LINE
8
BLACK
6
CONTINUOUS
10
57.678
20
-132.292
11
57.5828
21
-132.102
0
LINE
8
BLACK
6
CONTINUOUS
10
57.5828
20
-132.102
11
57.3923
21
-132.007
0
LINE
8
BLACK
6
CONTINUOUS
10
57.3923
20
-132.007
11
57.1066
21
-132.007
0
LINE
8
BLACK
6
CONTINUOUS
10
57.1066
20
-132.007
11
56.9161
21
-132.102
0
LINE
8
BLACK
6
CONTINUOUS
10
56.9161
20
-132.102
11
56.8209
21
-132.197
0
LINE
8
BLACK
6
CONTINUOUS
10
58.9161
20
-133.34
11
58.7256
21
-133.245
0
LINE
8
BLACK
6
CONTINUOUS
10
58.7256
20
-133.245
11
58.6304
21
-133.149
0
LINE
8
BLACK
6
CONTINUOUS
10
58.6304
20
-133.149
11
58.5352
21
-132.959
0
LINE
8
BLACK
6
CONTINUOUS
10
58.5352
20
-132.959
11
58.5352
21
-132.387
0
LINE
8
BLACK
6
CONTINUOUS
10
58.5352
20
-132.387
11
58.6304
21
-132.197
0
LINE
8
BLACK
6
CONTINUOUS
10
58.6304
20
-132.197
11
58.7256
21
-132.102
0
LINE
8
BLACK
6
CONTINUOUS
10
58.7256
20
-132.102
11
58.9161
21
-132.007
0
LINE
8
BLACK
6
CONTINUOUS
10
58.9161
20
-132.007
11
59.2018
21
-132.007
0
LINE
8
BLACK
6
CONTINUOUS
10
59.2018
20
-132.007
11
59.3923
21
-132.102
0
LINE
8
BLACK
6
CONTINUOUS
10
59.3923
20
-132.102
11
59.4875
21
-132.197
0
LINE
8
BLACK
6
CONTINUOUS
10
59.4875
20
-132.197
11
59.5828
21
-132.387
0
LINE
8
BLACK
6
CONTINUOUS
10
59.5828
20
-132.387
11
59.5828
21
-132.959
0
LINE
8
BLACK
6
CONTINUOUS
10
59.5828
20
-132.959
11
59.4875
21
-133.149
0
LINE
8
BLACK
6
CONTINUOUS
10
59.4875
20
-133.149
11
59.3923
21
-133.245
0
LINE
8
BLACK
6
CONTINUOUS
10
59.3923
20
-133.245
11
59.2018
21
-133.34
0
LINE
8
BLACK
6
CONTINUOUS
10
59.2018
20
-133.34
11
58.9161
21
-133.34
0
LINE
8
BLACK
6
CONTINUOUS
10
60.7256
20
-133.34
11
60.5352
21
-133.245
0
LINE
8
BLACK
6
CONTINUOUS
10
60.5352
20
-133.245
11
60.4399
21
-133.054
0
LINE
8
BLACK
6
CONTINUOUS
10
60.4399
20
-133.054
11
60.4399
21
-131.34
0
LINE
8
BLACK
6
CONTINUOUS
10
62.2494
20
-133.245
11
62.059
21
-133.34
0
LINE
8
BLACK
6
CONTINUOUS
10
62.059
20
-133.34
11
61.678
21
-133.34
0
LINE
8
BLACK
6
CONTINUOUS
10
61.678
20
-133.34
11
61.4875
21
-133.245
0
LINE
8
BLACK
6
CONTINUOUS
10
61.4875
20
-133.245
11
61.3923
21
-133.054
0
LINE
8
BLACK
6
CONTINUOUS
10
61.3923
20
-133.054
11
61.3923
21
-132.292
0
LINE
8
BLACK
6
CONTINUOUS
10
61.3923
20
-132.292
11
61.4875
21
-132.102
0
LINE
8
BLACK
6
CONTINUOUS
10
61.4875
20
-132.102
11
61.678
21
-132.007
0
LINE
8
BLACK
6
CONTINUOUS
10
61.678
20
-132.007
11
62.059
21
-132.007
0
LINE
8
BLACK
6
CONTINUOUS
10
62.059
20
-132.007
11
62.2494
21
-132.102
0
LINE
8
BLACK
6
CONTINUOUS
10
62.2494
20
-132.102
11
62.3447
21
-132.292
0
LINE
8
BLACK
6
CONTINUOUS
10
62.3447
20
-132.292
11
62.3447
21
-132.483
0
LINE
8
BLACK
6
CONTINUOUS
10
62.3447
20
-132.483
11
61.3923
21
-132.673
0
LINE
8
BLACK
6
CONTINUOUS
10
63.1066
20
-133.245
11
63.2971
21
-133.34
0
LINE
8
BLACK
6
CONTINUOUS
10
63.2971
20
-133.34
11
63.678
21
-133.34
0
LINE
8
BLACK
6
CONTINUOUS
10
63.678
20
-133.34
11
63.8685
21
-133.245
0
LINE
8
BLACK
6
CONTINUOUS
10
63.8685
20
-133.245
11
63.9637
21
-133.054
0
LINE
8
BLACK
6
CONTINUOUS
10
63.9637
20
-133.054
11
63.9637
21
-132.959
0
LINE
8
BLACK
6
CONTINUOUS
10
63.9637
20
-132.959
11
63.8685
21
-132.768
0
LINE
8
BLACK
6
CONTINUOUS
10
63.8685
20
-132.768
11
63.678
21
-132.673
0
LINE
8
BLACK
6
CONTINUOUS
10
63.678
20
-132.673
11
63.3923
21
-132.673
0
LINE
8
BLACK
6
CONTINUOUS
10
63.3923
20
-132.673
11
63.2018
21
-132.578
0
LINE
8
BLACK
6
CONTINUOUS
10
63.2018
20
-132.578
11
63.1066
21
-132.387
0
LINE
8
BLACK
6
CONTINUOUS
10
63.1066
20
-132.387
11
63.1066
21
-132.292
0
LINE
8
BLACK
6
CONTINUOUS
10
63.1066
20
-132.292
11
63.2018
21
-132.102
0
LINE
8
BLACK
6
CONTINUOUS
10
63.2018
20
-132.102
11
63.3923
21
-132.007
0
LINE
8
BLACK
6
CONTINUOUS
10
63.3923
20
-132.007
11
63.678
21
-132.007
0
LINE
8
BLACK
6
CONTINUOUS
10
63.678
20
-132.007
11
63.8685
21
-132.102
0
LINE
8
BLACK
6
CONTINUOUS
10
64.6304
20
-134.102
11
64.7256
21
-134.007
0
LINE
8
BLACK
6
CONTINUOUS
10
64.7256
20
-134.007
11
64.9161
21
-133.721
0
LINE
8
BLACK
6
CONTINUOUS
10
64.9161
20
-133.721
11
65.0113
21
-133.53
0
LINE
8
BLACK
6
CONTINUOUS
10
65.0113
20
-133.53
11
65.1066
21
-133.245
0
LINE
8
BLACK
6
CONTINUOUS
10
65.1066
20
-133.245
11
65.2018
21
-132.768
0
LINE
8
BLACK
6
CONTINUOUS
10
65.2018
20
-132.768
11
65.2018
21
-132.387
0
LINE
8
BLACK
6
CONTINUOUS
10
65.2018
20
-132.387
11
65.1066
21
-131.911
0
LINE
8
BLACK
6
CONTINUOUS
10
65.1066
20
-131.911
11
65.0113
21
-131.626
0
LINE
8
BLACK
6
CONTINUOUS
10
65.0113
20
-131.626
11
64.9161
21
-131.435
0
LINE
8
BLACK
6
CONTINUOUS
10
64.9161
20
-131.435
11
64.7256
21
-131.149
0
LINE
8
BLACK
6
CONTINUOUS
10
64.7256
20
-131.149
11
64.6304
21
-131.054
0
CIRCLE
8
BLACK
10
14.675
20
-135.065
40
0.3
0
LINE
8
BLACK
6
CONTINUOUS
10
17.9637
20
-133.98
11
18.1542
21
-133.98
0
LINE
8
BLACK
6
CONTINUOUS
10
18.1542
20
-133.98
11
18.3447
21
-134.075
0
LINE
8
BLACK
6
CONTINUOUS
10
18.3447
20
-134.075
11
18.4399
21
-134.17
0
LINE
8
BLACK
6
CONTINUOUS
10
18.4399
20
-134.17
11
18.5351
21
-134.361
0
LINE
8
BLACK
6
CONTINUOUS
10
18.5351
20
-134.361
11
18.6304
21
-134.742
0
LINE
8
BLACK
6
CONTINUOUS
10
18.6304
20
-134.742
11
18.6304
21
-135.218
0
LINE
8
BLACK
6
CONTINUOUS
10
18.6304
20
-135.218
11
18.5351
21
-135.599
0
LINE
8
BLACK
6
CONTINUOUS
10
18.5351
20
-135.599
11
18.4399
21
-135.789
0
LINE
8
BLACK
6
CONTINUOUS
10
18.4399
20
-135.789
11
18.3447
21
-135.885
0
LINE
8
BLACK
6
CONTINUOUS
10
18.3447
20
-135.885
11
18.1542
21
-135.98
0
LINE
8
BLACK
6
CONTINUOUS
10
18.1542
20
-135.98
11
17.9637
21
-135.98
0
LINE
8
BLACK
6
CONTINUOUS
10
17.9637
20
-135.98
11
17.7732
21
-135.885
0
LINE
8
BLACK
6
CONTINUOUS
10
17.7732
20
-135.885
11
17.678
21
-135.789
0
LINE
8
BLACK
6
CONTINUOUS
10
17.678
20
-135.789
11
17.5828
21
-135.599
0
LINE
8
BLACK
6
CONTINUOUS
10
17.5828
20
-135.599
11
17.4875
21
-135.218
0
LINE
8
BLACK
6
CONTINUOUS
10
17.4875
20
-135.218
11
17.4875
21
-134.742
0
LINE
8
BLACK
6
CONTINUOUS
10
17.4875
20
-134.742
11
17.5828
21
-134.361
0
LINE
8
BLACK
6
CONTINUOUS
10
17.5828
20
-134.361
11
17.678
21
-134.17
0
LINE
8
BLACK
6
CONTINUOUS
10
17.678
20
-134.17
11
17.7732
21
-134.075
0
LINE
8
BLACK
6
CONTINUOUS
10
17.7732
20
-134.075
11
17.9637
21
-133.98
0
LINE
8
BLACK
6
CONTINUOUS
10
19.4875
20
-135.789
11
19.5828
21
-135.885
0
LINE
8
BLACK
6
CONTINUOUS
10
19.5828
20
-135.885
11
19.4875
21
-135.98
0
LINE
8
BLACK
6
CONTINUOUS
10
19.4875
20
-135.98
11
19.3923
21
-135.885
0
LINE
8
BLACK
6
CONTINUOUS
10
19.3923
20
-135.885
11
19.4875
21
-135.789
0
LINE
8
BLACK
6
CONTINUOUS
10
19.4875
20
-135.789
11
19.4875
21
-135.98
0
LINE
8
BLACK
6
CONTINUOUS
10
21.2971
20
-133.98
11
20.9161
21
-133.98
0
LINE
8
BLACK
6
CONTINUOUS
10
20.9161
20
-133.98
11
20.7256
21
-134.075
0
LINE
8
BLACK
6
CONTINUOUS
10
20.7256
20
-134.075
11
20.6304
21
-134.17
0
LINE
8
BLACK
6
CONTINUOUS
10
20.6304
20
-134.17
11
20.4399
21
-134.456
0
LINE
8
BLACK
6
CONTINUOUS
10
20.4399
20
-134.456
11
20.3447
21
-134.837
0
LINE
8
BLACK
6
CONTINUOUS
10
20.3447
20
-134.837
11
20.3447
21
-135.599
0
LINE
8
BLACK
6
CONTINUOUS
10
20.3447
20
-135.599
11
20.4399
21
-135.789
0
LINE
8
BLACK
6
CONTINUOUS
10
20.4399
20
-135.789
11
20.5351
21
-135.885
0
LINE
8
BLACK
6
CONTINUOUS
10
20.5351
20
-135.885
11
20.7256
21
-135.98
0
LINE
8
BLACK
6
CONTINUOUS
10
20.7256
20
-135.98
11
21.1066
21
-135.98
0
LINE
8
BLACK
6
CONTINUOUS
10
21.1066
20
-135.98
11
21.2971
21
-135.885
0
LINE
8
BLACK
6
CONTINUOUS
10
21.2971
20
-135.885
11
21.3923
21
-135.789
0
LINE
8
BLACK
6
CONTINUOUS
10
21.3923
20
-135.789
11
21.4875
21
-135.599
0
LINE
8
BLACK
6
CONTINUOUS
10
21.4875
20
-135.599
11
21.4875
21
-135.123
0
LINE
8
BLACK
6
CONTINUOUS
10
21.4875
20
-135.123
11
21.3923
21
-134.932
0
LINE
8
BLACK
6
CONTINUOUS
10
21.3923
20
-134.932
11
21.2971
21
-134.837
0
LINE
8
BLACK
6
CONTINUOUS
10
21.2971
20
-134.837
11
21.1066
21
-134.742
0
LINE
8
BLACK
6
CONTINUOUS
10
21.1066
20
-134.742
11
20.7256
21
-134.742
0
LINE
8
BLACK
6
CONTINUOUS
10
20.7256
20
-134.742
11
20.5351
21
-134.837
0
LINE
8
BLACK
6
CONTINUOUS
10
20.5351
20
-134.837
11
20.4399
21
-134.932
0
LINE
8
BLACK
6
CONTINUOUS
10
20.4399
20
-134.932
11
20.3447
21
-135.123
0
LINE
8
BLACK
6
CONTINUOUS
10
22.7256
20
-133.98
11
22.9161
21
-133.98
0
LINE
8
BLACK
6
CONTINUOUS
10
22.9161
20
-133.98
11
23.1066
21
-134.075
0
LINE
8
BLACK
6
CONTINUOUS
10
23.1066
20
-134.075
11
23.2018
21
-134.17
0
LINE
8
BLACK
6
CONTINUOUS
10
23.2018
20
-134.17
11
23.2971
21
-134.361
0
LINE
8
BLACK
6
CONTINUOUS
10
23.2971
20
-134.361
11
23.3923
21
-134.742
0
LINE
8
BLACK
6
CONTINUOUS
10
23.3923
20
-134.742
11
23.3923
21
-135.218
0
LINE
8
BLACK
6
CONTINUOUS
10
23.3923
20
-135.218
11
23.2971
21
-135.599
0
LINE
8
BLACK
6
CONTINUOUS
10
23.2971
20
-135.599
11
23.2018
21
-135.789
0
LINE
8
BLACK
6
CONTINUOUS
10
23.2018
20
-135.789
11
23.1066
21
-135.885
0
LINE
8
BLACK
6
CONTINUOUS
10
23.1066
20
-135.885
11
22.9161
21
-135.98
0
LINE
8
BLACK
6
CONTINUOUS
10
22.9161
20
-135.98
11
22.7256
21
-135.98
0
LINE
8
BLACK
6
CONTINUOUS
10
22.7256
20
-135.98
11
22.5351
21
-135.885
0
LINE
8
BLACK
6
CONTINUOUS
10
22.5351
20
-135.885
11
22.4399
21
-135.789
0
LINE
8
BLACK
6
CONTINUOUS
10
22.4399
20
-135.789
11
22.3447
21
-135.599
0
LINE
8
BLACK
6
CONTINUOUS
10
22.3447
20
-135.599
11
22.2494
21
-135.218
0
LINE
8
BLACK
6
CONTINUOUS
10
22.2494
20
-135.218
11
22.2494
21
-134.742
0
LINE
8
BLACK
6
CONTINUOUS
10
22.2494
20
-134.742
11
22.3447
21
-134.361
0
LINE
8
BLACK
6
CONTINUOUS
10
22.3447
20
-134.361
11
22.4399
21
-134.17
0
LINE
8
BLACK
6
CONTINUOUS
10
22.4399
20
-134.17
11
22.5351
21
-134.075
0
LINE
8
BLACK
6
CONTINUOUS
10
22.5351
20
-134.075
11
22.7256
21
-133.98
0
LINE
8
BLACK
6
CONTINUOUS
10
24.6304
20
-133.98
11
24.8209
21
-133.98
0
LINE
8
BLACK
6
CONTINUOUS
10
24.8209
20
-133.98
11
25.0113
21
-134.075
0
LINE
8
BLACK
6
CONTINUOUS
10
25.0113
20
-134.075
11
25.1066
21
-134.17
0
LINE
8
BLACK
6
CONTINUOUS
10
25.1066
20
-134.17
11
25.2018
21
-134.361
0
LINE
8
BLACK
6
CONTINUOUS
10
25.2018
20
-134.361
11
25.2971
21
-134.742
0
LINE
8
BLACK
6
CONTINUOUS
10
25.2971
20
-134.742
11
25.2971
21
-135.218
0
LINE
8
BLACK
6
CONTINUOUS
10
25.2971
20
-135.218
11
25.2018
21
-135.599
0
LINE
8
BLACK
6
CONTINUOUS
10
25.2018
20
-135.599
11
25.1066
21
-135.789
0
LINE
8
BLACK
6
CONTINUOUS
10
25.1066
20
-135.789
11
25.0113
21
-135.885
0
LINE
8
BLACK
6
CONTINUOUS
10
25.0113
20
-135.885
11
24.8209
21
-135.98
0
LINE
8
BLACK
6
CONTINUOUS
10
24.8209
20
-135.98
11
24.6304
21
-135.98
0
LINE
8
BLACK
6
CONTINUOUS
10
24.6304
20
-135.98
11
24.4399
21
-135.885
0
LINE
8
BLACK
6
CONTINUOUS
10
24.4399
20
-135.885
11
24.3447
21
-135.789
0
LINE
8
BLACK
6
CONTINUOUS
10
24.3447
20
-135.789
11
24.2494
21
-135.599
0
LINE
8
BLACK
6
CONTINUOUS
10
24.2494
20
-135.599
11
24.1542
21
-135.218
0
LINE
8
BLACK
6
CONTINUOUS
10
24.1542
20
-135.218
11
24.1542
21
-134.742
0
LINE
8
BLACK
6
CONTINUOUS
10
24.1542
20
-134.742
11
24.2494
21
-134.361
0
LINE
8
BLACK
6
CONTINUOUS
10
24.2494
20
-134.361
11
24.3447
21
-134.17
0
LINE
8
BLACK
6
CONTINUOUS
10
24.3447
20
-134.17
11
24.4399
21
-134.075
0
LINE
8
BLACK
6
CONTINUOUS
10
24.4399
20
-134.075
11
24.6304
21
-133.98
0
LINE
8
BLACK
6
CONTINUOUS
10
26.1542
20
-135.98
11
26.1542
21
-134.647
0
LINE
8
BLACK
6
CONTINUOUS
10
26.1542
20
-134.837
11
26.2494
21
-134.742
0
LINE
8
BLACK
6
CONTINUOUS
10
26.2494
20
-134.742
11
26.4399
21
-134.647
0
LINE
8
BLACK
6
CONTINUOUS
10
26.4399
20
-134.647
11
26.7256
21
-134.647
0
LINE
8
BLACK
6
CONTINUOUS
10
26.7256
20
-134.647
11
26.9161
21
-134.742
0
LINE
8
BLACK
6
CONTINUOUS
10
26.9161
20
-134.742
11
27.0113
21
-134.932
0
LINE
8
BLACK
6
CONTINUOUS
10
27.0113
20
-134.932
11
27.0113
21
-135.98
0
LINE
8
BLACK
6
CONTINUOUS
10
27.0113
20
-134.932
11
27.1066
21
-134.742
0
LINE
8
BLACK
6
CONTINUOUS
10
27.1066
20
-134.742
11
27.2971
21
-134.647
0
LINE
8
BLACK
6
CONTINUOUS
10
27.2971
20
-134.647
11
27.5828
21
-134.647
0
LINE
8
BLACK
6
CONTINUOUS
10
27.5828
20
-134.647
11
27.7732
21
-134.742
0
LINE
8
BLACK
6
CONTINUOUS
10
27.7732
20
-134.742
11
27.8685
21
-134.932
0
LINE
8
BLACK
6
CONTINUOUS
10
27.8685
20
-134.932
11
27.8685
21
-135.98
0
LINE
8
BLACK
6
CONTINUOUS
10
28.8209
20
-135.98
11
28.8209
21
-134.647
0
LINE
8
BLACK
6
CONTINUOUS
10
28.8209
20
-134.837
11
28.9161
21
-134.742
0
LINE
8
BLACK
6
CONTINUOUS
10
28.9161
20
-134.742
11
29.1066
21
-134.647
0
LINE
8
BLACK
6
CONTINUOUS
10
29.1066
20
-134.647
11
29.3923
21
-134.647
0
LINE
8
BLACK
6
CONTINUOUS
10
29.3923
20
-134.647
11
29.5828
21
-134.742
0
LINE
8
BLACK
6
CONTINUOUS
10
29.5828
20
-134.742
11
29.678
21
-134.932
0
LINE
8
BLACK
6
CONTINUOUS
10
29.678
20
-134.932
11
29.678
21
-135.98
0
LINE
8
BLACK
6
CONTINUOUS
10
29.678
20
-134.932
11
29.7732
21
-134.742
0
LINE
8
BLACK
6
CONTINUOUS
10
29.7732
20
-134.742
11
29.9637
21
-134.647
0
LINE
8
BLACK
6
CONTINUOUS
10
29.9637
20
-134.647
11
30.2494
21
-134.647
0
LINE
8
BLACK
6
CONTINUOUS
10
30.2494
20
-134.647
11
30.4399
21
-134.742
0
LINE
8
BLACK
6
CONTINUOUS
10
30.4399
20
-134.742
11
30.5351
21
-134.932
0
LINE
8
BLACK
6
CONTINUOUS
10
30.5351
20
-134.932
11
30.5351
21
-135.98
0
LINE
8
BLACK
6
CONTINUOUS
10
34.4399
20
-133.885
11
32.7256
21
-136.456
0
LINE
8
BLACK
6
CONTINUOUS
10
37.0113
20
-133.98
11
37.2018
21
-133.98
0
LINE
8
BLACK
6
CONTINUOUS
10
37.2018
20
-133.98
11
37.3923
21
-134.075
0
LINE
8
BLACK
6
CONTINUOUS
10
37.3923
20
-134.075
11
37.4875
21
-134.17
0
LINE
8
BLACK
6
CONTINUOUS
10
37.4875
20
-134.17
11
37.5828
21
-134.361
0
LINE
8
BLACK
6
CONTINUOUS
10
37.5828
20
-134.361
11
37.678
21
-134.742
0
LINE
8
BLACK
6
CONTINUOUS
10
37.678
20
-134.742
11
37.678
21
-135.218
0
LINE
8
BLACK
6
CONTINUOUS
10
37.678
20
-135.218
11
37.5828
21
-135.599
0
LINE
8
BLACK
6
CONTINUOUS
10
37.5828
20
-135.599
11
37.4875
21
-135.789
0
LINE
8
BLACK
6
CONTINUOUS
10
37.4875
20
-135.789
11
37.3923
21
-135.885
0
LINE
8
BLACK
6
CONTINUOUS
10
37.3923
20
-135.885
11
37.2018
21
-135.98
0
LINE
8
BLACK
6
CONTINUOUS
10
37.2018
20
-135.98
11
37.0113
21
-135.98
0
LINE
8
BLACK
6
CONTINUOUS
10
37.0113
20
-135.98
11
36.8209
21
-135.885
0
LINE
8
BLACK
6
CONTINUOUS
10
36.8209
20
-135.885
11
36.7256
21
-135.789
0
LINE
8
BLACK
6
CONTINUOUS
10
36.7256
20
-135.789
11
36.6304
21
-135.599
0
LINE
8
BLACK
6
CONTINUOUS
10
36.6304
20
-135.599
11
36.5352
21
-135.218
0
LINE
8
BLACK
6
CONTINUOUS
10
36.5352
20
-135.218
11
36.5352
21
-134.742
0
LINE
8
BLACK
6
CONTINUOUS
10
36.5352
20
-134.742
11
36.6304
21
-134.361
0
LINE
8
BLACK
6
CONTINUOUS
10
36.6304
20
-134.361
11
36.7256
21
-134.17
0
LINE
8
BLACK
6
CONTINUOUS
10
36.7256
20
-134.17
11
36.8209
21
-134.075
0
LINE
8
BLACK
6
CONTINUOUS
10
36.8209
20
-134.075
11
37.0113
21
-133.98
0
LINE
8
BLACK
6
CONTINUOUS
10
38.5352
20
-135.789
11
38.6304
21
-135.885
0
LINE
8
BLACK
6
CONTINUOUS
10
38.6304
20
-135.885
11
38.5352
21
-135.98
0
LINE
8
BLACK
6
CONTINUOUS
10
38.5352
20
-135.98
11
38.4399
21
-135.885
0
LINE
8
BLACK
6
CONTINUOUS
10
38.4399
20
-135.885
11
38.5352
21
-135.789
0
LINE
8
BLACK
6
CONTINUOUS
10
38.5352
20
-135.789
11
38.5352
21
-135.98
0
LINE
8
BLACK
6
CONTINUOUS
10
39.8685
20
-133.98
11
40.059
21
-133.98
0
LINE
8
BLACK
6
CONTINUOUS
10
40.059
20
-133.98
11
40.2494
21
-134.075
0
LINE
8
BLACK
6
CONTINUOUS
10
40.2494
20
-134.075
11
40.3447
21
-134.17
0
LINE
8
BLACK
6
CONTINUOUS
10
40.3447
20
-134.17
11
40.4399
21
-134.361
0
LINE
8
BLACK
6
CONTINUOUS
10
40.4399
20
-134.361
11
40.5352
21
-134.742
0
LINE
8
BLACK
6
CONTINUOUS
10
40.5352
20
-134.742
11
40.5352
21
-135.218
0
LINE
8
BLACK
6
CONTINUOUS
10
40.5352
20
-135.218
11
40.4399
21
-135.599
0
LINE
8
BLACK
6
CONTINUOUS
10
40.4399
20
-135.599
11
40.3447
21
-135.789
0
LINE
8
BLACK
6
CONTINUOUS
10
40.3447
20
-135.789
11
40.2494
21
-135.885
0
LINE
8
BLACK
6
CONTINUOUS
10
40.2494
20
-135.885
11
40.059
21
-135.98
0
LINE
8
BLACK
6
CONTINUOUS
10
40.059
20
-135.98
11
39.8685
21
-135.98
0
LINE
8
BLACK
6
CONTINUOUS
10
39.8685
20
-135.98
11
39.678
21
-135.885
0
LINE
8
BLACK
6
CONTINUOUS
10
39.678
20
-135.885
11
39.5828
21
-135.789
0
LINE
8
BLACK
6
CONTINUOUS
10
39.5828
20
-135.789
11
39.4875
21
-135.599
0
LINE
8
BLACK
6
CONTINUOUS
10
39.4875
20
-135.599
11
39.3923
21
-135.218
0
LINE
8
BLACK
6
CONTINUOUS
10
39.3923
20
-135.218
11
39.3923
21
-134.742
0
LINE
8
BLACK
6
CONTINUOUS
10
39.3923
20
-134.742
11
39.4875
21
-134.361
0
LINE
8
BLACK
6
CONTINUOUS
10
39.4875
20
-134.361
11
39.5828
21
-134.17
0
LINE
8
BLACK
6
CONTINUOUS
10
39.5828
20
-134.17
11
39.678
21
-134.075
0
LINE
8
BLACK
6
CONTINUOUS
10
39.678
20
-134.075
11
39.8685
21
-133.98
0
LINE
8
BLACK
6
CONTINUOUS
10
41.2971
20
-134.17
11
41.3923
21
-134.075
0
LINE
8
BLACK
6
CONTINUOUS
10
41.3923
20
-134.075
11
41.5828
21
-133.98
0
LINE
8
BLACK
6
CONTINUOUS
10
41.5828
20
-133.98
11
42.059
21
-133.98
0
LINE
8
BLACK
6
CONTINUOUS
10
42.059
20
-133.98
11
42.2494
21
-134.075
0
LINE
8
BLACK
6
CONTINUOUS
10
42.2494
20
-134.075
11
42.3447
21
-134.17
0
LINE
8
BLACK
6
CONTINUOUS
10
42.3447
20
-134.17
11
42.4399
21
-134.361
0
LINE
8
BLACK
6
CONTINUOUS
10
42.4399
20
-134.361
11
42.4399
21
-134.551
0
LINE
8
BLACK
6
CONTINUOUS
10
42.4399
20
-134.551
11
42.3447
21
-134.837
0
LINE
8
BLACK
6
CONTINUOUS
10
42.3447
20
-134.837
11
41.2018
21
-135.98
0
LINE
8
BLACK
6
CONTINUOUS
10
41.2018
20
-135.98
11
42.4399
21
-135.98
0
LINE
8
BLACK
6
CONTINUOUS
10
43.1066
20
-133.98
11
44.3447
21
-133.98
0
LINE
8
BLACK
6
CONTINUOUS
10
44.3447
20
-133.98
11
43.678
21
-134.742
0
LINE
8
BLACK
6
CONTINUOUS
10
43.678
20
-134.742
11
43.9637
21
-134.742
0
LINE
8
BLACK
6
CONTINUOUS
10
43.9637
20
-134.742
11
44.1542
21
-134.837
0
LINE
8
BLACK
6
CONTINUOUS
10
44.1542
20
-134.837
11
44.2494
21
-134.932
0
LINE
8
BLACK
6
CONTINUOUS
10
44.2494
20
-134.932
11
44.3447
21
-135.123
0
LINE
8
BLACK
6
CONTINUOUS
10
44.3447
20
-135.123
11
44.3447
21
-135.599
0
LINE
8
BLACK
6
CONTINUOUS
10
44.3447
20
-135.599
11
44.2494
21
-135.789
0
LINE
8
BLACK
6
CONTINUOUS
10
44.2494
20
-135.789
11
44.1542
21
-135.885
0
LINE
8
BLACK
6
CONTINUOUS
10
44.1542
20
-135.885
11
43.9637
21
-135.98
0
LINE
8
BLACK
6
CONTINUOUS
10
43.9637
20
-135.98
11
43.3923
21
-135.98
0
LINE
8
BLACK
6
CONTINUOUS
10
43.3923
20
-135.98
11
43.2018
21
-135.885
0
LINE
8
BLACK
6
CONTINUOUS
10
43.2018
20
-135.885
11
43.1066
21
-135.789
0
LINE
8
BLACK
6
CONTINUOUS
10
46.059
20
-133.98
11
45.678
21
-133.98
0
LINE
8
BLACK
6
CONTINUOUS
10
45.678
20
-133.98
11
45.4875
21
-134.075
0
LINE
8
BLACK
6
CONTINUOUS
10
45.4875
20
-134.075
11
45.3923
21
-134.17
0
LINE
8
BLACK
6
CONTINUOUS
10
45.3923
20
-134.17
11
45.2018
21
-134.456
0
LINE
8
BLACK
6
CONTINUOUS
10
45.2018
20
-134.456
11
45.1066
21
-134.837
0
LINE
8
BLACK
6
CONTINUOUS
10
45.1066
20
-134.837
11
45.1066
21
-135.599
0
LINE
8
BLACK
6
CONTINUOUS
10
45.1066
20
-135.599
11
45.2018
21
-135.789
0
LINE
8
BLACK
6
CONTINUOUS
10
45.2018
20
-135.789
11
45.2971
21
-135.885
0
LINE
8
BLACK
6
CONTINUOUS
10
45.2971
20
-135.885
11
45.4875
21
-135.98
0
LINE
8
BLACK
6
CONTINUOUS
10
45.4875
20
-135.98
11
45.8685
21
-135.98
0
LINE
8
BLACK
6
CONTINUOUS
10
45.8685
20
-135.98
11
46.059
21
-135.885
0
LINE
8
BLACK
6
CONTINUOUS
10
46.059
20
-135.885
11
46.1542
21
-135.789
0
LINE
8
BLACK
6
CONTINUOUS
10
46.1542
20
-135.789
11
46.2494
21
-135.599
0
LINE
8
BLACK
6
CONTINUOUS
10
46.2494
20
-135.599
11
46.2494
21
-135.123
0
LINE
8
BLACK
6
CONTINUOUS
10
46.2494
20
-135.123
11
46.1542
21
-134.932
0
LINE
8
BLACK
6
CONTINUOUS
10
46.1542
20
-134.932
11
46.059
21
-134.837
0
LINE
8
BLACK
6
CONTINUOUS
10
46.059
20
-134.837
11
45.8685
21
-134.742
0
LINE
8
BLACK
6
CONTINUOUS
10
45.8685
20
-134.742
11
45.4875
21
-134.742
0
LINE
8
BLACK
6
CONTINUOUS
10
45.4875
20
-134.742
11
45.2971
21
-134.837
0
LINE
8
BLACK
6
CONTINUOUS
10
45.2971
20
-134.837
11
45.2018
21
-134.932
0
LINE
8
BLACK
6
CONTINUOUS
10
45.2018
20
-134.932
11
45.1066
21
-135.123
0
LINE
8
BLACK
6
CONTINUOUS
10
47.0113
20
-133.98
11
47.0113
21
-134.361
0
LINE
8
BLACK
6
CONTINUOUS
10
47.7732
20
-133.98
11
47.7732
21
-134.361
0
LINE
8
BLACK
6
CONTINUOUS
10
50.7256
20
-136.742
11
50.6304
21
-136.647
0
LINE
8
BLACK
6
CONTINUOUS
10
50.6304
20
-136.647
11
50.4399
21
-136.361
0
LINE
8
BLACK
6
CONTINUOUS
10
50.4399
20
-136.361
11
50.3447
21
-136.17
0
LINE
8
BLACK
6
CONTINUOUS
10
50.3447
20
-136.17
11
50.2494
21
-135.885
0
LINE
8
BLACK
6
CONTINUOUS
10
50.2494
20
-135.885
11
50.1542
21
-135.408
0
LINE
8
BLACK
6
CONTINUOUS
10
50.1542
20
-135.408
11
50.1542
21
-135.027
0
LINE
8
BLACK
6
CONTINUOUS
10
50.1542
20
-135.027
11
50.2494
21
-134.551
0
LINE
8
BLACK
6
CONTINUOUS
10
50.2494
20
-134.551
11
50.3447
21
-134.266
0
LINE
8
BLACK
6
CONTINUOUS
10
50.3447
20
-134.266
11
50.4399
21
-134.075
0
LINE
8
BLACK
6
CONTINUOUS
10
50.4399
20
-134.075
11
50.6304
21
-133.789
0
LINE
8
BLACK
6
CONTINUOUS
10
50.6304
20
-133.789
11
50.7256
21
-133.694
0
LINE
8
BLACK
6
CONTINUOUS
10
51.7732
20
-134.837
11
51.5828
21
-134.742
0
LINE
8
BLACK
6
CONTINUOUS
10
51.5828
20
-134.742
11
51.4875
21
-134.647
0
LINE
8
BLACK
6
CONTINUOUS
10
51.4875
20
-134.647
11
51.3923
21
-134.456
0
LINE
8
BLACK
6
CONTINUOUS
10
51.3923
20
-134.456
11
51.3923
21
-134.361
0
LINE
8
BLACK
6
CONTINUOUS
10
51.3923
20
-134.361
11
51.4875
21
-134.17
0
LINE
8
BLACK
6
CONTINUOUS
10
51.4875
20
-134.17
11
51.5828
21
-134.075
0
LINE
8
BLACK
6
CONTINUOUS
10
51.5828
20
-134.075
11
51.7732
21
-133.98
0
LINE
8
BLACK
6
CONTINUOUS
10
51.7732
20
-133.98
11
52.1542
21
-133.98
0
LINE
8
BLACK
6
CONTINUOUS
10
52.1542
20
-133.98
11
52.3447
21
-134.075
0
LINE
8
BLACK
6
CONTINUOUS
10
52.3447
20
-134.075
11
52.4399
21
-134.17
0
LINE
8
BLACK
6
CONTINUOUS
10
52.4399
20
-134.17
11
52.5352
21
-134.361
0
LINE
8
BLACK
6
CONTINUOUS
10
52.5352
20
-134.361
11
52.5352
21
-134.456
0
LINE
8
BLACK
6
CONTINUOUS
10
52.5352
20
-134.456
11
52.4399
21
-134.647
0
LINE
8
BLACK
6
CONTINUOUS
10
52.4399
20
-134.647
11
52.3447
21
-134.742
0
LINE
8
BLACK
6
CONTINUOUS
10
52.3447
20
-134.742
11
52.1542
21
-134.837
0
LINE
8
BLACK
6
CONTINUOUS
10
52.1542
20
-134.837
11
51.7732
21
-134.837
0
LINE
8
BLACK
6
CONTINUOUS
10
51.7732
20
-134.837
11
51.5828
21
-134.932
0
LINE
8
BLACK
6
CONTINUOUS
10
51.5828
20
-134.932
11
51.4875
21
-135.027
0
LINE
8
BLACK
6
CONTINUOUS
10
51.4875
20
-135.027
11
51.3923
21
-135.218
0
LINE
8
BLACK
6
CONTINUOUS
10
51.3923
20
-135.218
11
51.3923
21
-135.599
0
LINE
8
BLACK
6
CONTINUOUS
10
51.3923
20
-135.599
11
51.4875
21
-135.789
0
LINE
8
BLACK
6
CONTINUOUS
10
51.4875
20
-135.789
11
51.5828
21
-135.885
0
LINE
8
BLACK
6
CONTINUOUS
10
51.5828
20
-135.885
11
51.7732
21
-135.98
0
LINE
8
BLACK
6
CONTINUOUS
10
51.7732
20
-135.98
11
52.1542
21
-135.98
0
LINE
8
BLACK
6
CONTINUOUS
10
52.1542
20
-135.98
11
52.3447
21
-135.885
0
LINE
8
BLACK
6
CONTINUOUS
10
52.3447
20
-135.885
11
52.4399
21
-135.789
0
LINE
8
BLACK
6
CONTINUOUS
10
52.4399
20
-135.789
11
52.5352
21
-135.599
0
LINE
8
BLACK
6
CONTINUOUS
10
52.5352
20
-135.599
11
52.5352
21
-135.218
0
LINE
8
BLACK
6
CONTINUOUS
10
52.5352
20
-135.218
11
52.4399
21
-135.027
0
LINE
8
BLACK
6
CONTINUOUS
10
52.4399
20
-135.027
11
52.3447
21
-134.932
0
LINE
8
BLACK
6
CONTINUOUS
10
52.3447
20
-134.932
11
52.1542
21
-134.837
0
LINE
8
BLACK
6
CONTINUOUS
10
54.9161
20
-135.98
11
54.9161
21
-133.98
0
LINE
8
BLACK
6
CONTINUOUS
10
55.7732
20
-135.98
11
55.7732
21
-134.932
0
LINE
8
BLACK
6
CONTINUOUS
10
55.7732
20
-134.932
11
55.678
21
-134.742
0
LINE
8
BLACK
6
CONTINUOUS
10
55.678
20
-134.742
11
55.4875
21
-134.647
0
LINE
8
BLACK
6
CONTINUOUS
10
55.4875
20
-134.647
11
55.2018
21
-134.647
0
LINE
8
BLACK
6
CONTINUOUS
10
55.2018
20
-134.647
11
55.0113
21
-134.742
0
LINE
8
BLACK
6
CONTINUOUS
10
55.0113
20
-134.742
11
54.9161
21
-134.837
0
LINE
8
BLACK
6
CONTINUOUS
10
57.0113
20
-135.98
11
56.8209
21
-135.885
0
LINE
8
BLACK
6
CONTINUOUS
10
56.8209
20
-135.885
11
56.7256
21
-135.789
0
LINE
8
BLACK
6
CONTINUOUS
10
56.7256
20
-135.789
11
56.6304
21
-135.599
0
LINE
8
BLACK
6
CONTINUOUS
10
56.6304
20
-135.599
11
56.6304
21
-135.027
0
LINE
8
BLACK
6
CONTINUOUS
10
56.6304
20
-135.027
11
56.7256
21
-134.837
0
LINE
8
BLACK
6
CONTINUOUS
10
56.7256
20
-134.837
11
56.8209
21
-134.742
0
LINE
8
BLACK
6
CONTINUOUS
10
56.8209
20
-134.742
11
57.0113
21
-134.647
0
LINE
8
BLACK
6
CONTINUOUS
10
57.0113
20
-134.647
11
57.2971
21
-134.647
0
LINE
8
BLACK
6
CONTINUOUS
10
57.2971
20
-134.647
11
57.4875
21
-134.742
0
LINE
8
BLACK
6
CONTINUOUS
10
57.4875
20
-134.742
11
57.5828
21
-134.837
0
LINE
8
BLACK
6
CONTINUOUS
10
57.5828
20
-134.837
11
57.678
21
-135.027
0
LINE
8
BLACK
6
CONTINUOUS
10
57.678
20
-135.027
11
57.678
21
-135.599
0
LINE
8
BLACK
6
CONTINUOUS
10
57.678
20
-135.599
11
57.5828
21
-135.789
0
LINE
8
BLACK
6
CONTINUOUS
10
57.5828
20
-135.789
11
57.4875
21
-135.885
0
LINE
8
BLACK
6
CONTINUOUS
10
57.4875
20
-135.885
11
57.2971
21
-135.98
0
LINE
8
BLACK
6
CONTINUOUS
10
57.2971
20
-135.98
11
57.0113
21
-135.98
0
LINE
8
BLACK
6
CONTINUOUS
10
58.8209
20
-135.98
11
58.6304
21
-135.885
0
LINE
8
BLACK
6
CONTINUOUS
10
58.6304
20
-135.885
11
58.5352
21
-135.694
0
LINE
8
BLACK
6
CONTINUOUS
10
58.5352
20
-135.694
11
58.5352
21
-133.98
0
LINE
8
BLACK
6
CONTINUOUS
10
60.3447
20
-135.885
11
60.1542
21
-135.98
0
LINE
8
BLACK
6
CONTINUOUS
10
60.1542
20
-135.98
11
59.7732
21
-135.98
0
LINE
8
BLACK
6
CONTINUOUS
10
59.7732
20
-135.98
11
59.5828
21
-135.885
0
LINE
8
BLACK
6
CONTINUOUS
10
59.5828
20
-135.885
11
59.4875
21
-135.694
0
LINE
8
BLACK
6
CONTINUOUS
10
59.4875
20
-135.694
11
59.4875
21
-134.932
0
LINE
8
BLACK
6
CONTINUOUS
10
59.4875
20
-134.932
11
59.5828
21
-134.742
0
LINE
8
BLACK
6
CONTINUOUS
10
59.5828
20
-134.742
11
59.7732
21
-134.647
0
LINE
8
BLACK
6
CONTINUOUS
10
59.7732
20
-134.647
11
60.1542
21
-134.647
0
LINE
8
BLACK
6
CONTINUOUS
10
60.1542
20
-134.647
11
60.3447
21
-134.742
0
LINE
8
BLACK
6
CONTINUOUS
10
60.3447
20
-134.742
11
60.4399
21
-134.932
0
LINE
8
BLACK
6
CONTINUOUS
10
60.4399
20
-134.932
11
60.4399
21
-135.123
0
LINE
8
BLACK
6
CONTINUOUS
10
60.4399
20
-135.123
11
59.4875
21
-135.313
0
LINE
8
BLACK
6
CONTINUOUS
10
61.2018
20
-135.885
11
61.3923
21
-135.98
0
LINE
8
BLACK
6
CONTINUOUS
10
61.3923
20
-135.98
11
61.7732
21
-135.98
0
LINE
8
BLACK
6
CONTINUOUS
10
61.7732
20
-135.98
11
61.9637
21
-135.885
0
LINE
8
BLACK
6
CONTINUOUS
10
61.9637
20
-135.885
11
62.059
21
-135.694
0
LINE
8
BLACK
6
CONTINUOUS
10
62.059
20
-135.694
11
62.059
21
-135.599
0
LINE
8
BLACK
6
CONTINUOUS
10
62.059
20
-135.599
11
61.9637
21
-135.408
0
LINE
8
BLACK
6
CONTINUOUS
10
61.9637
20
-135.408
11
61.7732
21
-135.313
0
LINE
8
BLACK
6
CONTINUOUS
10
61.7732
20
-135.313
11
61.4875
21
-135.313
0
LINE
8
BLACK
6
CONTINUOUS
10
61.4875
20
-135.313
11
61.2971
21
-135.218
0
LINE
8
BLACK
6
CONTINUOUS
10
61.2971
20
-135.218
11
61.2018
21
-135.027
0
LINE
8
BLACK
6
CONTINUOUS
10
61.2018
20
-135.027
11
61.2018
21
-134.932
0
LINE
8
BLACK
6
CONTINUOUS
10
61.2018
20
-134.932
11
61.2971
21
-134.742
0
LINE
8
BLACK
6
CONTINUOUS
10
61.2971
20
-134.742
11
61.4875
21
-134.647
0
LINE
8
BLACK
6
CONTINUOUS
10
61.4875
20
-134.647
11
61.7732
21
-134.647
0
LINE
8
BLACK
6
CONTINUOUS
10
61.7732
20
-134.647
11
61.9637
21
-134.742
0
LINE
8
BLACK
6
CONTINUOUS
10
62.7256
20
-136.742
11
62.8209
21
-136.647
0
LINE
8
BLACK
6
CONTINUOUS
10
62.8209
20
-136.647
11
63.0113
21
-136.361
0
LINE
8
BLACK
6
CONTINUOUS
10
63.0113
20
-136.361
11
63.1066
21
-136.17
0
LINE
8
BLACK
6
CONTINUOUS
10
63.1066
20
-136.17
11
63.2018
21
-135.885
0
LINE
8
BLACK
6
CONTINUOUS
10
63.2018
20
-135.885
11
63.2971
21
-135.408
0
LINE
8
BLACK
6
CONTINUOUS
10
63.2971
20
-135.408
11
63.2971
21
-135.027
0
LINE
8
BLACK
6
CONTINUOUS
10
63.2971
20
-135.027
11
63.2018
21
-134.551
0
LINE
8
BLACK
6
CONTINUOUS
10
63.2018
20
-134.551
11
63.1066
21
-134.266
0
LINE
8
BLACK
6
CONTINUOUS
10
63.1066
20
-134.266
11
63.0113
21
-134.075
0
LINE
8
BLACK
6
CONTINUOUS
10
63.0113
20
-134.075
11
62.8209
21
-133.789
0
LINE
8
BLACK
6
CONTINUOUS
10
62.8209
20
-133.789
11
62.7256
21
-133.694
0
LINE
8
BLACK
6
CONTINUOUS
10
14.65
20
-137.38
11
14.65
21
-138.03
0
LINE
8
BLACK
6
CONTINUOUS
10
14.325
20
-137.705
11
14.975
21
-137.705
0
LINE
8
BLACK
6
CONTINUOUS
10
17.9637
20
-136.62
11
18.1542
21
-136.62
0
LINE
8
BLACK
6
CONTINUOUS
10
18.1542
20
-136.62
11
18.3447
21
-136.715
0
LINE
8
BLACK
6
CONTINUOUS
10
18.3447
20
-136.715
11
18.4399
21
-136.81
0
LINE
8
BLACK
6
CONTINUOUS
10
18.4399
20
-136.81
11
18.5351
21
-137.001
0
LINE
8
BLACK
6
CONTINUOUS
10
18.5351
20
-137.001
11
18.6304
21
-137.382
0
LINE
8
BLACK
6
CONTINUOUS
10
18.6304
20
-137.382
11
18.6304
21
-137.858
0
LINE
8
BLACK
6
CONTINUOUS
10
18.6304
20
-137.858
11
18.5351
21
-138.239
0
LINE
8
BLACK
6
CONTINUOUS
10
18.5351
20
-138.239
11
18.4399
21
-138.429
0
LINE
8
BLACK
6
CONTINUOUS
10
18.4399
20
-138.429
11
18.3447
21
-138.525
0
LINE
8
BLACK
6
CONTINUOUS
10
18.3447
20
-138.525
11
18.1542
21
-138.62
0
LINE
8
BLACK
6
CONTINUOUS
10
18.1542
20
-138.62
11
17.9637
21
-138.62
0
LINE
8
BLACK
6
CONTINUOUS
10
17.9637
20
-138.62
11
17.7732
21
-138.525
0
LINE
8
BLACK
6
CONTINUOUS
10
17.7732
20
-138.525
11
17.678
21
-138.429
0
LINE
8
BLACK
6
CONTINUOUS
10
17.678
20
-138.429
11
17.5828
21
-138.239
0
LINE
8
BLACK
6
CONTINUOUS
10
17.5828
20
-138.239
11
17.4875
21
-137.858
0
LINE
8
BLACK
6
CONTINUOUS
10
17.4875
20
-137.858
11
17.4875
21
-137.382
0
LINE
8
BLACK
6
CONTINUOUS
10
17.4875
20
-137.382
11
17.5828
21
-137.001
0
LINE
8
BLACK
6
CONTINUOUS
10
17.5828
20
-137.001
11
17.678
21
-136.81
0
LINE
8
BLACK
6
CONTINUOUS
10
17.678
20
-136.81
11
17.7732
21
-136.715
0
LINE
8
BLACK
6
CONTINUOUS
10
17.7732
20
-136.715
11
17.9637
21
-136.62
0
LINE
8
BLACK
6
CONTINUOUS
10
19.4875
20
-138.429
11
19.5828
21
-138.525
0
LINE
8
BLACK
6
CONTINUOUS
10
19.5828
20
-138.525
11
19.4875
21
-138.62
0
LINE
8
BLACK
6
CONTINUOUS
10
19.4875
20
-138.62
11
19.3923
21
-138.525
0
LINE
8
BLACK
6
CONTINUOUS
10
19.3923
20
-138.525
11
19.4875
21
-138.429
0
LINE
8
BLACK
6
CONTINUOUS
10
19.4875
20
-138.429
11
19.4875
21
-138.62
0
LINE
8
BLACK
6
CONTINUOUS
10
21.2971
20
-136.62
11
20.9161
21
-136.62
0
LINE
8
BLACK
6
CONTINUOUS
10
20.9161
20
-136.62
11
20.7256
21
-136.715
0
LINE
8
BLACK
6
CONTINUOUS
10
20.7256
20
-136.715
11
20.6304
21
-136.81
0
LINE
8
BLACK
6
CONTINUOUS
10
20.6304
20
-136.81
11
20.4399
21
-137.096
0
LINE
8
BLACK
6
CONTINUOUS
10
20.4399
20
-137.096
11
20.3447
21
-137.477
0
LINE
8
BLACK
6
CONTINUOUS
10
20.3447
20
-137.477
11
20.3447
21
-138.239
0
LINE
8
BLACK
6
CONTINUOUS
10
20.3447
20
-138.239
11
20.4399
21
-138.429
0
LINE
8
BLACK
6
CONTINUOUS
10
20.4399
20
-138.429
11
20.5351
21
-138.525
0
LINE
8
BLACK
6
CONTINUOUS
10
20.5351
20
-138.525
11
20.7256
21
-138.62
0
LINE
8
BLACK
6
CONTINUOUS
10
20.7256
20
-138.62
11
21.1066
21
-138.62
0
LINE
8
BLACK
6
CONTINUOUS
10
21.1066
20
-138.62
11
21.2971
21
-138.525
0
LINE
8
BLACK
6
CONTINUOUS
10
21.2971
20
-138.525
11
21.3923
21
-138.429
0
LINE
8
BLACK
6
CONTINUOUS
10
21.3923
20
-138.429
11
21.4875
21
-138.239
0
LINE
8
BLACK
6
CONTINUOUS
10
21.4875
20
-138.239
11
21.4875
21
-137.763
0
LINE
8
BLACK
6
CONTINUOUS
10
21.4875
20
-137.763
11
21.3923
21
-137.572
0
LINE
8
BLACK
6
CONTINUOUS
10
21.3923
20
-137.572
11
21.2971
21
-137.477
0
LINE
8
BLACK
6
CONTINUOUS
10
21.2971
20
-137.477
11
21.1066
21
-137.382
0
LINE
8
BLACK
6
CONTINUOUS
10
21.1066
20
-137.382
11
20.7256
21
-137.382
0
LINE
8
BLACK
6
CONTINUOUS
10
20.7256
20
-137.382
11
20.5351
21
-137.477
0
LINE
8
BLACK
6
CONTINUOUS
10
20.5351
20
-137.477
11
20.4399
21
-137.572
0
LINE
8
BLACK
6
CONTINUOUS
10
20.4399
20
-137.572
11
20.3447
21
-137.763
0
LINE
8
BLACK
6
CONTINUOUS
10
23.2971
20
-136.62
11
22.3447
21
-136.62
0
LINE
8
BLACK
6
CONTINUOUS
10
22.3447
20
-136.62
11
22.2494
21
-137.572
0
LINE
8
BLACK
6
CONTINUOUS
10
22.2494
20
-137.572
11
22.3447
21
-137.477
0
LINE
8
BLACK
6
CONTINUOUS
10
22.3447
20
-137.477
11
22.5351
21
-137.382
0
LINE
8
BLACK
6
CONTINUOUS
10
22.5351
20
-137.382
11
23.0113
21
-137.382
0
LINE
8
BLACK
6
CONTINUOUS
10
23.0113
20
-137.382
11
23.2018
21
-137.477
0
LINE
8
BLACK
6
CONTINUOUS
10
23.2018
20
-137.477
11
23.2971
21
-137.572
0
LINE
8
BLACK
6
CONTINUOUS
10
23.2971
20
-137.572
11
23.3923
21
-137.763
0
LINE
8
BLACK
6
CONTINUOUS
10
23.3923
20
-137.763
11
23.3923
21
-138.239
0
LINE
8
BLACK
6
CONTINUOUS
10
23.3923
20
-138.239
11
23.2971
21
-138.429
0
LINE
8
BLACK
6
CONTINUOUS
10
23.2971
20
-138.429
11
23.2018
21
-138.525
0
LINE
8
BLACK
6
CONTINUOUS
10
23.2018
20
-138.525
11
23.0113
21
-138.62
0
LINE
8
BLACK
6
CONTINUOUS
10
23.0113
20
-138.62
11
22.5351
21
-138.62
0
LINE
8
BLACK
6
CONTINUOUS
10
22.5351
20
-138.62
11
22.3447
21
-138.525
0
LINE
8
BLACK
6
CONTINUOUS
10
22.3447
20
-138.525
11
22.2494
21
-138.429
0
LINE
8
BLACK
6
CONTINUOUS
10
24.6304
20
-136.62
11
24.8209
21
-136.62
0
LINE
8
BLACK
6
CONTINUOUS
10
24.8209
20
-136.62
11
25.0113
21
-136.715
0
LINE
8
BLACK
6
CONTINUOUS
10
25.0113
20
-136.715
11
25.1066
21
-136.81
0
LINE
8
BLACK
6
CONTINUOUS
10
25.1066
20
-136.81
11
25.2018
21
-137.001
0
LINE
8
BLACK
6
CONTINUOUS
10
25.2018
20
-137.001
11
25.2971
21
-137.382
0
LINE
8
BLACK
6
CONTINUOUS
10
25.2971
20
-137.382
11
25.2971
21
-137.858
0
LINE
8
BLACK
6
CONTINUOUS
10
25.2971
20
-137.858
11
25.2018
21
-138.239
0
LINE
8
BLACK
6
CONTINUOUS
10
25.2018
20
-138.239
11
25.1066
21
-138.429
0
LINE
8
BLACK
6
CONTINUOUS
10
25.1066
20
-138.429
11
25.0113
21
-138.525
0
LINE
8
BLACK
6
CONTINUOUS
10
25.0113
20
-138.525
11
24.8209
21
-138.62
0
LINE
8
BLACK
6
CONTINUOUS
10
24.8209
20
-138.62
11
24.6304
21
-138.62
0
LINE
8
BLACK
6
CONTINUOUS
10
24.6304
20
-138.62
11
24.4399
21
-138.525
0
LINE
8
BLACK
6
CONTINUOUS
10
24.4399
20
-138.525
11
24.3447
21
-138.429
0
LINE
8
BLACK
6
CONTINUOUS
10
24.3447
20
-138.429
11
24.2494
21
-138.239
0
LINE
8
BLACK
6
CONTINUOUS
10
24.2494
20
-138.239
11
24.1542
21
-137.858
0
LINE
8
BLACK
6
CONTINUOUS
10
24.1542
20
-137.858
11
24.1542
21
-137.382
0
LINE
8
BLACK
6
CONTINUOUS
10
24.1542
20
-137.382
11
24.2494
21
-137.001
0
LINE
8
BLACK
6
CONTINUOUS
10
24.2494
20
-137.001
11
24.3447
21
-136.81
0
LINE
8
BLACK
6
CONTINUOUS
10
24.3447
20
-136.81
11
24.4399
21
-136.715
0
LINE
8
BLACK
6
CONTINUOUS
10
24.4399
20
-136.715
11
24.6304
21
-136.62
0
LINE
8
BLACK
6
CONTINUOUS
10
26.1542
20
-138.62
11
26.1542
21
-137.287
0
LINE
8
BLACK
6
CONTINUOUS
10
26.1542
20
-137.477
11
26.2494
21
-137.382
0
LINE
8
BLACK
6
CONTINUOUS
10
26.2494
20
-137.382
11
26.4399
21
-137.287
0
LINE
8
BLACK
6
CONTINUOUS
10
26.4399
20
-137.287
11
26.7256
21
-137.287
0
LINE
8
BLACK
6
CONTINUOUS
10
26.7256
20
-137.287
11
26.9161
21
-137.382
0
LINE
8
BLACK
6
CONTINUOUS
10
26.9161
20
-137.382
11
27.0113
21
-137.572
0
LINE
8
BLACK
6
CONTINUOUS
10
27.0113
20
-137.572
11
27.0113
21
-138.62
0
LINE
8
BLACK
6
CONTINUOUS
10
27.0113
20
-137.572
11
27.1066
21
-137.382
0
LINE
8
BLACK
6
CONTINUOUS
10
27.1066
20
-137.382
11
27.2971
21
-137.287
0
LINE
8
BLACK
6
CONTINUOUS
10
27.2971
20
-137.287
11
27.5828
21
-137.287
0
LINE
8
BLACK
6
CONTINUOUS
10
27.5828
20
-137.287
11
27.7732
21
-137.382
0
LINE
8
BLACK
6
CONTINUOUS
10
27.7732
20
-137.382
11
27.8685
21
-137.572
0
LINE
8
BLACK
6
CONTINUOUS
10
27.8685
20
-137.572
11
27.8685
21
-138.62
0
LINE
8
BLACK
6
CONTINUOUS
10
28.8209
20
-138.62
11
28.8209
21
-137.287
0
LINE
8
BLACK
6
CONTINUOUS
10
28.8209
20
-137.477
11
28.9161
21
-137.382
0
LINE
8
BLACK
6
CONTINUOUS
10
28.9161
20
-137.382
11
29.1066
21
-137.287
0
LINE
8
BLACK
6
CONTINUOUS
10
29.1066
20
-137.287
11
29.3923
21
-137.287
0
LINE
8
BLACK
6
CONTINUOUS
10
29.3923
20
-137.287
11
29.5828
21
-137.382
0
LINE
8
BLACK
6
CONTINUOUS
10
29.5828
20
-137.382
11
29.678
21
-137.572
0
LINE
8
BLACK
6
CONTINUOUS
10
29.678
20
-137.572
11
29.678
21
-138.62
0
LINE
8
BLACK
6
CONTINUOUS
10
29.678
20
-137.572
11
29.7732
21
-137.382
0
LINE
8
BLACK
6
CONTINUOUS
10
29.7732
20
-137.382
11
29.9637
21
-137.287
0
LINE
8
BLACK
6
CONTINUOUS
10
29.9637
20
-137.287
11
30.2494
21
-137.287
0
LINE
8
BLACK
6
CONTINUOUS
10
30.2494
20
-137.287
11
30.4399
21
-137.382
0
LINE
8
BLACK
6
CONTINUOUS
10
30.4399
20
-137.382
11
30.5351
21
-137.572
0
LINE
8
BLACK
6
CONTINUOUS
10
30.5351
20
-137.572
11
30.5351
21
-138.62
0
LINE
8
BLACK
6
CONTINUOUS
10
34.4399
20
-136.525
11
32.7256
21
-139.096
0
LINE
8
BLACK
6
CONTINUOUS
10
37.0113
20
-136.62
11
37.2018
21
-136.62
0
LINE
8
BLACK
6
CONTINUOUS
10
37.2018
20
-136.62
11
37.3923
21
-136.715
0
LINE
8
BLACK
6
CONTINUOUS
10
37.3923
20
-136.715
11
37.4875
21
-136.81
0
LINE
8
BLACK
6
CONTINUOUS
10
37.4875
20
-136.81
11
37.5828
21
-137.001
0
LINE
8
BLACK
6
CONTINUOUS
10
37.5828
20
-137.001
11
37.678
21
-137.382
0
LINE
8
BLACK
6
CONTINUOUS
10
37.678
20
-137.382
11
37.678
21
-137.858
0
LINE
8
BLACK
6
CONTINUOUS
10
37.678
20
-137.858
11
37.5828
21
-138.239
0
LINE
8
BLACK
6
CONTINUOUS
10
37.5828
20
-138.239
11
37.4875
21
-138.429
0
LINE
8
BLACK
6
CONTINUOUS
10
37.4875
20
-138.429
11
37.3923
21
-138.525
0
LINE
8
BLACK
6
CONTINUOUS
10
37.3923
20
-138.525
11
37.2018
21
-138.62
0
LINE
8
BLACK
6
CONTINUOUS
10
37.2018
20
-138.62
11
37.0113
21
-138.62
0
LINE
8
BLACK
6
CONTINUOUS
10
37.0113
20
-138.62
11
36.8209
21
-138.525
0
LINE
8
BLACK
6
CONTINUOUS
10
36.8209
20
-138.525
11
36.7256
21
-138.429
0
LINE
8
BLACK
6
CONTINUOUS
10
36.7256
20
-138.429
11
36.6304
21
-138.239
0
LINE
8
BLACK
6
CONTINUOUS
10
36.6304
20
-138.239
11
36.5352
21
-137.858
0
LINE
8
BLACK
6
CONTINUOUS
10
36.5352
20
-137.858
11
36.5352
21
-137.382
0
LINE
8
BLACK
6
CONTINUOUS
10
36.5352
20
-137.382
11
36.6304
21
-137.001
0
LINE
8
BLACK
6
CONTINUOUS
10
36.6304
20
-137.001
11
36.7256
21
-136.81
0
LINE
8
BLACK
6
CONTINUOUS
10
36.7256
20
-136.81
11
36.8209
21
-136.715
0
LINE
8
BLACK
6
CONTINUOUS
10
36.8209
20
-136.715
11
37.0113
21
-136.62
0
LINE
8
BLACK
6
CONTINUOUS
10
38.5352
20
-138.429
11
38.6304
21
-138.525
0
LINE
8
BLACK
6
CONTINUOUS
10
38.6304
20
-138.525
11
38.5352
21
-138.62
0
LINE
8
BLACK
6
CONTINUOUS
10
38.5352
20
-138.62
11
38.4399
21
-138.525
0
LINE
8
BLACK
6
CONTINUOUS
10
38.4399
20
-138.525
11
38.5352
21
-138.429
0
LINE
8
BLACK
6
CONTINUOUS
10
38.5352
20
-138.429
11
38.5352
21
-138.62
0
LINE
8
BLACK
6
CONTINUOUS
10
39.8685
20
-136.62
11
40.059
21
-136.62
0
LINE
8
BLACK
6
CONTINUOUS
10
40.059
20
-136.62
11
40.2494
21
-136.715
0
LINE
8
BLACK
6
CONTINUOUS
10
40.2494
20
-136.715
11
40.3447
21
-136.81
0
LINE
8
BLACK
6
CONTINUOUS
10
40.3447
20
-136.81
11
40.4399
21
-137.001
0
LINE
8
BLACK
6
CONTINUOUS
10
40.4399
20
-137.001
11
40.5352
21
-137.382
0
LINE
8
BLACK
6
CONTINUOUS
10
40.5352
20
-137.382
11
40.5352
21
-137.858
0
LINE
8
BLACK
6
CONTINUOUS
10
40.5352
20
-137.858
11
40.4399
21
-138.239
0
LINE
8
BLACK
6
CONTINUOUS
10
40.4399
20
-138.239
11
40.3447
21
-138.429
0
LINE
8
BLACK
6
CONTINUOUS
10
40.3447
20
-138.429
11
40.2494
21
-138.525
0
LINE
8
BLACK
6
CONTINUOUS
10
40.2494
20
-138.525
11
40.059
21
-138.62
0
LINE
8
BLACK
6
CONTINUOUS
10
40.059
20
-138.62
11
39.8685
21
-138.62
0
LINE
8
BLACK
6
CONTINUOUS
10
39.8685
20
-138.62
11
39.678
21
-138.525
0
LINE
8
BLACK
6
CONTINUOUS
10
39.678
20
-138.525
11
39.5828
21
-138.429
0
LINE
8
BLACK
6
CONTINUOUS
10
39.5828
20
-138.429
11
39.4875
21
-138.239
0
LINE
8
BLACK
6
CONTINUOUS
10
39.4875
20
-138.239
11
39.3923
21
-137.858
0
LINE
8
BLACK
6
CONTINUOUS
10
39.3923
20
-137.858
11
39.3923
21
-137.382
0
LINE
8
BLACK
6
CONTINUOUS
10
39.3923
20
-137.382
11
39.4875
21
-137.001
0
LINE
8
BLACK
6
CONTINUOUS
10
39.4875
20
-137.001
11
39.5828
21
-136.81
0
LINE
8
BLACK
6
CONTINUOUS
10
39.5828
20
-136.81
11
39.678
21
-136.715
0
LINE
8
BLACK
6
CONTINUOUS
10
39.678
20
-136.715
11
39.8685
21
-136.62
0
LINE
8
BLACK
6
CONTINUOUS
10
41.2971
20
-136.81
11
41.3923
21
-136.715
0
LINE
8
BLACK
6
CONTINUOUS
10
41.3923
20
-136.715
11
41.5828
21
-136.62
0
LINE
8
BLACK
6
CONTINUOUS
10
41.5828
20
-136.62
11
42.059
21
-136.62
0
LINE
8
BLACK
6
CONTINUOUS
10
42.059
20
-136.62
11
42.2494
21
-136.715
0
LINE
8
BLACK
6
CONTINUOUS
10
42.2494
20
-136.715
11
42.3447
21
-136.81
0
LINE
8
BLACK
6
CONTINUOUS
10
42.3447
20
-136.81
11
42.4399
21
-137.001
0
LINE
8
BLACK
6
CONTINUOUS
10
42.4399
20
-137.001
11
42.4399
21
-137.191
0
LINE
8
BLACK
6
CONTINUOUS
10
42.4399
20
-137.191
11
42.3447
21
-137.477
0
LINE
8
BLACK
6
CONTINUOUS
10
42.3447
20
-137.477
11
41.2018
21
-138.62
0
LINE
8
BLACK
6
CONTINUOUS
10
41.2018
20
-138.62
11
42.4399
21
-138.62
0
LINE
8
BLACK
6
CONTINUOUS
10
44.2494
20
-136.62
11
43.2971
21
-136.62
0
LINE
8
BLACK
6
CONTINUOUS
10
43.2971
20
-136.62
11
43.2018
21
-137.572
0
LINE
8
BLACK
6
CONTINUOUS
10
43.2018
20
-137.572
11
43.2971
21
-137.477
0
LINE
8
BLACK
6
CONTINUOUS
10
43.2971
20
-137.477
11
43.4875
21
-137.382
0
LINE
8
BLACK
6
CONTINUOUS
10
43.4875
20
-137.382
11
43.9637
21
-137.382
0
LINE
8
BLACK
6
CONTINUOUS
10
43.9637
20
-137.382
11
44.1542
21
-137.477
0
LINE
8
BLACK
6
CONTINUOUS
10
44.1542
20
-137.477
11
44.2494
21
-137.572
0
LINE
8
BLACK
6
CONTINUOUS
10
44.2494
20
-137.572
11
44.3447
21
-137.763
0
LINE
8
BLACK
6
CONTINUOUS
10
44.3447
20
-137.763
11
44.3447
21
-138.239
0
LINE
8
BLACK
6
CONTINUOUS
10
44.3447
20
-138.239
11
44.2494
21
-138.429
0
LINE
8
BLACK
6
CONTINUOUS
10
44.2494
20
-138.429
11
44.1542
21
-138.525
0
LINE
8
BLACK
6
CONTINUOUS
10
44.1542
20
-138.525
11
43.9637
21
-138.62
0
LINE
8
BLACK
6
CONTINUOUS
10
43.9637
20
-138.62
11
43.4875
21
-138.62
0
LINE
8
BLACK
6
CONTINUOUS
10
43.4875
20
-138.62
11
43.2971
21
-138.525
0
LINE
8
BLACK
6
CONTINUOUS
10
43.2971
20
-138.525
11
43.2018
21
-138.429
0
LINE
8
BLACK
6
CONTINUOUS
10
46.059
20
-136.62
11
45.678
21
-136.62
0
LINE
8
BLACK
6
CONTINUOUS
10
45.678
20
-136.62
11
45.4875
21
-136.715
0
LINE
8
BLACK
6
CONTINUOUS
10
45.4875
20
-136.715
11
45.3923
21
-136.81
0
LINE
8
BLACK
6
CONTINUOUS
10
45.3923
20
-136.81
11
45.2018
21
-137.096
0
LINE
8
BLACK
6
CONTINUOUS
10
45.2018
20
-137.096
11
45.1066
21
-137.477
0
LINE
8
BLACK
6
CONTINUOUS
10
45.1066
20
-137.477
11
45.1066
21
-138.239
0
LINE
8
BLACK
6
CONTINUOUS
10
45.1066
20
-138.239
11
45.2018
21
-138.429
0
LINE
8
BLACK
6
CONTINUOUS
10
45.2018
20
-138.429
11
45.2971
21
-138.525
0
LINE
8
BLACK
6
CONTINUOUS
10
45.2971
20
-138.525
11
45.4875
21
-138.62
0
LINE
8
BLACK
6
CONTINUOUS
10
45.4875
20
-138.62
11
45.8685
21
-138.62
0
LINE
8
BLACK
6
CONTINUOUS
10
45.8685
20
-138.62
11
46.059
21
-138.525
0
LINE
8
BLACK
6
CONTINUOUS
10
46.059
20
-138.525
11
46.1542
21
-138.429
0
LINE
8
BLACK
6
CONTINUOUS
10
46.1542
20
-138.429
11
46.2494
21
-138.239
0
LINE
8
BLACK
6
CONTINUOUS
10
46.2494
20
-138.239
11
46.2494
21
-137.763
0
LINE
8
BLACK
6
CONTINUOUS
10
46.2494
20
-137.763
11
46.1542
21
-137.572
0
LINE
8
BLACK
6
CONTINUOUS
10
46.1542
20
-137.572
11
46.059
21
-137.477
0
LINE
8
BLACK
6
CONTINUOUS
10
46.059
20
-137.477
11
45.8685
21
-137.382
0
LINE
8
BLACK
6
CONTINUOUS
10
45.8685
20
-137.382
11
45.4875
21
-137.382
0
LINE
8
BLACK
6
CONTINUOUS
10
45.4875
20
-137.382
11
45.2971
21
-137.477
0
LINE
8
BLACK
6
CONTINUOUS
10
45.2971
20
-137.477
11
45.2018
21
-137.572
0
LINE
8
BLACK
6
CONTINUOUS
10
45.2018
20
-137.572
11
45.1066
21
-137.763
0
LINE
8
BLACK
6
CONTINUOUS
10
47.0113
20
-136.62
11
47.0113
21
-137.001
0
LINE
8
BLACK
6
CONTINUOUS
10
47.7732
20
-136.62
11
47.7732
21
-137.001
0
LINE
8
BLACK
6
CONTINUOUS
10
50.7256
20
-139.382
11
50.6304
21
-139.287
0
LINE
8
BLACK
6
CONTINUOUS
10
50.6304
20
-139.287
11
50.4399
21
-139.001
0
LINE
8
BLACK
6
CONTINUOUS
10
50.4399
20
-139.001
11
50.3447
21
-138.81
0
LINE
8
BLACK
6
CONTINUOUS
10
50.3447
20
-138.81
11
50.2494
21
-138.525
0
LINE
8
BLACK
6
CONTINUOUS
10
50.2494
20
-138.525
11
50.1542
21
-138.048
0
LINE
8
BLACK
6
CONTINUOUS
10
50.1542
20
-138.048
11
50.1542
21
-137.667
0
LINE
8
BLACK
6
CONTINUOUS
10
50.1542
20
-137.667
11
50.2494
21
-137.191
0
LINE
8
BLACK
6
CONTINUOUS
10
50.2494
20
-137.191
11
50.3447
21
-136.906
0
LINE
8
BLACK
6
CONTINUOUS
10
50.3447
20
-136.906
11
50.4399
21
-136.715
0
LINE
8
BLACK
6
CONTINUOUS
10
50.4399
20
-136.715
11
50.6304
21
-136.429
0
LINE
8
BLACK
6
CONTINUOUS
10
50.6304
20
-136.429
11
50.7256
21
-136.334
0
LINE
8
BLACK
6
CONTINUOUS
10
52.5352
20
-138.62
11
51.3923
21
-138.62
0
LINE
8
BLACK
6
CONTINUOUS
10
51.9637
20
-138.62
11
51.9637
21
-136.62
0
LINE
8
BLACK
6
CONTINUOUS
10
51.9637
20
-136.62
11
51.7732
21
-136.906
0
LINE
8
BLACK
6
CONTINUOUS
10
51.7732
20
-136.906
11
51.5828
21
-137.096
0
LINE
8
BLACK
6
CONTINUOUS
10
51.5828
20
-137.096
11
51.3923
21
-137.191
0
LINE
8
BLACK
6
CONTINUOUS
10
53.2971
20
-136.81
11
53.3923
21
-136.715
0
LINE
8
BLACK
6
CONTINUOUS
10
53.3923
20
-136.715
11
53.5828
21
-136.62
0
LINE
8
BLACK
6
CONTINUOUS
10
53.5828
20
-136.62
11
54.059
21
-136.62
0
LINE
8
BLACK
6
CONTINUOUS
10
54.059
20
-136.62
11
54.2494
21
-136.715
0
LINE
8
BLACK
6
CONTINUOUS
10
54.2494
20
-136.715
11
54.3447
21
-136.81
0
LINE
8
BLACK
6
CONTINUOUS
10
54.3447
20
-136.81
11
54.4399
21
-137.001
0
LINE
8
BLACK
6
CONTINUOUS
10
54.4399
20
-137.001
11
54.4399
21
-137.191
0
LINE
8
BLACK
6
CONTINUOUS
10
54.4399
20
-137.191
11
54.3447
21
-137.477
0
LINE
8
BLACK
6
CONTINUOUS
10
54.3447
20
-137.477
11
53.2018
21
-138.62
0
LINE
8
BLACK
6
CONTINUOUS
10
53.2018
20
-138.62
11
54.4399
21
-138.62
0
LINE
8
BLACK
6
CONTINUOUS
10
56.8209
20
-138.62
11
56.8209
21
-136.62
0
LINE
8
BLACK
6
CONTINUOUS
10
57.678
20
-138.62
11
57.678
21
-137.572
0
LINE
8
BLACK
6
CONTINUOUS
10
57.678
20
-137.572
11
57.5828
21
-137.382
0
LINE
8
BLACK
6
CONTINUOUS
10
57.5828
20
-137.382
11
57.3923
21
-137.287
0
LINE
8
BLACK
6
CONTINUOUS
10
57.3923
20
-137.287
11
57.1066
21
-137.287
0
LINE
8
BLACK
6
CONTINUOUS
10
57.1066
20
-137.287
11
56.9161
21
-137.382
0
LINE
8
BLACK
6
CONTINUOUS
10
56.9161
20
-137.382
11
56.8209
21
-137.477
0
LINE
8
BLACK
6
CONTINUOUS
10
58.9161
20
-138.62
11
58.7256
21
-138.525
0
LINE
8
BLACK
6
CONTINUOUS
10
58.7256
20
-138.525
11
58.6304
21
-138.429
0
LINE
8
BLACK
6
CONTINUOUS
10
58.6304
20
-138.429
11
58.5352
21
-138.239
0
LINE
8
BLACK
6
CONTINUOUS
10
58.5352
20
-138.239
11
58.5352
21
-137.667
0
LINE
8
BLACK
6
CONTINUOUS
10
58.5352
20
-137.667
11
58.6304
21
-137.477
0
LINE
8
BLACK
6
CONTINUOUS
10
58.6304
20
-137.477
11
58.7256
21
-137.382
0
LINE
8
BLACK
6
CONTINUOUS
10
58.7256
20
-137.382
11
58.9161
21
-137.287
0
LINE
8
BLACK
6
CONTINUOUS
10
58.9161
20
-137.287
11
59.2018
21
-137.287
0
LINE
8
BLACK
6
CONTINUOUS
10
59.2018
20
-137.287
11
59.3923
21
-137.382
0
LINE
8
BLACK
6
CONTINUOUS
10
59.3923
20
-137.382
11
59.4875
21
-137.477
0
LINE
8
BLACK
6
CONTINUOUS
10
59.4875
20
-137.477
11
59.5828
21
-137.667
0
LINE
8
BLACK
6
CONTINUOUS
10
59.5828
20
-137.667
11
59.5828
21
-138.239
0
LINE
8
BLACK
6
CONTINUOUS
10
59.5828
20
-138.239
11
59.4875
21
-138.429
0
LINE
8
BLACK
6
CONTINUOUS
10
59.4875
20
-138.429
11
59.3923
21
-138.525
0
LINE
8
BLACK
6
CONTINUOUS
10
59.3923
20
-138.525
11
59.2018
21
-138.62
0
LINE
8
BLACK
6
CONTINUOUS
10
59.2018
20
-138.62
11
58.9161
21
-138.62
0
LINE
8
BLACK
6
CONTINUOUS
10
60.7256
20
-138.62
11
60.5352
21
-138.525
0
LINE
8
BLACK
6
CONTINUOUS
10
60.5352
20
-138.525
11
60.4399
21
-138.334
0
LINE
8
BLACK
6
CONTINUOUS
10
60.4399
20
-138.334
11
60.4399
21
-136.62
0
LINE
8
BLACK
6
CONTINUOUS
10
62.2494
20
-138.525
11
62.059
21
-138.62
0
LINE
8
BLACK
6
CONTINUOUS
10
62.059
20
-138.62
11
61.678
21
-138.62
0
LINE
8
BLACK
6
CONTINUOUS
10
61.678
20
-138.62
11
61.4875
21
-138.525
0
LINE
8
BLACK
6
CONTINUOUS
10
61.4875
20
-138.525
11
61.3923
21
-138.334
0
LINE
8
BLACK
6
CONTINUOUS
10
61.3923
20
-138.334
11
61.3923
21
-137.572
0
LINE
8
BLACK
6
CONTINUOUS
10
61.3923
20
-137.572
11
61.4875
21
-137.382
0
LINE
8
BLACK
6
CONTINUOUS
10
61.4875
20
-137.382
11
61.678
21
-137.287
0
LINE
8
BLACK
6
CONTINUOUS
10
61.678
20
-137.287
11
62.059
21
-137.287
0
LINE
8
BLACK
6
CONTINUOUS
10
62.059
20
-137.287
11
62.2494
21
-137.382
0
LINE
8
BLACK
6
CONTINUOUS
10
62.2494
20
-137.382
11
62.3447
21
-137.572
0
LINE
8
BLACK
6
CONTINUOUS
10
62.3447
20
-137.572
11
62.3447
21
-137.763
0
LINE
8
BLACK
6
CONTINUOUS
10
62.3447
20
-137.763
11
61.3923
21
-137.953
0
LINE
8
BLACK
6
CONTINUOUS
10
63.1066
20
-138.525
11
63.2971
21
-138.62
0
LINE
8
BLACK
6
CONTINUOUS
10
63.2971
20
-138.62
11
63.678
21
-138.62
0
LINE
8
BLACK
6
CONTINUOUS
10
63.678
20
-138.62
11
63.8685
21
-138.525
0
LINE
8
BLACK
6
CONTINUOUS
10
63.8685
20
-138.525
11
63.9637
21
-138.334
0
LINE
8
BLACK
6
CONTINUOUS
10
63.9637
20
-138.334
11
63.9637
21
-138.239
0
LINE
8
BLACK
6
CONTINUOUS
10
63.9637
20
-138.239
11
63.8685
21
-138.048
0
LINE
8
BLACK
6
CONTINUOUS
10
63.8685
20
-138.048
11
63.678
21
-137.953
0
LINE
8
BLACK
6
CONTINUOUS
10
63.678
20
-137.953
11
63.3923
21
-137.953
0
LINE
8
BLACK
6
CONTINUOUS
10
63.3923
20
-137.953
11
63.2018
21
-137.858
0
LINE
8
BLACK
6
CONTINUOUS
10
63.2018
20
-137.858
11
63.1066
21
-137.667
0
LINE
8
BLACK
6
CONTINUOUS
10
63.1066
20
-137.667
11
63.1066
21
-137.572
0
LINE
8
BLACK
6
CONTINUOUS
10
63.1066
20
-137.572
11
63.2018
21
-137.382
0
LINE
8
BLACK
6
CONTINUOUS
10
63.2018
20
-137.382
11
63.3923
21
-137.287
0
LINE
8
BLACK
6
CONTINUOUS
10
63.3923
20
-137.287
11
63.678
21
-137.287
0
LINE
8
BLACK
6
CONTINUOUS
10
63.678
20
-137.287
11
63.8685
21
-137.382
0
LINE
8
BLACK
6
CONTINUOUS
10
64.6304
20
-139.382
11
64.7256
21
-139.287
0
LINE
8
BLACK
6
CONTINUOUS
10
64.7256
20
-139.287
11
64.9161
21
-139.001
0
LINE
8
BLACK
6
CONTINUOUS
10
64.9161
20
-139.001
11
65.0113
21
-138.81
0
LINE
8
BLACK
6
CONTINUOUS
10
65.0113
20
-138.81
11
65.1066
21
-138.525
0
LINE
8
BLACK
6
CONTINUOUS
10
65.1066
20
-138.525
11
65.2018
21
-138.048
0
LINE
8
BLACK
6
CONTINUOUS
10
65.2018
20
-138.048
11
65.2018
21
-137.667
0
LINE
8
BLACK
6
CONTINUOUS
10
65.2018
20
-137.667
11
65.1066
21
-137.191
0
LINE
8
BLACK
6
CONTINUOUS
10
65.1066
20
-137.191
11
65.0113
21
-136.906
0
LINE
8
BLACK
6
CONTINUOUS
10
65.0113
20
-136.906
11
64.9161
21
-136.715
0
LINE
8
BLACK
6
CONTINUOUS
10
64.9161
20
-136.715
11
64.7256
21
-136.429
0
LINE
8
BLACK
6
CONTINUOUS
10
64.7256
20
-136.429
11
64.6304
21
-136.334
0
LINE
8
BLACK
6
CONTINUOUS
10
14.8578
20
-140.628
11
14.8578
21
-140.062
0
LINE
8
BLACK
6
CONTINUOUS
10
14.8578
20
-140.062
11
14.2922
21
-140.062
0
LINE
8
BLACK
6
CONTINUOUS
10
14.2922
20
-140.062
11
14.2922
21
-140.628
0
LINE
8
BLACK
6
CONTINUOUS
10
14.2922
20
-140.628
11
14.8578
21
-140.628
0
LINE
8
BLACK
6
CONTINUOUS
10
17.9637
20
-139.26
11
18.1542
21
-139.26
0
LINE
8
BLACK
6
CONTINUOUS
10
18.1542
20
-139.26
11
18.3447
21
-139.355
0
LINE
8
BLACK
6
CONTINUOUS
10
18.3447
20
-139.355
11
18.4399
21
-139.45
0
LINE
8
BLACK
6
CONTINUOUS
10
18.4399
20
-139.45
11
18.5351
21
-139.641
0
LINE
8
BLACK
6
CONTINUOUS
10
18.5351
20
-139.641
11
18.6304
21
-140.022
0
LINE
8
BLACK
6
CONTINUOUS
10
18.6304
20
-140.022
11
18.6304
21
-140.498
0
LINE
8
BLACK
6
CONTINUOUS
10
18.6304
20
-140.498
11
18.5351
21
-140.879
0
LINE
8
BLACK
6
CONTINUOUS
10
18.5351
20
-140.879
11
18.4399
21
-141.069
0
LINE
8
BLACK
6
CONTINUOUS
10
18.4399
20
-141.069
11
18.3447
21
-141.165
0
LINE
8
BLACK
6
CONTINUOUS
10
18.3447
20
-141.165
11
18.1542
21
-141.26
0
LINE
8
BLACK
6
CONTINUOUS
10
18.1542
20
-141.26
11
17.9637
21
-141.26
0
LINE
8
BLACK
6
CONTINUOUS
10
17.9637
20
-141.26
11
17.7732
21
-141.165
0
LINE
8
BLACK
6
CONTINUOUS
10
17.7732
20
-141.165
11
17.678
21
-141.069
0
LINE
8
BLACK
6
CONTINUOUS
10
17.678
20
-141.069
11
17.5828
21
-140.879
0
LINE
8
BLACK
6
CONTINUOUS
10
17.5828
20
-140.879
11
17.4875
21
-140.498
0
LINE
8
BLACK
6
CONTINUOUS
10
17.4875
20
-140.498
11
17.4875
21
-140.022
0
LINE
8
BLACK
6
CONTINUOUS
10
17.4875
20
-140.022
11
17.5828
21
-139.641
0
LINE
8
BLACK
6
CONTINUOUS
10
17.5828
20
-139.641
11
17.678
21
-139.45
0
LINE
8
BLACK
6
CONTINUOUS
10
17.678
20
-139.45
11
17.7732
21
-139.355
0
LINE
8
BLACK
6
CONTINUOUS
10
17.7732
20
-139.355
11
17.9637
21
-139.26
0
LINE
8
BLACK
6
CONTINUOUS
10
19.4875
20
-141.069
11
19.5828
21
-141.165
0
LINE
8
BLACK
6
CONTINUOUS
10
19.5828
20
-141.165
11
19.4875
21
-141.26
0
LINE
8
BLACK
6
CONTINUOUS
10
19.4875
20
-141.26
11
19.3923
21
-141.165
0
LINE
8
BLACK
6
CONTINUOUS
10
19.3923
20
-141.165
11
19.4875
21
-141.069
0
LINE
8
BLACK
6
CONTINUOUS
10
19.4875
20
-141.069
11
19.4875
21
-141.26
0
LINE
8
BLACK
6
CONTINUOUS
10
20.7256
20
-140.117
11
20.5351
21
-140.022
0
LINE
8
BLACK
6
CONTINUOUS
10
20.5351
20
-140.022
11
20.4399
21
-139.927
0
LINE
8
BLACK
6
CONTINUOUS
10
20.4399
20
-139.927
11
20.3447
21
-139.736
0
LINE
8
BLACK
6
CONTINUOUS
10
20.3447
20
-139.736
11
20.3447
21
-139.641
0
LINE
8
BLACK
6
CONTINUOUS
10
20.3447
20
-139.641
11
20.4399
21
-139.45
0
LINE
8
BLACK
6
CONTINUOUS
10
20.4399
20
-139.45
11
20.5351
21
-139.355
0
LINE
8
BLACK
6
CONTINUOUS
10
20.5351
20
-139.355
11
20.7256
21
-139.26
0
LINE
8
BLACK
6
CONTINUOUS
10
20.7256
20
-139.26
11
21.1066
21
-139.26
0
LINE
8
BLACK
6
CONTINUOUS
10
21.1066
20
-139.26
11
21.2971
21
-139.355
0
LINE
8
BLACK
6
CONTINUOUS
10
21.2971
20
-139.355
11
21.3923
21
-139.45
0
LINE
8
BLACK
6
CONTINUOUS
10
21.3923
20
-139.45
11
21.4875
21
-139.641
0
LINE
8
BLACK
6
CONTINUOUS
10
21.4875
20
-139.641
11
21.4875
21
-139.736
0
LINE
8
BLACK
6
CONTINUOUS
10
21.4875
20
-139.736
11
21.3923
21
-139.927
0
LINE
8
BLACK
6
CONTINUOUS
10
21.3923
20
-139.927
11
21.2971
21
-140.022
0
LINE
8
BLACK
6
CONTINUOUS
10
21.2971
20
-140.022
11
21.1066
21
-140.117
0
LINE
8
BLACK
6
CONTINUOUS
10
21.1066
20
-140.117
11
20.7256
21
-140.117
0
LINE
8
BLACK
6
CONTINUOUS
10
20.7256
20
-140.117
11
20.5351
21
-140.212
0
LINE
8
BLACK
6
CONTINUOUS
10
20.5351
20
-140.212
11
20.4399
21
-140.307
0
LINE
8
BLACK
6
CONTINUOUS
10
20.4399
20
-140.307
11
20.3447
21
-140.498
0
LINE
8
BLACK
6
CONTINUOUS
10
20.3447
20
-140.498
11
20.3447
21
-140.879
0
LINE
8
BLACK
6
CONTINUOUS
10
20.3447
20
-140.879
11
20.4399
21
-141.069
0
LINE
8
BLACK
6
CONTINUOUS
10
20.4399
20
-141.069
11
20.5351
21
-141.165
0
LINE
8
BLACK
6
CONTINUOUS
10
20.5351
20
-141.165
11
20.7256
21
-141.26
0
LINE
8
BLACK
6
CONTINUOUS
10
20.7256
20
-141.26
11
21.1066
21
-141.26
0
LINE
8
BLACK
6
CONTINUOUS
10
21.1066
20
-141.26
11
21.2971
21
-141.165
0
LINE
8
BLACK
6
CONTINUOUS
10
21.2971
20
-141.165
11
21.3923
21
-141.069
0
LINE
8
BLACK
6
CONTINUOUS
10
21.3923
20
-141.069
11
21.4875
21
-140.879
0
LINE
8
BLACK
6
CONTINUOUS
10
21.4875
20
-140.879
11
21.4875
21
-140.498
0
LINE
8
BLACK
6
CONTINUOUS
10
21.4875
20
-140.498
11
21.3923
21
-140.307
0
LINE
8
BLACK
6
CONTINUOUS
10
21.3923
20
-140.307
11
21.2971
21
-140.212
0
LINE
8
BLACK
6
CONTINUOUS
10
21.2971
20
-140.212
11
21.1066
21
-140.117
0
LINE
8
BLACK
6
CONTINUOUS
10
22.7256
20
-139.26
11
22.9161
21
-139.26
0
LINE
8
BLACK
6
CONTINUOUS
10
22.9161
20
-139.26
11
23.1066
21
-139.355
0
LINE
8
BLACK
6
CONTINUOUS
10
23.1066
20
-139.355
11
23.2018
21
-139.45
0
LINE
8
BLACK
6
CONTINUOUS
10
23.2018
20
-139.45
11
23.2971
21
-139.641
0
LINE
8
BLACK
6
CONTINUOUS
10
23.2971
20
-139.641
11
23.3923
21
-140.022
0
LINE
8
BLACK
6
CONTINUOUS
10
23.3923
20
-140.022
11
23.3923
21
-140.498
0
LINE
8
BLACK
6
CONTINUOUS
10
23.3923
20
-140.498
11
23.2971
21
-140.879
0
LINE
8
BLACK
6
CONTINUOUS
10
23.2971
20
-140.879
11
23.2018
21
-141.069
0
LINE
8
BLACK
6
CONTINUOUS
10
23.2018
20
-141.069
11
23.1066
21
-141.165
0
LINE
8
BLACK
6
CONTINUOUS
10
23.1066
20
-141.165
11
22.9161
21
-141.26
0
LINE
8
BLACK
6
CONTINUOUS
10
22.9161
20
-141.26
11
22.7256
21
-141.26
0
LINE
8
BLACK
6
CONTINUOUS
10
22.7256
20
-141.26
11
22.5351
21
-141.165
0
LINE
8
BLACK
6
CONTINUOUS
10
22.5351
20
-141.165
11
22.4399
21
-141.069
0
LINE
8
BLACK
6
CONTINUOUS
10
22.4399
20
-141.069
11
22.3447
21
-140.879
0
LINE
8
BLACK
6
CONTINUOUS
10
22.3447
20
-140.879
11
22.2494
21
-140.498
0
LINE
8
BLACK
6
CONTINUOUS
10
22.2494
20
-140.498
11
22.2494
21
-140.022
0
LINE
8
BLACK
6
CONTINUOUS
10
22.2494
20
-140.022
11
22.3447
21
-139.641
0
LINE
8
BLACK
6
CONTINUOUS
10
22.3447
20
-139.641
11
22.4399
21
-139.45
0
LINE
8
BLACK
6
CONTINUOUS
10
22.4399
20
-139.45
11
22.5351
21
-139.355
0
LINE
8
BLACK
6
CONTINUOUS
10
22.5351
20
-139.355
11
22.7256
21
-139.26
0
LINE
8
BLACK
6
CONTINUOUS
10
24.6304
20
-139.26
11
24.8209
21
-139.26
0
LINE
8
BLACK
6
CONTINUOUS
10
24.8209
20
-139.26
11
25.0113
21
-139.355
0
LINE
8
BLACK
6
CONTINUOUS
10
25.0113
20
-139.355
11
25.1066
21
-139.45
0
LINE
8
BLACK
6
CONTINUOUS
10
25.1066
20
-139.45
11
25.2018
21
-139.641
0
LINE
8
BLACK
6
CONTINUOUS
10
25.2018
20
-139.641
11
25.2971
21
-140.022
0
LINE
8
BLACK
6
CONTINUOUS
10
25.2971
20
-140.022
11
25.2971
21
-140.498
0
LINE
8
BLACK
6
CONTINUOUS
10
25.2971
20
-140.498
11
25.2018
21
-140.879
0
LINE
8
BLACK
6
CONTINUOUS
10
25.2018
20
-140.879
11
25.1066
21
-141.069
0
LINE
8
BLACK
6
CONTINUOUS
10
25.1066
20
-141.069
11
25.0113
21
-141.165
0
LINE
8
BLACK
6
CONTINUOUS
10
25.0113
20
-141.165
11
24.8209
21
-141.26
0
LINE
8
BLACK
6
CONTINUOUS
10
24.8209
20
-141.26
11
24.6304
21
-141.26
0
LINE
8
BLACK
6
CONTINUOUS
10
24.6304
20
-141.26
11
24.4399
21
-141.165
0
LINE
8
BLACK
6
CONTINUOUS
10
24.4399
20
-141.165
11
24.3447
21
-141.069
0
LINE
8
BLACK
6
CONTINUOUS
10
24.3447
20
-141.069
11
24.2494
21
-140.879
0
LINE
8
BLACK
6
CONTINUOUS
10
24.2494
20
-140.879
11
24.1542
21
-140.498
0
LINE
8
BLACK
6
CONTINUOUS
10
24.1542
20
-140.498
11
24.1542
21
-140.022
0
LINE
8
BLACK
6
CONTINUOUS
10
24.1542
20
-140.022
11
24.2494
21
-139.641
0
LINE
8
BLACK
6
CONTINUOUS
10
24.2494
20
-139.641
11
24.3447
21
-139.45
0
LINE
8
BLACK
6
CONTINUOUS
10
24.3447
20
-139.45
11
24.4399
21
-139.355
0
LINE
8
BLACK
6
CONTINUOUS
10
24.4399
20
-139.355
11
24.6304
21
-139.26
0
LINE
8
BLACK
6
CONTINUOUS
10
26.1542
20
-141.26
11
26.1542
21
-139.927
0
LINE
8
BLACK
6
CONTINUOUS
10
26.1542
20
-140.117
11
26.2494
21
-140.022
0
LINE
8
BLACK
6
CONTINUOUS
10
26.2494
20
-140.022
11
26.4399
21
-139.927
0
LINE
8
BLACK
6
CONTINUOUS
10
26.4399
20
-139.927
11
26.7256
21
-139.927
0
LINE
8
BLACK
6
CONTINUOUS
10
26.7256
20
-139.927
11
26.9161
21
-140.022
0
LINE
8
BLACK
6
CONTINUOUS
10
26.9161
20
-140.022
11
27.0113
21
-140.212
0
LINE
8
BLACK
6
CONTINUOUS
10
27.0113
20
-140.212
11
27.0113
21
-141.26
0
LINE
8
BLACK
6
CONTINUOUS
10
27.0113
20
-140.212
11
27.1066
21
-140.022
0
LINE
8
BLACK
6
CONTINUOUS
10
27.1066
20
-140.022
11
27.2971
21
-139.927
0
LINE
8
BLACK
6
CONTINUOUS
10
27.2971
20
-139.927
11
27.5828
21
-139.927
0
LINE
8
BLACK
6
CONTINUOUS
10
27.5828
20
-139.927
11
27.7732
21
-140.022
0
LINE
8
BLACK
6
CONTINUOUS
10
27.7732
20
-140.022
11
27.8685
21
-140.212
0
LINE
8
BLACK
6
CONTINUOUS
10
27.8685
20
-140.212
11
27.8685
21
-141.26
0
LINE
8
BLACK
6
CONTINUOUS
10
28.8209
20
-141.26
11
28.8209
21
-139.927
0
LINE
8
BLACK
6
CONTINUOUS
10
28.8209
20
-140.117
11
28.9161
21
-140.022
0
LINE
8
BLACK
6
CONTINUOUS
10
28.9161
20
-140.022
11
29.1066
21
-139.927
0
LINE
8
BLACK
6
CONTINUOUS
10
29.1066
20
-139.927
11
29.3923
21
-139.927
0
LINE
8
BLACK
6
CONTINUOUS
10
29.3923
20
-139.927
11
29.5828
21
-140.022
0
LINE
8
BLACK
6
CONTINUOUS
10
29.5828
20
-140.022
11
29.678
21
-140.212
0
LINE
8
BLACK
6
CONTINUOUS
10
29.678
20
-140.212
11
29.678
21
-141.26
0
LINE
8
BLACK
6
CONTINUOUS
10
29.678
20
-140.212
11
29.7732
21
-140.022
0
LINE
8
BLACK
6
CONTINUOUS
10
29.7732
20
-140.022
11
29.9637
21
-139.927
0
LINE
8
BLACK
6
CONTINUOUS
10
29.9637
20
-139.927
11
30.2494
21
-139.927
0
LINE
8
BLACK
6
CONTINUOUS
10
30.2494
20
-139.927
11
30.4399
21
-140.022
0
LINE
8
BLACK
6
CONTINUOUS
10
30.4399
20
-140.022
11
30.5351
21
-140.212
0
LINE
8
BLACK
6
CONTINUOUS
10
30.5351
20
-140.212
11
30.5351
21
-141.26
0
LINE
8
BLACK
6
CONTINUOUS
10
34.4399
20
-139.165
11
32.7256
21
-141.736
0
LINE
8
BLACK
6
CONTINUOUS
10
37.0113
20
-139.26
11
37.2018
21
-139.26
0
LINE
8
BLACK
6
CONTINUOUS
10
37.2018
20
-139.26
11
37.3923
21
-139.355
0
LINE
8
BLACK
6
CONTINUOUS
10
37.3923
20
-139.355
11
37.4875
21
-139.45
0
LINE
8
BLACK
6
CONTINUOUS
10
37.4875
20
-139.45
11
37.5828
21
-139.641
0
LINE
8
BLACK
6
CONTINUOUS
10
37.5828
20
-139.641
11
37.678
21
-140.022
0
LINE
8
BLACK
6
CONTINUOUS
10
37.678
20
-140.022
11
37.678
21
-140.498
0
LINE
8
BLACK
6
CONTINUOUS
10
37.678
20
-140.498
11
37.5828
21
-140.879
0
LINE
8
BLACK
6
CONTINUOUS
10
37.5828
20
-140.879
11
37.4875
21
-141.069
0
LINE
8
BLACK
6
CONTINUOUS
10
37.4875
20
-141.069
11
37.3923
21
-141.165
0
LINE
8
BLACK
6
CONTINUOUS
10
37.3923
20
-141.165
11
37.2018
21
-141.26
0
LINE
8
BLACK
6
CONTINUOUS
10
37.2018
20
-141.26
11
37.0113
21
-141.26
0
LINE
8
BLACK
6
CONTINUOUS
10
37.0113
20
-141.26
11
36.8209
21
-141.165
0
LINE
8
BLACK
6
CONTINUOUS
10
36.8209
20
-141.165
11
36.7256
21
-141.069
0
LINE
8
BLACK
6
CONTINUOUS
10
36.7256
20
-141.069
11
36.6304
21
-140.879
0
LINE
8
BLACK
6
CONTINUOUS
10
36.6304
20
-140.879
11
36.5352
21
-140.498
0
LINE
8
BLACK
6
CONTINUOUS
10
36.5352
20
-140.498
11
36.5352
21
-140.022
0
LINE
8
BLACK
6
CONTINUOUS
10
36.5352
20
-140.022
11
36.6304
21
-139.641
0
LINE
8
BLACK
6
CONTINUOUS
10
36.6304
20
-139.641
11
36.7256
21
-139.45
0
LINE
8
BLACK
6
CONTINUOUS
10
36.7256
20
-139.45
11
36.8209
21
-139.355
0
LINE
8
BLACK
6
CONTINUOUS
10
36.8209
20
-139.355
11
37.0113
21
-139.26
0
LINE
8
BLACK
6
CONTINUOUS
10
38.5352
20
-141.069
11
38.6304
21
-141.165
0
LINE
8
BLACK
6
CONTINUOUS
10
38.6304
20
-141.165
11
38.5352
21
-141.26
0
LINE
8
BLACK
6
CONTINUOUS
10
38.5352
20
-141.26
11
38.4399
21
-141.165
0
LINE
8
BLACK
6
CONTINUOUS
10
38.4399
20
-141.165
11
38.5352
21
-141.069
0
LINE
8
BLACK
6
CONTINUOUS
10
38.5352
20
-141.069
11
38.5352
21
-141.26
0
LINE
8
BLACK
6
CONTINUOUS
10
39.8685
20
-139.26
11
40.059
21
-139.26
0
LINE
8
BLACK
6
CONTINUOUS
10
40.059
20
-139.26
11
40.2494
21
-139.355
0
LINE
8
BLACK
6
CONTINUOUS
10
40.2494
20
-139.355
11
40.3447
21
-139.45
0
LINE
8
BLACK
6
CONTINUOUS
10
40.3447
20
-139.45
11
40.4399
21
-139.641
0
LINE
8
BLACK
6
CONTINUOUS
10
40.4399
20
-139.641
11
40.5352
21
-140.022
0
LINE
8
BLACK
6
CONTINUOUS
10
40.5352
20
-140.022
11
40.5352
21
-140.498
0
LINE
8
BLACK
6
CONTINUOUS
10
40.5352
20
-140.498
11
40.4399
21
-140.879
0
LINE
8
BLACK
6
CONTINUOUS
10
40.4399
20
-140.879
11
40.3447
21
-141.069
0
LINE
8
BLACK
6
CONTINUOUS
10
40.3447
20
-141.069
11
40.2494
21
-141.165
0
LINE
8
BLACK
6
CONTINUOUS
10
40.2494
20
-141.165
11
40.059
21
-141.26
0
LINE
8
BLACK
6
CONTINUOUS
10
40.059
20
-141.26
11
39.8685
21
-141.26
0
LINE
8
BLACK
6
CONTINUOUS
10
39.8685
20
-141.26
11
39.678
21
-141.165
0
LINE
8
BLACK
6
CONTINUOUS
10
39.678
20
-141.165
11
39.5828
21
-141.069
0
LINE
8
BLACK
6
CONTINUOUS
10
39.5828
20
-141.069
11
39.4875
21
-140.879
0
LINE
8
BLACK
6
CONTINUOUS
10
39.4875
20
-140.879
11
39.3923
21
-140.498
0
LINE
8
BLACK
6
CONTINUOUS
10
39.3923
20
-140.498
11
39.3923
21
-140.022
0
LINE
8
BLACK
6
CONTINUOUS
10
39.3923
20
-140.022
11
39.4875
21
-139.641
0
LINE
8
BLACK
6
CONTINUOUS
10
39.4875
20
-139.641
11
39.5828
21
-139.45
0
LINE
8
BLACK
6
CONTINUOUS
10
39.5828
20
-139.45
11
39.678
21
-139.355
0
LINE
8
BLACK
6
CONTINUOUS
10
39.678
20
-139.355
11
39.8685
21
-139.26
0
LINE
8
BLACK
6
CONTINUOUS
10
41.2018
20
-139.26
11
42.4399
21
-139.26
0
LINE
8
BLACK
6
CONTINUOUS
10
42.4399
20
-139.26
11
41.7732
21
-140.022
0
LINE
8
BLACK
6
CONTINUOUS
10
41.7732
20
-140.022
11
42.059
21
-140.022
0
LINE
8
BLACK
6
CONTINUOUS
10
42.059
20
-140.022
11
42.2494
21
-140.117
0
LINE
8
BLACK
6
CONTINUOUS
10
42.2494
20
-140.117
11
42.3447
21
-140.212
0
LINE
8
BLACK
6
CONTINUOUS
10
42.3447
20
-140.212
11
42.4399
21
-140.403
0
LINE
8
BLACK
6
CONTINUOUS
10
42.4399
20
-140.403
11
42.4399
21
-140.879
0
LINE
8
BLACK
6
CONTINUOUS
10
42.4399
20
-140.879
11
42.3447
21
-141.069
0
LINE
8
BLACK
6
CONTINUOUS
10
42.3447
20
-141.069
11
42.2494
21
-141.165
0
LINE
8
BLACK
6
CONTINUOUS
10
42.2494
20
-141.165
11
42.059
21
-141.26
0
LINE
8
BLACK
6
CONTINUOUS
10
42.059
20
-141.26
11
41.4875
21
-141.26
0
LINE
8
BLACK
6
CONTINUOUS
10
41.4875
20
-141.26
11
41.2971
21
-141.165
0
LINE
8
BLACK
6
CONTINUOUS
10
41.2971
20
-141.165
11
41.2018
21
-141.069
0
LINE
8
BLACK
6
CONTINUOUS
10
44.3447
20
-141.26
11
43.2018
21
-141.26
0
LINE
8
BLACK
6
CONTINUOUS
10
43.7732
20
-141.26
11
43.7732
21
-139.26
0
LINE
8
BLACK
6
CONTINUOUS
10
43.7732
20
-139.26
11
43.5828
21
-139.546
0
LINE
8
BLACK
6
CONTINUOUS
10
43.5828
20
-139.546
11
43.3923
21
-139.736
0
LINE
8
BLACK
6
CONTINUOUS
10
43.3923
20
-139.736
11
43.2018
21
-139.831
0
LINE
8
BLACK
6
CONTINUOUS
10
46.1542
20
-139.26
11
45.2018
21
-139.26
0
LINE
8
BLACK
6
CONTINUOUS
10
45.2018
20
-139.26
11
45.1066
21
-140.212
0
LINE
8
BLACK
6
CONTINUOUS
10
45.1066
20
-140.212
11
45.2018
21
-140.117
0
LINE
8
BLACK
6
CONTINUOUS
10
45.2018
20
-140.117
11
45.3923
21
-140.022
0
LINE
8
BLACK
6
CONTINUOUS
10
45.3923
20
-140.022
11
45.8685
21
-140.022
0
LINE
8
BLACK
6
CONTINUOUS
10
45.8685
20
-140.022
11
46.059
21
-140.117
0
LINE
8
BLACK
6
CONTINUOUS
10
46.059
20
-140.117
11
46.1542
21
-140.212
0
LINE
8
BLACK
6
CONTINUOUS
10
46.1542
20
-140.212
11
46.2494
21
-140.403
0
LINE
8
BLACK
6
CONTINUOUS
10
46.2494
20
-140.403
11
46.2494
21
-140.879
0
LINE
8
BLACK
6
CONTINUOUS
10
46.2494
20
-140.879
11
46.1542
21
-141.069
0
LINE
8
BLACK
6
CONTINUOUS
10
46.1542
20
-141.069
11
46.059
21
-141.165
0
LINE
8
BLACK
6
CONTINUOUS
10
46.059
20
-141.165
11
45.8685
21
-141.26
0
LINE
8
BLACK
6
CONTINUOUS
10
45.8685
20
-141.26
11
45.3923
21
-141.26
0
LINE
8
BLACK
6
CONTINUOUS
10
45.3923
20
-141.26
11
45.2018
21
-141.165
0
LINE
8
BLACK
6
CONTINUOUS
10
45.2018
20
-141.165
11
45.1066
21
-141.069
0
LINE
8
BLACK
6
CONTINUOUS
10
47.0113
20
-139.26
11
47.0113
21
-139.641
0
LINE
8
BLACK
6
CONTINUOUS
10
47.7732
20
-139.26
11
47.7732
21
-139.641
0
LINE
8
BLACK
6
CONTINUOUS
10
50.7256
20
-142.022
11
50.6304
21
-141.927
0
LINE
8
BLACK
6
CONTINUOUS
10
50.6304
20
-141.927
11
50.4399
21
-141.641
0
LINE
8
BLACK
6
CONTINUOUS
10
50.4399
20
-141.641
11
50.3447
21
-141.45
0
LINE
8
BLACK
6
CONTINUOUS
10
50.3447
20
-141.45
11
50.2494
21
-141.165
0
LINE
8
BLACK
6
CONTINUOUS
10
50.2494
20
-141.165
11
50.1542
21
-140.688
0
LINE
8
BLACK
6
CONTINUOUS
10
50.1542
20
-140.688
11
50.1542
21
-140.307
0
LINE
8
BLACK
6
CONTINUOUS
10
50.1542
20
-140.307
11
50.2494
21
-139.831
0
LINE
8
BLACK
6
CONTINUOUS
10
50.2494
20
-139.831
11
50.3447
21
-139.546
0
LINE
8
BLACK
6
CONTINUOUS
10
50.3447
20
-139.546
11
50.4399
21
-139.355
0
LINE
8
BLACK
6
CONTINUOUS
10
50.4399
20
-139.355
11
50.6304
21
-139.069
0
LINE
8
BLACK
6
CONTINUOUS
10
50.6304
20
-139.069
11
50.7256
21
-138.974
0
LINE
8
BLACK
6
CONTINUOUS
10
52.3447
20
-139.927
11
52.3447
21
-141.26
0
LINE
8
BLACK
6
CONTINUOUS
10
51.8685
20
-139.165
11
51.3923
21
-140.593
0
LINE
8
BLACK
6
CONTINUOUS
10
51.3923
20
-140.593
11
52.6304
21
-140.593
0
LINE
8
BLACK
6
CONTINUOUS
10
54.9161
20
-141.26
11
54.9161
21
-139.26
0
LINE
8
BLACK
6
CONTINUOUS
10
55.7732
20
-141.26
11
55.7732
21
-140.212
0
LINE
8
BLACK
6
CONTINUOUS
10
55.7732
20
-140.212
11
55.678
21
-140.022
0
LINE
8
BLACK
6
CONTINUOUS
10
55.678
20
-140.022
11
55.4875
21
-139.927
0
LINE
8
BLACK
6
CONTINUOUS
10
55.4875
20
-139.927
11
55.2018
21
-139.927
0
LINE
8
BLACK
6
CONTINUOUS
10
55.2018
20
-139.927
11
55.0113
21
-140.022
0
LINE
8
BLACK
6
CONTINUOUS
10
55.0113
20
-140.022
11
54.9161
21
-140.117
0
LINE
8
BLACK
6
CONTINUOUS
10
57.0113
20
-141.26
11
56.8209
21
-141.165
0
LINE
8
BLACK
6
CONTINUOUS
10
56.8209
20
-141.165
11
56.7256
21
-141.069
0
LINE
8
BLACK
6
CONTINUOUS
10
56.7256
20
-141.069
11
56.6304
21
-140.879
0
LINE
8
BLACK
6
CONTINUOUS
10
56.6304
20
-140.879
11
56.6304
21
-140.307
0
LINE
8
BLACK
6
CONTINUOUS
10
56.6304
20
-140.307
11
56.7256
21
-140.117
0
LINE
8
BLACK
6
CONTINUOUS
10
56.7256
20
-140.117
11
56.8209
21
-140.022
0
LINE
8
BLACK
6
CONTINUOUS
10
56.8209
20
-140.022
11
57.0113
21
-139.927
0
LINE
8
BLACK
6
CONTINUOUS
10
57.0113
20
-139.927
11
57.2971
21
-139.927
0
LINE
8
BLACK
6
CONTINUOUS
10
57.2971
20
-139.927
11
57.4875
21
-140.022
0
LINE
8
BLACK
6
CONTINUOUS
10
57.4875
20
-140.022
11
57.5828
21
-140.117
0
LINE
8
BLACK
6
CONTINUOUS
10
57.5828
20
-140.117
11
57.678
21
-140.307
0
LINE
8
BLACK
6
CONTINUOUS
10
57.678
20
-140.307
11
57.678
21
-140.879
0
LINE
8
BLACK
6
CONTINUOUS
10
57.678
20
-140.879
11
57.5828
21
-141.069
0
LINE
8
BLACK
6
CONTINUOUS
10
57.5828
20
-141.069
11
57.4875
21
-141.165
0
LINE
8
BLACK
6
CONTINUOUS
10
57.4875
20
-141.165
11
57.2971
21
-141.26
0
LINE
8
BLACK
6
CONTINUOUS
10
57.2971
20
-141.26
11
57.0113
21
-141.26
0
LINE
8
BLACK
6
CONTINUOUS
10
58.8209
20
-141.26
11
58.6304
21
-141.165
0
LINE
8
BLACK
6
CONTINUOUS
10
58.6304
20
-141.165
11
58.5352
21
-140.974
0
LINE
8
BLACK
6
CONTINUOUS
10
58.5352
20
-140.974
11
58.5352
21
-139.26
0
LINE
8
BLACK
6
CONTINUOUS
10
60.3447
20
-141.165
11
60.1542
21
-141.26
0
LINE
8
BLACK
6
CONTINUOUS
10
60.1542
20
-141.26
11
59.7732
21
-141.26
0
LINE
8
BLACK
6
CONTINUOUS
10
59.7732
20
-141.26
11
59.5828
21
-141.165
0
LINE
8
BLACK
6
CONTINUOUS
10
59.5828
20
-141.165
11
59.4875
21
-140.974
0
LINE
8
BLACK
6
CONTINUOUS
10
59.4875
20
-140.974
11
59.4875
21
-140.212
0
LINE
8
BLACK
6
CONTINUOUS
10
59.4875
20
-140.212
11
59.5828
21
-140.022
0
LINE
8
BLACK
6
CONTINUOUS
10
59.5828
20
-140.022
11
59.7732
21
-139.927
0
LINE
8
BLACK
6
CONTINUOUS
10
59.7732
20
-139.927
11
60.1542
21
-139.927
0
LINE
8
BLACK
6
CONTINUOUS
10
60.1542
20
-139.927
11
60.3447
21
-140.022
0
LINE
8
BLACK
6
CONTINUOUS
10
60.3447
20
-140.022
11
60.4399
21
-140.212
0
LINE
8
BLACK
6
CONTINUOUS
10
60.4399
20
-140.212
11
60.4399
21
-140.403
0
LINE
8
BLACK
6
CONTINUOUS
10
60.4399
20
-140.403
11
59.4875
21
-140.593
0
LINE
8
BLACK
6
CONTINUOUS
10
61.2018
20
-141.165
11
61.3923
21
-141.26
0
LINE
8
BLACK
6
CONTINUOUS
10
61.3923
20
-141.26
11
61.7732
21
-141.26
0
LINE
8
BLACK
6
CONTINUOUS
10
61.7732
20
-141.26
11
61.9637
21
-141.165
0
LINE
8
BLACK
6
CONTINUOUS
10
61.9637
20
-141.165
11
62.059
21
-140.974
0
LINE
8
BLACK
6
CONTINUOUS
10
62.059
20
-140.974
11
62.059
21
-140.879
0
LINE
8
BLACK
6
CONTINUOUS
10
62.059
20
-140.879
11
61.9637
21
-140.688
0
LINE
8
BLACK
6
CONTINUOUS
10
61.9637
20
-140.688
11
61.7732
21
-140.593
0
LINE
8
BLACK
6
CONTINUOUS
10
61.7732
20
-140.593
11
61.4875
21
-140.593
0
LINE
8
BLACK
6
CONTINUOUS
10
61.4875
20
-140.593
11
61.2971
21
-140.498
0
LINE
8
BLACK
6
CONTINUOUS
10
61.2971
20
-140.498
11
61.2018
21
-140.307
0
LINE
8
BLACK
6
CONTINUOUS
10
61.2018
20
-140.307
11
61.2018
21
-140.212
0
LINE
8
BLACK
6
CONTINUOUS
10
61.2018
20
-140.212
11
61.2971
21
-140.022
0
LINE
8
BLACK
6
CONTINUOUS
10
61.2971
20
-140.022
11
61.4875
21
-139.927
0
LINE
8
BLACK
6
CONTINUOUS
10
61.4875
20
-139.927
11
61.7732
21
-139.927
0
LINE
8
BLACK
6
CONTINUOUS
10
61.7732
20
-139.927
11
61.9637
21
-140.022
0
LINE
8
BLACK
6
CONTINUOUS
10
62.7256
20
-142.022
11
62.8209
21
-141.927
0
LINE
8
BLACK
6
CONTINUOUS
10
62.8209
20
-141.927
11
63.0113
21
-141.641
0
LINE
8
BLACK
6
CONTINUOUS
10
63.0113
20
-141.641
11
63.1066
21
-141.45
0
LINE
8
BLACK
6
CONTINUOUS
10
63.1066
20
-141.45
11
63.2018
21
-141.165
0
LINE
8
BLACK
6
CONTINUOUS
10
63.2018
20
-141.165
11
63.2971
21
-140.688
0
LINE
8
BLACK
6
CONTINUOUS
10
63.2971
20
-140.688
11
63.2971
21
-140.307
0
LINE
8
BLACK
6
CONTINUOUS
10
63.2971
20
-140.307
11
63.2018
21
-139.831
0
LINE
8
BLACK
6
CONTINUOUS
10
63.2018
20
-139.831
11
63.1066
21
-139.546
0
LINE
8
BLACK
6
CONTINUOUS
10
63.1066
20
-139.546
11
63.0113
21
-139.355
0
LINE
8
BLACK
6
CONTINUOUS
10
63.0113
20
-139.355
11
62.8209
21
-139.069
0
LINE
8
BLACK
6
CONTINUOUS
10
62.8209
20
-139.069
11
62.7256
21
-138.974
0
LINE
8
BLACK
6
CONTINUOUS
10
14.475
20
-143.485
11
14.975
21
-142.985
0
LINE
8
BLACK
6
CONTINUOUS
10
14.975
20
-142.985
11
14.475
21
-142.485
0
LINE
8
BLACK
6
CONTINUOUS
10
14.475
20
-142.485
11
13.975
21
-142.985
0
LINE
8
BLACK
6
CONTINUOUS
10
13.975
20
-142.985
11
14.475
21
-143.485
0
LINE
8
BLACK
6
CONTINUOUS
10
18.6304
20
-143.9
11
17.4875
21
-143.9
0
LINE
8
BLACK
6
CONTINUOUS
10
18.059
20
-143.9
11
18.059
21
-141.9
0
LINE
8
BLACK
6
CONTINUOUS
10
18.059
20
-141.9
11
17.8685
21
-142.186
0
LINE
8
BLACK
6
CONTINUOUS
10
17.8685
20
-142.186
11
17.678
21
-142.376
0
LINE
8
BLACK
6
CONTINUOUS
10
17.678
20
-142.376
11
17.4875
21
-142.471
0
LINE
8
BLACK
6
CONTINUOUS
10
19.4875
20
-143.709
11
19.5828
21
-143.805
0
LINE
8
BLACK
6
CONTINUOUS
10
19.5828
20
-143.805
11
19.4875
21
-143.9
0
LINE
8
BLACK
6
CONTINUOUS
10
19.4875
20
-143.9
11
19.3923
21
-143.805
0
LINE
8
BLACK
6
CONTINUOUS
10
19.3923
20
-143.805
11
19.4875
21
-143.709
0
LINE
8
BLACK
6
CONTINUOUS
10
19.4875
20
-143.709
11
19.4875
21
-143.9
0
LINE
8
BLACK
6
CONTINUOUS
10
20.8209
20
-141.9
11
21.0113
21
-141.9
0
LINE
8
BLACK
6
CONTINUOUS
10
21.0113
20
-141.9
11
21.2018
21
-141.995
0
LINE
8
BLACK
6
CONTINUOUS
10
21.2018
20
-141.995
11
21.2971
21
-142.09
0
LINE
8
BLACK
6
CONTINUOUS
10
21.2971
20
-142.09
11
21.3923
21
-142.281
0
LINE
8
BLACK
6
CONTINUOUS
10
21.3923
20
-142.281
11
21.4875
21
-142.662
0
LINE
8
BLACK
6
CONTINUOUS
10
21.4875
20
-142.662
11
21.4875
21
-143.138
0
LINE
8
BLACK
6
CONTINUOUS
10
21.4875
20
-143.138
11
21.3923
21
-143.519
0
LINE
8
BLACK
6
CONTINUOUS
10
21.3923
20
-143.519
11
21.2971
21
-143.709
0
LINE
8
BLACK
6
CONTINUOUS
10
21.2971
20
-143.709
11
21.2018
21
-143.805
0
LINE
8
BLACK
6
CONTINUOUS
10
21.2018
20
-143.805
11
21.0113
21
-143.9
0
LINE
8
BLACK
6
CONTINUOUS
10
21.0113
20
-143.9
11
20.8209
21
-143.9
0
LINE
8
BLACK
6
CONTINUOUS
10
20.8209
20
-143.9
11
20.6304
21
-143.805
0
LINE
8
BLACK
6
CONTINUOUS
10
20.6304
20
-143.805
11
20.5351
21
-143.709
0
LINE
8
BLACK
6
CONTINUOUS
10
20.5351
20
-143.709
11
20.4399
21
-143.519
0
LINE
8
BLACK
6
CONTINUOUS
10
20.4399
20
-143.519
11
20.3447
21
-143.138
0
LINE
8
BLACK
6
CONTINUOUS
10
20.3447
20
-143.138
11
20.3447
21
-142.662
0
LINE
8
BLACK
6
CONTINUOUS
10
20.3447
20
-142.662
11
20.4399
21
-142.281
0
LINE
8
BLACK
6
CONTINUOUS
10
20.4399
20
-142.281
11
20.5351
21
-142.09
0
LINE
8
BLACK
6
CONTINUOUS
10
20.5351
20
-142.09
11
20.6304
21
-141.995
0
LINE
8
BLACK
6
CONTINUOUS
10
20.6304
20
-141.995
11
20.8209
21
-141.9
0
LINE
8
BLACK
6
CONTINUOUS
10
22.7256
20
-141.9
11
22.9161
21
-141.9
0
LINE
8
BLACK
6
CONTINUOUS
10
22.9161
20
-141.9
11
23.1066
21
-141.995
0
LINE
8
BLACK
6
CONTINUOUS
10
23.1066
20
-141.995
11
23.2018
21
-142.09
0
LINE
8
BLACK
6
CONTINUOUS
10
23.2018
20
-142.09
11
23.2971
21
-142.281
0
LINE
8
BLACK
6
CONTINUOUS
10
23.2971
20
-142.281
11
23.3923
21
-142.662
0
LINE
8
BLACK
6
CONTINUOUS
10
23.3923
20
-142.662
11
23.3923
21
-143.138
0
LINE
8
BLACK
6
CONTINUOUS
10
23.3923
20
-143.138
11
23.2971
21
-143.519
0
LINE
8
BLACK
6
CONTINUOUS
10
23.2971
20
-143.519
11
23.2018
21
-143.709
0
LINE
8
BLACK
6
CONTINUOUS
10
23.2018
20
-143.709
11
23.1066
21
-143.805
0
LINE
8
BLACK
6
CONTINUOUS
10
23.1066
20
-143.805
11
22.9161
21
-143.9
0
LINE
8
BLACK
6
CONTINUOUS
10
22.9161
20
-143.9
11
22.7256
21
-143.9
0
LINE
8
BLACK
6
CONTINUOUS
10
22.7256
20
-143.9
11
22.5351
21
-143.805
0
LINE
8
BLACK
6
CONTINUOUS
10
22.5351
20
-143.805
11
22.4399
21
-143.709
0
LINE
8
BLACK
6
CONTINUOUS
10
22.4399
20
-143.709
11
22.3447
21
-143.519
0
LINE
8
BLACK
6
CONTINUOUS
10
22.3447
20
-143.519
11
22.2494
21
-143.138
0
LINE
8
BLACK
6
CONTINUOUS
10
22.2494
20
-143.138
11
22.2494
21
-142.662
0
LINE
8
BLACK
6
CONTINUOUS
10
22.2494
20
-142.662
11
22.3447
21
-142.281
0
LINE
8
BLACK
6
CONTINUOUS
10
22.3447
20
-142.281
11
22.4399
21
-142.09
0
LINE
8
BLACK
6
CONTINUOUS
10
22.4399
20
-142.09
11
22.5351
21
-141.995
0
LINE
8
BLACK
6
CONTINUOUS
10
22.5351
20
-141.995
11
22.7256
21
-141.9
0
LINE
8
BLACK
6
CONTINUOUS
10
24.6304
20
-141.9
11
24.8209
21
-141.9
0
LINE
8
BLACK
6
CONTINUOUS
10
24.8209
20
-141.9
11
25.0113
21
-141.995
0
LINE
8
BLACK
6
CONTINUOUS
10
25.0113
20
-141.995
11
25.1066
21
-142.09
0
LINE
8
BLACK
6
CONTINUOUS
10
25.1066
20
-142.09
11
25.2018
21
-142.281
0
LINE
8
BLACK
6
CONTINUOUS
10
25.2018
20
-142.281
11
25.2971
21
-142.662
0
LINE
8
BLACK
6
CONTINUOUS
10
25.2971
20
-142.662
11
25.2971
21
-143.138
0
LINE
8
BLACK
6
CONTINUOUS
10
25.2971
20
-143.138
11
25.2018
21
-143.519
0
LINE
8
BLACK
6
CONTINUOUS
10
25.2018
20
-143.519
11
25.1066
21
-143.709
0
LINE
8
BLACK
6
CONTINUOUS
10
25.1066
20
-143.709
11
25.0113
21
-143.805
0
LINE
8
BLACK
6
CONTINUOUS
10
25.0113
20
-143.805
11
24.8209
21
-143.9
0
LINE
8
BLACK
6
CONTINUOUS
10
24.8209
20
-143.9
11
24.6304
21
-143.9
0
LINE
8
BLACK
6
CONTINUOUS
10
24.6304
20
-143.9
11
24.4399
21
-143.805
0
LINE
8
BLACK
6
CONTINUOUS
10
24.4399
20
-143.805
11
24.3447
21
-143.709
0
LINE
8
BLACK
6
CONTINUOUS
10
24.3447
20
-143.709
11
24.2494
21
-143.519
0
LINE
8
BLACK
6
CONTINUOUS
10
24.2494
20
-143.519
11
24.1542
21
-143.138
0
LINE
8
BLACK
6
CONTINUOUS
10
24.1542
20
-143.138
11
24.1542
21
-142.662
0
LINE
8
BLACK
6
CONTINUOUS
10
24.1542
20
-142.662
11
24.2494
21
-142.281
0
LINE
8
BLACK
6
CONTINUOUS
10
24.2494
20
-142.281
11
24.3447
21
-142.09
0
LINE
8
BLACK
6
CONTINUOUS
10
24.3447
20
-142.09
11
24.4399
21
-141.995
0
LINE
8
BLACK
6
CONTINUOUS
10
24.4399
20
-141.995
11
24.6304
21
-141.9
0
LINE
8
BLACK
6
CONTINUOUS
10
26.1542
20
-143.9
11
26.1542
21
-142.567
0
LINE
8
BLACK
6
CONTINUOUS
10
26.1542
20
-142.757
11
26.2494
21
-142.662
0
LINE
8
BLACK
6
CONTINUOUS
10
26.2494
20
-142.662
11
26.4399
21
-142.567
0
LINE
8
BLACK
6
CONTINUOUS
10
26.4399
20
-142.567
11
26.7256
21
-142.567
0
LINE
8
BLACK
6
CONTINUOUS
10
26.7256
20
-142.567
11
26.9161
21
-142.662
0
LINE
8
BLACK
6
CONTINUOUS
10
26.9161
20
-142.662
11
27.0113
21
-142.852
0
LINE
8
BLACK
6
CONTINUOUS
10
27.0113
20
-142.852
11
27.0113
21
-143.9
0
LINE
8
BLACK
6
CONTINUOUS
10
27.0113
20
-142.852
11
27.1066
21
-142.662
0
LINE
8
BLACK
6
CONTINUOUS
10
27.1066
20
-142.662
11
27.2971
21
-142.567
0
LINE
8
BLACK
6
CONTINUOUS
10
27.2971
20
-142.567
11
27.5828
21
-142.567
0
LINE
8
BLACK
6
CONTINUOUS
10
27.5828
20
-142.567
11
27.7732
21
-142.662
0
LINE
8
BLACK
6
CONTINUOUS
10
27.7732
20
-142.662
11
27.8685
21
-142.852
0
LINE
8
BLACK
6
CONTINUOUS
10
27.8685
20
-142.852
11
27.8685
21
-143.9
0
LINE
8
BLACK
6
CONTINUOUS
10
28.8209
20
-143.9
11
28.8209
21
-142.567
0
LINE
8
BLACK
6
CONTINUOUS
10
28.8209
20
-142.757
11
28.9161
21
-142.662
0
LINE
8
BLACK
6
CONTINUOUS
10
28.9161
20
-142.662
11
29.1066
21
-142.567
0
LINE
8
BLACK
6
CONTINUOUS
10
29.1066
20
-142.567
11
29.3923
21
-142.567
0
LINE
8
BLACK
6
CONTINUOUS
10
29.3923
20
-142.567
11
29.5828
21
-142.662
0
LINE
8
BLACK
6
CONTINUOUS
10
29.5828
20
-142.662
11
29.678
21
-142.852
0
LINE
8
BLACK
6
CONTINUOUS
10
29.678
20
-142.852
11
29.678
21
-143.9
0
LINE
8
BLACK
6
CONTINUOUS
10
29.678
20
-142.852
11
29.7732
21
-142.662
0
LINE
8
BLACK
6
CONTINUOUS
10
29.7732
20
-142.662
11
29.9637
21
-142.567
0
LINE
8
BLACK
6
CONTINUOUS
10
29.9637
20
-142.567
11
30.2494
21
-142.567
0
LINE
8
BLACK
6
CONTINUOUS
10
30.2494
20
-142.567
11
30.4399
21
-142.662
0
LINE
8
BLACK
6
CONTINUOUS
10
30.4399
20
-142.662
11
30.5351
21
-142.852
0
LINE
8
BLACK
6
CONTINUOUS
10
30.5351
20
-142.852
11
30.5351
21
-143.9
0
LINE
8
BLACK
6
CONTINUOUS
10
34.4399
20
-141.805
11
32.7256
21
-144.376
0
LINE
8
BLACK
6
CONTINUOUS
10
37.0113
20
-141.9
11
37.2018
21
-141.9
0
LINE
8
BLACK
6
CONTINUOUS
10
37.2018
20
-141.9
11
37.3923
21
-141.995
0
LINE
8
BLACK
6
CONTINUOUS
10
37.3923
20
-141.995
11
37.4875
21
-142.09
0
LINE
8
BLACK
6
CONTINUOUS
10
37.4875
20
-142.09
11
37.5828
21
-142.281
0
LINE
8
BLACK
6
CONTINUOUS
10
37.5828
20
-142.281
11
37.678
21
-142.662
0
LINE
8
BLACK
6
CONTINUOUS
10
37.678
20
-142.662
11
37.678
21
-143.138
0
LINE
8
BLACK
6
CONTINUOUS
10
37.678
20
-143.138
11
37.5828
21
-143.519
0
LINE
8
BLACK
6
CONTINUOUS
10
37.5828
20
-143.519
11
37.4875
21
-143.709
0
LINE
8
BLACK
6
CONTINUOUS
10
37.4875
20
-143.709
11
37.3923
21
-143.805
0
LINE
8
BLACK
6
CONTINUOUS
10
37.3923
20
-143.805
11
37.2018
21
-143.9
0
LINE
8
BLACK
6
CONTINUOUS
10
37.2018
20
-143.9
11
37.0113
21
-143.9
0
LINE
8
BLACK
6
CONTINUOUS
10
37.0113
20
-143.9
11
36.8209
21
-143.805
0
LINE
8
BLACK
6
CONTINUOUS
10
36.8209
20
-143.805
11
36.7256
21
-143.709
0
LINE
8
BLACK
6
CONTINUOUS
10
36.7256
20
-143.709
11
36.6304
21
-143.519
0
LINE
8
BLACK
6
CONTINUOUS
10
36.6304
20
-143.519
11
36.5352
21
-143.138
0
LINE
8
BLACK
6
CONTINUOUS
10
36.5352
20
-143.138
11
36.5352
21
-142.662
0
LINE
8
BLACK
6
CONTINUOUS
10
36.5352
20
-142.662
11
36.6304
21
-142.281
0
LINE
8
BLACK
6
CONTINUOUS
10
36.6304
20
-142.281
11
36.7256
21
-142.09
0
LINE
8
BLACK
6
CONTINUOUS
10
36.7256
20
-142.09
11
36.8209
21
-141.995
0
LINE
8
BLACK
6
CONTINUOUS
10
36.8209
20
-141.995
11
37.0113
21
-141.9
0
LINE
8
BLACK
6
CONTINUOUS
10
38.5352
20
-143.709
11
38.6304
21
-143.805
0
LINE
8
BLACK
6
CONTINUOUS
10
38.6304
20
-143.805
11
38.5352
21
-143.9
0
LINE
8
BLACK
6
CONTINUOUS
10
38.5352
20
-143.9
11
38.4399
21
-143.805
0
LINE
8
BLACK
6
CONTINUOUS
10
38.4399
20
-143.805
11
38.5352
21
-143.709
0
LINE
8
BLACK
6
CONTINUOUS
10
38.5352
20
-143.709
11
38.5352
21
-143.9
0
LINE
8
BLACK
6
CONTINUOUS
10
39.8685
20
-141.9
11
40.059
21
-141.9
0
LINE
8
BLACK
6
CONTINUOUS
10
40.059
20
-141.9
11
40.2494
21
-141.995
0
LINE
8
BLACK
6
CONTINUOUS
10
40.2494
20
-141.995
11
40.3447
21
-142.09
0
LINE
8
BLACK
6
CONTINUOUS
10
40.3447
20
-142.09
11
40.4399
21
-142.281
0
LINE
8
BLACK
6
CONTINUOUS
10
40.4399
20
-142.281
11
40.5352
21
-142.662
0
LINE
8
BLACK
6
CONTINUOUS
10
40.5352
20
-142.662
11
40.5352
21
-143.138
0
LINE
8
BLACK
6
CONTINUOUS
10
40.5352
20
-143.138
11
40.4399
21
-143.519
0
LINE
8
BLACK
6
CONTINUOUS
10
40.4399
20
-143.519
11
40.3447
21
-143.709
0
LINE
8
BLACK
6
CONTINUOUS
10
40.3447
20
-143.709
11
40.2494
21
-143.805
0
LINE
8
BLACK
6
CONTINUOUS
10
40.2494
20
-143.805
11
40.059
21
-143.9
0
LINE
8
BLACK
6
CONTINUOUS
10
40.059
20
-143.9
11
39.8685
21
-143.9
0
LINE
8
BLACK
6
CONTINUOUS
10
39.8685
20
-143.9
11
39.678
21
-143.805
0
LINE
8
BLACK
6
CONTINUOUS
10
39.678
20
-143.805
11
39.5828
21
-143.709
0
LINE
8
BLACK
6
CONTINUOUS
10
39.5828
20
-143.709
11
39.4875
21
-143.519
0
LINE
8
BLACK
6
CONTINUOUS
10
39.4875
20
-143.519
11
39.3923
21
-143.138
0
LINE
8
BLACK
6
CONTINUOUS
10
39.3923
20
-143.138
11
39.3923
21
-142.662
0
LINE
8
BLACK
6
CONTINUOUS
10
39.3923
20
-142.662
11
39.4875
21
-142.281
0
LINE
8
BLACK
6
CONTINUOUS
10
39.4875
20
-142.281
11
39.5828
21
-142.09
0
LINE
8
BLACK
6
CONTINUOUS
10
39.5828
20
-142.09
11
39.678
21
-141.995
0
LINE
8
BLACK
6
CONTINUOUS
10
39.678
20
-141.995
11
39.8685
21
-141.9
0
LINE
8
BLACK
6
CONTINUOUS
10
41.2018
20
-141.9
11
42.4399
21
-141.9
0
LINE
8
BLACK
6
CONTINUOUS
10
42.4399
20
-141.9
11
41.7732
21
-142.662
0
LINE
8
BLACK
6
CONTINUOUS
10
41.7732
20
-142.662
11
42.059
21
-142.662
0
LINE
8
BLACK
6
CONTINUOUS
10
42.059
20
-142.662
11
42.2494
21
-142.757
0
LINE
8
BLACK
6
CONTINUOUS
10
42.2494
20
-142.757
11
42.3447
21
-142.852
0
LINE
8
BLACK
6
CONTINUOUS
10
42.3447
20
-142.852
11
42.4399
21
-143.043
0
LINE
8
BLACK
6
CONTINUOUS
10
42.4399
20
-143.043
11
42.4399
21
-143.519
0
LINE
8
BLACK
6
CONTINUOUS
10
42.4399
20
-143.519
11
42.3447
21
-143.709
0
LINE
8
BLACK
6
CONTINUOUS
10
42.3447
20
-143.709
11
42.2494
21
-143.805
0
LINE
8
BLACK
6
CONTINUOUS
10
42.2494
20
-143.805
11
42.059
21
-143.9
0
LINE
8
BLACK
6
CONTINUOUS
10
42.059
20
-143.9
11
41.4875
21
-143.9
0
LINE
8
BLACK
6
CONTINUOUS
10
41.4875
20
-143.9
11
41.2971
21
-143.805
0
LINE
8
BLACK
6
CONTINUOUS
10
41.2971
20
-143.805
11
41.2018
21
-143.709
0
LINE
8
BLACK
6
CONTINUOUS
10
43.3923
20
-143.9
11
43.7732
21
-143.9
0
LINE
8
BLACK
6
CONTINUOUS
10
43.7732
20
-143.9
11
43.9637
21
-143.805
0
LINE
8
BLACK
6
CONTINUOUS
10
43.9637
20
-143.805
11
44.059
21
-143.709
0
LINE
8
BLACK
6
CONTINUOUS
10
44.059
20
-143.709
11
44.2494
21
-143.424
0
LINE
8
BLACK
6
CONTINUOUS
10
44.2494
20
-143.424
11
44.3447
21
-143.043
0
LINE
8
BLACK
6
CONTINUOUS
10
44.3447
20
-143.043
11
44.3447
21
-142.281
0
LINE
8
BLACK
6
CONTINUOUS
10
44.3447
20
-142.281
11
44.2494
21
-142.09
0
LINE
8
BLACK
6
CONTINUOUS
10
44.2494
20
-142.09
11
44.1542
21
-141.995
0
LINE
8
BLACK
6
CONTINUOUS
10
44.1542
20
-141.995
11
43.9637
21
-141.9
0
LINE
8
BLACK
6
CONTINUOUS
10
43.9637
20
-141.9
11
43.5828
21
-141.9
0
LINE
8
BLACK
6
CONTINUOUS
10
43.5828
20
-141.9
11
43.3923
21
-141.995
0
LINE
8
BLACK
6
CONTINUOUS
10
43.3923
20
-141.995
11
43.2971
21
-142.09
0
LINE
8
BLACK
6
CONTINUOUS
10
43.2971
20
-142.09
11
43.2018
21
-142.281
0
LINE
8
BLACK
6
CONTINUOUS
10
43.2018
20
-142.281
11
43.2018
21
-142.757
0
LINE
8
BLACK
6
CONTINUOUS
10
43.2018
20
-142.757
11
43.2971
21
-142.947
0
LINE
8
BLACK
6
CONTINUOUS
10
43.2971
20
-142.947
11
43.3923
21
-143.043
0
LINE
8
BLACK
6
CONTINUOUS
10
43.3923
20
-143.043
11
43.5828
21
-143.138
0
LINE
8
BLACK
6
CONTINUOUS
10
43.5828
20
-143.138
11
43.9637
21
-143.138
0
LINE
8
BLACK
6
CONTINUOUS
10
43.9637
20
-143.138
11
44.1542
21
-143.043
0
LINE
8
BLACK
6
CONTINUOUS
10
44.1542
20
-143.043
11
44.2494
21
-142.947
0
LINE
8
BLACK
6
CONTINUOUS
10
44.2494
20
-142.947
11
44.3447
21
-142.757
0
LINE
8
BLACK
6
CONTINUOUS
10
46.059
20
-142.567
11
46.059
21
-143.9
0
LINE
8
BLACK
6
CONTINUOUS
10
45.5828
20
-141.805
11
45.1066
21
-143.233
0
LINE
8
BLACK
6
CONTINUOUS
10
45.1066
20
-143.233
11
46.3447
21
-143.233
0
LINE
8
BLACK
6
CONTINUOUS
10
47.0113
20
-141.9
11
47.0113
21
-142.281
0
LINE
8
BLACK
6
CONTINUOUS
10
47.7732
20
-141.9
11
47.7732
21
-142.281
0
LINE
8
BLACK
6
CONTINUOUS
10
50.7256
20
-144.662
11
50.6304
21
-144.567
0
LINE
8
BLACK
6
CONTINUOUS
10
50.6304
20
-144.567
11
50.4399
21
-144.281
0
LINE
8
BLACK
6
CONTINUOUS
10
50.4399
20
-144.281
11
50.3447
21
-144.09
0
LINE
8
BLACK
6
CONTINUOUS
10
50.3447
20
-144.09
11
50.2494
21
-143.805
0
LINE
8
BLACK
6
CONTINUOUS
10
50.2494
20
-143.805
11
50.1542
21
-143.328
0
LINE
8
BLACK
6
CONTINUOUS
10
50.1542
20
-143.328
11
50.1542
21
-142.947
0
LINE
8
BLACK
6
CONTINUOUS
10
50.1542
20
-142.947
11
50.2494
21
-142.471
0
LINE
8
BLACK
6
CONTINUOUS
10
50.2494
20
-142.471
11
50.3447
21
-142.186
0
LINE
8
BLACK
6
CONTINUOUS
10
50.3447
20
-142.186
11
50.4399
21
-141.995
0
LINE
8
BLACK
6
CONTINUOUS
10
50.4399
20
-141.995
11
50.6304
21
-141.709
0
LINE
8
BLACK
6
CONTINUOUS
10
50.6304
20
-141.709
11
50.7256
21
-141.614
0
LINE
8
BLACK
6
CONTINUOUS
10
51.8685
20
-141.9
11
52.059
21
-141.9
0
LINE
8
BLACK
6
CONTINUOUS
10
52.059
20
-141.9
11
52.2494
21
-141.995
0
LINE
8
BLACK
6
CONTINUOUS
10
52.2494
20
-141.995
11
52.3447
21
-142.09
0
LINE
8
BLACK
6
CONTINUOUS
10
52.3447
20
-142.09
11
52.4399
21
-142.281
0
LINE
8
BLACK
6
CONTINUOUS
10
52.4399
20
-142.281
11
52.5352
21
-142.662
0
LINE
8
BLACK
6
CONTINUOUS
10
52.5352
20
-142.662
11
52.5352
21
-143.138
0
LINE
8
BLACK
6
CONTINUOUS
10
52.5352
20
-143.138
11
52.4399
21
-143.519
0
LINE
8
BLACK
6
CONTINUOUS
10
52.4399
20
-143.519
11
52.3447
21
-143.709
0
LINE
8
BLACK
6
CONTINUOUS
10
52.3447
20
-143.709
11
52.2494
21
-143.805
0
LINE
8
BLACK
6
CONTINUOUS
10
52.2494
20
-143.805
11
52.059
21
-143.9
0
LINE
8
BLACK
6
CONTINUOUS
10
52.059
20
-143.9
11
51.8685
21
-143.9
0
LINE
8
BLACK
6
CONTINUOUS
10
51.8685
20
-143.9
11
51.678
21
-143.805
0
LINE
8
BLACK
6
CONTINUOUS
10
51.678
20
-143.805
11
51.5828
21
-143.709
0
LINE
8
BLACK
6
CONTINUOUS
10
51.5828
20
-143.709
11
51.4875
21
-143.519
0
LINE
8
BLACK
6
CONTINUOUS
10
51.4875
20
-143.519
11
51.3923
21
-143.138
0
LINE
8
BLACK
6
CONTINUOUS
10
51.3923
20
-143.138
11
51.3923
21
-142.662
0
LINE
8
BLACK
6
CONTINUOUS
10
51.3923
20
-142.662
11
51.4875
21
-142.281
0
LINE
8
BLACK
6
CONTINUOUS
10
51.4875
20
-142.281
11
51.5828
21
-142.09
0
LINE
8
BLACK
6
CONTINUOUS
10
51.5828
20
-142.09
11
51.678
21
-141.995
0
LINE
8
BLACK
6
CONTINUOUS
10
51.678
20
-141.995
11
51.8685
21
-141.9
0
LINE
8
BLACK
6
CONTINUOUS
10
54.9161
20
-143.9
11
54.9161
21
-141.9
0
LINE
8
BLACK
6
CONTINUOUS
10
55.7732
20
-143.9
11
55.7732
21
-142.852
0
LINE
8
BLACK
6
CONTINUOUS
10
55.7732
20
-142.852
11
55.678
21
-142.662
0
LINE
8
BLACK
6
CONTINUOUS
10
55.678
20
-142.662
11
55.4875
21
-142.567
0
LINE
8
BLACK
6
CONTINUOUS
10
55.4875
20
-142.567
11
55.2018
21
-142.567
0
LINE
8
BLACK
6
CONTINUOUS
10
55.2018
20
-142.567
11
55.0113
21
-142.662
0
LINE
8
BLACK
6
CONTINUOUS
10
55.0113
20
-142.662
11
54.9161
21
-142.757
0
LINE
8
BLACK
6
CONTINUOUS
10
57.0113
20
-143.9
11
56.8209
21
-143.805
0
LINE
8
BLACK
6
CONTINUOUS
10
56.8209
20
-143.805
11
56.7256
21
-143.709
0
LINE
8
BLACK
6
CONTINUOUS
10
56.7256
20
-143.709
11
56.6304
21
-143.519
0
LINE
8
BLACK
6
CONTINUOUS
10
56.6304
20
-143.519
11
56.6304
21
-142.947
0
LINE
8
BLACK
6
CONTINUOUS
10
56.6304
20
-142.947
11
56.7256
21
-142.757
0
LINE
8
BLACK
6
CONTINUOUS
10
56.7256
20
-142.757
11
56.8209
21
-142.662
0
LINE
8
BLACK
6
CONTINUOUS
10
56.8209
20
-142.662
11
57.0113
21
-142.567
0
LINE
8
BLACK
6
CONTINUOUS
10
57.0113
20
-142.567
11
57.2971
21
-142.567
0
LINE
8
BLACK
6
CONTINUOUS
10
57.2971
20
-142.567
11
57.4875
21
-142.662
0
LINE
8
BLACK
6
CONTINUOUS
10
57.4875
20
-142.662
11
57.5828
21
-142.757
0
LINE
8
BLACK
6
CONTINUOUS
10
57.5828
20
-142.757
11
57.678
21
-142.947
0
LINE
8
BLACK
6
CONTINUOUS
10
57.678
20
-142.947
11
57.678
21
-143.519
0
LINE
8
BLACK
6
CONTINUOUS
10
57.678
20
-143.519
11
57.5828
21
-143.709
0
LINE
8
BLACK
6
CONTINUOUS
10
57.5828
20
-143.709
11
57.4875
21
-143.805
0
LINE
8
BLACK
6
CONTINUOUS
10
57.4875
20
-143.805
11
57.2971
21
-143.9
0
LINE
8
BLACK
6
CONTINUOUS
10
57.2971
20
-143.9
11
57.0113
21
-143.9
0
LINE
8
BLACK
6
CONTINUOUS
10
58.8209
20
-143.9
11
58.6304
21
-143.805
0
LINE
8
BLACK
6
CONTINUOUS
10
58.6304
20
-143.805
11
58.5352
21
-143.614
0
LINE
8
BLACK
6
CONTINUOUS
10
58.5352
20
-143.614
11
58.5352
21
-141.9
0
LINE
8
BLACK
6
CONTINUOUS
10
60.3447
20
-143.805
11
60.1542
21
-143.9
0
LINE
8
BLACK
6
CONTINUOUS
10
60.1542
20
-143.9
11
59.7732
21
-143.9
0
LINE
8
BLACK
6
CONTINUOUS
10
59.7732
20
-143.9
11
59.5828
21
-143.805
0
LINE
8
BLACK
6
CONTINUOUS
10
59.5828
20
-143.805
11
59.4875
21
-143.614
0
LINE
8
BLACK
6
CONTINUOUS
10
59.4875
20
-143.614
11
59.4875
21
-142.852
0
LINE
8
BLACK
6
CONTINUOUS
10
59.4875
20
-142.852
11
59.5828
21
-142.662
0
LINE
8
BLACK
6
CONTINUOUS
10
59.5828
20
-142.662
11
59.7732
21
-142.567
0
LINE
8
BLACK
6
CONTINUOUS
10
59.7732
20
-142.567
11
60.1542
21
-142.567
0
LINE
8
BLACK
6
CONTINUOUS
10
60.1542
20
-142.567
11
60.3447
21
-142.662
0
LINE
8
BLACK
6
CONTINUOUS
10
60.3447
20
-142.662
11
60.4399
21
-142.852
0
LINE
8
BLACK
6
CONTINUOUS
10
60.4399
20
-142.852
11
60.4399
21
-143.043
0
LINE
8
BLACK
6
CONTINUOUS
10
60.4399
20
-143.043
11
59.4875
21
-143.233
0
LINE
8
BLACK
6
CONTINUOUS
10
61.2018
20
-143.805
11
61.3923
21
-143.9
0
LINE
8
BLACK
6
CONTINUOUS
10
61.3923
20
-143.9
11
61.7732
21
-143.9
0
LINE
8
BLACK
6
CONTINUOUS
10
61.7732
20
-143.9
11
61.9637
21
-143.805
0
LINE
8
BLACK
6
CONTINUOUS
10
61.9637
20
-143.805
11
62.059
21
-143.614
0
LINE
8
BLACK
6
CONTINUOUS
10
62.059
20
-143.614
11
62.059
21
-143.519
0
LINE
8
BLACK
6
CONTINUOUS
10
62.059
20
-143.519
11
61.9637
21
-143.328
0
LINE
8
BLACK
6
CONTINUOUS
10
61.9637
20
-143.328
11
61.7732
21
-143.233
0
LINE
8
BLACK
6
CONTINUOUS
10
61.7732
20
-143.233
11
61.4875
21
-143.233
0
LINE
8
BLACK
6
CONTINUOUS
10
61.4875
20
-143.233
11
61.2971
21
-143.138
0
LINE
8
BLACK
6
CONTINUOUS
10
61.2971
20
-143.138
11
61.2018
21
-142.947
0
LINE
8
BLACK
6
CONTINUOUS
10
61.2018
20
-142.947
11
61.2018
21
-142.852
0
LINE
8
BLACK
6
CONTINUOUS
10
61.2018
20
-142.852
11
61.2971
21
-142.662
0
LINE
8
BLACK
6
CONTINUOUS
10
61.2971
20
-142.662
11
61.4875
21
-142.567
0
LINE
8
BLACK
6
CONTINUOUS
10
61.4875
20
-142.567
11
61.7732
21
-142.567
0
LINE
8
BLACK
6
CONTINUOUS
10
61.7732
20
-142.567
11
61.9637
21
-142.662
0
LINE
8
BLACK
6
CONTINUOUS
10
64.4399
20
-143.138
11
65.9637
21
-143.138
0
LINE
8
BLACK
6
CONTINUOUS
10
65.2018
20
-143.9
11
65.2018
21
-142.376
0
LINE
8
BLACK
6
CONTINUOUS
10
68.3447
20
-142.09
11
68.4399
21
-141.995
0
LINE
8
BLACK
6
CONTINUOUS
10
68.4399
20
-141.995
11
68.6304
21
-141.9
0
LINE
8
BLACK
6
CONTINUOUS
10
68.6304
20
-141.9
11
69.1066
21
-141.9
0
LINE
8
BLACK
6
CONTINUOUS
10
69.1066
20
-141.9
11
69.2971
21
-141.995
0
LINE
8
BLACK
6
CONTINUOUS
10
69.2971
20
-141.995
11
69.3923
21
-142.09
0
LINE
8
BLACK
6
CONTINUOUS
10
69.3923
20
-142.09
11
69.4875
21
-142.281
0
LINE
8
BLACK
6
CONTINUOUS
10
69.4875
20
-142.281
11
69.4875
21
-142.471
0
LINE
8
BLACK
6
CONTINUOUS
10
69.4875
20
-142.471
11
69.3923
21
-142.757
0
LINE
8
BLACK
6
CONTINUOUS
10
69.3923
20
-142.757
11
68.2494
21
-143.9
0
LINE
8
BLACK
6
CONTINUOUS
10
68.2494
20
-143.9
11
69.4875
21
-143.9
0
LINE
8
BLACK
6
CONTINUOUS
10
71.7732
20
-143.805
11
71.9637
21
-143.9
0
LINE
8
BLACK
6
CONTINUOUS
10
71.9637
20
-143.9
11
72.3447
21
-143.9
0
LINE
8
BLACK
6
CONTINUOUS
10
72.3447
20
-143.9
11
72.5352
21
-143.805
0
LINE
8
BLACK
6
CONTINUOUS
10
72.5352
20
-143.805
11
72.6304
21
-143.614
0
LINE
8
BLACK
6
CONTINUOUS
10
72.6304
20
-143.614
11
72.6304
21
-143.519
0
LINE
8
BLACK
6
CONTINUOUS
10
72.6304
20
-143.519
11
72.5352
21
-143.328
0
LINE
8
BLACK
6
CONTINUOUS
10
72.5352
20
-143.328
11
72.3447
21
-143.233
0
LINE
8
BLACK
6
CONTINUOUS
10
72.3447
20
-143.233
11
72.059
21
-143.233
0
LINE
8
BLACK
6
CONTINUOUS
10
72.059
20
-143.233
11
71.8685
21
-143.138
0
LINE
8
BLACK
6
CONTINUOUS
10
71.8685
20
-143.138
11
71.7732
21
-142.947
0
LINE
8
BLACK
6
CONTINUOUS
10
71.7732
20
-142.947
11
71.7732
21
-142.852
0
LINE
8
BLACK
6
CONTINUOUS
10
71.7732
20
-142.852
11
71.8685
21
-142.662
0
LINE
8
BLACK
6
CONTINUOUS
10
71.8685
20
-142.662
11
72.059
21
-142.567
0
LINE
8
BLACK
6
CONTINUOUS
10
72.059
20
-142.567
11
72.3447
21
-142.567
0
LINE
8
BLACK
6
CONTINUOUS
10
72.3447
20
-142.567
11
72.5352
21
-142.662
0
LINE
8
BLACK
6
CONTINUOUS
10
73.7732
20
-143.9
11
73.5828
21
-143.805
0
LINE
8
BLACK
6
CONTINUOUS
10
73.5828
20
-143.805
11
73.4875
21
-143.614
0
LINE
8
BLACK
6
CONTINUOUS
10
73.4875
20
-143.614
11
73.4875
21
-141.9
0
LINE
8
BLACK
6
CONTINUOUS
10
74.8209
20
-143.9
11
74.6304
21
-143.805
0
LINE
8
BLACK
6
CONTINUOUS
10
74.6304
20
-143.805
11
74.5352
21
-143.709
0
LINE
8
BLACK
6
CONTINUOUS
10
74.5352
20
-143.709
11
74.4399
21
-143.519
0
LINE
8
BLACK
6
CONTINUOUS
10
74.4399
20
-143.519
11
74.4399
21
-142.947
0
LINE
8
BLACK
6
CONTINUOUS
10
74.4399
20
-142.947
11
74.5352
21
-142.757
0
LINE
8
BLACK
6
CONTINUOUS
10
74.5352
20
-142.757
11
74.6304
21
-142.662
0
LINE
8
BLACK
6
CONTINUOUS
10
74.6304
20
-142.662
11
74.8209
21
-142.567
0
LINE
8
BLACK
6
CONTINUOUS
10
74.8209
20
-142.567
11
75.1066
21
-142.567
0
LINE
8
BLACK
6
CONTINUOUS
10
75.1066
20
-142.567
11
75.2971
21
-142.662
0
LINE
8
BLACK
6
CONTINUOUS
10
75.2971
20
-142.662
11
75.3923
21
-142.757
0
LINE
8
BLACK
6
CONTINUOUS
10
75.3923
20
-142.757
11
75.4875
21
-142.947
0
LINE
8
BLACK
6
CONTINUOUS
10
75.4875
20
-142.947
11
75.4875
21
-143.519
0
LINE
8
BLACK
6
CONTINUOUS
10
75.4875
20
-143.519
11
75.3923
21
-143.709
0
LINE
8
BLACK
6
CONTINUOUS
10
75.3923
20
-143.709
11
75.2971
21
-143.805
0
LINE
8
BLACK
6
CONTINUOUS
10
75.2971
20
-143.805
11
75.1066
21
-143.9
0
LINE
8
BLACK
6
CONTINUOUS
10
75.1066
20
-143.9
11
74.8209
21
-143.9
0
LINE
8
BLACK
6
CONTINUOUS
10
76.059
20
-142.567
11
76.8209
21
-142.567
0
LINE
8
BLACK
6
CONTINUOUS
10
76.3447
20
-141.9
11
76.3447
21
-143.614
0
LINE
8
BLACK
6
CONTINUOUS
10
76.3447
20
-143.614
11
76.4399
21
-143.805
0
LINE
8
BLACK
6
CONTINUOUS
10
76.4399
20
-143.805
11
76.6304
21
-143.9
0
LINE
8
BLACK
6
CONTINUOUS
10
76.6304
20
-143.9
11
76.8209
21
-143.9
0
LINE
8
BLACK
6
CONTINUOUS
10
77.3923
20
-143.805
11
77.5828
21
-143.9
0
LINE
8
BLACK
6
CONTINUOUS
10
77.5828
20
-143.9
11
77.9637
21
-143.9
0
LINE
8
BLACK
6
CONTINUOUS
10
77.9637
20
-143.9
11
78.1542
21
-143.805
0
LINE
8
BLACK
6
CONTINUOUS
10
78.1542
20
-143.805
11
78.2494
21
-143.614
0
LINE
8
BLACK
6
CONTINUOUS
10
78.2494
20
-143.614
11
78.2494
21
-143.519
0
LINE
8
BLACK
6
CONTINUOUS
10
78.2494
20
-143.519
11
78.1542
21
-143.328
0
LINE
8
BLACK
6
CONTINUOUS
10
78.1542
20
-143.328
11
77.9637
21
-143.233
0
LINE
8
BLACK
6
CONTINUOUS
10
77.9637
20
-143.233
11
77.678
21
-143.233
0
LINE
8
BLACK
6
CONTINUOUS
10
77.678
20
-143.233
11
77.4875
21
-143.138
0
LINE
8
BLACK
6
CONTINUOUS
10
77.4875
20
-143.138
11
77.3923
21
-142.947
0
LINE
8
BLACK
6
CONTINUOUS
10
77.3923
20
-142.947
11
77.3923
21
-142.852
0
LINE
8
BLACK
6
CONTINUOUS
10
77.3923
20
-142.852
11
77.4875
21
-142.662
0
LINE
8
BLACK
6
CONTINUOUS
10
77.4875
20
-142.662
11
77.678
21
-142.567
0
LINE
8
BLACK
6
CONTINUOUS
10
77.678
20
-142.567
11
77.9637
21
-142.567
0
LINE
8
BLACK
6
CONTINUOUS
10
77.9637
20
-142.567
11
78.1542
21
-142.662
0
LINE
8
BLACK
6
CONTINUOUS
10
78.9161
20
-144.662
11
79.0113
21
-144.567
0
LINE
8
BLACK
6
CONTINUOUS
10
79.0113
20
-144.567
11
79.2018
21
-144.281
0
LINE
8
BLACK
6
CONTINUOUS
10
79.2018
20
-144.281
11
79.2971
21
-144.09
0
LINE
8
BLACK
6
CONTINUOUS
10
79.2971
20
-144.09
11
79.3923
21
-143.805
0
LINE
8
BLACK
6
CONTINUOUS
10
79.3923
20
-143.805
11
79.4875
21
-143.328
0
LINE
8
BLACK
6
CONTINUOUS
10
79.4875
20
-143.328
11
79.4875
21
-142.947
0
LINE
8
BLACK
6
CONTINUOUS
10
79.4875
20
-142.947
11
79.3923
21
-142.471
0
LINE
8
BLACK
6
CONTINUOUS
10
79.3923
20
-142.471
11
79.2971
21
-142.186
0
LINE
8
BLACK
6
CONTINUOUS
10
79.2971
20
-142.186
11
79.2018
21
-141.995
0
LINE
8
BLACK
6
CONTINUOUS
10
79.2018
20
-141.995
11
79.0113
21
-141.709
0
LINE
8
BLACK
6
CONTINUOUS
10
79.0113
20
-141.709
11
78.9161
21
-141.614
0
LINE
8
BLACK
6
CONTINUOUS
10
13.775
20
-145.025
11
14.975
21
-146.225
0
LINE
8
BLACK
6
CONTINUOUS
10
14.975
20
-145.025
11
13.775
21
-146.225
0
CIRCLE
8
BLACK
10
14.375
20
-145.625
40
0.6
0
LINE
8
BLACK
6
CONTINUOUS
10
18.6304
20
-146.54
11
17.4875
21
-146.54
0
LINE
8
BLACK
6
CONTINUOUS
10
18.059
20
-146.54
11
18.059
21
-144.54
0
LINE
8
BLACK
6
CONTINUOUS
10
18.059
20
-144.54
11
17.8685
21
-144.826
0
LINE
8
BLACK
6
CONTINUOUS
10
17.8685
20
-144.826
11
17.678
21
-145.016
0
LINE
8
BLACK
6
CONTINUOUS
10
17.678
20
-145.016
11
17.4875
21
-145.111
0
LINE
8
BLACK
6
CONTINUOUS
10
19.4875
20
-146.349
11
19.5828
21
-146.445
0
LINE
8
BLACK
6
CONTINUOUS
10
19.5828
20
-146.445
11
19.4875
21
-146.54
0
LINE
8
BLACK
6
CONTINUOUS
10
19.4875
20
-146.54
11
19.3923
21
-146.445
0
LINE
8
BLACK
6
CONTINUOUS
10
19.3923
20
-146.445
11
19.4875
21
-146.349
0
LINE
8
BLACK
6
CONTINUOUS
10
19.4875
20
-146.349
11
19.4875
21
-146.54
0
LINE
8
BLACK
6
CONTINUOUS
10
20.3447
20
-144.73
11
20.4399
21
-144.635
0
LINE
8
BLACK
6
CONTINUOUS
10
20.4399
20
-144.635
11
20.6304
21
-144.54
0
LINE
8
BLACK
6
CONTINUOUS
10
20.6304
20
-144.54
11
21.1066
21
-144.54
0
LINE
8
BLACK
6
CONTINUOUS
10
21.1066
20
-144.54
11
21.2971
21
-144.635
0
LINE
8
BLACK
6
CONTINUOUS
10
21.2971
20
-144.635
11
21.3923
21
-144.73
0
LINE
8
BLACK
6
CONTINUOUS
10
21.3923
20
-144.73
11
21.4875
21
-144.921
0
LINE
8
BLACK
6
CONTINUOUS
10
21.4875
20
-144.921
11
21.4875
21
-145.111
0
LINE
8
BLACK
6
CONTINUOUS
10
21.4875
20
-145.111
11
21.3923
21
-145.397
0
LINE
8
BLACK
6
CONTINUOUS
10
21.3923
20
-145.397
11
20.2494
21
-146.54
0
LINE
8
BLACK
6
CONTINUOUS
10
20.2494
20
-146.54
11
21.4875
21
-146.54
0
LINE
8
BLACK
6
CONTINUOUS
10
22.7256
20
-144.54
11
22.9161
21
-144.54
0
LINE
8
BLACK
6
CONTINUOUS
10
22.9161
20
-144.54
11
23.1066
21
-144.635
0
LINE
8
BLACK
6
CONTINUOUS
10
23.1066
20
-144.635
11
23.2018
21
-144.73
0
LINE
8
BLACK
6
CONTINUOUS
10
23.2018
20
-144.73
11
23.2971
21
-144.921
0
LINE
8
BLACK
6
CONTINUOUS
10
23.2971
20
-144.921
11
23.3923
21
-145.302
0
LINE
8
BLACK
6
CONTINUOUS
10
23.3923
20
-145.302
11
23.3923
21
-145.778
0
LINE
8
BLACK
6
CONTINUOUS
10
23.3923
20
-145.778
11
23.2971
21
-146.159
0
LINE
8
BLACK
6
CONTINUOUS
10
23.2971
20
-146.159
11
23.2018
21
-146.349
0
LINE
8
BLACK
6
CONTINUOUS
10
23.2018
20
-146.349
11
23.1066
21
-146.445
0
LINE
8
BLACK
6
CONTINUOUS
10
23.1066
20
-146.445
11
22.9161
21
-146.54
0
LINE
8
BLACK
6
CONTINUOUS
10
22.9161
20
-146.54
11
22.7256
21
-146.54
0
LINE
8
BLACK
6
CONTINUOUS
10
22.7256
20
-146.54
11
22.5351
21
-146.445
0
LINE
8
BLACK
6
CONTINUOUS
10
22.5351
20
-146.445
11
22.4399
21
-146.349
0
LINE
8
BLACK
6
CONTINUOUS
10
22.4399
20
-146.349
11
22.3447
21
-146.159
0
LINE
8
BLACK
6
CONTINUOUS
10
22.3447
20
-146.159
11
22.2494
21
-145.778
0
LINE
8
BLACK
6
CONTINUOUS
10
22.2494
20
-145.778
11
22.2494
21
-145.302
0
LINE
8
BLACK
6
CONTINUOUS
10
22.2494
20
-145.302
11
22.3447
21
-144.921
0
LINE
8
BLACK
6
CONTINUOUS
10
22.3447
20
-144.921
11
22.4399
21
-144.73
0
LINE
8
BLACK
6
CONTINUOUS
10
22.4399
20
-144.73
11
22.5351
21
-144.635
0
LINE
8
BLACK
6
CONTINUOUS
10
22.5351
20
-144.635
11
22.7256
21
-144.54
0
LINE
8
BLACK
6
CONTINUOUS
10
24.6304
20
-144.54
11
24.8209
21
-144.54
0
LINE
8
BLACK
6
CONTINUOUS
10
24.8209
20
-144.54
11
25.0113
21
-144.635
0
LINE
8
BLACK
6
CONTINUOUS
10
25.0113
20
-144.635
11
25.1066
21
-144.73
0
LINE
8
BLACK
6
CONTINUOUS
10
25.1066
20
-144.73
11
25.2018
21
-144.921
0
LINE
8
BLACK
6
CONTINUOUS
10
25.2018
20
-144.921
11
25.2971
21
-145.302
0
LINE
8
BLACK
6
CONTINUOUS
10
25.2971
20
-145.302
11
25.2971
21
-145.778
0
LINE
8
BLACK
6
CONTINUOUS
10
25.2971
20
-145.778
11
25.2018
21
-146.159
0
LINE
8
BLACK
6
CONTINUOUS
10
25.2018
20
-146.159
11
25.1066
21
-146.349
0
LINE
8
BLACK
6
CONTINUOUS
10
25.1066
20
-146.349
11
25.0113
21
-146.445
0
LINE
8
BLACK
6
CONTINUOUS
10
25.0113
20
-146.445
11
24.8209
21
-146.54
0
LINE
8
BLACK
6
CONTINUOUS
10
24.8209
20
-146.54
11
24.6304
21
-146.54
0
LINE
8
BLACK
6
CONTINUOUS
10
24.6304
20
-146.54
11
24.4399
21
-146.445
0
LINE
8
BLACK
6
CONTINUOUS
10
24.4399
20
-146.445
11
24.3447
21
-146.349
0
LINE
8
BLACK
6
CONTINUOUS
10
24.3447
20
-146.349
11
24.2494
21
-146.159
0
LINE
8
BLACK
6
CONTINUOUS
10
24.2494
20
-146.159
11
24.1542
21
-145.778
0
LINE
8
BLACK
6
CONTINUOUS
10
24.1542
20
-145.778
11
24.1542
21
-145.302
0
LINE
8
BLACK
6
CONTINUOUS
10
24.1542
20
-145.302
11
24.2494
21
-144.921
0
LINE
8
BLACK
6
CONTINUOUS
10
24.2494
20
-144.921
11
24.3447
21
-144.73
0
LINE
8
BLACK
6
CONTINUOUS
10
24.3447
20
-144.73
11
24.4399
21
-144.635
0
LINE
8
BLACK
6
CONTINUOUS
10
24.4399
20
-144.635
11
24.6304
21
-144.54
0
LINE
8
BLACK
6
CONTINUOUS
10
26.1542
20
-146.54
11
26.1542
21
-145.207
0
LINE
8
BLACK
6
CONTINUOUS
10
26.1542
20
-145.397
11
26.2494
21
-145.302
0
LINE
8
BLACK
6
CONTINUOUS
10
26.2494
20
-145.302
11
26.4399
21
-145.207
0
LINE
8
BLACK
6
CONTINUOUS
10
26.4399
20
-145.207
11
26.7256
21
-145.207
0
LINE
8
BLACK
6
CONTINUOUS
10
26.7256
20
-145.207
11
26.9161
21
-145.302
0
LINE
8
BLACK
6
CONTINUOUS
10
26.9161
20
-145.302
11
27.0113
21
-145.492
0
LINE
8
BLACK
6
CONTINUOUS
10
27.0113
20
-145.492
11
27.0113
21
-146.54
0
LINE
8
BLACK
6
CONTINUOUS
10
27.0113
20
-145.492
11
27.1066
21
-145.302
0
LINE
8
BLACK
6
CONTINUOUS
10
27.1066
20
-145.302
11
27.2971
21
-145.207
0
LINE
8
BLACK
6
CONTINUOUS
10
27.2971
20
-145.207
11
27.5828
21
-145.207
0
LINE
8
BLACK
6
CONTINUOUS
10
27.5828
20
-145.207
11
27.7732
21
-145.302
0
LINE
8
BLACK
6
CONTINUOUS
10
27.7732
20
-145.302
11
27.8685
21
-145.492
0
LINE
8
BLACK
6
CONTINUOUS
10
27.8685
20
-145.492
11
27.8685
21
-146.54
0
LINE
8
BLACK
6
CONTINUOUS
10
28.8209
20
-146.54
11
28.8209
21
-145.207
0
LINE
8
BLACK
6
CONTINUOUS
10
28.8209
20
-145.397
11
28.9161
21
-145.302
0
LINE
8
BLACK
6
CONTINUOUS
10
28.9161
20
-145.302
11
29.1066
21
-145.207
0
LINE
8
BLACK
6
CONTINUOUS
10
29.1066
20
-145.207
11
29.3923
21
-145.207
0
LINE
8
BLACK
6
CONTINUOUS
10
29.3923
20
-145.207
11
29.5828
21
-145.302
0
LINE
8
BLACK
6
CONTINUOUS
10
29.5828
20
-145.302
11
29.678
21
-145.492
0
LINE
8
BLACK
6
CONTINUOUS
10
29.678
20
-145.492
11
29.678
21
-146.54
0
LINE
8
BLACK
6
CONTINUOUS
10
29.678
20
-145.492
11
29.7732
21
-145.302
0
LINE
8
BLACK
6
CONTINUOUS
10
29.7732
20
-145.302
11
29.9637
21
-145.207
0
LINE
8
BLACK
6
CONTINUOUS
10
29.9637
20
-145.207
11
30.2494
21
-145.207
0
LINE
8
BLACK
6
CONTINUOUS
10
30.2494
20
-145.207
11
30.4399
21
-145.302
0
LINE
8
BLACK
6
CONTINUOUS
10
30.4399
20
-145.302
11
30.5351
21
-145.492
0
LINE
8
BLACK
6
CONTINUOUS
10
30.5351
20
-145.492
11
30.5351
21
-146.54
0
LINE
8
BLACK
6
CONTINUOUS
10
34.4399
20
-144.445
11
32.7256
21
-147.016
0
LINE
8
BLACK
6
CONTINUOUS
10
37.0113
20
-144.54
11
37.2018
21
-144.54
0
LINE
8
BLACK
6
CONTINUOUS
10
37.2018
20
-144.54
11
37.3923
21
-144.635
0
LINE
8
BLACK
6
CONTINUOUS
10
37.3923
20
-144.635
11
37.4875
21
-144.73
0
LINE
8
BLACK
6
CONTINUOUS
10
37.4875
20
-144.73
11
37.5828
21
-144.921
0
LINE
8
BLACK
6
CONTINUOUS
10
37.5828
20
-144.921
11
37.678
21
-145.302
0
LINE
8
BLACK
6
CONTINUOUS
10
37.678
20
-145.302
11
37.678
21
-145.778
0
LINE
8
BLACK
6
CONTINUOUS
10
37.678
20
-145.778
11
37.5828
21
-146.159
0
LINE
8
BLACK
6
CONTINUOUS
10
37.5828
20
-146.159
11
37.4875
21
-146.349
0
LINE
8
BLACK
6
CONTINUOUS
10
37.4875
20
-146.349
11
37.3923
21
-146.445
0
LINE
8
BLACK
6
CONTINUOUS
10
37.3923
20
-146.445
11
37.2018
21
-146.54
0
LINE
8
BLACK
6
CONTINUOUS
10
37.2018
20
-146.54
11
37.0113
21
-146.54
0
LINE
8
BLACK
6
CONTINUOUS
10
37.0113
20
-146.54
11
36.8209
21
-146.445
0
LINE
8
BLACK
6
CONTINUOUS
10
36.8209
20
-146.445
11
36.7256
21
-146.349
0
LINE
8
BLACK
6
CONTINUOUS
10
36.7256
20
-146.349
11
36.6304
21
-146.159
0
LINE
8
BLACK
6
CONTINUOUS
10
36.6304
20
-146.159
11
36.5352
21
-145.778
0
LINE
8
BLACK
6
CONTINUOUS
10
36.5352
20
-145.778
11
36.5352
21
-145.302
0
LINE
8
BLACK
6
CONTINUOUS
10
36.5352
20
-145.302
11
36.6304
21
-144.921
0
LINE
8
BLACK
6
CONTINUOUS
10
36.6304
20
-144.921
11
36.7256
21
-144.73
0
LINE
8
BLACK
6
CONTINUOUS
10
36.7256
20
-144.73
11
36.8209
21
-144.635
0
LINE
8
BLACK
6
CONTINUOUS
10
36.8209
20
-144.635
11
37.0113
21
-144.54
0
LINE
8
BLACK
6
CONTINUOUS
10
38.5352
20
-146.349
11
38.6304
21
-146.445
0
LINE
8
BLACK
6
CONTINUOUS
10
38.6304
20
-146.445
11
38.5352
21
-146.54
0
LINE
8
BLACK
6
CONTINUOUS
10
38.5352
20
-146.54
11
38.4399
21
-146.445
0
LINE
8
BLACK
6
CONTINUOUS
10
38.4399
20
-146.445
11
38.5352
21
-146.349
0
LINE
8
BLACK
6
CONTINUOUS
10
38.5352
20
-146.349
11
38.5352
21
-146.54
0
LINE
8
BLACK
6
CONTINUOUS
10
39.8685
20
-144.54
11
40.059
21
-144.54
0
LINE
8
BLACK
6
CONTINUOUS
10
40.059
20
-144.54
11
40.2494
21
-144.635
0
LINE
8
BLACK
6
CONTINUOUS
10
40.2494
20
-144.635
11
40.3447
21
-144.73
0
LINE
8
BLACK
6
CONTINUOUS
10
40.3447
20
-144.73
11
40.4399
21
-144.921
0
LINE
8
BLACK
6
CONTINUOUS
10
40.4399
20
-144.921
11
40.5352
21
-145.302
0
LINE
8
BLACK
6
CONTINUOUS
10
40.5352
20
-145.302
11
40.5352
21
-145.778
0
LINE
8
BLACK
6
CONTINUOUS
10
40.5352
20
-145.778
11
40.4399
21
-146.159
0
LINE
8
BLACK
6
CONTINUOUS
10
40.4399
20
-146.159
11
40.3447
21
-146.349
0
LINE
8
BLACK
6
CONTINUOUS
10
40.3447
20
-146.349
11
40.2494
21
-146.445
0
LINE
8
BLACK
6
CONTINUOUS
10
40.2494
20
-146.445
11
40.059
21
-146.54
0
LINE
8
BLACK
6
CONTINUOUS
10
40.059
20
-146.54
11
39.8685
21
-146.54
0
LINE
8
BLACK
6
CONTINUOUS
10
39.8685
20
-146.54
11
39.678
21
-146.445
0
LINE
8
BLACK
6
CONTINUOUS
10
39.678
20
-146.445
11
39.5828
21
-146.349
0
LINE
8
BLACK
6
CONTINUOUS
10
39.5828
20
-146.349
11
39.4875
21
-146.159
0
LINE
8
BLACK
6
CONTINUOUS
10
39.4875
20
-146.159
11
39.3923
21
-145.778
0
LINE
8
BLACK
6
CONTINUOUS
10
39.3923
20
-145.778
11
39.3923
21
-145.302
0
LINE
8
BLACK
6
CONTINUOUS
10
39.3923
20
-145.302
11
39.4875
21
-144.921
0
LINE
8
BLACK
6
CONTINUOUS
10
39.4875
20
-144.921
11
39.5828
21
-144.73
0
LINE
8
BLACK
6
CONTINUOUS
10
39.5828
20
-144.73
11
39.678
21
-144.635
0
LINE
8
BLACK
6
CONTINUOUS
10
39.678
20
-144.635
11
39.8685
21
-144.54
0
LINE
8
BLACK
6
CONTINUOUS
10
42.2494
20
-145.207
11
42.2494
21
-146.54
0
LINE
8
BLACK
6
CONTINUOUS
10
41.7732
20
-144.445
11
41.2971
21
-145.873
0
LINE
8
BLACK
6
CONTINUOUS
10
41.2971
20
-145.873
11
42.5352
21
-145.873
0
LINE
8
BLACK
6
CONTINUOUS
10
43.1066
20
-144.54
11
44.4399
21
-144.54
0
LINE
8
BLACK
6
CONTINUOUS
10
44.4399
20
-144.54
11
43.5828
21
-146.54
0
LINE
8
BLACK
6
CONTINUOUS
10
45.1066
20
-144.73
11
45.2018
21
-144.635
0
LINE
8
BLACK
6
CONTINUOUS
10
45.2018
20
-144.635
11
45.3923
21
-144.54
0
LINE
8
BLACK
6
CONTINUOUS
10
45.3923
20
-144.54
11
45.8685
21
-144.54
0
LINE
8
BLACK
6
CONTINUOUS
10
45.8685
20
-144.54
11
46.059
21
-144.635
0
LINE
8
BLACK
6
CONTINUOUS
10
46.059
20
-144.635
11
46.1542
21
-144.73
0
LINE
8
BLACK
6
CONTINUOUS
10
46.1542
20
-144.73
11
46.2494
21
-144.921
0
LINE
8
BLACK
6
CONTINUOUS
10
46.2494
20
-144.921
11
46.2494
21
-145.111
0
LINE
8
BLACK
6
CONTINUOUS
10
46.2494
20
-145.111
11
46.1542
21
-145.397
0
LINE
8
BLACK
6
CONTINUOUS
10
46.1542
20
-145.397
11
45.0113
21
-146.54
0
LINE
8
BLACK
6
CONTINUOUS
10
45.0113
20
-146.54
11
46.2494
21
-146.54
0
LINE
8
BLACK
6
CONTINUOUS
10
47.0113
20
-144.54
11
47.0113
21
-144.921
0
LINE
8
BLACK
6
CONTINUOUS
10
47.7732
20
-144.54
11
47.7732
21
-144.921
0
LINE
8
BLACK
6
CONTINUOUS
10
50.7256
20
-147.302
11
50.6304
21
-147.207
0
LINE
8
BLACK
6
CONTINUOUS
10
50.6304
20
-147.207
11
50.4399
21
-146.921
0
LINE
8
BLACK
6
CONTINUOUS
10
50.4399
20
-146.921
11
50.3447
21
-146.73
0
LINE
8
BLACK
6
CONTINUOUS
10
50.3447
20
-146.73
11
50.2494
21
-146.445
0
LINE
8
BLACK
6
CONTINUOUS
10
50.2494
20
-146.445
11
50.1542
21
-145.968
0
LINE
8
BLACK
6
CONTINUOUS
10
50.1542
20
-145.968
11
50.1542
21
-145.587
0
LINE
8
BLACK
6
CONTINUOUS
10
50.1542
20
-145.587
11
50.2494
21
-145.111
0
LINE
8
BLACK
6
CONTINUOUS
10
50.2494
20
-145.111
11
50.3447
21
-144.826
0
LINE
8
BLACK
6
CONTINUOUS
10
50.3447
20
-144.826
11
50.4399
21
-144.635
0
LINE
8
BLACK
6
CONTINUOUS
10
50.4399
20
-144.635
11
50.6304
21
-144.349
0
LINE
8
BLACK
6
CONTINUOUS
10
50.6304
20
-144.349
11
50.7256
21
-144.254
0
LINE
8
BLACK
6
CONTINUOUS
10
52.3447
20
-145.207
11
52.3447
21
-146.54
0
LINE
8
BLACK
6
CONTINUOUS
10
51.8685
20
-144.445
11
51.3923
21
-145.873
0
LINE
8
BLACK
6
CONTINUOUS
10
51.3923
20
-145.873
11
52.6304
21
-145.873
0
LINE
8
BLACK
6
CONTINUOUS
10
54.9161
20
-146.54
11
54.9161
21
-144.54
0
LINE
8
BLACK
6
CONTINUOUS
10
55.7732
20
-146.54
11
55.7732
21
-145.492
0
LINE
8
BLACK
6
CONTINUOUS
10
55.7732
20
-145.492
11
55.678
21
-145.302
0
LINE
8
BLACK
6
CONTINUOUS
10
55.678
20
-145.302
11
55.4875
21
-145.207
0
LINE
8
BLACK
6
CONTINUOUS
10
55.4875
20
-145.207
11
55.2018
21
-145.207
0
LINE
8
BLACK
6
CONTINUOUS
10
55.2018
20
-145.207
11
55.0113
21
-145.302
0
LINE
8
BLACK
6
CONTINUOUS
10
55.0113
20
-145.302
11
54.9161
21
-145.397
0
LINE
8
BLACK
6
CONTINUOUS
10
57.0113
20
-146.54
11
56.8209
21
-146.445
0
LINE
8
BLACK
6
CONTINUOUS
10
56.8209
20
-146.445
11
56.7256
21
-146.349
0
LINE
8
BLACK
6
CONTINUOUS
10
56.7256
20
-146.349
11
56.6304
21
-146.159
0
LINE
8
BLACK
6
CONTINUOUS
10
56.6304
20
-146.159
11
56.6304
21
-145.587
0
LINE
8
BLACK
6
CONTINUOUS
10
56.6304
20
-145.587
11
56.7256
21
-145.397
0
LINE
8
BLACK
6
CONTINUOUS
10
56.7256
20
-145.397
11
56.8209
21
-145.302
0
LINE
8
BLACK
6
CONTINUOUS
10
56.8209
20
-145.302
11
57.0113
21
-145.207
0
LINE
8
BLACK
6
CONTINUOUS
10
57.0113
20
-145.207
11
57.2971
21
-145.207
0
LINE
8
BLACK
6
CONTINUOUS
10
57.2971
20
-145.207
11
57.4875
21
-145.302
0
LINE
8
BLACK
6
CONTINUOUS
10
57.4875
20
-145.302
11
57.5828
21
-145.397
0
LINE
8
BLACK
6
CONTINUOUS
10
57.5828
20
-145.397
11
57.678
21
-145.587
0
LINE
8
BLACK
6
CONTINUOUS
10
57.678
20
-145.587
11
57.678
21
-146.159
0
LINE
8
BLACK
6
CONTINUOUS
10
57.678
20
-146.159
11
57.5828
21
-146.349
0
LINE
8
BLACK
6
CONTINUOUS
10
57.5828
20
-146.349
11
57.4875
21
-146.445
0
LINE
8
BLACK
6
CONTINUOUS
10
57.4875
20
-146.445
11
57.2971
21
-146.54
0
LINE
8
BLACK
6
CONTINUOUS
10
57.2971
20
-146.54
11
57.0113
21
-146.54
0
LINE
8
BLACK
6
CONTINUOUS
10
58.8209
20
-146.54
11
58.6304
21
-146.445
0
LINE
8
BLACK
6
CONTINUOUS
10
58.6304
20
-146.445
11
58.5352
21
-146.254
0
LINE
8
BLACK
6
CONTINUOUS
10
58.5352
20
-146.254
11
58.5352
21
-144.54
0
LINE
8
BLACK
6
CONTINUOUS
10
60.3447
20
-146.445
11
60.1542
21
-146.54
0
LINE
8
BLACK
6
CONTINUOUS
10
60.1542
20
-146.54
11
59.7732
21
-146.54
0
LINE
8
BLACK
6
CONTINUOUS
10
59.7732
20
-146.54
11
59.5828
21
-146.445
0
LINE
8
BLACK
6
CONTINUOUS
10
59.5828
20
-146.445
11
59.4875
21
-146.254
0
LINE
8
BLACK
6
CONTINUOUS
10
59.4875
20
-146.254
11
59.4875
21
-145.492
0
LINE
8
BLACK
6
CONTINUOUS
10
59.4875
20
-145.492
11
59.5828
21
-145.302
0
LINE
8
BLACK
6
CONTINUOUS
10
59.5828
20
-145.302
11
59.7732
21
-145.207
0
LINE
8
BLACK
6
CONTINUOUS
10
59.7732
20
-145.207
11
60.1542
21
-145.207
0
LINE
8
BLACK
6
CONTINUOUS
10
60.1542
20
-145.207
11
60.3447
21
-145.302
0
LINE
8
BLACK
6
CONTINUOUS
10
60.3447
20
-145.302
11
60.4399
21
-145.492
0
LINE
8
BLACK
6
CONTINUOUS
10
60.4399
20
-145.492
11
60.4399
21
-145.683
0
LINE
8
BLACK
6
CONTINUOUS
10
60.4399
20
-145.683
11
59.4875
21
-145.873
0
LINE
8
BLACK
6
CONTINUOUS
10
61.2018
20
-146.445
11
61.3923
21
-146.54
0
LINE
8
BLACK
6
CONTINUOUS
10
61.3923
20
-146.54
11
61.7732
21
-146.54
0
LINE
8
BLACK
6
CONTINUOUS
10
61.7732
20
-146.54
11
61.9637
21
-146.445
0
LINE
8
BLACK
6
CONTINUOUS
10
61.9637
20
-146.445
11
62.059
21
-146.254
0
LINE
8
BLACK
6
CONTINUOUS
10
62.059
20
-146.254
11
62.059
21
-146.159
0
LINE
8
BLACK
6
CONTINUOUS
10
62.059
20
-146.159
11
61.9637
21
-145.968
0
LINE
8
BLACK
6
CONTINUOUS
10
61.9637
20
-145.968
11
61.7732
21
-145.873
0
LINE
8
BLACK
6
CONTINUOUS
10
61.7732
20
-145.873
11
61.4875
21
-145.873
0
LINE
8
BLACK
6
CONTINUOUS
10
61.4875
20
-145.873
11
61.2971
21
-145.778
0
LINE
8
BLACK
6
CONTINUOUS
10
61.2971
20
-145.778
11
61.2018
21
-145.587
0
LINE
8
BLACK
6
CONTINUOUS
10
61.2018
20
-145.587
11
61.2018
21
-145.492
0
LINE
8
BLACK
6
CONTINUOUS
10
61.2018
20
-145.492
11
61.2971
21
-145.302
0
LINE
8
BLACK
6
CONTINUOUS
10
61.2971
20
-145.302
11
61.4875
21
-145.207
0
LINE
8
BLACK
6
CONTINUOUS
10
61.4875
20
-145.207
11
61.7732
21
-145.207
0
LINE
8
BLACK
6
CONTINUOUS
10
61.7732
20
-145.207
11
61.9637
21
-145.302
0
LINE
8
BLACK
6
CONTINUOUS
10
62.7256
20
-147.302
11
62.8209
21
-147.207
0
LINE
8
BLACK
6
CONTINUOUS
10
62.8209
20
-147.207
11
63.0113
21
-146.921
0
LINE
8
BLACK
6
CONTINUOUS
10
63.0113
20
-146.921
11
63.1066
21
-146.73
0
LINE
8
BLACK
6
CONTINUOUS
10
63.1066
20
-146.73
11
63.2018
21
-146.445
0
LINE
8
BLACK
6
CONTINUOUS
10
63.2018
20
-146.445
11
63.2971
21
-145.968
0
LINE
8
BLACK
6
CONTINUOUS
10
63.2971
20
-145.968
11
63.2971
21
-145.587
0
LINE
8
BLACK
6
CONTINUOUS
10
63.2971
20
-145.587
11
63.2018
21
-145.111
0
LINE
8
BLACK
6
CONTINUOUS
10
63.2018
20
-145.111
11
63.1066
21
-144.826
0
LINE
8
BLACK
6
CONTINUOUS
10
63.1066
20
-144.826
11
63.0113
21
-144.635
0
LINE
8
BLACK
6
CONTINUOUS
10
63.0113
20
-144.635
11
62.8209
21
-144.349
0
LINE
8
BLACK
6
CONTINUOUS
10
62.8209
20
-144.349
11
62.7256
21
-144.254
0
LINE
8
BLACK
6
CONTINUOUS
10
12.975
20
-147.265
11
14.975
21
-149.265
0
LINE
8
BLACK
6
CONTINUOUS
10
14.975
20
-147.265
11
12.975
21
-149.265
0
LINE
8
BLACK
6
CONTINUOUS
10
13.975
20
-147.265
11
13.975
21
-149.265
0
LINE
8
BLACK
6
CONTINUOUS
10
12.975
20
-148.265
11
14.975
21
-148.265
0
LINE
8
BLACK
6
CONTINUOUS
10
18.4399
20
-147.847
11
18.4399
21
-149.18
0
LINE
8
BLACK
6
CONTINUOUS
10
17.9637
20
-147.085
11
17.4875
21
-148.513
0
LINE
8
BLACK
6
CONTINUOUS
10
17.4875
20
-148.513
11
18.7256
21
-148.513
0
LINE
8
BLACK
6
CONTINUOUS
10
19.4875
20
-148.989
11
19.5828
21
-149.085
0
LINE
8
BLACK
6
CONTINUOUS
10
19.5828
20
-149.085
11
19.4875
21
-149.18
0
LINE
8
BLACK
6
CONTINUOUS
10
19.4875
20
-149.18
11
19.3923
21
-149.085
0
LINE
8
BLACK
6
CONTINUOUS
10
19.3923
20
-149.085
11
19.4875
21
-148.989
0
LINE
8
BLACK
6
CONTINUOUS
10
19.4875
20
-148.989
11
19.4875
21
-149.18
0
LINE
8
BLACK
6
CONTINUOUS
10
20.2494
20
-147.18
11
21.4875
21
-147.18
0
LINE
8
BLACK
6
CONTINUOUS
10
21.4875
20
-147.18
11
20.8209
21
-147.942
0
LINE
8
BLACK
6
CONTINUOUS
10
20.8209
20
-147.942
11
21.1066
21
-147.942
0
LINE
8
BLACK
6
CONTINUOUS
10
21.1066
20
-147.942
11
21.2971
21
-148.037
0
LINE
8
BLACK
6
CONTINUOUS
10
21.2971
20
-148.037
11
21.3923
21
-148.132
0
LINE
8
BLACK
6
CONTINUOUS
10
21.3923
20
-148.132
11
21.4875
21
-148.323
0
LINE
8
BLACK
6
CONTINUOUS
10
21.4875
20
-148.323
11
21.4875
21
-148.799
0
LINE
8
BLACK
6
CONTINUOUS
10
21.4875
20
-148.799
11
21.3923
21
-148.989
0
LINE
8
BLACK
6
CONTINUOUS
10
21.3923
20
-148.989
11
21.2971
21
-149.085
0
LINE
8
BLACK
6
CONTINUOUS
10
21.2971
20
-149.085
11
21.1066
21
-149.18
0
LINE
8
BLACK
6
CONTINUOUS
10
21.1066
20
-149.18
11
20.5351
21
-149.18
0
LINE
8
BLACK
6
CONTINUOUS
10
20.5351
20
-149.18
11
20.3447
21
-149.085
0
LINE
8
BLACK
6
CONTINUOUS
10
20.3447
20
-149.085
11
20.2494
21
-148.989
0
LINE
8
BLACK
6
CONTINUOUS
10
22.7256
20
-147.18
11
22.9161
21
-147.18
0
LINE
8
BLACK
6
CONTINUOUS
10
22.9161
20
-147.18
11
23.1066
21
-147.275
0
LINE
8
BLACK
6
CONTINUOUS
10
23.1066
20
-147.275
11
23.2018
21
-147.37
0
LINE
8
BLACK
6
CONTINUOUS
10
23.2018
20
-147.37
11
23.2971
21
-147.561
0
LINE
8
BLACK
6
CONTINUOUS
10
23.2971
20
-147.561
11
23.3923
21
-147.942
0
LINE
8
BLACK
6
CONTINUOUS
10
23.3923
20
-147.942
11
23.3923
21
-148.418
0
LINE
8
BLACK
6
CONTINUOUS
10
23.3923
20
-148.418
11
23.2971
21
-148.799
0
LINE
8
BLACK
6
CONTINUOUS
10
23.2971
20
-148.799
11
23.2018
21
-148.989
0
LINE
8
BLACK
6
CONTINUOUS
10
23.2018
20
-148.989
11
23.1066
21
-149.085
0
LINE
8
BLACK
6
CONTINUOUS
10
23.1066
20
-149.085
11
22.9161
21
-149.18
0
LINE
8
BLACK
6
CONTINUOUS
10
22.9161
20
-149.18
11
22.7256
21
-149.18
0
LINE
8
BLACK
6
CONTINUOUS
10
22.7256
20
-149.18
11
22.5351
21
-149.085
0
LINE
8
BLACK
6
CONTINUOUS
10
22.5351
20
-149.085
11
22.4399
21
-148.989
0
LINE
8
BLACK
6
CONTINUOUS
10
22.4399
20
-148.989
11
22.3447
21
-148.799
0
LINE
8
BLACK
6
CONTINUOUS
10
22.3447
20
-148.799
11
22.2494
21
-148.418
0
LINE
8
BLACK
6
CONTINUOUS
10
22.2494
20
-148.418
11
22.2494
21
-147.942
0
LINE
8
BLACK
6
CONTINUOUS
10
22.2494
20
-147.942
11
22.3447
21
-147.561
0
LINE
8
BLACK
6
CONTINUOUS
10
22.3447
20
-147.561
11
22.4399
21
-147.37
0
LINE
8
BLACK
6
CONTINUOUS
10
22.4399
20
-147.37
11
22.5351
21
-147.275
0
LINE
8
BLACK
6
CONTINUOUS
10
22.5351
20
-147.275
11
22.7256
21
-147.18
0
LINE
8
BLACK
6
CONTINUOUS
10
24.6304
20
-147.18
11
24.8209
21
-147.18
0
LINE
8
BLACK
6
CONTINUOUS
10
24.8209
20
-147.18
11
25.0113
21
-147.275
0
LINE
8
BLACK
6
CONTINUOUS
10
25.0113
20
-147.275
11
25.1066
21
-147.37
0
LINE
8
BLACK
6
CONTINUOUS
10
25.1066
20
-147.37
11
25.2018
21
-147.561
0
LINE
8
BLACK
6
CONTINUOUS
10
25.2018
20
-147.561
11
25.2971
21
-147.942
0
LINE
8
BLACK
6
CONTINUOUS
10
25.2971
20
-147.942
11
25.2971
21
-148.418
0
LINE
8
BLACK
6
CONTINUOUS
10
25.2971
20
-148.418
11
25.2018
21
-148.799
0
LINE
8
BLACK
6
CONTINUOUS
10
25.2018
20
-148.799
11
25.1066
21
-148.989
0
LINE
8
BLACK
6
CONTINUOUS
10
25.1066
20
-148.989
11
25.0113
21
-149.085
0
LINE
8
BLACK
6
CONTINUOUS
10
25.0113
20
-149.085
11
24.8209
21
-149.18
0
LINE
8
BLACK
6
CONTINUOUS
10
24.8209
20
-149.18
11
24.6304
21
-149.18
0
LINE
8
BLACK
6
CONTINUOUS
10
24.6304
20
-149.18
11
24.4399
21
-149.085
0
LINE
8
BLACK
6
CONTINUOUS
10
24.4399
20
-149.085
11
24.3447
21
-148.989
0
LINE
8
BLACK
6
CONTINUOUS
10
24.3447
20
-148.989
11
24.2494
21
-148.799
0
LINE
8
BLACK
6
CONTINUOUS
10
24.2494
20
-148.799
11
24.1542
21
-148.418
0
LINE
8
BLACK
6
CONTINUOUS
10
24.1542
20
-148.418
11
24.1542
21
-147.942
0
LINE
8
BLACK
6
CONTINUOUS
10
24.1542
20
-147.942
11
24.2494
21
-147.561
0
LINE
8
BLACK
6
CONTINUOUS
10
24.2494
20
-147.561
11
24.3447
21
-147.37
0
LINE
8
BLACK
6
CONTINUOUS
10
24.3447
20
-147.37
11
24.4399
21
-147.275
0
LINE
8
BLACK
6
CONTINUOUS
10
24.4399
20
-147.275
11
24.6304
21
-147.18
0
LINE
8
BLACK
6
CONTINUOUS
10
26.1542
20
-149.18
11
26.1542
21
-147.847
0
LINE
8
BLACK
6
CONTINUOUS
10
26.1542
20
-148.037
11
26.2494
21
-147.942
0
LINE
8
BLACK
6
CONTINUOUS
10
26.2494
20
-147.942
11
26.4399
21
-147.847
0
LINE
8
BLACK
6
CONTINUOUS
10
26.4399
20
-147.847
11
26.7256
21
-147.847
0
LINE
8
BLACK
6
CONTINUOUS
10
26.7256
20
-147.847
11
26.9161
21
-147.942
0
LINE
8
BLACK
6
CONTINUOUS
10
26.9161
20
-147.942
11
27.0113
21
-148.132
0
LINE
8
BLACK
6
CONTINUOUS
10
27.0113
20
-148.132
11
27.0113
21
-149.18
0
LINE
8
BLACK
6
CONTINUOUS
10
27.0113
20
-148.132
11
27.1066
21
-147.942
0
LINE
8
BLACK
6
CONTINUOUS
10
27.1066
20
-147.942
11
27.2971
21
-147.847
0
LINE
8
BLACK
6
CONTINUOUS
10
27.2971
20
-147.847
11
27.5828
21
-147.847
0
LINE
8
BLACK
6
CONTINUOUS
10
27.5828
20
-147.847
11
27.7732
21
-147.942
0
LINE
8
BLACK
6
CONTINUOUS
10
27.7732
20
-147.942
11
27.8685
21
-148.132
0
LINE
8
BLACK
6
CONTINUOUS
10
27.8685
20
-148.132
11
27.8685
21
-149.18
0
LINE
8
BLACK
6
CONTINUOUS
10
28.8209
20
-149.18
11
28.8209
21
-147.847
0
LINE
8
BLACK
6
CONTINUOUS
10
28.8209
20
-148.037
11
28.9161
21
-147.942
0
LINE
8
BLACK
6
CONTINUOUS
10
28.9161
20
-147.942
11
29.1066
21
-147.847
0
LINE
8
BLACK
6
CONTINUOUS
10
29.1066
20
-147.847
11
29.3923
21
-147.847
0
LINE
8
BLACK
6
CONTINUOUS
10
29.3923
20
-147.847
11
29.5828
21
-147.942
0
LINE
8
BLACK
6
CONTINUOUS
10
29.5828
20
-147.942
11
29.678
21
-148.132
0
LINE
8
BLACK
6
CONTINUOUS
10
29.678
20
-148.132
11
29.678
21
-149.18
0
LINE
8
BLACK
6
CONTINUOUS
10
29.678
20
-148.132
11
29.7732
21
-147.942
0
LINE
8
BLACK
6
CONTINUOUS
10
29.7732
20
-147.942
11
29.9637
21
-147.847
0
LINE
8
BLACK
6
CONTINUOUS
10
29.9637
20
-147.847
11
30.2494
21
-147.847
0
LINE
8
BLACK
6
CONTINUOUS
10
30.2494
20
-147.847
11
30.4399
21
-147.942
0
LINE
8
BLACK
6
CONTINUOUS
10
30.4399
20
-147.942
11
30.5351
21
-148.132
0
LINE
8
BLACK
6
CONTINUOUS
10
30.5351
20
-148.132
11
30.5351
21
-149.18
0
LINE
8
BLACK
6
CONTINUOUS
10
34.4399
20
-147.085
11
32.7256
21
-149.656
0
LINE
8
BLACK
6
CONTINUOUS
10
37.0113
20
-147.18
11
37.2018
21
-147.18
0
LINE
8
BLACK
6
CONTINUOUS
10
37.2018
20
-147.18
11
37.3923
21
-147.275
0
LINE
8
BLACK
6
CONTINUOUS
10
37.3923
20
-147.275
11
37.4875
21
-147.37
0
LINE
8
BLACK
6
CONTINUOUS
10
37.4875
20
-147.37
11
37.5828
21
-147.561
0
LINE
8
BLACK
6
CONTINUOUS
10
37.5828
20
-147.561
11
37.678
21
-147.942
0
LINE
8
BLACK
6
CONTINUOUS
10
37.678
20
-147.942
11
37.678
21
-148.418
0
LINE
8
BLACK
6
CONTINUOUS
10
37.678
20
-148.418
11
37.5828
21
-148.799
0
LINE
8
BLACK
6
CONTINUOUS
10
37.5828
20
-148.799
11
37.4875
21
-148.989
0
LINE
8
BLACK
6
CONTINUOUS
10
37.4875
20
-148.989
11
37.3923
21
-149.085
0
LINE
8
BLACK
6
CONTINUOUS
10
37.3923
20
-149.085
11
37.2018
21
-149.18
0
LINE
8
BLACK
6
CONTINUOUS
10
37.2018
20
-149.18
11
37.0113
21
-149.18
0
LINE
8
BLACK
6
CONTINUOUS
10
37.0113
20
-149.18
11
36.8209
21
-149.085
0
LINE
8
BLACK
6
CONTINUOUS
10
36.8209
20
-149.085
11
36.7256
21
-148.989
0
LINE
8
BLACK
6
CONTINUOUS
10
36.7256
20
-148.989
11
36.6304
21
-148.799
0
LINE
8
BLACK
6
CONTINUOUS
10
36.6304
20
-148.799
11
36.5352
21
-148.418
0
LINE
8
BLACK
6
CONTINUOUS
10
36.5352
20
-148.418
11
36.5352
21
-147.942
0
LINE
8
BLACK
6
CONTINUOUS
10
36.5352
20
-147.942
11
36.6304
21
-147.561
0
LINE
8
BLACK
6
CONTINUOUS
10
36.6304
20
-147.561
11
36.7256
21
-147.37
0
LINE
8
BLACK
6
CONTINUOUS
10
36.7256
20
-147.37
11
36.8209
21
-147.275
0
LINE
8
BLACK
6
CONTINUOUS
10
36.8209
20
-147.275
11
37.0113
21
-147.18
0
LINE
8
BLACK
6
CONTINUOUS
10
38.5352
20
-148.989
11
38.6304
21
-149.085
0
LINE
8
BLACK
6
CONTINUOUS
10
38.6304
20
-149.085
11
38.5352
21
-149.18
0
LINE
8
BLACK
6
CONTINUOUS
10
38.5352
20
-149.18
11
38.4399
21
-149.085
0
LINE
8
BLACK
6
CONTINUOUS
10
38.4399
20
-149.085
11
38.5352
21
-148.989
0
LINE
8
BLACK
6
CONTINUOUS
10
38.5352
20
-148.989
11
38.5352
21
-149.18
0
LINE
8
BLACK
6
CONTINUOUS
10
40.5352
20
-149.18
11
39.3923
21
-149.18
0
LINE
8
BLACK
6
CONTINUOUS
10
39.9637
20
-149.18
11
39.9637
21
-147.18
0
LINE
8
BLACK
6
CONTINUOUS
10
39.9637
20
-147.18
11
39.7732
21
-147.466
0
LINE
8
BLACK
6
CONTINUOUS
10
39.7732
20
-147.466
11
39.5828
21
-147.656
0
LINE
8
BLACK
6
CONTINUOUS
10
39.5828
20
-147.656
11
39.3923
21
-147.751
0
LINE
8
BLACK
6
CONTINUOUS
10
42.2494
20
-147.18
11
41.8685
21
-147.18
0
LINE
8
BLACK
6
CONTINUOUS
10
41.8685
20
-147.18
11
41.678
21
-147.275
0
LINE
8
BLACK
6
CONTINUOUS
10
41.678
20
-147.275
11
41.5828
21
-147.37
0
LINE
8
BLACK
6
CONTINUOUS
10
41.5828
20
-147.37
11
41.3923
21
-147.656
0
LINE
8
BLACK
6
CONTINUOUS
10
41.3923
20
-147.656
11
41.2971
21
-148.037
0
LINE
8
BLACK
6
CONTINUOUS
10
41.2971
20
-148.037
11
41.2971
21
-148.799
0
LINE
8
BLACK
6
CONTINUOUS
10
41.2971
20
-148.799
11
41.3923
21
-148.989
0
LINE
8
BLACK
6
CONTINUOUS
10
41.3923
20
-148.989
11
41.4875
21
-149.085
0
LINE
8
BLACK
6
CONTINUOUS
10
41.4875
20
-149.085
11
41.678
21
-149.18
0
LINE
8
BLACK
6
CONTINUOUS
10
41.678
20
-149.18
11
42.059
21
-149.18
0
LINE
8
BLACK
6
CONTINUOUS
10
42.059
20
-149.18
11
42.2494
21
-149.085
0
LINE
8
BLACK
6
CONTINUOUS
10
42.2494
20
-149.085
11
42.3447
21
-148.989
0
LINE
8
BLACK
6
CONTINUOUS
10
42.3447
20
-148.989
11
42.4399
21
-148.799
0
LINE
8
BLACK
6
CONTINUOUS
10
42.4399
20
-148.799
11
42.4399
21
-148.323
0
LINE
8
BLACK
6
CONTINUOUS
10
42.4399
20
-148.323
11
42.3447
21
-148.132
0
LINE
8
BLACK
6
CONTINUOUS
10
42.3447
20
-148.132
11
42.2494
21
-148.037
0
LINE
8
BLACK
6
CONTINUOUS
10
42.2494
20
-148.037
11
42.059
21
-147.942
0
LINE
8
BLACK
6
CONTINUOUS
10
42.059
20
-147.942
11
41.678
21
-147.942
0
LINE
8
BLACK
6
CONTINUOUS
10
41.678
20
-147.942
11
41.4875
21
-148.037
0
LINE
8
BLACK
6
CONTINUOUS
10
41.4875
20
-148.037
11
41.3923
21
-148.132
0
LINE
8
BLACK
6
CONTINUOUS
10
41.3923
20
-148.132
11
41.2971
21
-148.323
0
LINE
8
BLACK
6
CONTINUOUS
10
43.3923
20
-149.18
11
43.7732
21
-149.18
0
LINE
8
BLACK
6
CONTINUOUS
10
43.7732
20
-149.18
11
43.9637
21
-149.085
0
LINE
8
BLACK
6
CONTINUOUS
10
43.9637
20
-149.085
11
44.059
21
-148.989
0
LINE
8
BLACK
6
CONTINUOUS
10
44.059
20
-148.989
11
44.2494
21
-148.704
0
LINE
8
BLACK
6
CONTINUOUS
10
44.2494
20
-148.704
11
44.3447
21
-148.323
0
LINE
8
BLACK
6
CONTINUOUS
10
44.3447
20
-148.323
11
44.3447
21
-147.561
0
LINE
8
BLACK
6
CONTINUOUS
10
44.3447
20
-147.561
11
44.2494
21
-147.37
0
LINE
8
BLACK
6
CONTINUOUS
10
44.2494
20
-147.37
11
44.1542
21
-147.275
0
LINE
8
BLACK
6
CONTINUOUS
10
44.1542
20
-147.275
11
43.9637
21
-147.18
0
LINE
8
BLACK
6
CONTINUOUS
10
43.9637
20
-147.18
11
43.5828
21
-147.18
0
LINE
8
BLACK
6
CONTINUOUS
10
43.5828
20
-147.18
11
43.3923
21
-147.275
0
LINE
8
BLACK
6
CONTINUOUS
10
43.3923
20
-147.275
11
43.2971
21
-147.37
0
LINE
8
BLACK
6
CONTINUOUS
10
43.2971
20
-147.37
11
43.2018
21
-147.561
0
LINE
8
BLACK
6
CONTINUOUS
10
43.2018
20
-147.561
11
43.2018
21
-148.037
0
LINE
8
BLACK
6
CONTINUOUS
10
43.2018
20
-148.037
11
43.2971
21
-148.227
0
LINE
8
BLACK
6
CONTINUOUS
10
43.2971
20
-148.227
11
43.3923
21
-148.323
0
LINE
8
BLACK
6
CONTINUOUS
10
43.3923
20
-148.323
11
43.5828
21
-148.418
0
LINE
8
BLACK
6
CONTINUOUS
10
43.5828
20
-148.418
11
43.9637
21
-148.418
0
LINE
8
BLACK
6
CONTINUOUS
10
43.9637
20
-148.418
11
44.1542
21
-148.323
0
LINE
8
BLACK
6
CONTINUOUS
10
44.1542
20
-148.323
11
44.2494
21
-148.227
0
LINE
8
BLACK
6
CONTINUOUS
10
44.2494
20
-148.227
11
44.3447
21
-148.037
0
LINE
8
BLACK
6
CONTINUOUS
10
45.0113
20
-147.18
11
46.2494
21
-147.18
0
LINE
8
BLACK
6
CONTINUOUS
10
46.2494
20
-147.18
11
45.5828
21
-147.942
0
LINE
8
BLACK
6
CONTINUOUS
10
45.5828
20
-147.942
11
45.8685
21
-147.942
0
LINE
8
BLACK
6
CONTINUOUS
10
45.8685
20
-147.942
11
46.059
21
-148.037
0
LINE
8
BLACK
6
CONTINUOUS
10
46.059
20
-148.037
11
46.1542
21
-148.132
0
LINE
8
BLACK
6
CONTINUOUS
10
46.1542
20
-148.132
11
46.2494
21
-148.323
0
LINE
8
BLACK
6
CONTINUOUS
10
46.2494
20
-148.323
11
46.2494
21
-148.799
0
LINE
8
BLACK
6
CONTINUOUS
10
46.2494
20
-148.799
11
46.1542
21
-148.989
0
LINE
8
BLACK
6
CONTINUOUS
10
46.1542
20
-148.989
11
46.059
21
-149.085
0
LINE
8
BLACK
6
CONTINUOUS
10
46.059
20
-149.085
11
45.8685
21
-149.18
0
LINE
8
BLACK
6
CONTINUOUS
10
45.8685
20
-149.18
11
45.2971
21
-149.18
0
LINE
8
BLACK
6
CONTINUOUS
10
45.2971
20
-149.18
11
45.1066
21
-149.085
0
LINE
8
BLACK
6
CONTINUOUS
10
45.1066
20
-149.085
11
45.0113
21
-148.989
0
LINE
8
BLACK
6
CONTINUOUS
10
47.0113
20
-147.18
11
47.0113
21
-147.561
0
LINE
8
BLACK
6
CONTINUOUS
10
47.7732
20
-147.18
11
47.7732
21
-147.561
0
LINE
8
BLACK
6
CONTINUOUS
10
50.7256
20
-149.942
11
50.6304
21
-149.847
0
LINE
8
BLACK
6
CONTINUOUS
10
50.6304
20
-149.847
11
50.4399
21
-149.561
0
LINE
8
BLACK
6
CONTINUOUS
10
50.4399
20
-149.561
11
50.3447
21
-149.37
0
LINE
8
BLACK
6
CONTINUOUS
10
50.3447
20
-149.37
11
50.2494
21
-149.085
0
LINE
8
BLACK
6
CONTINUOUS
10
50.2494
20
-149.085
11
50.1542
21
-148.608
0
LINE
8
BLACK
6
CONTINUOUS
10
50.1542
20
-148.608
11
50.1542
21
-148.227
0
LINE
8
BLACK
6
CONTINUOUS
10
50.1542
20
-148.227
11
50.2494
21
-147.751
0
LINE
8
BLACK
6
CONTINUOUS
10
50.2494
20
-147.751
11
50.3447
21
-147.466
0
LINE
8
BLACK
6
CONTINUOUS
10
50.3447
20
-147.466
11
50.4399
21
-147.275
0
LINE
8
BLACK
6
CONTINUOUS
10
50.4399
20
-147.275
11
50.6304
21
-146.989
0
LINE
8
BLACK
6
CONTINUOUS
10
50.6304
20
-146.989
11
50.7256
21
-146.894
0
LINE
8
BLACK
6
CONTINUOUS
10
52.5352
20
-149.18
11
51.3923
21
-149.18
0
LINE
8
BLACK
6
CONTINUOUS
10
51.9637
20
-149.18
11
51.9637
21
-147.18
0
LINE
8
BLACK
6
CONTINUOUS
10
51.9637
20
-147.18
11
51.7732
21
-147.466
0
LINE
8
BLACK
6
CONTINUOUS
10
51.7732
20
-147.466
11
51.5828
21
-147.656
0
LINE
8
BLACK
6
CONTINUOUS
10
51.5828
20
-147.656
11
51.3923
21
-147.751
0
LINE
8
BLACK
6
CONTINUOUS
10
54.9161
20
-149.18
11
54.9161
21
-147.18
0
LINE
8
BLACK
6
CONTINUOUS
10
55.7732
20
-149.18
11
55.7732
21
-148.132
0
LINE
8
BLACK
6
CONTINUOUS
10
55.7732
20
-148.132
11
55.678
21
-147.942
0
LINE
8
BLACK
6
CONTINUOUS
10
55.678
20
-147.942
11
55.4875
21
-147.847
0
LINE
8
BLACK
6
CONTINUOUS
10
55.4875
20
-147.847
11
55.2018
21
-147.847
0
LINE
8
BLACK
6
CONTINUOUS
10
55.2018
20
-147.847
11
55.0113
21
-147.942
0
LINE
8
BLACK
6
CONTINUOUS
10
55.0113
20
-147.942
11
54.9161
21
-148.037
0
LINE
8
BLACK
6
CONTINUOUS
10
57.0113
20
-149.18
11
56.8209
21
-149.085
0
LINE
8
BLACK
6
CONTINUOUS
10
56.8209
20
-149.085
11
56.7256
21
-148.989
0
LINE
8
BLACK
6
CONTINUOUS
10
56.7256
20
-148.989
11
56.6304
21
-148.799
0
LINE
8
BLACK
6
CONTINUOUS
10
56.6304
20
-148.799
11
56.6304
21
-148.227
0
LINE
8
BLACK
6
CONTINUOUS
10
56.6304
20
-148.227
11
56.7256
21
-148.037
0
LINE
8
BLACK
6
CONTINUOUS
10
56.7256
20
-148.037
11
56.8209
21
-147.942
0
LINE
8
BLACK
6
CONTINUOUS
10
56.8209
20
-147.942
11
57.0113
21
-147.847
0
LINE
8
BLACK
6
CONTINUOUS
10
57.0113
20
-147.847
11
57.2971
21
-147.847
0
LINE
8
BLACK
6
CONTINUOUS
10
57.2971
20
-147.847
11
57.4875
21
-147.942
0
LINE
8
BLACK
6
CONTINUOUS
10
57.4875
20
-147.942
11
57.5828
21
-148.037
0
LINE
8
BLACK
6
CONTINUOUS
10
57.5828
20
-148.037
11
57.678
21
-148.227
0
LINE
8
BLACK
6
CONTINUOUS
10
57.678
20
-148.227
11
57.678
21
-148.799
0
LINE
8
BLACK
6
CONTINUOUS
10
57.678
20
-148.799
11
57.5828
21
-148.989
0
LINE
8
BLACK
6
CONTINUOUS
10
57.5828
20
-148.989
11
57.4875
21
-149.085
0
LINE
8
BLACK
6
CONTINUOUS
10
57.4875
20
-149.085
11
57.2971
21
-149.18
0
LINE
8
BLACK
6
CONTINUOUS
10
57.2971
20
-149.18
11
57.0113
21
-149.18
0
LINE
8
BLACK
6
CONTINUOUS
10
58.8209
20
-149.18
11
58.6304
21
-149.085
0
LINE
8
BLACK
6
CONTINUOUS
10
58.6304
20
-149.085
11
58.5352
21
-148.894
0
LINE
8
BLACK
6
CONTINUOUS
10
58.5352
20
-148.894
11
58.5352
21
-147.18
0
LINE
8
BLACK
6
CONTINUOUS
10
60.3447
20
-149.085
11
60.1542
21
-149.18
0
LINE
8
BLACK
6
CONTINUOUS
10
60.1542
20
-149.18
11
59.7732
21
-149.18
0
LINE
8
BLACK
6
CONTINUOUS
10
59.7732
20
-149.18
11
59.5828
21
-149.085
0
LINE
8
BLACK
6
CONTINUOUS
10
59.5828
20
-149.085
11
59.4875
21
-148.894
0
LINE
8
BLACK
6
CONTINUOUS
10
59.4875
20
-148.894
11
59.4875
21
-148.132
0
LINE
8
BLACK
6
CONTINUOUS
10
59.4875
20
-148.132
11
59.5828
21
-147.942
0
LINE
8
BLACK
6
CONTINUOUS
10
59.5828
20
-147.942
11
59.7732
21
-147.847
0
LINE
8
BLACK
6
CONTINUOUS
10
59.7732
20
-147.847
11
60.1542
21
-147.847
0
LINE
8
BLACK
6
CONTINUOUS
10
60.1542
20
-147.847
11
60.3447
21
-147.942
0
LINE
8
BLACK
6
CONTINUOUS
10
60.3447
20
-147.942
11
60.4399
21
-148.132
0
LINE
8
BLACK
6
CONTINUOUS
10
60.4399
20
-148.132
11
60.4399
21
-148.323
0
LINE
8
BLACK
6
CONTINUOUS
10
60.4399
20
-148.323
11
59.4875
21
-148.513
0
LINE
8
BLACK
6
CONTINUOUS
10
61.1066
20
-149.942
11
61.2018
21
-149.847
0
LINE
8
BLACK
6
CONTINUOUS
10
61.2018
20
-149.847
11
61.3923
21
-149.561
0
LINE
8
BLACK
6
CONTINUOUS
10
61.3923
20
-149.561
11
61.4875
21
-149.37
0
LINE
8
BLACK
6
CONTINUOUS
10
61.4875
20
-149.37
11
61.5828
21
-149.085
0
LINE
8
BLACK
6
CONTINUOUS
10
61.5828
20
-149.085
11
61.678
21
-148.608
0
LINE
8
BLACK
6
CONTINUOUS
10
61.678
20
-148.608
11
61.678
21
-148.227
0
LINE
8
BLACK
6
CONTINUOUS
10
61.678
20
-148.227
11
61.5828
21
-147.751
0
LINE
8
BLACK
6
CONTINUOUS
10
61.5828
20
-147.751
11
61.4875
21
-147.466
0
LINE
8
BLACK
6
CONTINUOUS
10
61.4875
20
-147.466
11
61.3923
21
-147.275
0
LINE
8
BLACK
6
CONTINUOUS
10
61.3923
20
-147.275
11
61.2018
21
-146.989
0
LINE
8
BLACK
6
CONTINUOUS
10
61.2018
20
-146.989
11
61.1066
21
-146.894
  0
ENDSEC
  0
EOF
