%TF.GenerationSoftware,KiCad,Pcbnew,7.0.6-0*%
%TF.CreationDate,2024-05-28T13:41:10+12:00*%
%TF.ProjectId,BMSladderLeaf,424d536c-6164-4646-9572-4c6561662e6b,rev?*%
%TF.SameCoordinates,Original*%
%TF.FileFunction,Copper,L1,Top*%
%TF.FilePolarity,Positive*%
%FSLAX46Y46*%
G04 Gerber Fmt 4.6, Leading zero omitted, Abs format (unit mm)*
G04 Created by KiCad (PCBNEW 7.0.6-0) date 2024-05-28 13:41:10*
%MOMM*%
%LPD*%
G01*
G04 APERTURE LIST*
G04 Aperture macros list*
%AMRoundRect*
0 Rectangle with rounded corners*
0 $1 Rounding radius*
0 $2 $3 $4 $5 $6 $7 $8 $9 X,Y pos of 4 corners*
0 Add a 4 corners polygon primitive as box body*
4,1,4,$2,$3,$4,$5,$6,$7,$8,$9,$2,$3,0*
0 Add four circle primitives for the rounded corners*
1,1,$1+$1,$2,$3*
1,1,$1+$1,$4,$5*
1,1,$1+$1,$6,$7*
1,1,$1+$1,$8,$9*
0 Add four rect primitives between the rounded corners*
20,1,$1+$1,$2,$3,$4,$5,0*
20,1,$1+$1,$4,$5,$6,$7,0*
20,1,$1+$1,$6,$7,$8,$9,0*
20,1,$1+$1,$8,$9,$2,$3,0*%
G04 Aperture macros list end*
%TA.AperFunction,SMDPad,CuDef*%
%ADD10RoundRect,0.225000X0.250000X-0.225000X0.250000X0.225000X-0.250000X0.225000X-0.250000X-0.225000X0*%
%TD*%
%TA.AperFunction,SMDPad,CuDef*%
%ADD11R,0.450000X0.700000*%
%TD*%
%TA.AperFunction,ComponentPad*%
%ADD12O,2.500000X7.000000*%
%TD*%
%TA.AperFunction,SMDPad,CuDef*%
%ADD13R,0.400000X0.650000*%
%TD*%
%TA.AperFunction,SMDPad,CuDef*%
%ADD14RoundRect,0.150000X-0.150000X0.587500X-0.150000X-0.587500X0.150000X-0.587500X0.150000X0.587500X0*%
%TD*%
%TA.AperFunction,SMDPad,CuDef*%
%ADD15RoundRect,0.200000X-0.200000X-0.275000X0.200000X-0.275000X0.200000X0.275000X-0.200000X0.275000X0*%
%TD*%
%TA.AperFunction,SMDPad,CuDef*%
%ADD16RoundRect,0.200000X0.200000X0.275000X-0.200000X0.275000X-0.200000X-0.275000X0.200000X-0.275000X0*%
%TD*%
%TA.AperFunction,SMDPad,CuDef*%
%ADD17RoundRect,0.200000X-0.275000X0.200000X-0.275000X-0.200000X0.275000X-0.200000X0.275000X0.200000X0*%
%TD*%
%TA.AperFunction,SMDPad,CuDef*%
%ADD18RoundRect,0.150000X-0.825000X-0.150000X0.825000X-0.150000X0.825000X0.150000X-0.825000X0.150000X0*%
%TD*%
%TA.AperFunction,ComponentPad*%
%ADD19R,1.000000X1.000000*%
%TD*%
%TA.AperFunction,ComponentPad*%
%ADD20O,1.000000X1.000000*%
%TD*%
%TA.AperFunction,SMDPad,CuDef*%
%ADD21RoundRect,0.218750X-0.218750X-0.256250X0.218750X-0.256250X0.218750X0.256250X-0.218750X0.256250X0*%
%TD*%
%TA.AperFunction,ComponentPad*%
%ADD22C,2.400000*%
%TD*%
%TA.AperFunction,ComponentPad*%
%ADD23O,2.400000X2.400000*%
%TD*%
%TA.AperFunction,SMDPad,CuDef*%
%ADD24RoundRect,0.150000X-0.625000X0.150000X-0.625000X-0.150000X0.625000X-0.150000X0.625000X0.150000X0*%
%TD*%
%TA.AperFunction,SMDPad,CuDef*%
%ADD25RoundRect,0.250000X-0.650000X0.350000X-0.650000X-0.350000X0.650000X-0.350000X0.650000X0.350000X0*%
%TD*%
%TA.AperFunction,SMDPad,CuDef*%
%ADD26RoundRect,0.200000X0.275000X-0.200000X0.275000X0.200000X-0.275000X0.200000X-0.275000X-0.200000X0*%
%TD*%
%TA.AperFunction,SMDPad,CuDef*%
%ADD27RoundRect,0.150000X-0.587500X-0.150000X0.587500X-0.150000X0.587500X0.150000X-0.587500X0.150000X0*%
%TD*%
%TA.AperFunction,SMDPad,CuDef*%
%ADD28RoundRect,0.225000X-0.225000X-0.250000X0.225000X-0.250000X0.225000X0.250000X-0.225000X0.250000X0*%
%TD*%
%TA.AperFunction,SMDPad,CuDef*%
%ADD29RoundRect,0.150000X0.587500X0.150000X-0.587500X0.150000X-0.587500X-0.150000X0.587500X-0.150000X0*%
%TD*%
%TA.AperFunction,SMDPad,CuDef*%
%ADD30RoundRect,0.150000X0.625000X-0.150000X0.625000X0.150000X-0.625000X0.150000X-0.625000X-0.150000X0*%
%TD*%
%TA.AperFunction,SMDPad,CuDef*%
%ADD31RoundRect,0.250000X0.650000X-0.350000X0.650000X0.350000X-0.650000X0.350000X-0.650000X-0.350000X0*%
%TD*%
%TA.AperFunction,ComponentPad*%
%ADD32C,0.900000*%
%TD*%
%TA.AperFunction,ComponentPad*%
%ADD33C,8.600000*%
%TD*%
%TA.AperFunction,SMDPad,CuDef*%
%ADD34RoundRect,0.218750X0.256250X-0.218750X0.256250X0.218750X-0.256250X0.218750X-0.256250X-0.218750X0*%
%TD*%
%TA.AperFunction,ComponentPad*%
%ADD35R,1.350000X1.350000*%
%TD*%
%TA.AperFunction,ComponentPad*%
%ADD36O,1.350000X1.350000*%
%TD*%
%TA.AperFunction,ViaPad*%
%ADD37C,0.800000*%
%TD*%
%TA.AperFunction,Conductor*%
%ADD38C,0.250000*%
%TD*%
%TA.AperFunction,Conductor*%
%ADD39C,1.000000*%
%TD*%
G04 APERTURE END LIST*
D10*
%TO.P,C1,1*%
%TO.N,/VCC*%
X24200000Y-108175000D03*
%TO.P,C1,2*%
%TO.N,GND*%
X24200000Y-106625000D03*
%TD*%
D11*
%TO.P,D2,1,K*%
%TO.N,GND*%
X29150000Y-118600000D03*
%TO.P,D2,2,A*%
%TO.N,VEE*%
X30450000Y-118600000D03*
%TO.P,D2,3,K*%
%TO.N,Net-(Q1A-E1)*%
X29800000Y-116600000D03*
%TD*%
D12*
%TO.P,H2,1,1*%
%TO.N,GND*%
X17000000Y-113000000D03*
%TD*%
D13*
%TO.P,Q1,1,E1*%
%TO.N,Net-(Q1A-E1)*%
X35250000Y-114650000D03*
%TO.P,Q1,2,B1*%
%TO.N,Net-(Q1A-B1)*%
X34600000Y-114650000D03*
%TO.P,Q1,3,C2*%
X33950000Y-114650000D03*
%TO.P,Q1,4,E2*%
%TO.N,VEE*%
X33950000Y-116550000D03*
%TO.P,Q1,5,B2*%
%TO.N,Net-(J2-Pin_2)*%
X34600000Y-116550000D03*
%TO.P,Q1,6,C1*%
%TO.N,Net-(Q1A-C1)*%
X35250000Y-116550000D03*
%TD*%
D14*
%TO.P,Q2,1,G*%
%TO.N,Net-(Q2-G)*%
X18150000Y-117862500D03*
%TO.P,Q2,2,S*%
%TO.N,GND*%
X16250000Y-117862500D03*
%TO.P,Q2,3,D*%
%TO.N,Net-(Q2-D)*%
X17200000Y-119737500D03*
%TD*%
D15*
%TO.P,R1,1*%
%TO.N,Net-(J2-Pin_2)*%
X33275000Y-119600000D03*
%TO.P,R1,2*%
%TO.N,VEE*%
X34925000Y-119600000D03*
%TD*%
D16*
%TO.P,R2,1*%
%TO.N,VEE*%
X30325000Y-103500000D03*
%TO.P,R2,2*%
%TO.N,/VCC*%
X28675000Y-103500000D03*
%TD*%
D15*
%TO.P,R4,1*%
%TO.N,/2V5*%
X28175000Y-107500000D03*
%TO.P,R4,2*%
%TO.N,VEE*%
X29825000Y-107500000D03*
%TD*%
D17*
%TO.P,R8,1*%
%TO.N,Net-(Q1A-E1)*%
X32000000Y-114775000D03*
%TO.P,R8,2*%
%TO.N,Net-(Q1A-B1)*%
X32000000Y-116425000D03*
%TD*%
D16*
%TO.P,R9,1*%
%TO.N,Net-(Q1A-E1)*%
X34525000Y-112800000D03*
%TO.P,R9,2*%
%TO.N,/~{EN}*%
X32875000Y-112800000D03*
%TD*%
%TO.P,R10,1*%
%TO.N,/BAL*%
X26337500Y-119700000D03*
%TO.P,R10,2*%
%TO.N,Net-(Q2-G)*%
X24687500Y-119700000D03*
%TD*%
%TO.P,R11,1*%
%TO.N,Net-(Q2-G)*%
X22325000Y-119700000D03*
%TO.P,R11,2*%
%TO.N,GND*%
X20675000Y-119700000D03*
%TD*%
D18*
%TO.P,U2,1,VCC*%
%TO.N,/VCC*%
X24125000Y-109795000D03*
%TO.P,U2,2,PA6*%
%TO.N,/TX*%
X24125000Y-111065000D03*
%TO.P,U2,3,PA7*%
%TO.N,/RX*%
X24125000Y-112335000D03*
%TO.P,U2,4,PA1*%
%TO.N,/2V5*%
X24125000Y-113605000D03*
%TO.P,U2,5,PA2*%
%TO.N,/~{EN}*%
X29075000Y-113605000D03*
%TO.P,U2,6,~{RESET}/PA0*%
%TO.N,/FAULT_UPDI*%
X29075000Y-112335000D03*
%TO.P,U2,7,PA3*%
%TO.N,/BAL*%
X29075000Y-111065000D03*
%TO.P,U2,8,GND*%
%TO.N,GND*%
X29075000Y-109795000D03*
%TD*%
D19*
%TO.P,J5,1,Pin_1*%
%TO.N,/FAULT_UPDI*%
X26770000Y-102230000D03*
D20*
%TO.P,J5,2,Pin_2*%
%TO.N,/VCC*%
X26770000Y-103500000D03*
%TO.P,J5,3,Pin_3*%
%TO.N,/RX*%
X25500000Y-102230000D03*
%TO.P,J5,4,Pin_4*%
%TO.N,/TX*%
X25500000Y-103500000D03*
%TO.P,J5,5,Pin_5*%
%TO.N,unconnected-(J5-Pin_5-Pad5)*%
X24230000Y-102230000D03*
%TO.P,J5,6,Pin_6*%
%TO.N,GND*%
X24230000Y-103500000D03*
%TD*%
D12*
%TO.P,H1,1,1*%
%TO.N,+BATT*%
X68000000Y-113000000D03*
%TD*%
D14*
%TO.P,Q3,1,B*%
%TO.N,GND*%
X23150000Y-115562500D03*
%TO.P,Q3,2,E*%
%TO.N,Net-(J2-Pin_1)*%
X21250000Y-115562500D03*
%TO.P,Q3,3,C*%
%TO.N,/RX*%
X22200000Y-117437500D03*
%TD*%
D17*
%TO.P,R12,1*%
%TO.N,Net-(J2-Pin_1)*%
X21100000Y-108862500D03*
%TO.P,R12,2*%
%TO.N,GND*%
X21100000Y-110512500D03*
%TD*%
%TO.P,R6,1*%
%TO.N,/TX*%
X36800000Y-117275000D03*
%TO.P,R6,2*%
%TO.N,Net-(Q6-E)*%
X36800000Y-118925000D03*
%TD*%
D21*
%TO.P,D1,1,K*%
%TO.N,Net-(D1-K)*%
X38012500Y-104100000D03*
%TO.P,D1,2,A*%
%TO.N,VEE*%
X39587500Y-104100000D03*
%TD*%
D16*
%TO.P,R3,1*%
%TO.N,VEE*%
X29825000Y-106000000D03*
%TO.P,R3,2*%
%TO.N,/RX*%
X28175000Y-106000000D03*
%TD*%
D22*
%TO.P,R7,1*%
%TO.N,VEE*%
X38500000Y-124000000D03*
D23*
%TO.P,R7,2*%
%TO.N,Net-(Q2-D)*%
X16500000Y-124000000D03*
%TD*%
D24*
%TO.P,J2,1,Pin_1*%
%TO.N,Net-(J2-Pin_1)*%
X20500000Y-103500000D03*
%TO.P,J2,2,Pin_2*%
%TO.N,Net-(J2-Pin_2)*%
X20500000Y-104500000D03*
%TO.P,J2,3,Pin_3*%
%TO.N,Net-(J2-Pin_3)*%
X20500000Y-105500000D03*
D25*
%TO.P,J2,MP*%
%TO.N,N/C*%
X16625000Y-102200000D03*
X16625000Y-106800000D03*
%TD*%
D26*
%TO.P,R13,1*%
%TO.N,GND*%
X19300000Y-110525000D03*
%TO.P,R13,2*%
%TO.N,Net-(J2-Pin_3)*%
X19300000Y-108875000D03*
%TD*%
D27*
%TO.P,U1,1,K*%
%TO.N,/2V5*%
X25262500Y-115450000D03*
%TO.P,U1,2,REF*%
X25262500Y-117350000D03*
%TO.P,U1,3,A*%
%TO.N,/FAULT_UPDI*%
X27137500Y-116400000D03*
%TD*%
D15*
%TO.P,R5,1*%
%TO.N,/TX*%
X34475000Y-104100000D03*
%TO.P,R5,2*%
%TO.N,Net-(D1-K)*%
X36125000Y-104100000D03*
%TD*%
D28*
%TO.P,C2,1*%
%TO.N,/VCCB*%
X49650000Y-115000000D03*
%TO.P,C2,2*%
%TO.N,VEE*%
X51200000Y-115000000D03*
%TD*%
D18*
%TO.P,U4,1,VCC*%
%TO.N,/VCCB*%
X49725000Y-116795000D03*
%TO.P,U4,2,PA6*%
%TO.N,/TX2*%
X49725000Y-118065000D03*
%TO.P,U4,3,PA7*%
%TO.N,/RX2*%
X49725000Y-119335000D03*
%TO.P,U4,4,PA1*%
%TO.N,/2V5B*%
X49725000Y-120605000D03*
%TO.P,U4,5,PA2*%
%TO.N,/~{EN2}*%
X54675000Y-120605000D03*
%TO.P,U4,6,~{RESET}/PA0*%
%TO.N,/FAULT_UPDI2*%
X54675000Y-119335000D03*
%TO.P,U4,7,PA3*%
%TO.N,/BAL2*%
X54675000Y-118065000D03*
%TO.P,U4,8,GND*%
%TO.N,VEE*%
X54675000Y-116795000D03*
%TD*%
D15*
%TO.P,R16,1*%
%TO.N,/2V5B*%
X54675000Y-123100000D03*
%TO.P,R16,2*%
%TO.N,+BATT*%
X56325000Y-123100000D03*
%TD*%
D22*
%TO.P,R20,1*%
%TO.N,+BATT*%
X68500000Y-102000000D03*
D23*
%TO.P,R20,2*%
%TO.N,Net-(Q5-D)*%
X46500000Y-102000000D03*
%TD*%
D14*
%TO.P,Q6,1,B*%
%TO.N,VEE*%
X43250000Y-122762500D03*
%TO.P,Q6,2,E*%
%TO.N,Net-(Q6-E)*%
X41350000Y-122762500D03*
%TO.P,Q6,3,C*%
%TO.N,/RX2*%
X42300000Y-124637500D03*
%TD*%
D11*
%TO.P,D4,1,K*%
%TO.N,VEE*%
X56850000Y-110400000D03*
%TO.P,D4,2,A*%
%TO.N,+BATT*%
X58150000Y-110400000D03*
%TO.P,D4,3,K*%
%TO.N,Net-(Q4A-E1)*%
X57500000Y-108400000D03*
%TD*%
D13*
%TO.P,Q4,1,E1*%
%TO.N,Net-(Q4A-E1)*%
X62550000Y-110850000D03*
%TO.P,Q4,2,B1*%
%TO.N,Net-(Q4A-B1)*%
X61900000Y-110850000D03*
%TO.P,Q4,3,C2*%
X61250000Y-110850000D03*
%TO.P,Q4,4,E2*%
%TO.N,+BATT*%
X61250000Y-112750000D03*
%TO.P,Q4,5,B2*%
%TO.N,Net-(Q1A-C1)*%
X61900000Y-112750000D03*
%TO.P,Q4,6,C1*%
%TO.N,Net-(J6-Pin_2)*%
X62550000Y-112750000D03*
%TD*%
D26*
%TO.P,R24,1*%
%TO.N,Net-(Q5-G)*%
X50500000Y-107825000D03*
%TO.P,R24,2*%
%TO.N,VEE*%
X50500000Y-106175000D03*
%TD*%
%TO.P,R17,1*%
%TO.N,Net-(Q1A-C1)*%
X59400000Y-113425000D03*
%TO.P,R17,2*%
%TO.N,+BATT*%
X59400000Y-111775000D03*
%TD*%
D16*
%TO.P,R15,1*%
%TO.N,+BATT*%
X56325000Y-124700000D03*
%TO.P,R15,2*%
%TO.N,/RX2*%
X54675000Y-124700000D03*
%TD*%
D29*
%TO.P,Q5,1,G*%
%TO.N,Net-(Q5-G)*%
X48537500Y-107950000D03*
%TO.P,Q5,2,S*%
%TO.N,VEE*%
X48537500Y-106050000D03*
%TO.P,Q5,3,D*%
%TO.N,Net-(Q5-D)*%
X46662500Y-107000000D03*
%TD*%
D17*
%TO.P,R14,1*%
%TO.N,+BATT*%
X53200000Y-111675000D03*
%TO.P,R14,2*%
%TO.N,/VCCB*%
X53200000Y-113325000D03*
%TD*%
D30*
%TO.P,J8,1,Pin_1*%
%TO.N,Net-(J6-Pin_1)*%
X64500000Y-122500000D03*
%TO.P,J8,2,Pin_2*%
%TO.N,Net-(J6-Pin_2)*%
X64500000Y-121500000D03*
%TO.P,J8,3,Pin_3*%
%TO.N,unconnected-(J8-Pin_3-Pad3)*%
X64500000Y-120500000D03*
D31*
%TO.P,J8,MP*%
%TO.N,N/C*%
X68375000Y-123800000D03*
X68375000Y-119200000D03*
%TD*%
D19*
%TO.P,J7,1,Pin_1*%
%TO.N,/FAULT_UPDI2*%
X46025000Y-124325000D03*
D20*
%TO.P,J7,2,Pin_2*%
%TO.N,/VCCB*%
X46025000Y-123055000D03*
%TO.P,J7,3,Pin_3*%
%TO.N,/RX2*%
X47295000Y-124325000D03*
%TO.P,J7,4,Pin_4*%
%TO.N,/TX2*%
X47295000Y-123055000D03*
%TO.P,J7,5,Pin_5*%
%TO.N,unconnected-(J7-Pin_5-Pad5)*%
X48565000Y-124325000D03*
%TO.P,J7,6,Pin_6*%
%TO.N,VEE*%
X48565000Y-123055000D03*
%TD*%
D32*
%TO.P,H4,1,1*%
%TO.N,VEE*%
X39275000Y-113000000D03*
X40219581Y-110719581D03*
X40219581Y-115280419D03*
X42500000Y-109775000D03*
D33*
X42500000Y-113000000D03*
D32*
X42500000Y-116225000D03*
X44780419Y-110719581D03*
X44780419Y-115280419D03*
X45725000Y-113000000D03*
%TD*%
D34*
%TO.P,D3,1,K*%
%TO.N,Net-(D3-K)*%
X66200000Y-107987500D03*
%TO.P,D3,2,A*%
%TO.N,+BATT*%
X66200000Y-106412500D03*
%TD*%
D17*
%TO.P,R22,1*%
%TO.N,Net-(Q4A-E1)*%
X57500000Y-117875000D03*
%TO.P,R22,2*%
%TO.N,/~{EN2}*%
X57500000Y-119525000D03*
%TD*%
D16*
%TO.P,R21,1*%
%TO.N,Net-(Q4A-E1)*%
X62625000Y-108900000D03*
%TO.P,R21,2*%
%TO.N,Net-(Q4A-B1)*%
X60975000Y-108900000D03*
%TD*%
D15*
%TO.P,R25,1*%
%TO.N,Net-(Q6-E)*%
X40775000Y-120600000D03*
%TO.P,R25,2*%
%TO.N,VEE*%
X42425000Y-120600000D03*
%TD*%
D26*
%TO.P,R18,1*%
%TO.N,/TX2*%
X63600000Y-117300000D03*
%TO.P,R18,2*%
%TO.N,Net-(D3-K)*%
X63600000Y-115650000D03*
%TD*%
D27*
%TO.P,U3,1,K*%
%TO.N,/2V5B*%
X50962500Y-122350000D03*
%TO.P,U3,2,REF*%
X50962500Y-124250000D03*
%TO.P,U3,3,A*%
%TO.N,/FAULT_UPDI2*%
X52837500Y-123300000D03*
%TD*%
D17*
%TO.P,R19,1*%
%TO.N,/TX2*%
X59900000Y-120675000D03*
%TO.P,R19,2*%
%TO.N,Net-(J6-Pin_1)*%
X59900000Y-122325000D03*
%TD*%
D26*
%TO.P,R23,1*%
%TO.N,/BAL2*%
X51000000Y-112525000D03*
%TO.P,R23,2*%
%TO.N,Net-(Q5-G)*%
X51000000Y-110875000D03*
%TD*%
D35*
%TO.P,J4,1,Pin_1*%
%TO.N,Net-(J2-Pin_1)*%
X18500000Y-103500000D03*
D36*
%TO.P,J4,2,Pin_2*%
%TO.N,Net-(J2-Pin_2)*%
X18500000Y-105500000D03*
%TD*%
D35*
%TO.P,J6,1,Pin_1*%
%TO.N,Net-(J6-Pin_1)*%
X66600000Y-122500000D03*
D36*
%TO.P,J6,2,Pin_2*%
%TO.N,Net-(J6-Pin_2)*%
X66600000Y-120500000D03*
%TD*%
D37*
%TO.N,GND*%
X19600000Y-119700000D03*
X29100000Y-108700000D03*
X21100000Y-111600000D03*
X29100000Y-119900000D03*
X24200000Y-105400000D03*
X23200004Y-117100000D03*
X19300000Y-111599996D03*
%TO.N,VEE*%
X50500000Y-104500000D03*
X48200014Y-104500000D03*
X41000000Y-104100000D03*
X43700000Y-120600000D03*
X33000000Y-117400000D03*
X54700000Y-110200002D03*
X51500000Y-116700000D03*
X49299996Y-104500000D03*
X36200010Y-119900000D03*
X30500000Y-119900000D03*
X31500000Y-103500000D03*
X31000000Y-106000000D03*
X31000000Y-107500000D03*
X54700000Y-115800000D03*
%TO.N,/RX*%
X29800000Y-101600000D03*
X29800000Y-104700000D03*
%TO.N,/FAULT_UPDI2*%
X52800000Y-124200000D03*
%TO.N,+BATT*%
X57300004Y-123900000D03*
X60300006Y-107200000D03*
X65200000Y-105700000D03*
X60300000Y-110200002D03*
%TD*%
D38*
%TO.N,GND*%
X23200000Y-115612500D02*
X23200000Y-117099996D01*
D39*
X16300000Y-117900000D02*
X17000000Y-117200000D01*
D38*
X29075000Y-109795000D02*
X29075000Y-108725000D01*
X20712500Y-119700000D02*
X19600000Y-119700000D01*
D39*
X16250000Y-117900000D02*
X16300000Y-117900000D01*
D38*
X29150000Y-118600000D02*
X29150000Y-119850000D01*
X29075000Y-108725000D02*
X29100000Y-108700000D01*
X24200000Y-106612500D02*
X24200000Y-105400000D01*
X21100000Y-110475000D02*
X21100000Y-111600000D01*
X19300000Y-110487500D02*
X19300000Y-111599996D01*
X29150000Y-119850000D02*
X29100000Y-119900000D01*
D39*
X17000000Y-117200000D02*
X17000000Y-113000000D01*
D38*
X23200000Y-117099996D02*
X23200004Y-117100000D01*
X23150000Y-115562500D02*
X23200000Y-115612500D01*
%TO.N,/VCC*%
X24125000Y-109795000D02*
X24125000Y-108262500D01*
X25400000Y-105700000D02*
X26770000Y-104330000D01*
X26770000Y-104330000D02*
X26770000Y-103500000D01*
X28712500Y-103500000D02*
X26770000Y-103500000D01*
X24125000Y-108262500D02*
X25400000Y-106987500D01*
X25400000Y-106987500D02*
X25400000Y-105700000D01*
%TO.N,/VCCB*%
X50250000Y-113850000D02*
X49700000Y-114400000D01*
X46030000Y-123050000D02*
X46030000Y-118970000D01*
X53200000Y-113325000D02*
X52675000Y-113850000D01*
X46025000Y-123055000D02*
X46030000Y-123050000D01*
X49725000Y-115075000D02*
X49650000Y-115000000D01*
X46030000Y-118970000D02*
X48205000Y-116795000D01*
X49700000Y-114950000D02*
X49650000Y-115000000D01*
X52675000Y-113850000D02*
X50250000Y-113850000D01*
X48205000Y-116795000D02*
X49725000Y-116795000D01*
X49725000Y-116795000D02*
X49725000Y-115075000D01*
X49700000Y-114400000D02*
X49700000Y-114950000D01*
%TO.N,VEE*%
X30287500Y-103500000D02*
X31500000Y-103500000D01*
D39*
X48200014Y-105712514D02*
X48200014Y-104500000D01*
D38*
X54700000Y-115800000D02*
X54700000Y-116770000D01*
X54700000Y-116770000D02*
X54690000Y-116780000D01*
X51200000Y-115700000D02*
X51500000Y-116000000D01*
X33950000Y-116550000D02*
X33850000Y-116550000D01*
X56650002Y-110200002D02*
X54700000Y-110200002D01*
X51200000Y-115000000D02*
X51200000Y-115700000D01*
X30450000Y-119850000D02*
X30500000Y-119900000D01*
X34887500Y-119600000D02*
X35187500Y-119900000D01*
X35187500Y-119900000D02*
X36200010Y-119900000D01*
X56850000Y-110400000D02*
X56650002Y-110200002D01*
X43250000Y-122762500D02*
X43250000Y-121850000D01*
D39*
X50500000Y-104500000D02*
X49299996Y-104500000D01*
D38*
X33850000Y-116550000D02*
X33000000Y-117400000D01*
X29787500Y-106000000D02*
X31000000Y-106000000D01*
D39*
X48200014Y-104500000D02*
X49299996Y-104500000D01*
D38*
X50500000Y-106175000D02*
X50500000Y-104500000D01*
X30450000Y-118600000D02*
X30450000Y-119850000D01*
X54690000Y-116780000D02*
X54675000Y-116780000D01*
X43250000Y-121850000D02*
X43700000Y-121400000D01*
X42425000Y-120600000D02*
X43700000Y-120600000D01*
X43700000Y-121400000D02*
X43700000Y-120600000D01*
D39*
X48537500Y-106050000D02*
X48200014Y-105712514D01*
D38*
X51500000Y-116000000D02*
X51500000Y-116700000D01*
X31000000Y-107500000D02*
X29787500Y-107500000D01*
X39587500Y-104100000D02*
X41000000Y-104100000D01*
%TO.N,Net-(D1-K)*%
X36125000Y-104100000D02*
X38012500Y-104100000D01*
%TO.N,/RX*%
X25900000Y-101300000D02*
X28000000Y-101300000D01*
X25265000Y-112335000D02*
X27000000Y-110600000D01*
X28300000Y-101600000D02*
X29800000Y-101600000D01*
X27000000Y-106000000D02*
X28212500Y-106000000D01*
X27000000Y-105300000D02*
X27000000Y-106000000D01*
X27600000Y-104700000D02*
X27000000Y-105300000D01*
X25500000Y-102230000D02*
X25500000Y-101700000D01*
X22200000Y-113100000D02*
X22965000Y-112335000D01*
X28000000Y-101300000D02*
X28300000Y-101600000D01*
X29800000Y-104700000D02*
X27600000Y-104700000D01*
X25500000Y-101700000D02*
X25900000Y-101300000D01*
X22965000Y-112335000D02*
X24125000Y-112335000D01*
X22200000Y-117437500D02*
X22200000Y-113100000D01*
X27000000Y-110600000D02*
X27000000Y-106000000D01*
X24125000Y-112335000D02*
X25265000Y-112335000D01*
%TO.N,/TX*%
X24125000Y-111065000D02*
X22965000Y-111065000D01*
X36800000Y-113700000D02*
X36800000Y-117275000D01*
X22750000Y-110850000D02*
X22750000Y-102350000D01*
X22750000Y-102350000D02*
X24250000Y-100850000D01*
X24250000Y-100850000D02*
X30650000Y-100850000D01*
X33400000Y-103600000D02*
X33400000Y-110300000D01*
X22965000Y-111065000D02*
X22750000Y-110850000D01*
X25500000Y-104200000D02*
X25300000Y-104400000D01*
X33400000Y-110300000D02*
X36800000Y-113700000D01*
X30650000Y-100850000D02*
X33400000Y-103600000D01*
X25300000Y-104400000D02*
X22750000Y-104400000D01*
X34475000Y-104100000D02*
X33400000Y-104100000D01*
X25500000Y-103500000D02*
X25500000Y-104200000D01*
%TO.N,Net-(Q1A-E1)*%
X34525000Y-112800000D02*
X34500000Y-112825000D01*
X34500000Y-113900000D02*
X35200000Y-113900000D01*
X34500000Y-112825000D02*
X34500000Y-113900000D01*
X29800000Y-115600000D02*
X31500000Y-113900000D01*
X35250000Y-113950000D02*
X35250000Y-114650000D01*
X32000000Y-113900000D02*
X34500000Y-113900000D01*
X32000000Y-114812500D02*
X32000000Y-113900000D01*
X31500000Y-113900000D02*
X32000000Y-113900000D01*
X29800000Y-116600000D02*
X29800000Y-115600000D01*
X35200000Y-113900000D02*
X35250000Y-113950000D01*
%TO.N,Net-(D3-K)*%
X66200000Y-109636396D02*
X63600000Y-112236396D01*
X66200000Y-107987500D02*
X66200000Y-109636396D01*
X63600000Y-112236396D02*
X63600000Y-115650000D01*
%TO.N,/2V5*%
X25800000Y-113605000D02*
X24125000Y-113605000D01*
X25800000Y-114300000D02*
X25800000Y-113605000D01*
X25800000Y-112500000D02*
X25800000Y-113605000D01*
X25200000Y-114900000D02*
X25800000Y-114300000D01*
X27500000Y-108212500D02*
X27500000Y-110800000D01*
X28212500Y-107500000D02*
X27500000Y-108212500D01*
X27500000Y-110800000D02*
X25800000Y-112500000D01*
X25200000Y-117350000D02*
X25200000Y-114900000D01*
%TO.N,/BAL*%
X26337500Y-117009251D02*
X26337500Y-119662500D01*
X26075000Y-116053249D02*
X26075000Y-116746751D01*
X26075000Y-116746751D02*
X26337500Y-117009251D01*
X29075000Y-111065000D02*
X27871396Y-111065000D01*
X26337500Y-119662500D02*
X26300000Y-119700000D01*
X26337500Y-115790749D02*
X26075000Y-116053249D01*
X27871396Y-111065000D02*
X26337500Y-112598896D01*
X26337500Y-112598896D02*
X26337500Y-115790749D01*
%TO.N,/~{EN}*%
X32875000Y-112800000D02*
X31600000Y-112800000D01*
X31600000Y-112800000D02*
X30795000Y-113605000D01*
X30795000Y-113605000D02*
X29075000Y-113605000D01*
%TO.N,/FAULT_UPDI*%
X32400000Y-110500000D02*
X30565000Y-112335000D01*
X26770000Y-102230000D02*
X26865000Y-102325000D01*
X27200000Y-113000000D02*
X27200000Y-116400000D01*
X31425000Y-102325000D02*
X32400000Y-103300000D01*
X29075000Y-112335000D02*
X27865000Y-112335000D01*
X26865000Y-102325000D02*
X31425000Y-102325000D01*
X27865000Y-112335000D02*
X27200000Y-113000000D01*
X32400000Y-103300000D02*
X32400000Y-110500000D01*
X30565000Y-112335000D02*
X29075000Y-112335000D01*
%TO.N,Net-(Q4A-E1)*%
X58500000Y-108400000D02*
X58900000Y-108000000D01*
X58900000Y-108000000D02*
X62400000Y-108000000D01*
X57500000Y-117875000D02*
X57500000Y-108400000D01*
X62550000Y-109150000D02*
X62625000Y-109075000D01*
X57500000Y-108400000D02*
X58500000Y-108400000D01*
X62625000Y-109075000D02*
X62625000Y-108900000D01*
X62550000Y-110850000D02*
X62550000Y-109150000D01*
X62400000Y-108000000D02*
X62625000Y-108225000D01*
X62625000Y-108225000D02*
X62625000Y-108900000D01*
%TO.N,Net-(J2-Pin_3)*%
X20500000Y-106500000D02*
X19300000Y-107700000D01*
X19300000Y-107700000D02*
X19300000Y-108912500D01*
X20500000Y-105500000D02*
X20500000Y-106500000D01*
%TO.N,Net-(J2-Pin_2)*%
X33000000Y-118400000D02*
X32200000Y-119200000D01*
X26000000Y-120700000D02*
X31100000Y-120700000D01*
X32200000Y-119600000D02*
X33312500Y-119600000D01*
X21500000Y-104500000D02*
X21650000Y-104650000D01*
X20200000Y-107800000D02*
X20200000Y-112700000D01*
X20500000Y-104500000D02*
X21500000Y-104500000D01*
X20500000Y-104500000D02*
X19350000Y-104500000D01*
X24968979Y-118700000D02*
X25487500Y-119218521D01*
X19900000Y-117700000D02*
X20900000Y-118700000D01*
X25487500Y-120187500D02*
X26000000Y-120700000D01*
X20200000Y-112700000D02*
X19900000Y-113000000D01*
X19350000Y-104500000D02*
X18350000Y-105500000D01*
X31100000Y-120700000D02*
X32200000Y-119600000D01*
X20900000Y-118700000D02*
X24968979Y-118700000D01*
X32200000Y-119200000D02*
X32200000Y-119600000D01*
X34600000Y-117100000D02*
X33300000Y-118400000D01*
X34600000Y-116550000D02*
X34600000Y-117100000D01*
X21650000Y-104650000D02*
X21650000Y-106350000D01*
X19900000Y-113000000D02*
X19900000Y-117700000D01*
X21650000Y-106350000D02*
X20200000Y-107800000D01*
X25487500Y-119218521D02*
X25487500Y-120187500D01*
X33300000Y-118400000D02*
X33000000Y-118400000D01*
%TO.N,Net-(J2-Pin_1)*%
X20500000Y-103500000D02*
X18350000Y-103500000D01*
X22100000Y-112000000D02*
X22100000Y-108900000D01*
X21700000Y-103500000D02*
X20500000Y-103500000D01*
X22100000Y-103900000D02*
X21700000Y-103500000D01*
X21250000Y-115562500D02*
X21250000Y-112850000D01*
X22100000Y-108900000D02*
X21100000Y-108900000D01*
X22100000Y-108900000D02*
X22100000Y-103900000D01*
X21250000Y-112850000D02*
X22100000Y-112000000D01*
%TO.N,/FAULT_UPDI2*%
X52800000Y-124200000D02*
X52800000Y-123337500D01*
X53265000Y-119335000D02*
X52837500Y-119762500D01*
X52800000Y-123337500D02*
X52837500Y-123300000D01*
X54675000Y-119335000D02*
X53265000Y-119335000D01*
X52837500Y-119762500D02*
X52837500Y-123300000D01*
%TO.N,/RX2*%
X49500000Y-125400000D02*
X48000000Y-125400000D01*
X54675000Y-124725000D02*
X54000000Y-125400000D01*
X47295000Y-125337894D02*
X47295000Y-124325000D01*
X48425000Y-121125000D02*
X49500000Y-122200000D01*
X42300000Y-125100000D02*
X42300000Y-124637500D01*
X49500000Y-122200000D02*
X49500000Y-125400000D01*
X48425000Y-119475000D02*
X48425000Y-121125000D01*
X48000000Y-125400000D02*
X47357106Y-125400000D01*
X47357106Y-125400000D02*
X47295000Y-125337894D01*
X47357106Y-125400000D02*
X42600000Y-125400000D01*
X54675000Y-124700000D02*
X54675000Y-124725000D01*
X49725000Y-119335000D02*
X48565000Y-119335000D01*
X54000000Y-125400000D02*
X49500000Y-125400000D01*
X42600000Y-125400000D02*
X42300000Y-125100000D01*
X48565000Y-119335000D02*
X48425000Y-119475000D01*
%TO.N,/TX2*%
X59900000Y-120675000D02*
X59900000Y-118700000D01*
X47295000Y-123125000D02*
X47295000Y-119205000D01*
X62900000Y-118700000D02*
X63600000Y-118000000D01*
X63600000Y-118000000D02*
X63600000Y-117300000D01*
X48435000Y-118065000D02*
X49725000Y-118065000D01*
X47295000Y-119205000D02*
X48435000Y-118065000D01*
X52700000Y-118700000D02*
X59900000Y-118700000D01*
X59900000Y-118700000D02*
X62900000Y-118700000D01*
X52065000Y-118065000D02*
X52700000Y-118700000D01*
X49725000Y-118065000D02*
X52065000Y-118065000D01*
%TO.N,Net-(J6-Pin_1)*%
X60075000Y-122500000D02*
X59900000Y-122325000D01*
X64500000Y-122500000D02*
X60075000Y-122500000D01*
X66200000Y-122500000D02*
X64500000Y-122500000D01*
%TO.N,Net-(J6-Pin_2)*%
X62500000Y-112800000D02*
X62500000Y-116000000D01*
X62550000Y-112750000D02*
X62500000Y-112800000D01*
X62500000Y-116000000D02*
X63000000Y-116500000D01*
X66650000Y-118850000D02*
X66650000Y-120050000D01*
X65200000Y-121500000D02*
X64500000Y-121500000D01*
X64300000Y-116500000D02*
X66650000Y-118850000D01*
X66650000Y-120050000D02*
X65200000Y-121500000D01*
X63000000Y-116500000D02*
X64300000Y-116500000D01*
%TO.N,Net-(Q1A-C1)*%
X44900000Y-118300000D02*
X37779962Y-118300000D01*
X37579962Y-118100000D02*
X35900000Y-118100000D01*
X61600000Y-106400000D02*
X56500000Y-106400000D01*
X35900000Y-118100000D02*
X35250000Y-117450000D01*
X61900000Y-112000000D02*
X62100000Y-111800000D01*
X37779962Y-118300000D02*
X37579962Y-118100000D01*
X61675000Y-113425000D02*
X59400000Y-113425000D01*
X47900000Y-115300000D02*
X44900000Y-118300000D01*
X62100000Y-111800000D02*
X63000000Y-111800000D01*
X63000000Y-111800000D02*
X63350000Y-111450000D01*
X63350000Y-111450000D02*
X63350000Y-108150000D01*
X35250000Y-117450000D02*
X35250000Y-116550000D01*
X50500000Y-111700000D02*
X47900000Y-114300000D01*
X61900000Y-112750000D02*
X61900000Y-112000000D01*
X61900000Y-113200000D02*
X61675000Y-113425000D01*
X56500000Y-106400000D02*
X52200000Y-110700000D01*
X52200000Y-110700000D02*
X52200000Y-110900000D01*
X51400000Y-111700000D02*
X50500000Y-111700000D01*
X47900000Y-114300000D02*
X47900000Y-115300000D01*
X63350000Y-108150000D02*
X61600000Y-106400000D01*
X52200000Y-110900000D02*
X51400000Y-111700000D01*
X61900000Y-112750000D02*
X61900000Y-113200000D01*
%TO.N,Net-(Q1A-B1)*%
X34600000Y-114650000D02*
X34600000Y-115200000D01*
X34500000Y-115300000D02*
X34000000Y-115300000D01*
X32912500Y-116387500D02*
X32000000Y-116387500D01*
X34600000Y-115200000D02*
X34500000Y-115300000D01*
X33950000Y-114650000D02*
X33950000Y-115350000D01*
X33950000Y-115350000D02*
X32912500Y-116387500D01*
X34000000Y-115300000D02*
X33950000Y-115350000D01*
D39*
%TO.N,Net-(Q2-D)*%
X16500000Y-124000000D02*
X16500000Y-121700000D01*
X17200000Y-119900000D02*
X17200000Y-121000000D01*
X17200000Y-121000000D02*
X16500000Y-121700000D01*
D38*
%TO.N,Net-(Q2-G)*%
X19374695Y-120500000D02*
X22900000Y-120500000D01*
X22900000Y-120500000D02*
X23700000Y-119700000D01*
X23700000Y-119700000D02*
X24725000Y-119700000D01*
X18150000Y-119275305D02*
X19374695Y-120500000D01*
X22300000Y-120500000D02*
X22300000Y-119712500D01*
X18150000Y-117900000D02*
X18150000Y-119275305D01*
%TO.N,Net-(Q4A-B1)*%
X61200000Y-109800000D02*
X61200000Y-109125000D01*
X61200000Y-109800000D02*
X61200000Y-110800000D01*
X61900000Y-110100000D02*
X61600000Y-109800000D01*
X61900000Y-110850000D02*
X61900000Y-110100000D01*
X61600000Y-109800000D02*
X61200000Y-109800000D01*
X61200000Y-109125000D02*
X60975000Y-108900000D01*
X61200000Y-110800000D02*
X61250000Y-110850000D01*
%TO.N,Net-(Q5-G)*%
X48537500Y-107950000D02*
X50375000Y-107950000D01*
X51000000Y-109600000D02*
X50500000Y-109100000D01*
X50500000Y-109100000D02*
X50500000Y-107825000D01*
X50375000Y-107950000D02*
X50500000Y-107825000D01*
X51000000Y-110875000D02*
X51000000Y-109600000D01*
D39*
%TO.N,Net-(Q5-D)*%
X46500000Y-107000000D02*
X46500000Y-102000000D01*
D38*
%TO.N,Net-(Q6-E)*%
X36800000Y-118925000D02*
X37025000Y-118925000D01*
X40775000Y-120600000D02*
X39775000Y-121600000D01*
X40862500Y-122762500D02*
X41350000Y-122762500D01*
X37025000Y-118925000D02*
X40862500Y-122762500D01*
%TO.N,/2V5B*%
X50400000Y-120600000D02*
X49730000Y-120600000D01*
X53100305Y-124925000D02*
X52125000Y-124925000D01*
X51012500Y-124300000D02*
X50962500Y-124250000D01*
X54675000Y-123350305D02*
X53100305Y-124925000D01*
X52125000Y-124925000D02*
X51500000Y-124300000D01*
X50962500Y-124250000D02*
X50962500Y-122350000D01*
X49730000Y-120600000D02*
X49725000Y-120605000D01*
X54675000Y-123100000D02*
X54675000Y-123350305D01*
X51500000Y-124300000D02*
X51012500Y-124300000D01*
X50962500Y-122350000D02*
X50962500Y-121162500D01*
X50962500Y-121162500D02*
X50400000Y-120600000D01*
%TO.N,/~{EN2}*%
X56420000Y-120605000D02*
X57500000Y-119525000D01*
X54675000Y-120605000D02*
X56420000Y-120605000D01*
%TO.N,/BAL2*%
X56200000Y-117700000D02*
X55835000Y-118065000D01*
X55835000Y-118065000D02*
X54675000Y-118065000D01*
X56200000Y-114900000D02*
X56200000Y-117700000D01*
X53825000Y-112525000D02*
X56200000Y-114900000D01*
X51000000Y-112525000D02*
X53825000Y-112525000D01*
%TO.N,+BATT*%
X65300000Y-105700000D02*
X65200000Y-105700000D01*
X66200000Y-106412500D02*
X66012500Y-106412500D01*
X56325000Y-123900000D02*
X56325000Y-124700000D01*
X61250000Y-112750000D02*
X60300000Y-111800000D01*
X60300000Y-111800000D02*
X60300000Y-110200002D01*
X53200000Y-110500000D02*
X56500000Y-107200000D01*
X56325000Y-123900000D02*
X57300004Y-123900000D01*
X60300000Y-111800000D02*
X59425000Y-111800000D01*
X58349998Y-110200002D02*
X60300000Y-110200002D01*
X53200000Y-111675000D02*
X53200000Y-110500000D01*
X56325000Y-123900000D02*
X56325000Y-123100000D01*
X56500000Y-107200000D02*
X60300006Y-107200000D01*
X58150000Y-110400000D02*
X58349998Y-110200002D01*
X59425000Y-111800000D02*
X59400000Y-111775000D01*
X66012500Y-106412500D02*
X65300000Y-105700000D01*
%TD*%
%TA.AperFunction,Conductor*%
%TO.N,GND*%
G36*
X24207630Y-105405566D02*
G01*
X24491578Y-105649917D01*
X24495613Y-105657911D01*
X24493196Y-105665949D01*
X24436995Y-105738508D01*
X24436993Y-105738512D01*
X24387999Y-105824906D01*
X24387992Y-105824921D01*
X24353000Y-105924916D01*
X24352998Y-105924923D01*
X24331999Y-106047097D01*
X24331999Y-106047100D01*
X24325511Y-106188835D01*
X24321709Y-106196943D01*
X24313823Y-106200000D01*
X24086177Y-106200000D01*
X24077904Y-106196573D01*
X24074489Y-106188835D01*
X24073401Y-106165082D01*
X24068000Y-106047104D01*
X24047001Y-105924925D01*
X24012001Y-105824910D01*
X23963001Y-105738507D01*
X23906802Y-105665948D01*
X23904446Y-105657310D01*
X23908419Y-105649919D01*
X24192369Y-105405566D01*
X24200874Y-105402768D01*
X24207630Y-105405566D01*
G37*
%TD.AperFunction*%
%TD*%
%TA.AperFunction,Conductor*%
%TO.N,GND*%
G36*
X19865950Y-119406803D02*
G01*
X19938509Y-119463002D01*
X19938513Y-119463004D01*
X20024911Y-119512001D01*
X20124925Y-119547001D01*
X20247104Y-119568000D01*
X20388836Y-119574488D01*
X20396943Y-119578290D01*
X20400000Y-119586176D01*
X20400000Y-119813823D01*
X20396573Y-119822096D01*
X20388835Y-119825511D01*
X20247100Y-119831999D01*
X20247097Y-119831999D01*
X20124923Y-119852998D01*
X20124920Y-119852999D01*
X20024918Y-119887994D01*
X20024907Y-119887999D01*
X19938513Y-119936993D01*
X19938509Y-119936995D01*
X19865950Y-119993196D01*
X19857311Y-119995553D01*
X19849918Y-119991578D01*
X19605566Y-119707630D01*
X19602768Y-119699126D01*
X19605566Y-119692369D01*
X19849920Y-119408419D01*
X19857912Y-119404386D01*
X19865950Y-119406803D01*
G37*
%TD.AperFunction*%
%TD*%
%TA.AperFunction,Conductor*%
%TO.N,GND*%
G36*
X19422096Y-110803423D02*
G01*
X19425511Y-110811161D01*
X19431999Y-110952893D01*
X19431999Y-110952896D01*
X19452998Y-111075070D01*
X19453000Y-111075077D01*
X19487992Y-111175072D01*
X19487994Y-111175076D01*
X19487997Y-111175084D01*
X19487999Y-111175087D01*
X19536993Y-111261481D01*
X19536995Y-111261485D01*
X19593196Y-111334045D01*
X19595553Y-111342684D01*
X19591578Y-111350077D01*
X19307631Y-111594428D01*
X19299125Y-111597227D01*
X19292368Y-111594428D01*
X19008420Y-111350076D01*
X19004386Y-111342083D01*
X19006802Y-111334047D01*
X19063001Y-111261487D01*
X19112001Y-111175084D01*
X19147001Y-111075069D01*
X19168000Y-110952890D01*
X19174488Y-110811161D01*
X19178291Y-110803053D01*
X19186177Y-110799996D01*
X19413823Y-110799996D01*
X19422096Y-110803423D01*
G37*
%TD.AperFunction*%
%TD*%
%TA.AperFunction,Conductor*%
%TO.N,VEE*%
G36*
X33485200Y-116753829D02*
G01*
X33646170Y-116914799D01*
X33649597Y-116923072D01*
X33646540Y-116930958D01*
X33550904Y-117035770D01*
X33479362Y-117137010D01*
X33433393Y-117232467D01*
X33433390Y-117232477D01*
X33406942Y-117328224D01*
X33395374Y-117419267D01*
X33390931Y-117427042D01*
X33382892Y-117429459D01*
X33009332Y-117401459D01*
X33001339Y-117397424D01*
X32998540Y-117390666D01*
X32986683Y-117232467D01*
X32970541Y-117017102D01*
X32973340Y-117008598D01*
X32980732Y-117004623D01*
X33071777Y-116993054D01*
X33167522Y-116966607D01*
X33262991Y-116920634D01*
X33364234Y-116849089D01*
X33469041Y-116753458D01*
X33477462Y-116750414D01*
X33485200Y-116753829D01*
G37*
%TD.AperFunction*%
%TD*%
%TA.AperFunction,Conductor*%
%TO.N,GND*%
G36*
X29107393Y-108705861D02*
G01*
X29383435Y-108962045D01*
X29387168Y-108970185D01*
X29384389Y-108978200D01*
X29325654Y-109047273D01*
X29272366Y-109130106D01*
X29232910Y-109226671D01*
X29209233Y-109341504D01*
X29208415Y-109345472D01*
X29203344Y-109435592D01*
X29200621Y-109483984D01*
X29196734Y-109492052D01*
X29188939Y-109495027D01*
X28961273Y-109495027D01*
X28953000Y-109491600D01*
X28949581Y-109483761D01*
X28944295Y-109341504D01*
X28926570Y-109218354D01*
X28895908Y-109116999D01*
X28851395Y-109028861D01*
X28851393Y-109028858D01*
X28851393Y-109028857D01*
X28798508Y-108954370D01*
X28796513Y-108945641D01*
X28800736Y-108938464D01*
X29092124Y-108705301D01*
X29100725Y-108702808D01*
X29107393Y-108705861D01*
G37*
%TD.AperFunction*%
%TD*%
%TA.AperFunction,Conductor*%
%TO.N,/FAULT_UPDI2*%
G36*
X52922096Y-123403427D02*
G01*
X52925511Y-123411165D01*
X52931999Y-123552897D01*
X52931999Y-123552900D01*
X52952998Y-123675074D01*
X52953000Y-123675081D01*
X52987992Y-123775076D01*
X52987994Y-123775080D01*
X52987997Y-123775088D01*
X52987999Y-123775091D01*
X53036993Y-123861485D01*
X53036995Y-123861489D01*
X53093196Y-123934049D01*
X53095553Y-123942688D01*
X53091578Y-123950081D01*
X52807632Y-124194432D01*
X52799126Y-124197231D01*
X52792368Y-124194432D01*
X52508421Y-123950081D01*
X52504386Y-123942087D01*
X52506802Y-123934051D01*
X52563001Y-123861491D01*
X52612001Y-123775088D01*
X52647001Y-123675073D01*
X52668000Y-123552894D01*
X52674488Y-123411165D01*
X52678291Y-123403057D01*
X52686177Y-123400000D01*
X52913823Y-123400000D01*
X52922096Y-123403427D01*
G37*
%TD.AperFunction*%
%TD*%
%TA.AperFunction,Conductor*%
%TO.N,VEE*%
G36*
X35950091Y-119608421D02*
G01*
X36194442Y-119892368D01*
X36197241Y-119900874D01*
X36194442Y-119907632D01*
X35950091Y-120191578D01*
X35942097Y-120195613D01*
X35934059Y-120193196D01*
X35861499Y-120136995D01*
X35861495Y-120136993D01*
X35803899Y-120104330D01*
X35775098Y-120087997D01*
X35775092Y-120087995D01*
X35775086Y-120087992D01*
X35675091Y-120053000D01*
X35675084Y-120052998D01*
X35552909Y-120031999D01*
X35411175Y-120025511D01*
X35403067Y-120021709D01*
X35400010Y-120013823D01*
X35400010Y-119786176D01*
X35403437Y-119777903D01*
X35411172Y-119774488D01*
X35552904Y-119768000D01*
X35675083Y-119747001D01*
X35775098Y-119712001D01*
X35861501Y-119663001D01*
X35934061Y-119606802D01*
X35942698Y-119604446D01*
X35950091Y-119608421D01*
G37*
%TD.AperFunction*%
%TD*%
%TA.AperFunction,Conductor*%
%TO.N,+BATT*%
G36*
X65584413Y-105635561D02*
G01*
X65589042Y-105642321D01*
X65610896Y-105730582D01*
X65610896Y-105730583D01*
X65643697Y-105806603D01*
X65649681Y-105820471D01*
X65706998Y-105909498D01*
X65787072Y-106005759D01*
X65787073Y-106005760D01*
X65886194Y-106109081D01*
X65889448Y-106117424D01*
X65886024Y-106125454D01*
X65725020Y-106286458D01*
X65716747Y-106289885D01*
X65709124Y-106287061D01*
X65667273Y-106251115D01*
X65607076Y-106199411D01*
X65504885Y-106140834D01*
X65504883Y-106140833D01*
X65504881Y-106140832D01*
X65406993Y-106110024D01*
X65406994Y-106110024D01*
X65309624Y-106098610D01*
X65309600Y-106098608D01*
X65220334Y-106098262D01*
X65212074Y-106094803D01*
X65208682Y-106086845D01*
X65204385Y-105909498D01*
X65199537Y-105709368D01*
X65202763Y-105701016D01*
X65209223Y-105697560D01*
X65575674Y-105633607D01*
X65584413Y-105635561D01*
G37*
%TD.AperFunction*%
%TD*%
%TA.AperFunction,Conductor*%
%TO.N,/VCC*%
G36*
X27166597Y-103207215D02*
G01*
X27215555Y-103255863D01*
X27271015Y-103289873D01*
X27294003Y-103303970D01*
X27395410Y-103341646D01*
X27520500Y-103366215D01*
X27658987Y-103374352D01*
X27667044Y-103378258D01*
X27670000Y-103386032D01*
X27670000Y-103613967D01*
X27666573Y-103622240D01*
X27658986Y-103625647D01*
X27520503Y-103633783D01*
X27395404Y-103658353D01*
X27294009Y-103696026D01*
X27294000Y-103696030D01*
X27215555Y-103744135D01*
X27166597Y-103792784D01*
X27158313Y-103796185D01*
X27151220Y-103793762D01*
X26781070Y-103509277D01*
X26776599Y-103501518D01*
X26778923Y-103492870D01*
X26781070Y-103490723D01*
X27151221Y-103206236D01*
X27159868Y-103203913D01*
X27166597Y-103207215D01*
G37*
%TD.AperFunction*%
%TD*%
%TA.AperFunction,Conductor*%
%TO.N,VEE*%
G36*
X54707630Y-115805566D02*
G01*
X54991578Y-116049917D01*
X54995613Y-116057911D01*
X54993196Y-116065949D01*
X54936995Y-116138508D01*
X54936993Y-116138512D01*
X54887999Y-116224906D01*
X54887992Y-116224921D01*
X54853000Y-116324916D01*
X54852998Y-116324923D01*
X54831999Y-116447097D01*
X54831999Y-116447100D01*
X54825511Y-116588835D01*
X54821709Y-116596943D01*
X54813823Y-116600000D01*
X54586177Y-116600000D01*
X54577904Y-116596573D01*
X54574489Y-116588835D01*
X54573401Y-116565082D01*
X54568000Y-116447104D01*
X54547001Y-116324925D01*
X54512001Y-116224910D01*
X54463001Y-116138507D01*
X54406802Y-116065948D01*
X54404446Y-116057310D01*
X54408419Y-116049919D01*
X54692369Y-115805566D01*
X54700874Y-115802768D01*
X54707630Y-115805566D01*
G37*
%TD.AperFunction*%
%TD*%
%TA.AperFunction,Conductor*%
%TO.N,/TX*%
G36*
X25506065Y-103510331D02*
G01*
X25507907Y-103512899D01*
X25727380Y-103927622D01*
X25728221Y-103936538D01*
X25725388Y-103941291D01*
X25676674Y-103990914D01*
X25676671Y-103990918D01*
X25639306Y-104077812D01*
X25600957Y-104186003D01*
X25600715Y-104186585D01*
X25543428Y-104305686D01*
X25542110Y-104307810D01*
X25455106Y-104419371D01*
X25447316Y-104423788D01*
X25438685Y-104421402D01*
X25437607Y-104420449D01*
X25276384Y-104259226D01*
X25272957Y-104250953D01*
X25274387Y-104245348D01*
X25321729Y-104158653D01*
X25309655Y-104063336D01*
X25268271Y-103990918D01*
X25258660Y-103974099D01*
X25258657Y-103974094D01*
X25193424Y-103897937D01*
X25146953Y-103850379D01*
X25143623Y-103842068D01*
X25147145Y-103833835D01*
X25147244Y-103833738D01*
X25489525Y-103509872D01*
X25497889Y-103506676D01*
X25506065Y-103510331D01*
G37*
%TD.AperFunction*%
%TD*%
%TA.AperFunction,Conductor*%
%TO.N,+BATT*%
G36*
X57050085Y-123608421D02*
G01*
X57294436Y-123892368D01*
X57297235Y-123900874D01*
X57294436Y-123907632D01*
X57050085Y-124191578D01*
X57042091Y-124195613D01*
X57034053Y-124193196D01*
X56961493Y-124136995D01*
X56961489Y-124136993D01*
X56903892Y-124104330D01*
X56875092Y-124087997D01*
X56875086Y-124087995D01*
X56875080Y-124087992D01*
X56775085Y-124053000D01*
X56775078Y-124052998D01*
X56652903Y-124031999D01*
X56511169Y-124025511D01*
X56503061Y-124021709D01*
X56500004Y-124013823D01*
X56500004Y-123786176D01*
X56503431Y-123777903D01*
X56511166Y-123774488D01*
X56652898Y-123768000D01*
X56775077Y-123747001D01*
X56875092Y-123712001D01*
X56961495Y-123663001D01*
X57034055Y-123606802D01*
X57042692Y-123604446D01*
X57050085Y-123608421D01*
G37*
%TD.AperFunction*%
%TD*%
%TA.AperFunction,Conductor*%
%TO.N,VEE*%
G36*
X43707630Y-120605566D02*
G01*
X43991578Y-120849917D01*
X43995613Y-120857911D01*
X43993196Y-120865949D01*
X43936995Y-120938508D01*
X43936993Y-120938512D01*
X43887999Y-121024906D01*
X43887992Y-121024921D01*
X43853000Y-121124916D01*
X43852998Y-121124923D01*
X43831999Y-121247097D01*
X43831999Y-121247100D01*
X43825511Y-121388835D01*
X43821709Y-121396943D01*
X43813823Y-121400000D01*
X43586177Y-121400000D01*
X43577904Y-121396573D01*
X43574489Y-121388835D01*
X43573401Y-121365082D01*
X43568000Y-121247104D01*
X43547001Y-121124925D01*
X43512001Y-121024910D01*
X43463001Y-120938507D01*
X43406802Y-120865948D01*
X43404446Y-120857310D01*
X43408419Y-120849919D01*
X43692369Y-120605566D01*
X43700874Y-120602768D01*
X43707630Y-120605566D01*
G37*
%TD.AperFunction*%
%TD*%
%TA.AperFunction,Conductor*%
%TO.N,GND*%
G36*
X21222096Y-110803427D02*
G01*
X21225511Y-110811165D01*
X21231999Y-110952897D01*
X21231999Y-110952900D01*
X21252998Y-111075074D01*
X21253000Y-111075081D01*
X21287992Y-111175076D01*
X21287994Y-111175080D01*
X21287997Y-111175088D01*
X21287999Y-111175091D01*
X21336993Y-111261485D01*
X21336995Y-111261489D01*
X21393196Y-111334049D01*
X21395553Y-111342688D01*
X21391578Y-111350081D01*
X21107631Y-111594432D01*
X21099125Y-111597231D01*
X21092368Y-111594432D01*
X20808420Y-111350080D01*
X20804386Y-111342087D01*
X20806802Y-111334051D01*
X20863001Y-111261491D01*
X20912001Y-111175088D01*
X20947001Y-111075073D01*
X20968000Y-110952894D01*
X20974488Y-110811165D01*
X20978291Y-110803057D01*
X20986177Y-110800000D01*
X21213823Y-110800000D01*
X21222096Y-110803427D01*
G37*
%TD.AperFunction*%
%TD*%
%TA.AperFunction,Conductor*%
%TO.N,VEE*%
G36*
X40750081Y-103808421D02*
G01*
X40994432Y-104092368D01*
X40997231Y-104100874D01*
X40994432Y-104107632D01*
X40750081Y-104391578D01*
X40742087Y-104395613D01*
X40734049Y-104393196D01*
X40661489Y-104336995D01*
X40661485Y-104336993D01*
X40603889Y-104304330D01*
X40575088Y-104287997D01*
X40575082Y-104287995D01*
X40575076Y-104287992D01*
X40475081Y-104253000D01*
X40475074Y-104252998D01*
X40352899Y-104231999D01*
X40211165Y-104225511D01*
X40203057Y-104221709D01*
X40200000Y-104213823D01*
X40200000Y-103986176D01*
X40203427Y-103977903D01*
X40211162Y-103974488D01*
X40352894Y-103968000D01*
X40475073Y-103947001D01*
X40575088Y-103912001D01*
X40661491Y-103863001D01*
X40734051Y-103806802D01*
X40742688Y-103804446D01*
X40750081Y-103808421D01*
G37*
%TD.AperFunction*%
%TD*%
%TA.AperFunction,Conductor*%
%TO.N,VEE*%
G36*
X50507630Y-104505566D02*
G01*
X50791578Y-104749917D01*
X50795613Y-104757911D01*
X50793196Y-104765949D01*
X50736995Y-104838508D01*
X50736993Y-104838512D01*
X50687999Y-104924906D01*
X50687992Y-104924921D01*
X50653000Y-105024916D01*
X50652998Y-105024923D01*
X50631999Y-105147097D01*
X50631999Y-105147100D01*
X50625511Y-105288835D01*
X50621709Y-105296943D01*
X50613823Y-105300000D01*
X50386177Y-105300000D01*
X50377904Y-105296573D01*
X50374489Y-105288835D01*
X50373401Y-105265082D01*
X50368000Y-105147104D01*
X50347001Y-105024925D01*
X50312001Y-104924910D01*
X50263001Y-104838507D01*
X50206802Y-104765948D01*
X50204446Y-104757310D01*
X50208419Y-104749919D01*
X50492369Y-104505566D01*
X50500874Y-104502768D01*
X50507630Y-104505566D01*
G37*
%TD.AperFunction*%
%TD*%
%TA.AperFunction,Conductor*%
%TO.N,GND*%
G36*
X23322096Y-116303428D02*
G01*
X23325511Y-116311166D01*
X23331999Y-116452898D01*
X23331999Y-116452901D01*
X23352998Y-116575074D01*
X23352999Y-116575077D01*
X23387995Y-116675079D01*
X23387998Y-116675087D01*
X23388000Y-116675090D01*
X23436995Y-116761483D01*
X23436997Y-116761488D01*
X23493198Y-116834047D01*
X23495555Y-116842686D01*
X23491580Y-116850079D01*
X23207635Y-117094432D01*
X23199129Y-117097231D01*
X23192372Y-117094432D01*
X22908422Y-116850082D01*
X22904388Y-116842090D01*
X22906804Y-116834053D01*
X22963003Y-116761492D01*
X23012003Y-116675089D01*
X23047001Y-116575074D01*
X23068000Y-116452895D01*
X23074488Y-116311166D01*
X23078291Y-116303058D01*
X23086177Y-116300001D01*
X23313823Y-116300001D01*
X23322096Y-116303428D01*
G37*
%TD.AperFunction*%
%TD*%
%TA.AperFunction,Conductor*%
%TO.N,VEE*%
G36*
X43450081Y-120308421D02*
G01*
X43694432Y-120592368D01*
X43697231Y-120600874D01*
X43694432Y-120607632D01*
X43450081Y-120891578D01*
X43442087Y-120895613D01*
X43434049Y-120893196D01*
X43361489Y-120836995D01*
X43361485Y-120836993D01*
X43303888Y-120804330D01*
X43275088Y-120787997D01*
X43275082Y-120787995D01*
X43275076Y-120787992D01*
X43175081Y-120753000D01*
X43175074Y-120752998D01*
X43052899Y-120731999D01*
X42911165Y-120725511D01*
X42903057Y-120721709D01*
X42900000Y-120713823D01*
X42900000Y-120486176D01*
X42903427Y-120477903D01*
X42911162Y-120474488D01*
X43052894Y-120468000D01*
X43175073Y-120447001D01*
X43275088Y-120412001D01*
X43361491Y-120363001D01*
X43434051Y-120306802D01*
X43442688Y-120304446D01*
X43450081Y-120308421D01*
G37*
%TD.AperFunction*%
%TD*%
%TA.AperFunction,Conductor*%
%TO.N,Net-(J6-Pin_2)*%
G36*
X66585944Y-120503430D02*
G01*
X66589763Y-120511530D01*
X66587802Y-120518592D01*
X66237774Y-121042096D01*
X66230327Y-121047069D01*
X66223085Y-121046188D01*
X66177477Y-121024824D01*
X66092670Y-121004211D01*
X65989615Y-121001426D01*
X65880168Y-121029285D01*
X65880164Y-121029287D01*
X65784187Y-121095108D01*
X65775426Y-121096961D01*
X65769297Y-121093732D01*
X65607740Y-120932175D01*
X65604313Y-120923902D01*
X65607740Y-120915629D01*
X65704049Y-120821006D01*
X65795795Y-120730498D01*
X65795796Y-120730496D01*
X65795804Y-120730489D01*
X65814322Y-120710504D01*
X65868398Y-120652151D01*
X65915622Y-120585812D01*
X65928921Y-120539390D01*
X65934493Y-120532382D01*
X65939608Y-120530927D01*
X66577518Y-120500402D01*
X66585944Y-120503430D01*
G37*
%TD.AperFunction*%
%TD*%
%TA.AperFunction,Conductor*%
%TO.N,VEE*%
G36*
X30572328Y-119113373D02*
G01*
X30575729Y-119120867D01*
X30584753Y-119256056D01*
X30584754Y-119256065D01*
X30612568Y-119371310D01*
X30612571Y-119371318D01*
X30642371Y-119434665D01*
X30656273Y-119464217D01*
X30656276Y-119464221D01*
X30713691Y-119543284D01*
X30774939Y-119608782D01*
X30778086Y-119617165D01*
X30774685Y-119625027D01*
X30507151Y-119893814D01*
X30498886Y-119897260D01*
X30491869Y-119894942D01*
X30193344Y-119672520D01*
X30188757Y-119664829D01*
X30190523Y-119656764D01*
X30240148Y-119580405D01*
X30280106Y-119490660D01*
X30306307Y-119388091D01*
X30320641Y-119264065D01*
X30324678Y-119121313D01*
X30328337Y-119113142D01*
X30336373Y-119109946D01*
X30564055Y-119109946D01*
X30572328Y-119113373D01*
G37*
%TD.AperFunction*%
%TD*%
%TA.AperFunction,Conductor*%
%TO.N,+BATT*%
G36*
X60050081Y-109908423D02*
G01*
X60294432Y-110192370D01*
X60297231Y-110200876D01*
X60294432Y-110207634D01*
X60050081Y-110491580D01*
X60042087Y-110495615D01*
X60034049Y-110493198D01*
X59961489Y-110436997D01*
X59961485Y-110436995D01*
X59903888Y-110404332D01*
X59875088Y-110387999D01*
X59875082Y-110387997D01*
X59875076Y-110387994D01*
X59775081Y-110353002D01*
X59775074Y-110353000D01*
X59652899Y-110332001D01*
X59511165Y-110325513D01*
X59503057Y-110321711D01*
X59500000Y-110313825D01*
X59500000Y-110086178D01*
X59503427Y-110077905D01*
X59511162Y-110074490D01*
X59652894Y-110068002D01*
X59775073Y-110047003D01*
X59875088Y-110012003D01*
X59961491Y-109963003D01*
X60034051Y-109906804D01*
X60042688Y-109904448D01*
X60050081Y-109908423D01*
G37*
%TD.AperFunction*%
%TD*%
%TA.AperFunction,Conductor*%
%TO.N,/VCCB*%
G36*
X46152222Y-122159422D02*
G01*
X46155630Y-122167028D01*
X46163532Y-122305402D01*
X46187482Y-122430492D01*
X46187486Y-122430505D01*
X46224386Y-122532008D01*
X46271769Y-122610638D01*
X46271771Y-122610641D01*
X46320004Y-122659811D01*
X46323351Y-122668117D01*
X46320891Y-122675183D01*
X46034340Y-123043978D01*
X46026558Y-123048408D01*
X46017922Y-123046038D01*
X46015787Y-123043880D01*
X45733378Y-122672376D01*
X45731099Y-122663715D01*
X45734449Y-122656993D01*
X45783371Y-122608465D01*
X45832186Y-122530524D01*
X45870683Y-122429635D01*
X45895932Y-122305043D01*
X45904331Y-122166984D01*
X45908253Y-122158935D01*
X45916009Y-122155995D01*
X46143949Y-122155995D01*
X46152222Y-122159422D01*
G37*
%TD.AperFunction*%
%TD*%
%TA.AperFunction,Conductor*%
%TO.N,/VCC*%
G36*
X26777287Y-103509595D02*
G01*
X26779326Y-103511866D01*
X27033570Y-103882746D01*
X27043503Y-103897235D01*
X27045355Y-103905996D01*
X27043401Y-103910612D01*
X26999683Y-103972340D01*
X26999681Y-103972345D01*
X26976393Y-104074432D01*
X26953564Y-104197825D01*
X26953094Y-104199583D01*
X26906410Y-104332106D01*
X26904858Y-104335072D01*
X26816933Y-104456752D01*
X26809310Y-104461450D01*
X26800597Y-104459382D01*
X26799177Y-104458172D01*
X26638132Y-104297127D01*
X26634705Y-104288854D01*
X26635985Y-104283534D01*
X26682401Y-104192678D01*
X26659927Y-104094891D01*
X26593978Y-104004724D01*
X26513835Y-103929154D01*
X26485934Y-103905996D01*
X26457923Y-103882746D01*
X26453746Y-103874825D01*
X26456392Y-103866270D01*
X26760792Y-103510868D01*
X26768774Y-103506816D01*
X26777287Y-103509595D01*
G37*
%TD.AperFunction*%
%TD*%
%TA.AperFunction,Conductor*%
%TO.N,+BATT*%
G36*
X60307630Y-110205568D02*
G01*
X60591578Y-110449919D01*
X60595613Y-110457913D01*
X60593196Y-110465951D01*
X60536995Y-110538510D01*
X60536993Y-110538514D01*
X60487999Y-110624908D01*
X60487992Y-110624923D01*
X60453000Y-110724918D01*
X60452998Y-110724925D01*
X60431999Y-110847099D01*
X60431999Y-110847102D01*
X60425511Y-110988837D01*
X60421709Y-110996945D01*
X60413823Y-111000002D01*
X60186177Y-111000002D01*
X60177904Y-110996575D01*
X60174489Y-110988837D01*
X60173401Y-110965084D01*
X60168000Y-110847106D01*
X60147001Y-110724927D01*
X60112001Y-110624912D01*
X60063001Y-110538509D01*
X60006802Y-110465950D01*
X60004446Y-110457312D01*
X60008419Y-110449921D01*
X60292369Y-110205568D01*
X60300874Y-110202770D01*
X60307630Y-110205568D01*
G37*
%TD.AperFunction*%
%TD*%
%TA.AperFunction,Conductor*%
%TO.N,/TX2*%
G36*
X47417240Y-122158427D02*
G01*
X47420647Y-122166014D01*
X47428783Y-122304494D01*
X47453353Y-122429593D01*
X47491026Y-122530987D01*
X47491030Y-122530996D01*
X47539134Y-122609441D01*
X47539140Y-122609448D01*
X47587784Y-122658401D01*
X47591185Y-122666685D01*
X47588762Y-122673778D01*
X47304277Y-123043929D01*
X47296518Y-123048400D01*
X47287870Y-123046076D01*
X47285723Y-123043929D01*
X47001237Y-122673778D01*
X46998913Y-122665130D01*
X47002214Y-122658402D01*
X47050862Y-122609444D01*
X47098970Y-122530994D01*
X47136646Y-122429588D01*
X47161215Y-122304498D01*
X47169352Y-122166014D01*
X47173259Y-122157956D01*
X47181033Y-122155000D01*
X47408967Y-122155000D01*
X47417240Y-122158427D01*
G37*
%TD.AperFunction*%
%TD*%
%TA.AperFunction,Conductor*%
%TO.N,Net-(J6-Pin_2)*%
G36*
X66772290Y-119438373D02*
G01*
X66775694Y-119445907D01*
X66784180Y-119579976D01*
X66808639Y-119705590D01*
X66808643Y-119705605D01*
X66843752Y-119807467D01*
X66843754Y-119807470D01*
X66843755Y-119807472D01*
X66884902Y-119881251D01*
X66908364Y-119904038D01*
X66920977Y-119916289D01*
X66924524Y-119924512D01*
X66923007Y-119930446D01*
X66611485Y-120480712D01*
X66604427Y-120486223D01*
X66595539Y-120485130D01*
X66590597Y-120479667D01*
X66348515Y-119930446D01*
X66332326Y-119893719D01*
X66332126Y-119884767D01*
X66336076Y-119879594D01*
X66376316Y-119849845D01*
X66428452Y-119783839D01*
X66476350Y-119690469D01*
X66511402Y-119573061D01*
X66523960Y-119445500D01*
X66528182Y-119437602D01*
X66535605Y-119434946D01*
X66764017Y-119434946D01*
X66772290Y-119438373D01*
G37*
%TD.AperFunction*%
%TD*%
%TA.AperFunction,Conductor*%
%TO.N,VEE*%
G36*
X51524665Y-115850458D02*
G01*
X51525762Y-115851724D01*
X51561750Y-115899902D01*
X51614755Y-115970860D01*
X51616344Y-115973774D01*
X51662401Y-116097285D01*
X51662907Y-116099060D01*
X51666971Y-116119206D01*
X51686407Y-116215566D01*
X51695274Y-116248761D01*
X51714642Y-116321273D01*
X51770075Y-116404315D01*
X51771818Y-116413099D01*
X51768821Y-116418875D01*
X51507649Y-116693409D01*
X51499464Y-116697041D01*
X51492458Y-116694927D01*
X51189028Y-116482332D01*
X51184219Y-116474778D01*
X51186160Y-116466036D01*
X51186803Y-116465201D01*
X51245237Y-116396233D01*
X51322617Y-116309808D01*
X51382878Y-116217023D01*
X51398234Y-116119204D01*
X51345270Y-116025415D01*
X51344187Y-116016528D01*
X51347184Y-116011393D01*
X51508120Y-115850457D01*
X51516392Y-115847031D01*
X51524665Y-115850458D01*
G37*
%TD.AperFunction*%
%TD*%
%TA.AperFunction,Conductor*%
%TO.N,VEE*%
G36*
X31250081Y-103208421D02*
G01*
X31494432Y-103492368D01*
X31497231Y-103500874D01*
X31494432Y-103507632D01*
X31250081Y-103791578D01*
X31242087Y-103795613D01*
X31234049Y-103793196D01*
X31161489Y-103736995D01*
X31161485Y-103736993D01*
X31103888Y-103704330D01*
X31075088Y-103687997D01*
X31075082Y-103687995D01*
X31075076Y-103687992D01*
X30975081Y-103653000D01*
X30975074Y-103652998D01*
X30852899Y-103631999D01*
X30711164Y-103625511D01*
X30703056Y-103621709D01*
X30700000Y-103613825D01*
X30700000Y-103386173D01*
X30703426Y-103377903D01*
X30711161Y-103374488D01*
X30852894Y-103368000D01*
X30975073Y-103347001D01*
X31075088Y-103312001D01*
X31161491Y-103263001D01*
X31234051Y-103206802D01*
X31242688Y-103204446D01*
X31250081Y-103208421D01*
G37*
%TD.AperFunction*%
%TD*%
%TA.AperFunction,Conductor*%
%TO.N,VEE*%
G36*
X54965950Y-109906805D02*
G01*
X55038509Y-109963004D01*
X55038513Y-109963006D01*
X55124911Y-110012003D01*
X55224925Y-110047003D01*
X55347104Y-110068002D01*
X55488836Y-110074490D01*
X55496943Y-110078292D01*
X55500000Y-110086178D01*
X55500000Y-110313825D01*
X55496573Y-110322098D01*
X55488835Y-110325513D01*
X55347100Y-110332001D01*
X55347097Y-110332001D01*
X55224923Y-110353000D01*
X55224920Y-110353001D01*
X55124918Y-110387996D01*
X55124907Y-110388001D01*
X55038513Y-110436995D01*
X55038509Y-110436997D01*
X54965950Y-110493198D01*
X54957311Y-110495555D01*
X54949918Y-110491580D01*
X54705566Y-110207632D01*
X54702768Y-110199128D01*
X54705566Y-110192371D01*
X54949920Y-109908421D01*
X54957912Y-109904388D01*
X54965950Y-109906805D01*
G37*
%TD.AperFunction*%
%TD*%
%TA.AperFunction,Conductor*%
%TO.N,/RX*%
G36*
X29550081Y-104408421D02*
G01*
X29794432Y-104692368D01*
X29797231Y-104700874D01*
X29794432Y-104707632D01*
X29550081Y-104991578D01*
X29542087Y-104995613D01*
X29534049Y-104993196D01*
X29461489Y-104936995D01*
X29461485Y-104936993D01*
X29403889Y-104904330D01*
X29375088Y-104887997D01*
X29375082Y-104887995D01*
X29375076Y-104887992D01*
X29275081Y-104853000D01*
X29275074Y-104852998D01*
X29152899Y-104831999D01*
X29011165Y-104825511D01*
X29003057Y-104821709D01*
X29000000Y-104813823D01*
X29000000Y-104586176D01*
X29003427Y-104577903D01*
X29011162Y-104574488D01*
X29152894Y-104568000D01*
X29275073Y-104547001D01*
X29375088Y-104512001D01*
X29461491Y-104463001D01*
X29534051Y-104406802D01*
X29542688Y-104404446D01*
X29550081Y-104408421D01*
G37*
%TD.AperFunction*%
%TD*%
%TA.AperFunction,Conductor*%
%TO.N,Net-(J2-Pin_2)*%
G36*
X19089734Y-104599291D02*
G01*
X19251267Y-104760824D01*
X19254694Y-104769097D01*
X19252191Y-104776329D01*
X19175318Y-104874093D01*
X19175313Y-104874101D01*
X19124921Y-104982170D01*
X19124918Y-104982178D01*
X19101537Y-105082947D01*
X19101537Y-105082949D01*
X19099288Y-105166952D01*
X19110191Y-105215415D01*
X19108663Y-105224239D01*
X19103579Y-105228652D01*
X18520501Y-105491158D01*
X18511550Y-105491429D01*
X18505029Y-105485292D01*
X18504269Y-105477987D01*
X18639241Y-104861753D01*
X18644359Y-104854406D01*
X18650011Y-104852577D01*
X18699587Y-104849801D01*
X18777837Y-104820513D01*
X18870935Y-104766693D01*
X18973919Y-104689824D01*
X19073578Y-104598918D01*
X19081998Y-104595876D01*
X19089734Y-104599291D01*
G37*
%TD.AperFunction*%
%TD*%
%TA.AperFunction,Conductor*%
%TO.N,/RX2*%
G36*
X47302130Y-124333923D02*
G01*
X47304277Y-124336070D01*
X47588762Y-124706220D01*
X47591086Y-124714868D01*
X47587784Y-124721597D01*
X47539135Y-124770555D01*
X47491030Y-124849000D01*
X47491026Y-124849009D01*
X47453353Y-124950404D01*
X47428783Y-125075503D01*
X47420647Y-125213986D01*
X47416741Y-125222044D01*
X47408967Y-125225000D01*
X47181033Y-125225000D01*
X47172760Y-125221573D01*
X47169353Y-125213986D01*
X47161215Y-125075503D01*
X47161215Y-125075500D01*
X47136646Y-124950410D01*
X47098970Y-124849003D01*
X47050862Y-124770554D01*
X47002214Y-124721596D01*
X46998814Y-124713313D01*
X47001236Y-124706221D01*
X47285723Y-124336069D01*
X47293482Y-124331599D01*
X47302130Y-124333923D01*
G37*
%TD.AperFunction*%
%TD*%
%TA.AperFunction,Conductor*%
%TO.N,GND*%
G36*
X29271899Y-119113373D02*
G01*
X29275321Y-119121315D01*
X29279131Y-119256061D01*
X29279357Y-119264065D01*
X29293692Y-119388092D01*
X29293693Y-119388095D01*
X29293693Y-119388098D01*
X29313137Y-119464214D01*
X29319892Y-119490660D01*
X29359848Y-119580406D01*
X29359849Y-119580406D01*
X29409473Y-119656762D01*
X29411108Y-119665567D01*
X29406653Y-119672520D01*
X29108130Y-119894942D01*
X29099449Y-119897137D01*
X29092848Y-119893814D01*
X28825313Y-119625027D01*
X28821905Y-119616746D01*
X28825058Y-119608783D01*
X28886307Y-119543283D01*
X28943725Y-119464217D01*
X28987428Y-119371314D01*
X29015244Y-119256061D01*
X29024270Y-119120867D01*
X29028241Y-119112840D01*
X29035945Y-119109946D01*
X29263626Y-119109946D01*
X29271899Y-119113373D01*
G37*
%TD.AperFunction*%
%TD*%
%TA.AperFunction,Conductor*%
%TO.N,/RX*%
G36*
X29550081Y-101308421D02*
G01*
X29794432Y-101592368D01*
X29797231Y-101600874D01*
X29794432Y-101607632D01*
X29550081Y-101891578D01*
X29542087Y-101895613D01*
X29534049Y-101893196D01*
X29461489Y-101836995D01*
X29461485Y-101836993D01*
X29403889Y-101804330D01*
X29375088Y-101787997D01*
X29375082Y-101787995D01*
X29375076Y-101787992D01*
X29275081Y-101753000D01*
X29275074Y-101752998D01*
X29152899Y-101731999D01*
X29011165Y-101725511D01*
X29003057Y-101721709D01*
X29000000Y-101713823D01*
X29000000Y-101486176D01*
X29003427Y-101477903D01*
X29011162Y-101474488D01*
X29152894Y-101468000D01*
X29275073Y-101447001D01*
X29375088Y-101412001D01*
X29461491Y-101363001D01*
X29534051Y-101306802D01*
X29542688Y-101304446D01*
X29550081Y-101308421D01*
G37*
%TD.AperFunction*%
%TD*%
%TA.AperFunction,Conductor*%
%TO.N,VEE*%
G36*
X30750081Y-107208421D02*
G01*
X30994432Y-107492368D01*
X30997231Y-107500874D01*
X30994432Y-107507632D01*
X30750081Y-107791578D01*
X30742087Y-107795613D01*
X30734049Y-107793196D01*
X30661489Y-107736995D01*
X30661485Y-107736993D01*
X30603889Y-107704330D01*
X30575088Y-107687997D01*
X30575082Y-107687995D01*
X30575076Y-107687992D01*
X30475081Y-107653000D01*
X30475074Y-107652998D01*
X30352899Y-107631999D01*
X30211164Y-107625511D01*
X30203056Y-107621709D01*
X30200000Y-107613825D01*
X30200000Y-107386173D01*
X30203426Y-107377903D01*
X30211161Y-107374488D01*
X30352894Y-107368000D01*
X30475073Y-107347001D01*
X30575088Y-107312001D01*
X30661491Y-107263001D01*
X30734051Y-107206802D01*
X30742688Y-107204446D01*
X30750081Y-107208421D01*
G37*
%TD.AperFunction*%
%TD*%
%TA.AperFunction,Conductor*%
%TO.N,VEE*%
G36*
X30750081Y-105708421D02*
G01*
X30994432Y-105992368D01*
X30997231Y-106000874D01*
X30994432Y-106007632D01*
X30750081Y-106291578D01*
X30742087Y-106295613D01*
X30734049Y-106293196D01*
X30661489Y-106236995D01*
X30661485Y-106236993D01*
X30603889Y-106204330D01*
X30575088Y-106187997D01*
X30575082Y-106187995D01*
X30575076Y-106187992D01*
X30475081Y-106153000D01*
X30475074Y-106152998D01*
X30352899Y-106131999D01*
X30211164Y-106125511D01*
X30203056Y-106121709D01*
X30200000Y-106113825D01*
X30200000Y-105886173D01*
X30203426Y-105877903D01*
X30211161Y-105874488D01*
X30352894Y-105868000D01*
X30475073Y-105847001D01*
X30575088Y-105812001D01*
X30661491Y-105763001D01*
X30734051Y-105706802D01*
X30742688Y-105704446D01*
X30750081Y-105708421D01*
G37*
%TD.AperFunction*%
%TD*%
%TA.AperFunction,Conductor*%
%TO.N,+BATT*%
G36*
X60050087Y-106908421D02*
G01*
X60294438Y-107192368D01*
X60297237Y-107200874D01*
X60294438Y-107207632D01*
X60050087Y-107491578D01*
X60042093Y-107495613D01*
X60034055Y-107493196D01*
X59961495Y-107436995D01*
X59961491Y-107436993D01*
X59903894Y-107404330D01*
X59875094Y-107387997D01*
X59875088Y-107387995D01*
X59875082Y-107387992D01*
X59775087Y-107353000D01*
X59775080Y-107352998D01*
X59652905Y-107331999D01*
X59511171Y-107325511D01*
X59503063Y-107321709D01*
X59500006Y-107313823D01*
X59500006Y-107086176D01*
X59503433Y-107077903D01*
X59511168Y-107074488D01*
X59652900Y-107068000D01*
X59775079Y-107047001D01*
X59875094Y-107012001D01*
X59961497Y-106963001D01*
X60034057Y-106906802D01*
X60042694Y-106904446D01*
X60050087Y-106908421D01*
G37*
%TD.AperFunction*%
%TD*%
%TA.AperFunction,Conductor*%
%TO.N,/RX*%
G36*
X25681515Y-101358302D02*
G01*
X25682149Y-101358891D01*
X25843511Y-101520253D01*
X25846938Y-101528526D01*
X25845228Y-101534615D01*
X25791847Y-101622193D01*
X25787857Y-101720127D01*
X25818593Y-101813219D01*
X25818594Y-101813220D01*
X25864595Y-101894138D01*
X25899802Y-101945847D01*
X25901626Y-101954613D01*
X25896716Y-101962102D01*
X25896683Y-101962125D01*
X25511949Y-102222152D01*
X25503175Y-102223945D01*
X25495703Y-102219010D01*
X25494333Y-102216261D01*
X25341366Y-101770735D01*
X25341921Y-101761799D01*
X25346010Y-101757158D01*
X25399734Y-101721922D01*
X25452289Y-101653832D01*
X25507667Y-101564634D01*
X25577273Y-101461365D01*
X25577666Y-101460850D01*
X25665016Y-101359523D01*
X25673012Y-101355496D01*
X25681515Y-101358302D01*
G37*
%TD.AperFunction*%
%TD*%
M02*
