  0
SECTION
  2
HEADER
  9
$ANGBASE
  50
0.0
  9
$ANGDIR
  70
1
  9
$MEASUREMENT
  70
1
  0
ENDSEC
  0
SECTION
  2
TABLES
  0
TABLE
  2
LTYPE
  70
4
  0
LTYPE
  5
40F
  2
CONTINUOUS
  70
0
  3
Solid line
  72
65
  73
0
  40
0.0
  0
LTYPE
  5
410
  2
DASHDOT
 70
0
  3
Dash Dot ____ _ ____ _
 72
65
 73
4
 40
2.0
 49
1.25
 49
-0.25
 49
0.25
 49
-0.25
  0
LTYPE
  5
411
  2
DASHED
 70
0
  3
Dashed __ __ __ __ __
 72
65
 73
2
 40
0.75
 49
0.5
 49
-0.25
  0
LTYPE
  5
43B
  2
DOTTED
 70
0
  3
Dotted .  .  .  .
 72
65
 73
2
 40
0.2
 49
0.0
 49
-0.2
  0
ENDTAB
  0
TABLE
  2
STYLE
  70
4
  0
STYLE
  2
KICAD
  70
0
  40
0
  41
1
  42
1
  50
0
  71
0
  3
isocp.shx
  0
STYLE
  2
KICADB
  70
0
  40
0
  41
1
  42
1
  50
0
  71
0
  3
isocp.shx
  0
STYLE
  2
KICADI
  70
0
  40
0
  41
1
  42
1
  50
15
  71
0
  3
isocp.shx
  0
STYLE
  2
KICADBI
  70
0
  40
0
  41
1
  42
1
  50
15
  71
0
  3
isocp.shx
  0
ENDTAB
  0
TABLE
  2
LAYER
  70
1
  0
LAYER
  2
BLACK
  70
0
  62
7
  6
CONTINUOUS
  0
ENDTAB
  0
ENDSEC
  0
SECTION
  2
ENTITIES
0
LINE
8
BLACK
6
CONTINUOUS
10
15
20
-100
11
15
21
-126
0
LINE
8
BLACK
6
CONTINUOUS
10
70
20
-100
11
15
21
-100
0
LINE
8
BLACK
6
CONTINUOUS
10
70
20
-126
11
70
21
-100
0
LINE
8
BLACK
6
CONTINUOUS
10
15
20
-126
11
70
21
-126
0
LINE
8
BLACK
6
CONTINUOUS
10
17.5828
20
-129.14
11
17.5828
21
-127.14
0
LINE
8
BLACK
6
CONTINUOUS
10
17.5828
20
-127.14
11
18.059
21
-127.14
0
LINE
8
BLACK
6
CONTINUOUS
10
18.059
20
-127.14
11
18.3447
21
-127.235
0
LINE
8
BLACK
6
CONTINUOUS
10
18.3447
20
-127.235
11
18.5351
21
-127.426
0
LINE
8
BLACK
6
CONTINUOUS
10
18.5351
20
-127.426
11
18.6304
21
-127.616
0
LINE
8
BLACK
6
CONTINUOUS
10
18.6304
20
-127.616
11
18.7256
21
-127.997
0
LINE
8
BLACK
6
CONTINUOUS
10
18.7256
20
-127.997
11
18.7256
21
-128.283
0
LINE
8
BLACK
6
CONTINUOUS
10
18.7256
20
-128.283
11
18.6304
21
-128.664
0
LINE
8
BLACK
6
CONTINUOUS
10
18.6304
20
-128.664
11
18.5351
21
-128.854
0
LINE
8
BLACK
6
CONTINUOUS
10
18.5351
20
-128.854
11
18.3447
21
-129.045
0
LINE
8
BLACK
6
CONTINUOUS
10
18.3447
20
-129.045
11
18.059
21
-129.14
0
LINE
8
BLACK
6
CONTINUOUS
10
18.059
20
-129.14
11
17.5828
21
-129.14
0
LINE
8
BLACK
6
CONTINUOUS
10
19.5828
20
-129.14
11
19.5828
21
-127.807
0
LINE
8
BLACK
6
CONTINUOUS
10
19.5828
20
-128.187
11
19.678
21
-127.997
0
LINE
8
BLACK
6
CONTINUOUS
10
19.678
20
-127.997
11
19.7732
21
-127.902
0
LINE
8
BLACK
6
CONTINUOUS
10
19.7732
20
-127.902
11
19.9637
21
-127.807
0
LINE
8
BLACK
6
CONTINUOUS
10
19.9637
20
-127.807
11
20.1542
21
-127.807
0
LINE
8
BLACK
6
CONTINUOUS
10
20.8209
20
-129.14
11
20.8209
21
-127.807
0
LINE
8
BLACK
6
CONTINUOUS
10
20.8209
20
-127.14
11
20.7256
21
-127.235
0
LINE
8
BLACK
6
CONTINUOUS
10
20.7256
20
-127.235
11
20.8209
21
-127.33
0
LINE
8
BLACK
6
CONTINUOUS
10
20.8209
20
-127.33
11
20.9161
21
-127.235
0
LINE
8
BLACK
6
CONTINUOUS
10
20.9161
20
-127.235
11
20.8209
21
-127.14
0
LINE
8
BLACK
6
CONTINUOUS
10
20.8209
20
-127.14
11
20.8209
21
-127.33
0
LINE
8
BLACK
6
CONTINUOUS
10
22.059
20
-129.14
11
21.8685
21
-129.045
0
LINE
8
BLACK
6
CONTINUOUS
10
21.8685
20
-129.045
11
21.7732
21
-128.854
0
LINE
8
BLACK
6
CONTINUOUS
10
21.7732
20
-128.854
11
21.7732
21
-127.14
0
LINE
8
BLACK
6
CONTINUOUS
10
23.1066
20
-129.14
11
22.9161
21
-129.045
0
LINE
8
BLACK
6
CONTINUOUS
10
22.9161
20
-129.045
11
22.8209
21
-128.854
0
LINE
8
BLACK
6
CONTINUOUS
10
22.8209
20
-128.854
11
22.8209
21
-127.14
0
LINE
8
BLACK
6
CONTINUOUS
10
25.3923
20
-129.14
11
25.3923
21
-127.14
0
LINE
8
BLACK
6
CONTINUOUS
10
25.3923
20
-127.14
11
26.059
21
-128.568
0
LINE
8
BLACK
6
CONTINUOUS
10
26.059
20
-128.568
11
26.7256
21
-127.14
0
LINE
8
BLACK
6
CONTINUOUS
10
26.7256
20
-127.14
11
26.7256
21
-129.14
0
LINE
8
BLACK
6
CONTINUOUS
10
28.5351
20
-129.14
11
28.5351
21
-128.092
0
LINE
8
BLACK
6
CONTINUOUS
10
28.5351
20
-128.092
11
28.4399
21
-127.902
0
LINE
8
BLACK
6
CONTINUOUS
10
28.4399
20
-127.902
11
28.2494
21
-127.807
0
LINE
8
BLACK
6
CONTINUOUS
10
28.2494
20
-127.807
11
27.8685
21
-127.807
0
LINE
8
BLACK
6
CONTINUOUS
10
27.8685
20
-127.807
11
27.678
21
-127.902
0
LINE
8
BLACK
6
CONTINUOUS
10
28.5351
20
-129.045
11
28.3447
21
-129.14
0
LINE
8
BLACK
6
CONTINUOUS
10
28.3447
20
-129.14
11
27.8685
21
-129.14
0
LINE
8
BLACK
6
CONTINUOUS
10
27.8685
20
-129.14
11
27.678
21
-129.045
0
LINE
8
BLACK
6
CONTINUOUS
10
27.678
20
-129.045
11
27.5828
21
-128.854
0
LINE
8
BLACK
6
CONTINUOUS
10
27.5828
20
-128.854
11
27.5828
21
-128.664
0
LINE
8
BLACK
6
CONTINUOUS
10
27.5828
20
-128.664
11
27.678
21
-128.473
0
LINE
8
BLACK
6
CONTINUOUS
10
27.678
20
-128.473
11
27.8685
21
-128.378
0
LINE
8
BLACK
6
CONTINUOUS
10
27.8685
20
-128.378
11
28.3447
21
-128.378
0
LINE
8
BLACK
6
CONTINUOUS
10
28.3447
20
-128.378
11
28.5351
21
-128.283
0
LINE
8
BLACK
6
CONTINUOUS
10
29.4875
20
-127.807
11
29.4875
21
-129.807
0
LINE
8
BLACK
6
CONTINUOUS
10
29.4875
20
-127.902
11
29.678
21
-127.807
0
LINE
8
BLACK
6
CONTINUOUS
10
29.678
20
-127.807
11
30.059
21
-127.807
0
LINE
8
BLACK
6
CONTINUOUS
10
30.059
20
-127.807
11
30.2494
21
-127.902
0
LINE
8
BLACK
6
CONTINUOUS
10
30.2494
20
-127.902
11
30.3447
21
-127.997
0
LINE
8
BLACK
6
CONTINUOUS
10
30.3447
20
-127.997
11
30.4399
21
-128.187
0
LINE
8
BLACK
6
CONTINUOUS
10
30.4399
20
-128.187
11
30.4399
21
-128.759
0
LINE
8
BLACK
6
CONTINUOUS
10
30.4399
20
-128.759
11
30.3447
21
-128.949
0
LINE
8
BLACK
6
CONTINUOUS
10
30.3447
20
-128.949
11
30.2494
21
-129.045
0
LINE
8
BLACK
6
CONTINUOUS
10
30.2494
20
-129.045
11
30.059
21
-129.14
0
LINE
8
BLACK
6
CONTINUOUS
10
30.059
20
-129.14
11
29.678
21
-129.14
0
LINE
8
BLACK
6
CONTINUOUS
10
29.678
20
-129.14
11
29.4875
21
-129.045
0
LINE
8
BLACK
6
CONTINUOUS
10
31.2971
20
-128.949
11
31.3923
21
-129.045
0
LINE
8
BLACK
6
CONTINUOUS
10
31.3923
20
-129.045
11
31.2971
21
-129.14
0
LINE
8
BLACK
6
CONTINUOUS
10
31.2971
20
-129.14
11
31.2018
21
-129.045
0
LINE
8
BLACK
6
CONTINUOUS
10
31.2018
20
-129.045
11
31.2971
21
-128.949
0
LINE
8
BLACK
6
CONTINUOUS
10
31.2971
20
-128.949
11
31.2971
21
-129.14
0
LINE
8
BLACK
6
CONTINUOUS
10
31.2971
20
-127.902
11
31.3923
21
-127.997
0
LINE
8
BLACK
6
CONTINUOUS
10
31.3923
20
-127.997
11
31.2971
21
-128.092
0
LINE
8
BLACK
6
CONTINUOUS
10
31.2971
20
-128.092
11
31.2018
21
-127.997
0
LINE
8
BLACK
6
CONTINUOUS
10
31.2018
20
-127.997
11
31.2971
21
-127.902
0
LINE
8
BLACK
6
CONTINUOUS
10
31.2971
20
-127.902
11
31.2971
21
-128.092
  0
ENDSEC
  0
EOF
