M48
; DRILL file {KiCad 7.0.6-0} date 2024 May 28, Tuesday 13:41:24
; FORMAT={-:-/ absolute / metric / decimal}
; #@! TF.CreationDate,2024-05-28T13:41:24+12:00
; #@! TF.GenerationSoftware,Kicad,Pcbnew,7.0.6-0
; #@! TF.FileFunction,Plated,1,2,PTH
FMAT,2
METRIC
; #@! TA.AperFunction,Plated,PTH,ViaDrill
T1C0.400
; #@! TA.AperFunction,Plated,PTH,ComponentDrill
T2C0.600
; #@! TA.AperFunction,Plated,PTH,ComponentDrill
T3C0.650
; #@! TA.AperFunction,Plated,PTH,ComponentDrill
T4C0.800
; #@! TA.AperFunction,Plated,PTH,ComponentDrill
T5C1.000
; #@! TA.AperFunction,Plated,PTH,ComponentDrill
T6C1.200
; #@! TA.AperFunction,Plated,PTH,ComponentDrill
T7C4.300
%
G90
G05
T1
X19.3Y-111.6
X19.6Y-119.7
X21.1Y-111.6
X23.2Y-117.1
X24.2Y-105.4
X29.1Y-108.7
X29.1Y-119.9
X29.8Y-101.6
X29.8Y-104.7
X30.5Y-119.9
X31.0Y-106.0
X31.0Y-107.5
X31.5Y-103.5
X33.0Y-117.4
X36.2Y-119.9
X41.0Y-104.1
X43.7Y-120.6
X48.2Y-104.5
X49.3Y-104.5
X50.5Y-104.5
X51.5Y-116.7
X52.8Y-124.2
X54.7Y-110.2
X54.7Y-115.8
X57.3Y-123.9
X60.3Y-110.2
X60.3Y-107.2
X65.2Y-105.7
T2
X39.275Y-113.0
X40.22Y-110.72
X40.22Y-115.28
X42.5Y-109.775
X42.5Y-116.225
X44.78Y-110.72
X44.78Y-115.28
X45.725Y-113.0
T3
X24.23Y-102.23
X24.23Y-103.5
X25.5Y-102.23
X25.5Y-103.5
X26.77Y-102.23
X26.77Y-103.5
X46.025Y-123.055
X46.025Y-124.325
X47.295Y-123.055
X47.295Y-124.325
X48.565Y-123.055
X48.565Y-124.325
T4
X18.5Y-103.5
X18.5Y-105.5
X66.6Y-120.5
X66.6Y-122.5
T6
X16.5Y-124.0
X38.5Y-124.0
X46.5Y-102.0
X68.5Y-102.0
T7
X42.5Y-113.0
T5
G00X17.0Y-110.5
M15
G01X17.0Y-115.5
M16
G05
G00X68.0Y-110.5
M15
G01X68.0Y-115.5
M16
G05
T0
M30
