%TF.GenerationSoftware,KiCad,Pcbnew,7.0.6-0*%
%TF.CreationDate,2024-05-28T13:41:11+12:00*%
%TF.ProjectId,BMSladderLeaf,424d536c-6164-4646-9572-4c6561662e6b,rev?*%
%TF.SameCoordinates,Original*%
%TF.FileFunction,Other,User*%
%FSLAX46Y46*%
G04 Gerber Fmt 4.6, Leading zero omitted, Abs format (unit mm)*
G04 Created by KiCad (PCBNEW 7.0.6-0) date 2024-05-28 13:41:11*
%MOMM*%
%LPD*%
G01*
G04 APERTURE LIST*
%ADD10C,0.050000*%
G04 APERTURE END LIST*
D10*
%TO.C,C1*%
X23470000Y-108880000D02*
X23470000Y-105920000D01*
X24930000Y-108880000D02*
X23470000Y-108880000D01*
X23470000Y-105920000D02*
X24930000Y-105920000D01*
X24930000Y-105920000D02*
X24930000Y-108880000D01*
%TO.C,D2*%
X28500000Y-119300000D02*
X28500000Y-115900000D01*
X31100000Y-119300000D02*
X28500000Y-119300000D01*
X28500000Y-115900000D02*
X31100000Y-115900000D01*
X31100000Y-115900000D02*
X31100000Y-119300000D01*
%TO.C,Q1*%
X36000000Y-114000000D02*
X33200000Y-114000000D01*
X36000000Y-114000000D02*
X36000000Y-117200000D01*
X33200000Y-114000000D02*
X33200000Y-117200000D01*
X33200000Y-117200000D02*
X36000000Y-117200000D01*
%TO.C,Q2*%
X18900000Y-116880000D02*
X15500000Y-116880000D01*
X15500000Y-116880000D02*
X15500000Y-120720000D01*
X18900000Y-120720000D02*
X18900000Y-116880000D01*
X15500000Y-120720000D02*
X18900000Y-120720000D01*
%TO.C,R1*%
X32620000Y-118870000D02*
X35580000Y-118870000D01*
X32620000Y-120330000D02*
X32620000Y-118870000D01*
X35580000Y-118870000D02*
X35580000Y-120330000D01*
X35580000Y-120330000D02*
X32620000Y-120330000D01*
%TO.C,R2*%
X30980000Y-104230000D02*
X28020000Y-104230000D01*
X30980000Y-102770000D02*
X30980000Y-104230000D01*
X28020000Y-104230000D02*
X28020000Y-102770000D01*
X28020000Y-102770000D02*
X30980000Y-102770000D01*
%TO.C,R4*%
X27520000Y-106770000D02*
X30480000Y-106770000D01*
X27520000Y-108230000D02*
X27520000Y-106770000D01*
X30480000Y-106770000D02*
X30480000Y-108230000D01*
X30480000Y-108230000D02*
X27520000Y-108230000D01*
%TO.C,R8*%
X32730000Y-114120000D02*
X32730000Y-117080000D01*
X31270000Y-114120000D02*
X32730000Y-114120000D01*
X32730000Y-117080000D02*
X31270000Y-117080000D01*
X31270000Y-117080000D02*
X31270000Y-114120000D01*
%TO.C,R9*%
X35180000Y-113530000D02*
X32220000Y-113530000D01*
X35180000Y-112070000D02*
X35180000Y-113530000D01*
X32220000Y-113530000D02*
X32220000Y-112070000D01*
X32220000Y-112070000D02*
X35180000Y-112070000D01*
%TO.C,R10*%
X26992500Y-120430000D02*
X24032500Y-120430000D01*
X26992500Y-118970000D02*
X26992500Y-120430000D01*
X24032500Y-120430000D02*
X24032500Y-118970000D01*
X24032500Y-118970000D02*
X26992500Y-118970000D01*
%TO.C,R11*%
X22980000Y-120430000D02*
X20020000Y-120430000D01*
X22980000Y-118970000D02*
X22980000Y-120430000D01*
X20020000Y-120430000D02*
X20020000Y-118970000D01*
X20020000Y-118970000D02*
X22980000Y-118970000D01*
%TO.C,U2*%
X22900000Y-109000000D02*
X22900000Y-114400000D01*
X22900000Y-114400000D02*
X30300000Y-114400000D01*
X30300000Y-109000000D02*
X22900000Y-109000000D01*
X30300000Y-114400000D02*
X30300000Y-109000000D01*
%TO.C,J5*%
X27920000Y-100630000D02*
X23070000Y-100630000D01*
X23070000Y-100630000D02*
X23070000Y-105080000D01*
X27920000Y-105080000D02*
X27920000Y-100630000D01*
X23070000Y-105080000D02*
X27920000Y-105080000D01*
%TO.C,Q3*%
X23900000Y-114580000D02*
X20500000Y-114580000D01*
X20500000Y-114580000D02*
X20500000Y-118420000D01*
X23900000Y-118420000D02*
X23900000Y-114580000D01*
X20500000Y-118420000D02*
X23900000Y-118420000D01*
%TO.C,R12*%
X21830000Y-108207500D02*
X21830000Y-111167500D01*
X20370000Y-108207500D02*
X21830000Y-108207500D01*
X21830000Y-111167500D02*
X20370000Y-111167500D01*
X20370000Y-111167500D02*
X20370000Y-108207500D01*
%TO.C,R6*%
X37530000Y-116620000D02*
X37530000Y-119580000D01*
X36070000Y-116620000D02*
X37530000Y-116620000D01*
X37530000Y-119580000D02*
X36070000Y-119580000D01*
X36070000Y-119580000D02*
X36070000Y-116620000D01*
%TO.C,D1*%
X37320000Y-103370000D02*
X40280000Y-103370000D01*
X37320000Y-104830000D02*
X37320000Y-103370000D01*
X40280000Y-103370000D02*
X40280000Y-104830000D01*
X40280000Y-104830000D02*
X37320000Y-104830000D01*
%TO.C,R3*%
X30480000Y-106730000D02*
X27520000Y-106730000D01*
X30480000Y-105270000D02*
X30480000Y-106730000D01*
X27520000Y-106730000D02*
X27520000Y-105270000D01*
X27520000Y-105270000D02*
X30480000Y-105270000D01*
%TO.C,R7*%
X38950000Y-127250000D02*
X38950000Y-120750000D01*
X38950000Y-120750000D02*
X15730000Y-120750000D01*
X15730000Y-127250000D02*
X38950000Y-127250000D01*
X15730000Y-120750000D02*
X15730000Y-127250000D01*
%TO.C,J2*%
X21780000Y-101100000D02*
X15220000Y-101100000D01*
X15220000Y-101100000D02*
X15220000Y-107900000D01*
X21780000Y-107900000D02*
X21780000Y-101100000D01*
X15220000Y-107900000D02*
X21780000Y-107900000D01*
%TO.C,R13*%
X18570000Y-111180000D02*
X18570000Y-108220000D01*
X20030000Y-111180000D02*
X18570000Y-111180000D01*
X18570000Y-108220000D02*
X20030000Y-108220000D01*
X20030000Y-108220000D02*
X20030000Y-111180000D01*
%TO.C,U1*%
X24280000Y-114700000D02*
X24280000Y-118100000D01*
X24280000Y-118100000D02*
X28120000Y-118100000D01*
X28120000Y-114700000D02*
X24280000Y-114700000D01*
X28120000Y-118100000D02*
X28120000Y-114700000D01*
%TO.C,R5*%
X33820000Y-103370000D02*
X36780000Y-103370000D01*
X33820000Y-104830000D02*
X33820000Y-103370000D01*
X36780000Y-103370000D02*
X36780000Y-104830000D01*
X36780000Y-104830000D02*
X33820000Y-104830000D01*
%TO.C,C2*%
X48945000Y-114270000D02*
X51905000Y-114270000D01*
X48945000Y-115730000D02*
X48945000Y-114270000D01*
X51905000Y-114270000D02*
X51905000Y-115730000D01*
X51905000Y-115730000D02*
X48945000Y-115730000D01*
%TO.C,U4*%
X48500000Y-116000000D02*
X48500000Y-121400000D01*
X48500000Y-121400000D02*
X55900000Y-121400000D01*
X55900000Y-116000000D02*
X48500000Y-116000000D01*
X55900000Y-121400000D02*
X55900000Y-116000000D01*
%TO.C,R16*%
X54020000Y-122370000D02*
X56980000Y-122370000D01*
X54020000Y-123830000D02*
X54020000Y-122370000D01*
X56980000Y-122370000D02*
X56980000Y-123830000D01*
X56980000Y-123830000D02*
X54020000Y-123830000D01*
%TO.C,R20*%
X68950000Y-105250000D02*
X68950000Y-98750000D01*
X68950000Y-98750000D02*
X45730000Y-98750000D01*
X45730000Y-105250000D02*
X68950000Y-105250000D01*
X45730000Y-98750000D02*
X45730000Y-105250000D01*
%TO.C,Q6*%
X44000000Y-121780000D02*
X40600000Y-121780000D01*
X40600000Y-121780000D02*
X40600000Y-125620000D01*
X44000000Y-125620000D02*
X44000000Y-121780000D01*
X40600000Y-125620000D02*
X44000000Y-125620000D01*
%TO.C,D4*%
X56200000Y-111100000D02*
X56200000Y-107700000D01*
X58800000Y-111100000D02*
X56200000Y-111100000D01*
X56200000Y-107700000D02*
X58800000Y-107700000D01*
X58800000Y-107700000D02*
X58800000Y-111100000D01*
%TO.C,Q4*%
X63300000Y-110200000D02*
X60500000Y-110200000D01*
X63300000Y-110200000D02*
X63300000Y-113400000D01*
X60500000Y-110200000D02*
X60500000Y-113400000D01*
X60500000Y-113400000D02*
X63300000Y-113400000D01*
%TO.C,R24*%
X49770000Y-108480000D02*
X49770000Y-105520000D01*
X51230000Y-108480000D02*
X49770000Y-108480000D01*
X49770000Y-105520000D02*
X51230000Y-105520000D01*
X51230000Y-105520000D02*
X51230000Y-108480000D01*
%TO.C,R17*%
X58670000Y-114080000D02*
X58670000Y-111120000D01*
X60130000Y-114080000D02*
X58670000Y-114080000D01*
X58670000Y-111120000D02*
X60130000Y-111120000D01*
X60130000Y-111120000D02*
X60130000Y-114080000D01*
%TO.C,R15*%
X56980000Y-125430000D02*
X54020000Y-125430000D01*
X56980000Y-123970000D02*
X56980000Y-125430000D01*
X54020000Y-125430000D02*
X54020000Y-123970000D01*
X54020000Y-123970000D02*
X56980000Y-123970000D01*
%TO.C,Q5*%
X49520000Y-108700000D02*
X49520000Y-105300000D01*
X49520000Y-105300000D02*
X45680000Y-105300000D01*
X45680000Y-108700000D02*
X49520000Y-108700000D01*
X45680000Y-105300000D02*
X45680000Y-108700000D01*
%TO.C,R14*%
X53930000Y-111020000D02*
X53930000Y-113980000D01*
X52470000Y-111020000D02*
X53930000Y-111020000D01*
X53930000Y-113980000D02*
X52470000Y-113980000D01*
X52470000Y-113980000D02*
X52470000Y-111020000D01*
%TO.C,J8*%
X63220000Y-124900000D02*
X69780000Y-124900000D01*
X69780000Y-124900000D02*
X69780000Y-118100000D01*
X63220000Y-118100000D02*
X63220000Y-124900000D01*
X69780000Y-118100000D02*
X63220000Y-118100000D01*
%TO.C,J7*%
X44875000Y-125925000D02*
X49725000Y-125925000D01*
X49725000Y-125925000D02*
X49725000Y-121475000D01*
X44875000Y-121475000D02*
X44875000Y-125925000D01*
X49725000Y-121475000D02*
X44875000Y-121475000D01*
%TO.C,H4*%
X47050000Y-113000000D02*
G75*
G03*
X47050000Y-113000000I-4550000J0D01*
G01*
%TO.C,D3*%
X65470000Y-108680000D02*
X65470000Y-105720000D01*
X66930000Y-108680000D02*
X65470000Y-108680000D01*
X65470000Y-105720000D02*
X66930000Y-105720000D01*
X66930000Y-105720000D02*
X66930000Y-108680000D01*
%TO.C,R22*%
X58230000Y-117220000D02*
X58230000Y-120180000D01*
X56770000Y-117220000D02*
X58230000Y-117220000D01*
X58230000Y-120180000D02*
X56770000Y-120180000D01*
X56770000Y-120180000D02*
X56770000Y-117220000D01*
%TO.C,R21*%
X63280000Y-109630000D02*
X60320000Y-109630000D01*
X63280000Y-108170000D02*
X63280000Y-109630000D01*
X60320000Y-109630000D02*
X60320000Y-108170000D01*
X60320000Y-108170000D02*
X63280000Y-108170000D01*
%TO.C,R25*%
X40120000Y-119870000D02*
X43080000Y-119870000D01*
X40120000Y-121330000D02*
X40120000Y-119870000D01*
X43080000Y-119870000D02*
X43080000Y-121330000D01*
X43080000Y-121330000D02*
X40120000Y-121330000D01*
%TO.C,R18*%
X62870000Y-117955000D02*
X62870000Y-114995000D01*
X64330000Y-117955000D02*
X62870000Y-117955000D01*
X62870000Y-114995000D02*
X64330000Y-114995000D01*
X64330000Y-114995000D02*
X64330000Y-117955000D01*
%TO.C,U3*%
X49980000Y-121600000D02*
X49980000Y-125000000D01*
X49980000Y-125000000D02*
X53820000Y-125000000D01*
X53820000Y-121600000D02*
X49980000Y-121600000D01*
X53820000Y-125000000D02*
X53820000Y-121600000D01*
%TO.C,R19*%
X60630000Y-120020000D02*
X60630000Y-122980000D01*
X59170000Y-120020000D02*
X60630000Y-120020000D01*
X60630000Y-122980000D02*
X59170000Y-122980000D01*
X59170000Y-122980000D02*
X59170000Y-120020000D01*
%TO.C,R23*%
X50270000Y-113180000D02*
X50270000Y-110220000D01*
X51730000Y-113180000D02*
X50270000Y-113180000D01*
X50270000Y-110220000D02*
X51730000Y-110220000D01*
X51730000Y-110220000D02*
X51730000Y-113180000D01*
%TD*%
M02*
