%TF.GenerationSoftware,KiCad,Pcbnew,7.0.6-0*%
%TF.CreationDate,2024-05-28T13:41:10+12:00*%
%TF.ProjectId,BMSladderLeaf,424d536c-6164-4646-9572-4c6561662e6b,rev?*%
%TF.SameCoordinates,Original*%
%TF.FileFunction,Legend,Top*%
%TF.FilePolarity,Positive*%
%FSLAX46Y46*%
G04 Gerber Fmt 4.6, Leading zero omitted, Abs format (unit mm)*
G04 Created by KiCad (PCBNEW 7.0.6-0) date 2024-05-28 13:41:10*
%MOMM*%
%LPD*%
G01*
G04 APERTURE LIST*
G04 Aperture macros list*
%AMRoundRect*
0 Rectangle with rounded corners*
0 $1 Rounding radius*
0 $2 $3 $4 $5 $6 $7 $8 $9 X,Y pos of 4 corners*
0 Add a 4 corners polygon primitive as box body*
4,1,4,$2,$3,$4,$5,$6,$7,$8,$9,$2,$3,0*
0 Add four circle primitives for the rounded corners*
1,1,$1+$1,$2,$3*
1,1,$1+$1,$4,$5*
1,1,$1+$1,$6,$7*
1,1,$1+$1,$8,$9*
0 Add four rect primitives between the rounded corners*
20,1,$1+$1,$2,$3,$4,$5,0*
20,1,$1+$1,$4,$5,$6,$7,0*
20,1,$1+$1,$6,$7,$8,$9,0*
20,1,$1+$1,$8,$9,$2,$3,0*%
G04 Aperture macros list end*
%ADD10C,0.150000*%
%ADD11C,0.120000*%
%ADD12RoundRect,0.225000X0.250000X-0.225000X0.250000X0.225000X-0.250000X0.225000X-0.250000X-0.225000X0*%
%ADD13R,0.450000X0.700000*%
%ADD14O,2.500000X7.000000*%
%ADD15R,0.400000X0.650000*%
%ADD16RoundRect,0.150000X-0.150000X0.587500X-0.150000X-0.587500X0.150000X-0.587500X0.150000X0.587500X0*%
%ADD17RoundRect,0.200000X-0.200000X-0.275000X0.200000X-0.275000X0.200000X0.275000X-0.200000X0.275000X0*%
%ADD18RoundRect,0.200000X0.200000X0.275000X-0.200000X0.275000X-0.200000X-0.275000X0.200000X-0.275000X0*%
%ADD19RoundRect,0.200000X-0.275000X0.200000X-0.275000X-0.200000X0.275000X-0.200000X0.275000X0.200000X0*%
%ADD20RoundRect,0.150000X-0.825000X-0.150000X0.825000X-0.150000X0.825000X0.150000X-0.825000X0.150000X0*%
%ADD21R,1.000000X1.000000*%
%ADD22O,1.000000X1.000000*%
%ADD23RoundRect,0.218750X-0.218750X-0.256250X0.218750X-0.256250X0.218750X0.256250X-0.218750X0.256250X0*%
%ADD24C,2.400000*%
%ADD25O,2.400000X2.400000*%
%ADD26RoundRect,0.150000X-0.625000X0.150000X-0.625000X-0.150000X0.625000X-0.150000X0.625000X0.150000X0*%
%ADD27RoundRect,0.250000X-0.650000X0.350000X-0.650000X-0.350000X0.650000X-0.350000X0.650000X0.350000X0*%
%ADD28RoundRect,0.200000X0.275000X-0.200000X0.275000X0.200000X-0.275000X0.200000X-0.275000X-0.200000X0*%
%ADD29RoundRect,0.150000X-0.587500X-0.150000X0.587500X-0.150000X0.587500X0.150000X-0.587500X0.150000X0*%
%ADD30RoundRect,0.225000X-0.225000X-0.250000X0.225000X-0.250000X0.225000X0.250000X-0.225000X0.250000X0*%
%ADD31RoundRect,0.150000X0.587500X0.150000X-0.587500X0.150000X-0.587500X-0.150000X0.587500X-0.150000X0*%
%ADD32RoundRect,0.150000X0.625000X-0.150000X0.625000X0.150000X-0.625000X0.150000X-0.625000X-0.150000X0*%
%ADD33RoundRect,0.250000X0.650000X-0.350000X0.650000X0.350000X-0.650000X0.350000X-0.650000X-0.350000X0*%
%ADD34C,0.900000*%
%ADD35C,8.600000*%
%ADD36RoundRect,0.218750X0.256250X-0.218750X0.256250X0.218750X-0.256250X0.218750X-0.256250X-0.218750X0*%
%ADD37R,1.350000X1.350000*%
%ADD38O,1.350000X1.350000*%
%ADD39C,0.800000*%
G04 APERTURE END LIST*
D10*
X23059580Y-106866666D02*
X23107200Y-106914285D01*
X23107200Y-106914285D02*
X23154819Y-107057142D01*
X23154819Y-107057142D02*
X23154819Y-107152380D01*
X23154819Y-107152380D02*
X23107200Y-107295237D01*
X23107200Y-107295237D02*
X23011961Y-107390475D01*
X23011961Y-107390475D02*
X22916723Y-107438094D01*
X22916723Y-107438094D02*
X22726247Y-107485713D01*
X22726247Y-107485713D02*
X22583390Y-107485713D01*
X22583390Y-107485713D02*
X22392914Y-107438094D01*
X22392914Y-107438094D02*
X22297676Y-107390475D01*
X22297676Y-107390475D02*
X22202438Y-107295237D01*
X22202438Y-107295237D02*
X22154819Y-107152380D01*
X22154819Y-107152380D02*
X22154819Y-107057142D01*
X22154819Y-107057142D02*
X22202438Y-106914285D01*
X22202438Y-106914285D02*
X22250057Y-106866666D01*
X23154819Y-105914285D02*
X23154819Y-106485713D01*
X23154819Y-106199999D02*
X22154819Y-106199999D01*
X22154819Y-106199999D02*
X22297676Y-106295237D01*
X22297676Y-106295237D02*
X22392914Y-106390475D01*
X22392914Y-106390475D02*
X22440533Y-106485713D01*
X29561905Y-115954819D02*
X29561905Y-114954819D01*
X29561905Y-114954819D02*
X29800000Y-114954819D01*
X29800000Y-114954819D02*
X29942857Y-115002438D01*
X29942857Y-115002438D02*
X30038095Y-115097676D01*
X30038095Y-115097676D02*
X30085714Y-115192914D01*
X30085714Y-115192914D02*
X30133333Y-115383390D01*
X30133333Y-115383390D02*
X30133333Y-115526247D01*
X30133333Y-115526247D02*
X30085714Y-115716723D01*
X30085714Y-115716723D02*
X30038095Y-115811961D01*
X30038095Y-115811961D02*
X29942857Y-115907200D01*
X29942857Y-115907200D02*
X29800000Y-115954819D01*
X29800000Y-115954819D02*
X29561905Y-115954819D01*
X30514286Y-115050057D02*
X30561905Y-115002438D01*
X30561905Y-115002438D02*
X30657143Y-114954819D01*
X30657143Y-114954819D02*
X30895238Y-114954819D01*
X30895238Y-114954819D02*
X30990476Y-115002438D01*
X30990476Y-115002438D02*
X31038095Y-115050057D01*
X31038095Y-115050057D02*
X31085714Y-115145295D01*
X31085714Y-115145295D02*
X31085714Y-115240533D01*
X31085714Y-115240533D02*
X31038095Y-115383390D01*
X31038095Y-115383390D02*
X30466667Y-115954819D01*
X30466667Y-115954819D02*
X31085714Y-115954819D01*
X19654819Y-113761904D02*
X18654819Y-113761904D01*
X19131009Y-113761904D02*
X19131009Y-113190476D01*
X19654819Y-113190476D02*
X18654819Y-113190476D01*
X18750057Y-112761904D02*
X18702438Y-112714285D01*
X18702438Y-112714285D02*
X18654819Y-112619047D01*
X18654819Y-112619047D02*
X18654819Y-112380952D01*
X18654819Y-112380952D02*
X18702438Y-112285714D01*
X18702438Y-112285714D02*
X18750057Y-112238095D01*
X18750057Y-112238095D02*
X18845295Y-112190476D01*
X18845295Y-112190476D02*
X18940533Y-112190476D01*
X18940533Y-112190476D02*
X19083390Y-112238095D01*
X19083390Y-112238095D02*
X19654819Y-112809523D01*
X19654819Y-112809523D02*
X19654819Y-112190476D01*
X36804761Y-116150057D02*
X36709523Y-116102438D01*
X36709523Y-116102438D02*
X36614285Y-116007200D01*
X36614285Y-116007200D02*
X36471428Y-115864342D01*
X36471428Y-115864342D02*
X36376190Y-115816723D01*
X36376190Y-115816723D02*
X36280952Y-115816723D01*
X36328571Y-116054819D02*
X36233333Y-116007200D01*
X36233333Y-116007200D02*
X36138095Y-115911961D01*
X36138095Y-115911961D02*
X36090476Y-115721485D01*
X36090476Y-115721485D02*
X36090476Y-115388152D01*
X36090476Y-115388152D02*
X36138095Y-115197676D01*
X36138095Y-115197676D02*
X36233333Y-115102438D01*
X36233333Y-115102438D02*
X36328571Y-115054819D01*
X36328571Y-115054819D02*
X36519047Y-115054819D01*
X36519047Y-115054819D02*
X36614285Y-115102438D01*
X36614285Y-115102438D02*
X36709523Y-115197676D01*
X36709523Y-115197676D02*
X36757142Y-115388152D01*
X36757142Y-115388152D02*
X36757142Y-115721485D01*
X36757142Y-115721485D02*
X36709523Y-115911961D01*
X36709523Y-115911961D02*
X36614285Y-116007200D01*
X36614285Y-116007200D02*
X36519047Y-116054819D01*
X36519047Y-116054819D02*
X36328571Y-116054819D01*
X37709523Y-116054819D02*
X37138095Y-116054819D01*
X37423809Y-116054819D02*
X37423809Y-115054819D01*
X37423809Y-115054819D02*
X37328571Y-115197676D01*
X37328571Y-115197676D02*
X37233333Y-115292914D01*
X37233333Y-115292914D02*
X37138095Y-115340533D01*
X20050057Y-117995238D02*
X20002438Y-118090476D01*
X20002438Y-118090476D02*
X19907200Y-118185714D01*
X19907200Y-118185714D02*
X19764342Y-118328571D01*
X19764342Y-118328571D02*
X19716723Y-118423809D01*
X19716723Y-118423809D02*
X19716723Y-118519047D01*
X19954819Y-118471428D02*
X19907200Y-118566666D01*
X19907200Y-118566666D02*
X19811961Y-118661904D01*
X19811961Y-118661904D02*
X19621485Y-118709523D01*
X19621485Y-118709523D02*
X19288152Y-118709523D01*
X19288152Y-118709523D02*
X19097676Y-118661904D01*
X19097676Y-118661904D02*
X19002438Y-118566666D01*
X19002438Y-118566666D02*
X18954819Y-118471428D01*
X18954819Y-118471428D02*
X18954819Y-118280952D01*
X18954819Y-118280952D02*
X19002438Y-118185714D01*
X19002438Y-118185714D02*
X19097676Y-118090476D01*
X19097676Y-118090476D02*
X19288152Y-118042857D01*
X19288152Y-118042857D02*
X19621485Y-118042857D01*
X19621485Y-118042857D02*
X19811961Y-118090476D01*
X19811961Y-118090476D02*
X19907200Y-118185714D01*
X19907200Y-118185714D02*
X19954819Y-118280952D01*
X19954819Y-118280952D02*
X19954819Y-118471428D01*
X19050057Y-117661904D02*
X19002438Y-117614285D01*
X19002438Y-117614285D02*
X18954819Y-117519047D01*
X18954819Y-117519047D02*
X18954819Y-117280952D01*
X18954819Y-117280952D02*
X19002438Y-117185714D01*
X19002438Y-117185714D02*
X19050057Y-117138095D01*
X19050057Y-117138095D02*
X19145295Y-117090476D01*
X19145295Y-117090476D02*
X19240533Y-117090476D01*
X19240533Y-117090476D02*
X19383390Y-117138095D01*
X19383390Y-117138095D02*
X19954819Y-117709523D01*
X19954819Y-117709523D02*
X19954819Y-117090476D01*
X34133333Y-118554819D02*
X33800000Y-118078628D01*
X33561905Y-118554819D02*
X33561905Y-117554819D01*
X33561905Y-117554819D02*
X33942857Y-117554819D01*
X33942857Y-117554819D02*
X34038095Y-117602438D01*
X34038095Y-117602438D02*
X34085714Y-117650057D01*
X34085714Y-117650057D02*
X34133333Y-117745295D01*
X34133333Y-117745295D02*
X34133333Y-117888152D01*
X34133333Y-117888152D02*
X34085714Y-117983390D01*
X34085714Y-117983390D02*
X34038095Y-118031009D01*
X34038095Y-118031009D02*
X33942857Y-118078628D01*
X33942857Y-118078628D02*
X33561905Y-118078628D01*
X35085714Y-118554819D02*
X34514286Y-118554819D01*
X34800000Y-118554819D02*
X34800000Y-117554819D01*
X34800000Y-117554819D02*
X34704762Y-117697676D01*
X34704762Y-117697676D02*
X34609524Y-117792914D01*
X34609524Y-117792914D02*
X34514286Y-117840533D01*
X32733333Y-104054819D02*
X32400000Y-103578628D01*
X32161905Y-104054819D02*
X32161905Y-103054819D01*
X32161905Y-103054819D02*
X32542857Y-103054819D01*
X32542857Y-103054819D02*
X32638095Y-103102438D01*
X32638095Y-103102438D02*
X32685714Y-103150057D01*
X32685714Y-103150057D02*
X32733333Y-103245295D01*
X32733333Y-103245295D02*
X32733333Y-103388152D01*
X32733333Y-103388152D02*
X32685714Y-103483390D01*
X32685714Y-103483390D02*
X32638095Y-103531009D01*
X32638095Y-103531009D02*
X32542857Y-103578628D01*
X32542857Y-103578628D02*
X32161905Y-103578628D01*
X33114286Y-103150057D02*
X33161905Y-103102438D01*
X33161905Y-103102438D02*
X33257143Y-103054819D01*
X33257143Y-103054819D02*
X33495238Y-103054819D01*
X33495238Y-103054819D02*
X33590476Y-103102438D01*
X33590476Y-103102438D02*
X33638095Y-103150057D01*
X33638095Y-103150057D02*
X33685714Y-103245295D01*
X33685714Y-103245295D02*
X33685714Y-103340533D01*
X33685714Y-103340533D02*
X33638095Y-103483390D01*
X33638095Y-103483390D02*
X33066667Y-104054819D01*
X33066667Y-104054819D02*
X33685714Y-104054819D01*
X26333333Y-107954819D02*
X26000000Y-107478628D01*
X25761905Y-107954819D02*
X25761905Y-106954819D01*
X25761905Y-106954819D02*
X26142857Y-106954819D01*
X26142857Y-106954819D02*
X26238095Y-107002438D01*
X26238095Y-107002438D02*
X26285714Y-107050057D01*
X26285714Y-107050057D02*
X26333333Y-107145295D01*
X26333333Y-107145295D02*
X26333333Y-107288152D01*
X26333333Y-107288152D02*
X26285714Y-107383390D01*
X26285714Y-107383390D02*
X26238095Y-107431009D01*
X26238095Y-107431009D02*
X26142857Y-107478628D01*
X26142857Y-107478628D02*
X25761905Y-107478628D01*
X27190476Y-107288152D02*
X27190476Y-107954819D01*
X26952381Y-106907200D02*
X26714286Y-107621485D01*
X26714286Y-107621485D02*
X27333333Y-107621485D01*
X32304819Y-118216666D02*
X31828628Y-118549999D01*
X32304819Y-118788094D02*
X31304819Y-118788094D01*
X31304819Y-118788094D02*
X31304819Y-118407142D01*
X31304819Y-118407142D02*
X31352438Y-118311904D01*
X31352438Y-118311904D02*
X31400057Y-118264285D01*
X31400057Y-118264285D02*
X31495295Y-118216666D01*
X31495295Y-118216666D02*
X31638152Y-118216666D01*
X31638152Y-118216666D02*
X31733390Y-118264285D01*
X31733390Y-118264285D02*
X31781009Y-118311904D01*
X31781009Y-118311904D02*
X31828628Y-118407142D01*
X31828628Y-118407142D02*
X31828628Y-118788094D01*
X31733390Y-117645237D02*
X31685771Y-117740475D01*
X31685771Y-117740475D02*
X31638152Y-117788094D01*
X31638152Y-117788094D02*
X31542914Y-117835713D01*
X31542914Y-117835713D02*
X31495295Y-117835713D01*
X31495295Y-117835713D02*
X31400057Y-117788094D01*
X31400057Y-117788094D02*
X31352438Y-117740475D01*
X31352438Y-117740475D02*
X31304819Y-117645237D01*
X31304819Y-117645237D02*
X31304819Y-117454761D01*
X31304819Y-117454761D02*
X31352438Y-117359523D01*
X31352438Y-117359523D02*
X31400057Y-117311904D01*
X31400057Y-117311904D02*
X31495295Y-117264285D01*
X31495295Y-117264285D02*
X31542914Y-117264285D01*
X31542914Y-117264285D02*
X31638152Y-117311904D01*
X31638152Y-117311904D02*
X31685771Y-117359523D01*
X31685771Y-117359523D02*
X31733390Y-117454761D01*
X31733390Y-117454761D02*
X31733390Y-117645237D01*
X31733390Y-117645237D02*
X31781009Y-117740475D01*
X31781009Y-117740475D02*
X31828628Y-117788094D01*
X31828628Y-117788094D02*
X31923866Y-117835713D01*
X31923866Y-117835713D02*
X32114342Y-117835713D01*
X32114342Y-117835713D02*
X32209580Y-117788094D01*
X32209580Y-117788094D02*
X32257200Y-117740475D01*
X32257200Y-117740475D02*
X32304819Y-117645237D01*
X32304819Y-117645237D02*
X32304819Y-117454761D01*
X32304819Y-117454761D02*
X32257200Y-117359523D01*
X32257200Y-117359523D02*
X32209580Y-117311904D01*
X32209580Y-117311904D02*
X32114342Y-117264285D01*
X32114342Y-117264285D02*
X31923866Y-117264285D01*
X31923866Y-117264285D02*
X31828628Y-117311904D01*
X31828628Y-117311904D02*
X31781009Y-117359523D01*
X31781009Y-117359523D02*
X31733390Y-117454761D01*
X33633333Y-111954819D02*
X33300000Y-111478628D01*
X33061905Y-111954819D02*
X33061905Y-110954819D01*
X33061905Y-110954819D02*
X33442857Y-110954819D01*
X33442857Y-110954819D02*
X33538095Y-111002438D01*
X33538095Y-111002438D02*
X33585714Y-111050057D01*
X33585714Y-111050057D02*
X33633333Y-111145295D01*
X33633333Y-111145295D02*
X33633333Y-111288152D01*
X33633333Y-111288152D02*
X33585714Y-111383390D01*
X33585714Y-111383390D02*
X33538095Y-111431009D01*
X33538095Y-111431009D02*
X33442857Y-111478628D01*
X33442857Y-111478628D02*
X33061905Y-111478628D01*
X34109524Y-111954819D02*
X34300000Y-111954819D01*
X34300000Y-111954819D02*
X34395238Y-111907200D01*
X34395238Y-111907200D02*
X34442857Y-111859580D01*
X34442857Y-111859580D02*
X34538095Y-111716723D01*
X34538095Y-111716723D02*
X34585714Y-111526247D01*
X34585714Y-111526247D02*
X34585714Y-111145295D01*
X34585714Y-111145295D02*
X34538095Y-111050057D01*
X34538095Y-111050057D02*
X34490476Y-111002438D01*
X34490476Y-111002438D02*
X34395238Y-110954819D01*
X34395238Y-110954819D02*
X34204762Y-110954819D01*
X34204762Y-110954819D02*
X34109524Y-111002438D01*
X34109524Y-111002438D02*
X34061905Y-111050057D01*
X34061905Y-111050057D02*
X34014286Y-111145295D01*
X34014286Y-111145295D02*
X34014286Y-111383390D01*
X34014286Y-111383390D02*
X34061905Y-111478628D01*
X34061905Y-111478628D02*
X34109524Y-111526247D01*
X34109524Y-111526247D02*
X34204762Y-111573866D01*
X34204762Y-111573866D02*
X34395238Y-111573866D01*
X34395238Y-111573866D02*
X34490476Y-111526247D01*
X34490476Y-111526247D02*
X34538095Y-111478628D01*
X34538095Y-111478628D02*
X34585714Y-111383390D01*
X24757142Y-122254819D02*
X24423809Y-121778628D01*
X24185714Y-122254819D02*
X24185714Y-121254819D01*
X24185714Y-121254819D02*
X24566666Y-121254819D01*
X24566666Y-121254819D02*
X24661904Y-121302438D01*
X24661904Y-121302438D02*
X24709523Y-121350057D01*
X24709523Y-121350057D02*
X24757142Y-121445295D01*
X24757142Y-121445295D02*
X24757142Y-121588152D01*
X24757142Y-121588152D02*
X24709523Y-121683390D01*
X24709523Y-121683390D02*
X24661904Y-121731009D01*
X24661904Y-121731009D02*
X24566666Y-121778628D01*
X24566666Y-121778628D02*
X24185714Y-121778628D01*
X25709523Y-122254819D02*
X25138095Y-122254819D01*
X25423809Y-122254819D02*
X25423809Y-121254819D01*
X25423809Y-121254819D02*
X25328571Y-121397676D01*
X25328571Y-121397676D02*
X25233333Y-121492914D01*
X25233333Y-121492914D02*
X25138095Y-121540533D01*
X26328571Y-121254819D02*
X26423809Y-121254819D01*
X26423809Y-121254819D02*
X26519047Y-121302438D01*
X26519047Y-121302438D02*
X26566666Y-121350057D01*
X26566666Y-121350057D02*
X26614285Y-121445295D01*
X26614285Y-121445295D02*
X26661904Y-121635771D01*
X26661904Y-121635771D02*
X26661904Y-121873866D01*
X26661904Y-121873866D02*
X26614285Y-122064342D01*
X26614285Y-122064342D02*
X26566666Y-122159580D01*
X26566666Y-122159580D02*
X26519047Y-122207200D01*
X26519047Y-122207200D02*
X26423809Y-122254819D01*
X26423809Y-122254819D02*
X26328571Y-122254819D01*
X26328571Y-122254819D02*
X26233333Y-122207200D01*
X26233333Y-122207200D02*
X26185714Y-122159580D01*
X26185714Y-122159580D02*
X26138095Y-122064342D01*
X26138095Y-122064342D02*
X26090476Y-121873866D01*
X26090476Y-121873866D02*
X26090476Y-121635771D01*
X26090476Y-121635771D02*
X26138095Y-121445295D01*
X26138095Y-121445295D02*
X26185714Y-121350057D01*
X26185714Y-121350057D02*
X26233333Y-121302438D01*
X26233333Y-121302438D02*
X26328571Y-121254819D01*
X20857142Y-122154819D02*
X20523809Y-121678628D01*
X20285714Y-122154819D02*
X20285714Y-121154819D01*
X20285714Y-121154819D02*
X20666666Y-121154819D01*
X20666666Y-121154819D02*
X20761904Y-121202438D01*
X20761904Y-121202438D02*
X20809523Y-121250057D01*
X20809523Y-121250057D02*
X20857142Y-121345295D01*
X20857142Y-121345295D02*
X20857142Y-121488152D01*
X20857142Y-121488152D02*
X20809523Y-121583390D01*
X20809523Y-121583390D02*
X20761904Y-121631009D01*
X20761904Y-121631009D02*
X20666666Y-121678628D01*
X20666666Y-121678628D02*
X20285714Y-121678628D01*
X21809523Y-122154819D02*
X21238095Y-122154819D01*
X21523809Y-122154819D02*
X21523809Y-121154819D01*
X21523809Y-121154819D02*
X21428571Y-121297676D01*
X21428571Y-121297676D02*
X21333333Y-121392914D01*
X21333333Y-121392914D02*
X21238095Y-121440533D01*
X22761904Y-122154819D02*
X22190476Y-122154819D01*
X22476190Y-122154819D02*
X22476190Y-121154819D01*
X22476190Y-121154819D02*
X22380952Y-121297676D01*
X22380952Y-121297676D02*
X22285714Y-121392914D01*
X22285714Y-121392914D02*
X22190476Y-121440533D01*
X25938095Y-112754819D02*
X25938095Y-113564342D01*
X25938095Y-113564342D02*
X25985714Y-113659580D01*
X25985714Y-113659580D02*
X26033333Y-113707200D01*
X26033333Y-113707200D02*
X26128571Y-113754819D01*
X26128571Y-113754819D02*
X26319047Y-113754819D01*
X26319047Y-113754819D02*
X26414285Y-113707200D01*
X26414285Y-113707200D02*
X26461904Y-113659580D01*
X26461904Y-113659580D02*
X26509523Y-113564342D01*
X26509523Y-113564342D02*
X26509523Y-112754819D01*
X26938095Y-112850057D02*
X26985714Y-112802438D01*
X26985714Y-112802438D02*
X27080952Y-112754819D01*
X27080952Y-112754819D02*
X27319047Y-112754819D01*
X27319047Y-112754819D02*
X27414285Y-112802438D01*
X27414285Y-112802438D02*
X27461904Y-112850057D01*
X27461904Y-112850057D02*
X27509523Y-112945295D01*
X27509523Y-112945295D02*
X27509523Y-113040533D01*
X27509523Y-113040533D02*
X27461904Y-113183390D01*
X27461904Y-113183390D02*
X26890476Y-113754819D01*
X26890476Y-113754819D02*
X27509523Y-113754819D01*
X28166666Y-101154819D02*
X28166666Y-101869104D01*
X28166666Y-101869104D02*
X28119047Y-102011961D01*
X28119047Y-102011961D02*
X28023809Y-102107200D01*
X28023809Y-102107200D02*
X27880952Y-102154819D01*
X27880952Y-102154819D02*
X27785714Y-102154819D01*
X29119047Y-101154819D02*
X28642857Y-101154819D01*
X28642857Y-101154819D02*
X28595238Y-101631009D01*
X28595238Y-101631009D02*
X28642857Y-101583390D01*
X28642857Y-101583390D02*
X28738095Y-101535771D01*
X28738095Y-101535771D02*
X28976190Y-101535771D01*
X28976190Y-101535771D02*
X29071428Y-101583390D01*
X29071428Y-101583390D02*
X29119047Y-101631009D01*
X29119047Y-101631009D02*
X29166666Y-101726247D01*
X29166666Y-101726247D02*
X29166666Y-101964342D01*
X29166666Y-101964342D02*
X29119047Y-102059580D01*
X29119047Y-102059580D02*
X29071428Y-102107200D01*
X29071428Y-102107200D02*
X28976190Y-102154819D01*
X28976190Y-102154819D02*
X28738095Y-102154819D01*
X28738095Y-102154819D02*
X28642857Y-102107200D01*
X28642857Y-102107200D02*
X28595238Y-102059580D01*
X66254819Y-113461904D02*
X65254819Y-113461904D01*
X65731009Y-113461904D02*
X65731009Y-112890476D01*
X66254819Y-112890476D02*
X65254819Y-112890476D01*
X66254819Y-111890476D02*
X66254819Y-112461904D01*
X66254819Y-112176190D02*
X65254819Y-112176190D01*
X65254819Y-112176190D02*
X65397676Y-112271428D01*
X65397676Y-112271428D02*
X65492914Y-112366666D01*
X65492914Y-112366666D02*
X65540533Y-112461904D01*
X20350057Y-115595238D02*
X20302438Y-115690476D01*
X20302438Y-115690476D02*
X20207200Y-115785714D01*
X20207200Y-115785714D02*
X20064342Y-115928571D01*
X20064342Y-115928571D02*
X20016723Y-116023809D01*
X20016723Y-116023809D02*
X20016723Y-116119047D01*
X20254819Y-116071428D02*
X20207200Y-116166666D01*
X20207200Y-116166666D02*
X20111961Y-116261904D01*
X20111961Y-116261904D02*
X19921485Y-116309523D01*
X19921485Y-116309523D02*
X19588152Y-116309523D01*
X19588152Y-116309523D02*
X19397676Y-116261904D01*
X19397676Y-116261904D02*
X19302438Y-116166666D01*
X19302438Y-116166666D02*
X19254819Y-116071428D01*
X19254819Y-116071428D02*
X19254819Y-115880952D01*
X19254819Y-115880952D02*
X19302438Y-115785714D01*
X19302438Y-115785714D02*
X19397676Y-115690476D01*
X19397676Y-115690476D02*
X19588152Y-115642857D01*
X19588152Y-115642857D02*
X19921485Y-115642857D01*
X19921485Y-115642857D02*
X20111961Y-115690476D01*
X20111961Y-115690476D02*
X20207200Y-115785714D01*
X20207200Y-115785714D02*
X20254819Y-115880952D01*
X20254819Y-115880952D02*
X20254819Y-116071428D01*
X19254819Y-115309523D02*
X19254819Y-114690476D01*
X19254819Y-114690476D02*
X19635771Y-115023809D01*
X19635771Y-115023809D02*
X19635771Y-114880952D01*
X19635771Y-114880952D02*
X19683390Y-114785714D01*
X19683390Y-114785714D02*
X19731009Y-114738095D01*
X19731009Y-114738095D02*
X19826247Y-114690476D01*
X19826247Y-114690476D02*
X20064342Y-114690476D01*
X20064342Y-114690476D02*
X20159580Y-114738095D01*
X20159580Y-114738095D02*
X20207200Y-114785714D01*
X20207200Y-114785714D02*
X20254819Y-114880952D01*
X20254819Y-114880952D02*
X20254819Y-115166666D01*
X20254819Y-115166666D02*
X20207200Y-115261904D01*
X20207200Y-115261904D02*
X20159580Y-115309523D01*
X22854819Y-110330357D02*
X22378628Y-110663690D01*
X22854819Y-110901785D02*
X21854819Y-110901785D01*
X21854819Y-110901785D02*
X21854819Y-110520833D01*
X21854819Y-110520833D02*
X21902438Y-110425595D01*
X21902438Y-110425595D02*
X21950057Y-110377976D01*
X21950057Y-110377976D02*
X22045295Y-110330357D01*
X22045295Y-110330357D02*
X22188152Y-110330357D01*
X22188152Y-110330357D02*
X22283390Y-110377976D01*
X22283390Y-110377976D02*
X22331009Y-110425595D01*
X22331009Y-110425595D02*
X22378628Y-110520833D01*
X22378628Y-110520833D02*
X22378628Y-110901785D01*
X22854819Y-109377976D02*
X22854819Y-109949404D01*
X22854819Y-109663690D02*
X21854819Y-109663690D01*
X21854819Y-109663690D02*
X21997676Y-109758928D01*
X21997676Y-109758928D02*
X22092914Y-109854166D01*
X22092914Y-109854166D02*
X22140533Y-109949404D01*
X21950057Y-108997023D02*
X21902438Y-108949404D01*
X21902438Y-108949404D02*
X21854819Y-108854166D01*
X21854819Y-108854166D02*
X21854819Y-108616071D01*
X21854819Y-108616071D02*
X21902438Y-108520833D01*
X21902438Y-108520833D02*
X21950057Y-108473214D01*
X21950057Y-108473214D02*
X22045295Y-108425595D01*
X22045295Y-108425595D02*
X22140533Y-108425595D01*
X22140533Y-108425595D02*
X22283390Y-108473214D01*
X22283390Y-108473214D02*
X22854819Y-109044642D01*
X22854819Y-109044642D02*
X22854819Y-108425595D01*
X38654819Y-118254166D02*
X38178628Y-118587499D01*
X38654819Y-118825594D02*
X37654819Y-118825594D01*
X37654819Y-118825594D02*
X37654819Y-118444642D01*
X37654819Y-118444642D02*
X37702438Y-118349404D01*
X37702438Y-118349404D02*
X37750057Y-118301785D01*
X37750057Y-118301785D02*
X37845295Y-118254166D01*
X37845295Y-118254166D02*
X37988152Y-118254166D01*
X37988152Y-118254166D02*
X38083390Y-118301785D01*
X38083390Y-118301785D02*
X38131009Y-118349404D01*
X38131009Y-118349404D02*
X38178628Y-118444642D01*
X38178628Y-118444642D02*
X38178628Y-118825594D01*
X37654819Y-117397023D02*
X37654819Y-117587499D01*
X37654819Y-117587499D02*
X37702438Y-117682737D01*
X37702438Y-117682737D02*
X37750057Y-117730356D01*
X37750057Y-117730356D02*
X37892914Y-117825594D01*
X37892914Y-117825594D02*
X38083390Y-117873213D01*
X38083390Y-117873213D02*
X38464342Y-117873213D01*
X38464342Y-117873213D02*
X38559580Y-117825594D01*
X38559580Y-117825594D02*
X38607200Y-117777975D01*
X38607200Y-117777975D02*
X38654819Y-117682737D01*
X38654819Y-117682737D02*
X38654819Y-117492261D01*
X38654819Y-117492261D02*
X38607200Y-117397023D01*
X38607200Y-117397023D02*
X38559580Y-117349404D01*
X38559580Y-117349404D02*
X38464342Y-117301785D01*
X38464342Y-117301785D02*
X38226247Y-117301785D01*
X38226247Y-117301785D02*
X38131009Y-117349404D01*
X38131009Y-117349404D02*
X38083390Y-117397023D01*
X38083390Y-117397023D02*
X38035771Y-117492261D01*
X38035771Y-117492261D02*
X38035771Y-117682737D01*
X38035771Y-117682737D02*
X38083390Y-117777975D01*
X38083390Y-117777975D02*
X38131009Y-117825594D01*
X38131009Y-117825594D02*
X38226247Y-117873213D01*
X38061905Y-106154819D02*
X38061905Y-105154819D01*
X38061905Y-105154819D02*
X38300000Y-105154819D01*
X38300000Y-105154819D02*
X38442857Y-105202438D01*
X38442857Y-105202438D02*
X38538095Y-105297676D01*
X38538095Y-105297676D02*
X38585714Y-105392914D01*
X38585714Y-105392914D02*
X38633333Y-105583390D01*
X38633333Y-105583390D02*
X38633333Y-105726247D01*
X38633333Y-105726247D02*
X38585714Y-105916723D01*
X38585714Y-105916723D02*
X38538095Y-106011961D01*
X38538095Y-106011961D02*
X38442857Y-106107200D01*
X38442857Y-106107200D02*
X38300000Y-106154819D01*
X38300000Y-106154819D02*
X38061905Y-106154819D01*
X39585714Y-106154819D02*
X39014286Y-106154819D01*
X39300000Y-106154819D02*
X39300000Y-105154819D01*
X39300000Y-105154819D02*
X39204762Y-105297676D01*
X39204762Y-105297676D02*
X39109524Y-105392914D01*
X39109524Y-105392914D02*
X39014286Y-105440533D01*
X26233333Y-106454819D02*
X25900000Y-105978628D01*
X25661905Y-106454819D02*
X25661905Y-105454819D01*
X25661905Y-105454819D02*
X26042857Y-105454819D01*
X26042857Y-105454819D02*
X26138095Y-105502438D01*
X26138095Y-105502438D02*
X26185714Y-105550057D01*
X26185714Y-105550057D02*
X26233333Y-105645295D01*
X26233333Y-105645295D02*
X26233333Y-105788152D01*
X26233333Y-105788152D02*
X26185714Y-105883390D01*
X26185714Y-105883390D02*
X26138095Y-105931009D01*
X26138095Y-105931009D02*
X26042857Y-105978628D01*
X26042857Y-105978628D02*
X25661905Y-105978628D01*
X26566667Y-105454819D02*
X27185714Y-105454819D01*
X27185714Y-105454819D02*
X26852381Y-105835771D01*
X26852381Y-105835771D02*
X26995238Y-105835771D01*
X26995238Y-105835771D02*
X27090476Y-105883390D01*
X27090476Y-105883390D02*
X27138095Y-105931009D01*
X27138095Y-105931009D02*
X27185714Y-106026247D01*
X27185714Y-106026247D02*
X27185714Y-106264342D01*
X27185714Y-106264342D02*
X27138095Y-106359580D01*
X27138095Y-106359580D02*
X27090476Y-106407200D01*
X27090476Y-106407200D02*
X26995238Y-106454819D01*
X26995238Y-106454819D02*
X26709524Y-106454819D01*
X26709524Y-106454819D02*
X26614286Y-106407200D01*
X26614286Y-106407200D02*
X26566667Y-106359580D01*
X27333333Y-124554819D02*
X27000000Y-124078628D01*
X26761905Y-124554819D02*
X26761905Y-123554819D01*
X26761905Y-123554819D02*
X27142857Y-123554819D01*
X27142857Y-123554819D02*
X27238095Y-123602438D01*
X27238095Y-123602438D02*
X27285714Y-123650057D01*
X27285714Y-123650057D02*
X27333333Y-123745295D01*
X27333333Y-123745295D02*
X27333333Y-123888152D01*
X27333333Y-123888152D02*
X27285714Y-123983390D01*
X27285714Y-123983390D02*
X27238095Y-124031009D01*
X27238095Y-124031009D02*
X27142857Y-124078628D01*
X27142857Y-124078628D02*
X26761905Y-124078628D01*
X27666667Y-123554819D02*
X28333333Y-123554819D01*
X28333333Y-123554819D02*
X27904762Y-124554819D01*
X16054819Y-104833333D02*
X16769104Y-104833333D01*
X16769104Y-104833333D02*
X16911961Y-104880952D01*
X16911961Y-104880952D02*
X17007200Y-104976190D01*
X17007200Y-104976190D02*
X17054819Y-105119047D01*
X17054819Y-105119047D02*
X17054819Y-105214285D01*
X16150057Y-104404761D02*
X16102438Y-104357142D01*
X16102438Y-104357142D02*
X16054819Y-104261904D01*
X16054819Y-104261904D02*
X16054819Y-104023809D01*
X16054819Y-104023809D02*
X16102438Y-103928571D01*
X16102438Y-103928571D02*
X16150057Y-103880952D01*
X16150057Y-103880952D02*
X16245295Y-103833333D01*
X16245295Y-103833333D02*
X16340533Y-103833333D01*
X16340533Y-103833333D02*
X16483390Y-103880952D01*
X16483390Y-103880952D02*
X17054819Y-104452380D01*
X17054819Y-104452380D02*
X17054819Y-103833333D01*
X16357142Y-109254819D02*
X16023809Y-108778628D01*
X15785714Y-109254819D02*
X15785714Y-108254819D01*
X15785714Y-108254819D02*
X16166666Y-108254819D01*
X16166666Y-108254819D02*
X16261904Y-108302438D01*
X16261904Y-108302438D02*
X16309523Y-108350057D01*
X16309523Y-108350057D02*
X16357142Y-108445295D01*
X16357142Y-108445295D02*
X16357142Y-108588152D01*
X16357142Y-108588152D02*
X16309523Y-108683390D01*
X16309523Y-108683390D02*
X16261904Y-108731009D01*
X16261904Y-108731009D02*
X16166666Y-108778628D01*
X16166666Y-108778628D02*
X15785714Y-108778628D01*
X17309523Y-109254819D02*
X16738095Y-109254819D01*
X17023809Y-109254819D02*
X17023809Y-108254819D01*
X17023809Y-108254819D02*
X16928571Y-108397676D01*
X16928571Y-108397676D02*
X16833333Y-108492914D01*
X16833333Y-108492914D02*
X16738095Y-108540533D01*
X17642857Y-108254819D02*
X18261904Y-108254819D01*
X18261904Y-108254819D02*
X17928571Y-108635771D01*
X17928571Y-108635771D02*
X18071428Y-108635771D01*
X18071428Y-108635771D02*
X18166666Y-108683390D01*
X18166666Y-108683390D02*
X18214285Y-108731009D01*
X18214285Y-108731009D02*
X18261904Y-108826247D01*
X18261904Y-108826247D02*
X18261904Y-109064342D01*
X18261904Y-109064342D02*
X18214285Y-109159580D01*
X18214285Y-109159580D02*
X18166666Y-109207200D01*
X18166666Y-109207200D02*
X18071428Y-109254819D01*
X18071428Y-109254819D02*
X17785714Y-109254819D01*
X17785714Y-109254819D02*
X17690476Y-109207200D01*
X17690476Y-109207200D02*
X17642857Y-109159580D01*
X27338095Y-114754819D02*
X27338095Y-115564342D01*
X27338095Y-115564342D02*
X27385714Y-115659580D01*
X27385714Y-115659580D02*
X27433333Y-115707200D01*
X27433333Y-115707200D02*
X27528571Y-115754819D01*
X27528571Y-115754819D02*
X27719047Y-115754819D01*
X27719047Y-115754819D02*
X27814285Y-115707200D01*
X27814285Y-115707200D02*
X27861904Y-115659580D01*
X27861904Y-115659580D02*
X27909523Y-115564342D01*
X27909523Y-115564342D02*
X27909523Y-114754819D01*
X28909523Y-115754819D02*
X28338095Y-115754819D01*
X28623809Y-115754819D02*
X28623809Y-114754819D01*
X28623809Y-114754819D02*
X28528571Y-114897676D01*
X28528571Y-114897676D02*
X28433333Y-114992914D01*
X28433333Y-114992914D02*
X28338095Y-115040533D01*
X35133333Y-103254819D02*
X34800000Y-102778628D01*
X34561905Y-103254819D02*
X34561905Y-102254819D01*
X34561905Y-102254819D02*
X34942857Y-102254819D01*
X34942857Y-102254819D02*
X35038095Y-102302438D01*
X35038095Y-102302438D02*
X35085714Y-102350057D01*
X35085714Y-102350057D02*
X35133333Y-102445295D01*
X35133333Y-102445295D02*
X35133333Y-102588152D01*
X35133333Y-102588152D02*
X35085714Y-102683390D01*
X35085714Y-102683390D02*
X35038095Y-102731009D01*
X35038095Y-102731009D02*
X34942857Y-102778628D01*
X34942857Y-102778628D02*
X34561905Y-102778628D01*
X36038095Y-102254819D02*
X35561905Y-102254819D01*
X35561905Y-102254819D02*
X35514286Y-102731009D01*
X35514286Y-102731009D02*
X35561905Y-102683390D01*
X35561905Y-102683390D02*
X35657143Y-102635771D01*
X35657143Y-102635771D02*
X35895238Y-102635771D01*
X35895238Y-102635771D02*
X35990476Y-102683390D01*
X35990476Y-102683390D02*
X36038095Y-102731009D01*
X36038095Y-102731009D02*
X36085714Y-102826247D01*
X36085714Y-102826247D02*
X36085714Y-103064342D01*
X36085714Y-103064342D02*
X36038095Y-103159580D01*
X36038095Y-103159580D02*
X35990476Y-103207200D01*
X35990476Y-103207200D02*
X35895238Y-103254819D01*
X35895238Y-103254819D02*
X35657143Y-103254819D01*
X35657143Y-103254819D02*
X35561905Y-103207200D01*
X35561905Y-103207200D02*
X35514286Y-103159580D01*
X52833333Y-115359580D02*
X52785714Y-115407200D01*
X52785714Y-115407200D02*
X52642857Y-115454819D01*
X52642857Y-115454819D02*
X52547619Y-115454819D01*
X52547619Y-115454819D02*
X52404762Y-115407200D01*
X52404762Y-115407200D02*
X52309524Y-115311961D01*
X52309524Y-115311961D02*
X52261905Y-115216723D01*
X52261905Y-115216723D02*
X52214286Y-115026247D01*
X52214286Y-115026247D02*
X52214286Y-114883390D01*
X52214286Y-114883390D02*
X52261905Y-114692914D01*
X52261905Y-114692914D02*
X52309524Y-114597676D01*
X52309524Y-114597676D02*
X52404762Y-114502438D01*
X52404762Y-114502438D02*
X52547619Y-114454819D01*
X52547619Y-114454819D02*
X52642857Y-114454819D01*
X52642857Y-114454819D02*
X52785714Y-114502438D01*
X52785714Y-114502438D02*
X52833333Y-114550057D01*
X53214286Y-114550057D02*
X53261905Y-114502438D01*
X53261905Y-114502438D02*
X53357143Y-114454819D01*
X53357143Y-114454819D02*
X53595238Y-114454819D01*
X53595238Y-114454819D02*
X53690476Y-114502438D01*
X53690476Y-114502438D02*
X53738095Y-114550057D01*
X53738095Y-114550057D02*
X53785714Y-114645295D01*
X53785714Y-114645295D02*
X53785714Y-114740533D01*
X53785714Y-114740533D02*
X53738095Y-114883390D01*
X53738095Y-114883390D02*
X53166667Y-115454819D01*
X53166667Y-115454819D02*
X53785714Y-115454819D01*
X51438095Y-117954819D02*
X51438095Y-118764342D01*
X51438095Y-118764342D02*
X51485714Y-118859580D01*
X51485714Y-118859580D02*
X51533333Y-118907200D01*
X51533333Y-118907200D02*
X51628571Y-118954819D01*
X51628571Y-118954819D02*
X51819047Y-118954819D01*
X51819047Y-118954819D02*
X51914285Y-118907200D01*
X51914285Y-118907200D02*
X51961904Y-118859580D01*
X51961904Y-118859580D02*
X52009523Y-118764342D01*
X52009523Y-118764342D02*
X52009523Y-117954819D01*
X52914285Y-118288152D02*
X52914285Y-118954819D01*
X52676190Y-117907200D02*
X52438095Y-118621485D01*
X52438095Y-118621485D02*
X53057142Y-118621485D01*
X55357142Y-122254819D02*
X55023809Y-121778628D01*
X54785714Y-122254819D02*
X54785714Y-121254819D01*
X54785714Y-121254819D02*
X55166666Y-121254819D01*
X55166666Y-121254819D02*
X55261904Y-121302438D01*
X55261904Y-121302438D02*
X55309523Y-121350057D01*
X55309523Y-121350057D02*
X55357142Y-121445295D01*
X55357142Y-121445295D02*
X55357142Y-121588152D01*
X55357142Y-121588152D02*
X55309523Y-121683390D01*
X55309523Y-121683390D02*
X55261904Y-121731009D01*
X55261904Y-121731009D02*
X55166666Y-121778628D01*
X55166666Y-121778628D02*
X54785714Y-121778628D01*
X56309523Y-122254819D02*
X55738095Y-122254819D01*
X56023809Y-122254819D02*
X56023809Y-121254819D01*
X56023809Y-121254819D02*
X55928571Y-121397676D01*
X55928571Y-121397676D02*
X55833333Y-121492914D01*
X55833333Y-121492914D02*
X55738095Y-121540533D01*
X57166666Y-121254819D02*
X56976190Y-121254819D01*
X56976190Y-121254819D02*
X56880952Y-121302438D01*
X56880952Y-121302438D02*
X56833333Y-121350057D01*
X56833333Y-121350057D02*
X56738095Y-121492914D01*
X56738095Y-121492914D02*
X56690476Y-121683390D01*
X56690476Y-121683390D02*
X56690476Y-122064342D01*
X56690476Y-122064342D02*
X56738095Y-122159580D01*
X56738095Y-122159580D02*
X56785714Y-122207200D01*
X56785714Y-122207200D02*
X56880952Y-122254819D01*
X56880952Y-122254819D02*
X57071428Y-122254819D01*
X57071428Y-122254819D02*
X57166666Y-122207200D01*
X57166666Y-122207200D02*
X57214285Y-122159580D01*
X57214285Y-122159580D02*
X57261904Y-122064342D01*
X57261904Y-122064342D02*
X57261904Y-121826247D01*
X57261904Y-121826247D02*
X57214285Y-121731009D01*
X57214285Y-121731009D02*
X57166666Y-121683390D01*
X57166666Y-121683390D02*
X57071428Y-121635771D01*
X57071428Y-121635771D02*
X56880952Y-121635771D01*
X56880952Y-121635771D02*
X56785714Y-121683390D01*
X56785714Y-121683390D02*
X56738095Y-121731009D01*
X56738095Y-121731009D02*
X56690476Y-121826247D01*
X56857142Y-102754819D02*
X56523809Y-102278628D01*
X56285714Y-102754819D02*
X56285714Y-101754819D01*
X56285714Y-101754819D02*
X56666666Y-101754819D01*
X56666666Y-101754819D02*
X56761904Y-101802438D01*
X56761904Y-101802438D02*
X56809523Y-101850057D01*
X56809523Y-101850057D02*
X56857142Y-101945295D01*
X56857142Y-101945295D02*
X56857142Y-102088152D01*
X56857142Y-102088152D02*
X56809523Y-102183390D01*
X56809523Y-102183390D02*
X56761904Y-102231009D01*
X56761904Y-102231009D02*
X56666666Y-102278628D01*
X56666666Y-102278628D02*
X56285714Y-102278628D01*
X57238095Y-101850057D02*
X57285714Y-101802438D01*
X57285714Y-101802438D02*
X57380952Y-101754819D01*
X57380952Y-101754819D02*
X57619047Y-101754819D01*
X57619047Y-101754819D02*
X57714285Y-101802438D01*
X57714285Y-101802438D02*
X57761904Y-101850057D01*
X57761904Y-101850057D02*
X57809523Y-101945295D01*
X57809523Y-101945295D02*
X57809523Y-102040533D01*
X57809523Y-102040533D02*
X57761904Y-102183390D01*
X57761904Y-102183390D02*
X57190476Y-102754819D01*
X57190476Y-102754819D02*
X57809523Y-102754819D01*
X58428571Y-101754819D02*
X58523809Y-101754819D01*
X58523809Y-101754819D02*
X58619047Y-101802438D01*
X58619047Y-101802438D02*
X58666666Y-101850057D01*
X58666666Y-101850057D02*
X58714285Y-101945295D01*
X58714285Y-101945295D02*
X58761904Y-102135771D01*
X58761904Y-102135771D02*
X58761904Y-102373866D01*
X58761904Y-102373866D02*
X58714285Y-102564342D01*
X58714285Y-102564342D02*
X58666666Y-102659580D01*
X58666666Y-102659580D02*
X58619047Y-102707200D01*
X58619047Y-102707200D02*
X58523809Y-102754819D01*
X58523809Y-102754819D02*
X58428571Y-102754819D01*
X58428571Y-102754819D02*
X58333333Y-102707200D01*
X58333333Y-102707200D02*
X58285714Y-102659580D01*
X58285714Y-102659580D02*
X58238095Y-102564342D01*
X58238095Y-102564342D02*
X58190476Y-102373866D01*
X58190476Y-102373866D02*
X58190476Y-102135771D01*
X58190476Y-102135771D02*
X58238095Y-101945295D01*
X58238095Y-101945295D02*
X58285714Y-101850057D01*
X58285714Y-101850057D02*
X58333333Y-101802438D01*
X58333333Y-101802438D02*
X58428571Y-101754819D01*
X39504761Y-122650057D02*
X39409523Y-122602438D01*
X39409523Y-122602438D02*
X39314285Y-122507200D01*
X39314285Y-122507200D02*
X39171428Y-122364342D01*
X39171428Y-122364342D02*
X39076190Y-122316723D01*
X39076190Y-122316723D02*
X38980952Y-122316723D01*
X39028571Y-122554819D02*
X38933333Y-122507200D01*
X38933333Y-122507200D02*
X38838095Y-122411961D01*
X38838095Y-122411961D02*
X38790476Y-122221485D01*
X38790476Y-122221485D02*
X38790476Y-121888152D01*
X38790476Y-121888152D02*
X38838095Y-121697676D01*
X38838095Y-121697676D02*
X38933333Y-121602438D01*
X38933333Y-121602438D02*
X39028571Y-121554819D01*
X39028571Y-121554819D02*
X39219047Y-121554819D01*
X39219047Y-121554819D02*
X39314285Y-121602438D01*
X39314285Y-121602438D02*
X39409523Y-121697676D01*
X39409523Y-121697676D02*
X39457142Y-121888152D01*
X39457142Y-121888152D02*
X39457142Y-122221485D01*
X39457142Y-122221485D02*
X39409523Y-122411961D01*
X39409523Y-122411961D02*
X39314285Y-122507200D01*
X39314285Y-122507200D02*
X39219047Y-122554819D01*
X39219047Y-122554819D02*
X39028571Y-122554819D01*
X40314285Y-121554819D02*
X40123809Y-121554819D01*
X40123809Y-121554819D02*
X40028571Y-121602438D01*
X40028571Y-121602438D02*
X39980952Y-121650057D01*
X39980952Y-121650057D02*
X39885714Y-121792914D01*
X39885714Y-121792914D02*
X39838095Y-121983390D01*
X39838095Y-121983390D02*
X39838095Y-122364342D01*
X39838095Y-122364342D02*
X39885714Y-122459580D01*
X39885714Y-122459580D02*
X39933333Y-122507200D01*
X39933333Y-122507200D02*
X40028571Y-122554819D01*
X40028571Y-122554819D02*
X40219047Y-122554819D01*
X40219047Y-122554819D02*
X40314285Y-122507200D01*
X40314285Y-122507200D02*
X40361904Y-122459580D01*
X40361904Y-122459580D02*
X40409523Y-122364342D01*
X40409523Y-122364342D02*
X40409523Y-122126247D01*
X40409523Y-122126247D02*
X40361904Y-122031009D01*
X40361904Y-122031009D02*
X40314285Y-121983390D01*
X40314285Y-121983390D02*
X40219047Y-121935771D01*
X40219047Y-121935771D02*
X40028571Y-121935771D01*
X40028571Y-121935771D02*
X39933333Y-121983390D01*
X39933333Y-121983390D02*
X39885714Y-122031009D01*
X39885714Y-122031009D02*
X39838095Y-122126247D01*
X56761905Y-107504819D02*
X56761905Y-106504819D01*
X56761905Y-106504819D02*
X57000000Y-106504819D01*
X57000000Y-106504819D02*
X57142857Y-106552438D01*
X57142857Y-106552438D02*
X57238095Y-106647676D01*
X57238095Y-106647676D02*
X57285714Y-106742914D01*
X57285714Y-106742914D02*
X57333333Y-106933390D01*
X57333333Y-106933390D02*
X57333333Y-107076247D01*
X57333333Y-107076247D02*
X57285714Y-107266723D01*
X57285714Y-107266723D02*
X57238095Y-107361961D01*
X57238095Y-107361961D02*
X57142857Y-107457200D01*
X57142857Y-107457200D02*
X57000000Y-107504819D01*
X57000000Y-107504819D02*
X56761905Y-107504819D01*
X58190476Y-106838152D02*
X58190476Y-107504819D01*
X57952381Y-106457200D02*
X57714286Y-107171485D01*
X57714286Y-107171485D02*
X58333333Y-107171485D01*
X62254761Y-114750057D02*
X62159523Y-114702438D01*
X62159523Y-114702438D02*
X62064285Y-114607200D01*
X62064285Y-114607200D02*
X61921428Y-114464342D01*
X61921428Y-114464342D02*
X61826190Y-114416723D01*
X61826190Y-114416723D02*
X61730952Y-114416723D01*
X61778571Y-114654819D02*
X61683333Y-114607200D01*
X61683333Y-114607200D02*
X61588095Y-114511961D01*
X61588095Y-114511961D02*
X61540476Y-114321485D01*
X61540476Y-114321485D02*
X61540476Y-113988152D01*
X61540476Y-113988152D02*
X61588095Y-113797676D01*
X61588095Y-113797676D02*
X61683333Y-113702438D01*
X61683333Y-113702438D02*
X61778571Y-113654819D01*
X61778571Y-113654819D02*
X61969047Y-113654819D01*
X61969047Y-113654819D02*
X62064285Y-113702438D01*
X62064285Y-113702438D02*
X62159523Y-113797676D01*
X62159523Y-113797676D02*
X62207142Y-113988152D01*
X62207142Y-113988152D02*
X62207142Y-114321485D01*
X62207142Y-114321485D02*
X62159523Y-114511961D01*
X62159523Y-114511961D02*
X62064285Y-114607200D01*
X62064285Y-114607200D02*
X61969047Y-114654819D01*
X61969047Y-114654819D02*
X61778571Y-114654819D01*
X63064285Y-113988152D02*
X63064285Y-114654819D01*
X62826190Y-113607200D02*
X62588095Y-114321485D01*
X62588095Y-114321485D02*
X63207142Y-114321485D01*
X52454819Y-107642857D02*
X51978628Y-107976190D01*
X52454819Y-108214285D02*
X51454819Y-108214285D01*
X51454819Y-108214285D02*
X51454819Y-107833333D01*
X51454819Y-107833333D02*
X51502438Y-107738095D01*
X51502438Y-107738095D02*
X51550057Y-107690476D01*
X51550057Y-107690476D02*
X51645295Y-107642857D01*
X51645295Y-107642857D02*
X51788152Y-107642857D01*
X51788152Y-107642857D02*
X51883390Y-107690476D01*
X51883390Y-107690476D02*
X51931009Y-107738095D01*
X51931009Y-107738095D02*
X51978628Y-107833333D01*
X51978628Y-107833333D02*
X51978628Y-108214285D01*
X51550057Y-107261904D02*
X51502438Y-107214285D01*
X51502438Y-107214285D02*
X51454819Y-107119047D01*
X51454819Y-107119047D02*
X51454819Y-106880952D01*
X51454819Y-106880952D02*
X51502438Y-106785714D01*
X51502438Y-106785714D02*
X51550057Y-106738095D01*
X51550057Y-106738095D02*
X51645295Y-106690476D01*
X51645295Y-106690476D02*
X51740533Y-106690476D01*
X51740533Y-106690476D02*
X51883390Y-106738095D01*
X51883390Y-106738095D02*
X52454819Y-107309523D01*
X52454819Y-107309523D02*
X52454819Y-106690476D01*
X51788152Y-105833333D02*
X52454819Y-105833333D01*
X51407200Y-106071428D02*
X52121485Y-106309523D01*
X52121485Y-106309523D02*
X52121485Y-105690476D01*
X58424819Y-113242857D02*
X57948628Y-113576190D01*
X58424819Y-113814285D02*
X57424819Y-113814285D01*
X57424819Y-113814285D02*
X57424819Y-113433333D01*
X57424819Y-113433333D02*
X57472438Y-113338095D01*
X57472438Y-113338095D02*
X57520057Y-113290476D01*
X57520057Y-113290476D02*
X57615295Y-113242857D01*
X57615295Y-113242857D02*
X57758152Y-113242857D01*
X57758152Y-113242857D02*
X57853390Y-113290476D01*
X57853390Y-113290476D02*
X57901009Y-113338095D01*
X57901009Y-113338095D02*
X57948628Y-113433333D01*
X57948628Y-113433333D02*
X57948628Y-113814285D01*
X58424819Y-112290476D02*
X58424819Y-112861904D01*
X58424819Y-112576190D02*
X57424819Y-112576190D01*
X57424819Y-112576190D02*
X57567676Y-112671428D01*
X57567676Y-112671428D02*
X57662914Y-112766666D01*
X57662914Y-112766666D02*
X57710533Y-112861904D01*
X57424819Y-111957142D02*
X57424819Y-111290476D01*
X57424819Y-111290476D02*
X58424819Y-111719047D01*
X57857142Y-125454819D02*
X57523809Y-124978628D01*
X57285714Y-125454819D02*
X57285714Y-124454819D01*
X57285714Y-124454819D02*
X57666666Y-124454819D01*
X57666666Y-124454819D02*
X57761904Y-124502438D01*
X57761904Y-124502438D02*
X57809523Y-124550057D01*
X57809523Y-124550057D02*
X57857142Y-124645295D01*
X57857142Y-124645295D02*
X57857142Y-124788152D01*
X57857142Y-124788152D02*
X57809523Y-124883390D01*
X57809523Y-124883390D02*
X57761904Y-124931009D01*
X57761904Y-124931009D02*
X57666666Y-124978628D01*
X57666666Y-124978628D02*
X57285714Y-124978628D01*
X58809523Y-125454819D02*
X58238095Y-125454819D01*
X58523809Y-125454819D02*
X58523809Y-124454819D01*
X58523809Y-124454819D02*
X58428571Y-124597676D01*
X58428571Y-124597676D02*
X58333333Y-124692914D01*
X58333333Y-124692914D02*
X58238095Y-124740533D01*
X59714285Y-124454819D02*
X59238095Y-124454819D01*
X59238095Y-124454819D02*
X59190476Y-124931009D01*
X59190476Y-124931009D02*
X59238095Y-124883390D01*
X59238095Y-124883390D02*
X59333333Y-124835771D01*
X59333333Y-124835771D02*
X59571428Y-124835771D01*
X59571428Y-124835771D02*
X59666666Y-124883390D01*
X59666666Y-124883390D02*
X59714285Y-124931009D01*
X59714285Y-124931009D02*
X59761904Y-125026247D01*
X59761904Y-125026247D02*
X59761904Y-125264342D01*
X59761904Y-125264342D02*
X59714285Y-125359580D01*
X59714285Y-125359580D02*
X59666666Y-125407200D01*
X59666666Y-125407200D02*
X59571428Y-125454819D01*
X59571428Y-125454819D02*
X59333333Y-125454819D01*
X59333333Y-125454819D02*
X59238095Y-125407200D01*
X59238095Y-125407200D02*
X59190476Y-125359580D01*
X44604761Y-106450057D02*
X44509523Y-106402438D01*
X44509523Y-106402438D02*
X44414285Y-106307200D01*
X44414285Y-106307200D02*
X44271428Y-106164342D01*
X44271428Y-106164342D02*
X44176190Y-106116723D01*
X44176190Y-106116723D02*
X44080952Y-106116723D01*
X44128571Y-106354819D02*
X44033333Y-106307200D01*
X44033333Y-106307200D02*
X43938095Y-106211961D01*
X43938095Y-106211961D02*
X43890476Y-106021485D01*
X43890476Y-106021485D02*
X43890476Y-105688152D01*
X43890476Y-105688152D02*
X43938095Y-105497676D01*
X43938095Y-105497676D02*
X44033333Y-105402438D01*
X44033333Y-105402438D02*
X44128571Y-105354819D01*
X44128571Y-105354819D02*
X44319047Y-105354819D01*
X44319047Y-105354819D02*
X44414285Y-105402438D01*
X44414285Y-105402438D02*
X44509523Y-105497676D01*
X44509523Y-105497676D02*
X44557142Y-105688152D01*
X44557142Y-105688152D02*
X44557142Y-106021485D01*
X44557142Y-106021485D02*
X44509523Y-106211961D01*
X44509523Y-106211961D02*
X44414285Y-106307200D01*
X44414285Y-106307200D02*
X44319047Y-106354819D01*
X44319047Y-106354819D02*
X44128571Y-106354819D01*
X45461904Y-105354819D02*
X44985714Y-105354819D01*
X44985714Y-105354819D02*
X44938095Y-105831009D01*
X44938095Y-105831009D02*
X44985714Y-105783390D01*
X44985714Y-105783390D02*
X45080952Y-105735771D01*
X45080952Y-105735771D02*
X45319047Y-105735771D01*
X45319047Y-105735771D02*
X45414285Y-105783390D01*
X45414285Y-105783390D02*
X45461904Y-105831009D01*
X45461904Y-105831009D02*
X45509523Y-105926247D01*
X45509523Y-105926247D02*
X45509523Y-106164342D01*
X45509523Y-106164342D02*
X45461904Y-106259580D01*
X45461904Y-106259580D02*
X45414285Y-106307200D01*
X45414285Y-106307200D02*
X45319047Y-106354819D01*
X45319047Y-106354819D02*
X45080952Y-106354819D01*
X45080952Y-106354819D02*
X44985714Y-106307200D01*
X44985714Y-106307200D02*
X44938095Y-106259580D01*
X55084819Y-113142857D02*
X54608628Y-113476190D01*
X55084819Y-113714285D02*
X54084819Y-113714285D01*
X54084819Y-113714285D02*
X54084819Y-113333333D01*
X54084819Y-113333333D02*
X54132438Y-113238095D01*
X54132438Y-113238095D02*
X54180057Y-113190476D01*
X54180057Y-113190476D02*
X54275295Y-113142857D01*
X54275295Y-113142857D02*
X54418152Y-113142857D01*
X54418152Y-113142857D02*
X54513390Y-113190476D01*
X54513390Y-113190476D02*
X54561009Y-113238095D01*
X54561009Y-113238095D02*
X54608628Y-113333333D01*
X54608628Y-113333333D02*
X54608628Y-113714285D01*
X55084819Y-112190476D02*
X55084819Y-112761904D01*
X55084819Y-112476190D02*
X54084819Y-112476190D01*
X54084819Y-112476190D02*
X54227676Y-112571428D01*
X54227676Y-112571428D02*
X54322914Y-112666666D01*
X54322914Y-112666666D02*
X54370533Y-112761904D01*
X54418152Y-111333333D02*
X55084819Y-111333333D01*
X54037200Y-111571428D02*
X54751485Y-111809523D01*
X54751485Y-111809523D02*
X54751485Y-111190476D01*
X67754819Y-121833333D02*
X68469104Y-121833333D01*
X68469104Y-121833333D02*
X68611961Y-121880952D01*
X68611961Y-121880952D02*
X68707200Y-121976190D01*
X68707200Y-121976190D02*
X68754819Y-122119047D01*
X68754819Y-122119047D02*
X68754819Y-122214285D01*
X68183390Y-121214285D02*
X68135771Y-121309523D01*
X68135771Y-121309523D02*
X68088152Y-121357142D01*
X68088152Y-121357142D02*
X67992914Y-121404761D01*
X67992914Y-121404761D02*
X67945295Y-121404761D01*
X67945295Y-121404761D02*
X67850057Y-121357142D01*
X67850057Y-121357142D02*
X67802438Y-121309523D01*
X67802438Y-121309523D02*
X67754819Y-121214285D01*
X67754819Y-121214285D02*
X67754819Y-121023809D01*
X67754819Y-121023809D02*
X67802438Y-120928571D01*
X67802438Y-120928571D02*
X67850057Y-120880952D01*
X67850057Y-120880952D02*
X67945295Y-120833333D01*
X67945295Y-120833333D02*
X67992914Y-120833333D01*
X67992914Y-120833333D02*
X68088152Y-120880952D01*
X68088152Y-120880952D02*
X68135771Y-120928571D01*
X68135771Y-120928571D02*
X68183390Y-121023809D01*
X68183390Y-121023809D02*
X68183390Y-121214285D01*
X68183390Y-121214285D02*
X68231009Y-121309523D01*
X68231009Y-121309523D02*
X68278628Y-121357142D01*
X68278628Y-121357142D02*
X68373866Y-121404761D01*
X68373866Y-121404761D02*
X68564342Y-121404761D01*
X68564342Y-121404761D02*
X68659580Y-121357142D01*
X68659580Y-121357142D02*
X68707200Y-121309523D01*
X68707200Y-121309523D02*
X68754819Y-121214285D01*
X68754819Y-121214285D02*
X68754819Y-121023809D01*
X68754819Y-121023809D02*
X68707200Y-120928571D01*
X68707200Y-120928571D02*
X68659580Y-120880952D01*
X68659580Y-120880952D02*
X68564342Y-120833333D01*
X68564342Y-120833333D02*
X68373866Y-120833333D01*
X68373866Y-120833333D02*
X68278628Y-120880952D01*
X68278628Y-120880952D02*
X68231009Y-120928571D01*
X68231009Y-120928571D02*
X68183390Y-121023809D01*
X47231666Y-120279819D02*
X47231666Y-120994104D01*
X47231666Y-120994104D02*
X47184047Y-121136961D01*
X47184047Y-121136961D02*
X47088809Y-121232200D01*
X47088809Y-121232200D02*
X46945952Y-121279819D01*
X46945952Y-121279819D02*
X46850714Y-121279819D01*
X47612619Y-120279819D02*
X48279285Y-120279819D01*
X48279285Y-120279819D02*
X47850714Y-121279819D01*
X41738095Y-108154819D02*
X41738095Y-107154819D01*
X41738095Y-107631009D02*
X42309523Y-107631009D01*
X42309523Y-108154819D02*
X42309523Y-107154819D01*
X43214285Y-107488152D02*
X43214285Y-108154819D01*
X42976190Y-107107200D02*
X42738095Y-107821485D01*
X42738095Y-107821485D02*
X43357142Y-107821485D01*
X65224819Y-107938094D02*
X64224819Y-107938094D01*
X64224819Y-107938094D02*
X64224819Y-107699999D01*
X64224819Y-107699999D02*
X64272438Y-107557142D01*
X64272438Y-107557142D02*
X64367676Y-107461904D01*
X64367676Y-107461904D02*
X64462914Y-107414285D01*
X64462914Y-107414285D02*
X64653390Y-107366666D01*
X64653390Y-107366666D02*
X64796247Y-107366666D01*
X64796247Y-107366666D02*
X64986723Y-107414285D01*
X64986723Y-107414285D02*
X65081961Y-107461904D01*
X65081961Y-107461904D02*
X65177200Y-107557142D01*
X65177200Y-107557142D02*
X65224819Y-107699999D01*
X65224819Y-107699999D02*
X65224819Y-107938094D01*
X64224819Y-107033332D02*
X64224819Y-106414285D01*
X64224819Y-106414285D02*
X64605771Y-106747618D01*
X64605771Y-106747618D02*
X64605771Y-106604761D01*
X64605771Y-106604761D02*
X64653390Y-106509523D01*
X64653390Y-106509523D02*
X64701009Y-106461904D01*
X64701009Y-106461904D02*
X64796247Y-106414285D01*
X64796247Y-106414285D02*
X65034342Y-106414285D01*
X65034342Y-106414285D02*
X65129580Y-106461904D01*
X65129580Y-106461904D02*
X65177200Y-106509523D01*
X65177200Y-106509523D02*
X65224819Y-106604761D01*
X65224819Y-106604761D02*
X65224819Y-106890475D01*
X65224819Y-106890475D02*
X65177200Y-106985713D01*
X65177200Y-106985713D02*
X65129580Y-107033332D01*
X59384819Y-119342857D02*
X58908628Y-119676190D01*
X59384819Y-119914285D02*
X58384819Y-119914285D01*
X58384819Y-119914285D02*
X58384819Y-119533333D01*
X58384819Y-119533333D02*
X58432438Y-119438095D01*
X58432438Y-119438095D02*
X58480057Y-119390476D01*
X58480057Y-119390476D02*
X58575295Y-119342857D01*
X58575295Y-119342857D02*
X58718152Y-119342857D01*
X58718152Y-119342857D02*
X58813390Y-119390476D01*
X58813390Y-119390476D02*
X58861009Y-119438095D01*
X58861009Y-119438095D02*
X58908628Y-119533333D01*
X58908628Y-119533333D02*
X58908628Y-119914285D01*
X58480057Y-118961904D02*
X58432438Y-118914285D01*
X58432438Y-118914285D02*
X58384819Y-118819047D01*
X58384819Y-118819047D02*
X58384819Y-118580952D01*
X58384819Y-118580952D02*
X58432438Y-118485714D01*
X58432438Y-118485714D02*
X58480057Y-118438095D01*
X58480057Y-118438095D02*
X58575295Y-118390476D01*
X58575295Y-118390476D02*
X58670533Y-118390476D01*
X58670533Y-118390476D02*
X58813390Y-118438095D01*
X58813390Y-118438095D02*
X59384819Y-119009523D01*
X59384819Y-119009523D02*
X59384819Y-118390476D01*
X58480057Y-118009523D02*
X58432438Y-117961904D01*
X58432438Y-117961904D02*
X58384819Y-117866666D01*
X58384819Y-117866666D02*
X58384819Y-117628571D01*
X58384819Y-117628571D02*
X58432438Y-117533333D01*
X58432438Y-117533333D02*
X58480057Y-117485714D01*
X58480057Y-117485714D02*
X58575295Y-117438095D01*
X58575295Y-117438095D02*
X58670533Y-117438095D01*
X58670533Y-117438095D02*
X58813390Y-117485714D01*
X58813390Y-117485714D02*
X59384819Y-118057142D01*
X59384819Y-118057142D02*
X59384819Y-117438095D01*
X61757142Y-107854819D02*
X61423809Y-107378628D01*
X61185714Y-107854819D02*
X61185714Y-106854819D01*
X61185714Y-106854819D02*
X61566666Y-106854819D01*
X61566666Y-106854819D02*
X61661904Y-106902438D01*
X61661904Y-106902438D02*
X61709523Y-106950057D01*
X61709523Y-106950057D02*
X61757142Y-107045295D01*
X61757142Y-107045295D02*
X61757142Y-107188152D01*
X61757142Y-107188152D02*
X61709523Y-107283390D01*
X61709523Y-107283390D02*
X61661904Y-107331009D01*
X61661904Y-107331009D02*
X61566666Y-107378628D01*
X61566666Y-107378628D02*
X61185714Y-107378628D01*
X62138095Y-106950057D02*
X62185714Y-106902438D01*
X62185714Y-106902438D02*
X62280952Y-106854819D01*
X62280952Y-106854819D02*
X62519047Y-106854819D01*
X62519047Y-106854819D02*
X62614285Y-106902438D01*
X62614285Y-106902438D02*
X62661904Y-106950057D01*
X62661904Y-106950057D02*
X62709523Y-107045295D01*
X62709523Y-107045295D02*
X62709523Y-107140533D01*
X62709523Y-107140533D02*
X62661904Y-107283390D01*
X62661904Y-107283390D02*
X62090476Y-107854819D01*
X62090476Y-107854819D02*
X62709523Y-107854819D01*
X63661904Y-107854819D02*
X63090476Y-107854819D01*
X63376190Y-107854819D02*
X63376190Y-106854819D01*
X63376190Y-106854819D02*
X63280952Y-106997676D01*
X63280952Y-106997676D02*
X63185714Y-107092914D01*
X63185714Y-107092914D02*
X63090476Y-107140533D01*
X40957142Y-119624819D02*
X40623809Y-119148628D01*
X40385714Y-119624819D02*
X40385714Y-118624819D01*
X40385714Y-118624819D02*
X40766666Y-118624819D01*
X40766666Y-118624819D02*
X40861904Y-118672438D01*
X40861904Y-118672438D02*
X40909523Y-118720057D01*
X40909523Y-118720057D02*
X40957142Y-118815295D01*
X40957142Y-118815295D02*
X40957142Y-118958152D01*
X40957142Y-118958152D02*
X40909523Y-119053390D01*
X40909523Y-119053390D02*
X40861904Y-119101009D01*
X40861904Y-119101009D02*
X40766666Y-119148628D01*
X40766666Y-119148628D02*
X40385714Y-119148628D01*
X41338095Y-118720057D02*
X41385714Y-118672438D01*
X41385714Y-118672438D02*
X41480952Y-118624819D01*
X41480952Y-118624819D02*
X41719047Y-118624819D01*
X41719047Y-118624819D02*
X41814285Y-118672438D01*
X41814285Y-118672438D02*
X41861904Y-118720057D01*
X41861904Y-118720057D02*
X41909523Y-118815295D01*
X41909523Y-118815295D02*
X41909523Y-118910533D01*
X41909523Y-118910533D02*
X41861904Y-119053390D01*
X41861904Y-119053390D02*
X41290476Y-119624819D01*
X41290476Y-119624819D02*
X41909523Y-119624819D01*
X42814285Y-118624819D02*
X42338095Y-118624819D01*
X42338095Y-118624819D02*
X42290476Y-119101009D01*
X42290476Y-119101009D02*
X42338095Y-119053390D01*
X42338095Y-119053390D02*
X42433333Y-119005771D01*
X42433333Y-119005771D02*
X42671428Y-119005771D01*
X42671428Y-119005771D02*
X42766666Y-119053390D01*
X42766666Y-119053390D02*
X42814285Y-119101009D01*
X42814285Y-119101009D02*
X42861904Y-119196247D01*
X42861904Y-119196247D02*
X42861904Y-119434342D01*
X42861904Y-119434342D02*
X42814285Y-119529580D01*
X42814285Y-119529580D02*
X42766666Y-119577200D01*
X42766666Y-119577200D02*
X42671428Y-119624819D01*
X42671428Y-119624819D02*
X42433333Y-119624819D01*
X42433333Y-119624819D02*
X42338095Y-119577200D01*
X42338095Y-119577200D02*
X42290476Y-119529580D01*
X62624819Y-117117857D02*
X62148628Y-117451190D01*
X62624819Y-117689285D02*
X61624819Y-117689285D01*
X61624819Y-117689285D02*
X61624819Y-117308333D01*
X61624819Y-117308333D02*
X61672438Y-117213095D01*
X61672438Y-117213095D02*
X61720057Y-117165476D01*
X61720057Y-117165476D02*
X61815295Y-117117857D01*
X61815295Y-117117857D02*
X61958152Y-117117857D01*
X61958152Y-117117857D02*
X62053390Y-117165476D01*
X62053390Y-117165476D02*
X62101009Y-117213095D01*
X62101009Y-117213095D02*
X62148628Y-117308333D01*
X62148628Y-117308333D02*
X62148628Y-117689285D01*
X62624819Y-116165476D02*
X62624819Y-116736904D01*
X62624819Y-116451190D02*
X61624819Y-116451190D01*
X61624819Y-116451190D02*
X61767676Y-116546428D01*
X61767676Y-116546428D02*
X61862914Y-116641666D01*
X61862914Y-116641666D02*
X61910533Y-116736904D01*
X62053390Y-115594047D02*
X62005771Y-115689285D01*
X62005771Y-115689285D02*
X61958152Y-115736904D01*
X61958152Y-115736904D02*
X61862914Y-115784523D01*
X61862914Y-115784523D02*
X61815295Y-115784523D01*
X61815295Y-115784523D02*
X61720057Y-115736904D01*
X61720057Y-115736904D02*
X61672438Y-115689285D01*
X61672438Y-115689285D02*
X61624819Y-115594047D01*
X61624819Y-115594047D02*
X61624819Y-115403571D01*
X61624819Y-115403571D02*
X61672438Y-115308333D01*
X61672438Y-115308333D02*
X61720057Y-115260714D01*
X61720057Y-115260714D02*
X61815295Y-115213095D01*
X61815295Y-115213095D02*
X61862914Y-115213095D01*
X61862914Y-115213095D02*
X61958152Y-115260714D01*
X61958152Y-115260714D02*
X62005771Y-115308333D01*
X62005771Y-115308333D02*
X62053390Y-115403571D01*
X62053390Y-115403571D02*
X62053390Y-115594047D01*
X62053390Y-115594047D02*
X62101009Y-115689285D01*
X62101009Y-115689285D02*
X62148628Y-115736904D01*
X62148628Y-115736904D02*
X62243866Y-115784523D01*
X62243866Y-115784523D02*
X62434342Y-115784523D01*
X62434342Y-115784523D02*
X62529580Y-115736904D01*
X62529580Y-115736904D02*
X62577200Y-115689285D01*
X62577200Y-115689285D02*
X62624819Y-115594047D01*
X62624819Y-115594047D02*
X62624819Y-115403571D01*
X62624819Y-115403571D02*
X62577200Y-115308333D01*
X62577200Y-115308333D02*
X62529580Y-115260714D01*
X62529580Y-115260714D02*
X62434342Y-115213095D01*
X62434342Y-115213095D02*
X62243866Y-115213095D01*
X62243866Y-115213095D02*
X62148628Y-115260714D01*
X62148628Y-115260714D02*
X62101009Y-115308333D01*
X62101009Y-115308333D02*
X62053390Y-115403571D01*
X52738095Y-121654819D02*
X52738095Y-122464342D01*
X52738095Y-122464342D02*
X52785714Y-122559580D01*
X52785714Y-122559580D02*
X52833333Y-122607200D01*
X52833333Y-122607200D02*
X52928571Y-122654819D01*
X52928571Y-122654819D02*
X53119047Y-122654819D01*
X53119047Y-122654819D02*
X53214285Y-122607200D01*
X53214285Y-122607200D02*
X53261904Y-122559580D01*
X53261904Y-122559580D02*
X53309523Y-122464342D01*
X53309523Y-122464342D02*
X53309523Y-121654819D01*
X53690476Y-121654819D02*
X54309523Y-121654819D01*
X54309523Y-121654819D02*
X53976190Y-122035771D01*
X53976190Y-122035771D02*
X54119047Y-122035771D01*
X54119047Y-122035771D02*
X54214285Y-122083390D01*
X54214285Y-122083390D02*
X54261904Y-122131009D01*
X54261904Y-122131009D02*
X54309523Y-122226247D01*
X54309523Y-122226247D02*
X54309523Y-122464342D01*
X54309523Y-122464342D02*
X54261904Y-122559580D01*
X54261904Y-122559580D02*
X54214285Y-122607200D01*
X54214285Y-122607200D02*
X54119047Y-122654819D01*
X54119047Y-122654819D02*
X53833333Y-122654819D01*
X53833333Y-122654819D02*
X53738095Y-122607200D01*
X53738095Y-122607200D02*
X53690476Y-122559580D01*
X61784819Y-122142857D02*
X61308628Y-122476190D01*
X61784819Y-122714285D02*
X60784819Y-122714285D01*
X60784819Y-122714285D02*
X60784819Y-122333333D01*
X60784819Y-122333333D02*
X60832438Y-122238095D01*
X60832438Y-122238095D02*
X60880057Y-122190476D01*
X60880057Y-122190476D02*
X60975295Y-122142857D01*
X60975295Y-122142857D02*
X61118152Y-122142857D01*
X61118152Y-122142857D02*
X61213390Y-122190476D01*
X61213390Y-122190476D02*
X61261009Y-122238095D01*
X61261009Y-122238095D02*
X61308628Y-122333333D01*
X61308628Y-122333333D02*
X61308628Y-122714285D01*
X61784819Y-121190476D02*
X61784819Y-121761904D01*
X61784819Y-121476190D02*
X60784819Y-121476190D01*
X60784819Y-121476190D02*
X60927676Y-121571428D01*
X60927676Y-121571428D02*
X61022914Y-121666666D01*
X61022914Y-121666666D02*
X61070533Y-121761904D01*
X61784819Y-120714285D02*
X61784819Y-120523809D01*
X61784819Y-120523809D02*
X61737200Y-120428571D01*
X61737200Y-120428571D02*
X61689580Y-120380952D01*
X61689580Y-120380952D02*
X61546723Y-120285714D01*
X61546723Y-120285714D02*
X61356247Y-120238095D01*
X61356247Y-120238095D02*
X60975295Y-120238095D01*
X60975295Y-120238095D02*
X60880057Y-120285714D01*
X60880057Y-120285714D02*
X60832438Y-120333333D01*
X60832438Y-120333333D02*
X60784819Y-120428571D01*
X60784819Y-120428571D02*
X60784819Y-120619047D01*
X60784819Y-120619047D02*
X60832438Y-120714285D01*
X60832438Y-120714285D02*
X60880057Y-120761904D01*
X60880057Y-120761904D02*
X60975295Y-120809523D01*
X60975295Y-120809523D02*
X61213390Y-120809523D01*
X61213390Y-120809523D02*
X61308628Y-120761904D01*
X61308628Y-120761904D02*
X61356247Y-120714285D01*
X61356247Y-120714285D02*
X61403866Y-120619047D01*
X61403866Y-120619047D02*
X61403866Y-120428571D01*
X61403866Y-120428571D02*
X61356247Y-120333333D01*
X61356247Y-120333333D02*
X61308628Y-120285714D01*
X61308628Y-120285714D02*
X61213390Y-120238095D01*
X50024819Y-112342857D02*
X49548628Y-112676190D01*
X50024819Y-112914285D02*
X49024819Y-112914285D01*
X49024819Y-112914285D02*
X49024819Y-112533333D01*
X49024819Y-112533333D02*
X49072438Y-112438095D01*
X49072438Y-112438095D02*
X49120057Y-112390476D01*
X49120057Y-112390476D02*
X49215295Y-112342857D01*
X49215295Y-112342857D02*
X49358152Y-112342857D01*
X49358152Y-112342857D02*
X49453390Y-112390476D01*
X49453390Y-112390476D02*
X49501009Y-112438095D01*
X49501009Y-112438095D02*
X49548628Y-112533333D01*
X49548628Y-112533333D02*
X49548628Y-112914285D01*
X49120057Y-111961904D02*
X49072438Y-111914285D01*
X49072438Y-111914285D02*
X49024819Y-111819047D01*
X49024819Y-111819047D02*
X49024819Y-111580952D01*
X49024819Y-111580952D02*
X49072438Y-111485714D01*
X49072438Y-111485714D02*
X49120057Y-111438095D01*
X49120057Y-111438095D02*
X49215295Y-111390476D01*
X49215295Y-111390476D02*
X49310533Y-111390476D01*
X49310533Y-111390476D02*
X49453390Y-111438095D01*
X49453390Y-111438095D02*
X50024819Y-112009523D01*
X50024819Y-112009523D02*
X50024819Y-111390476D01*
X49024819Y-111057142D02*
X49024819Y-110438095D01*
X49024819Y-110438095D02*
X49405771Y-110771428D01*
X49405771Y-110771428D02*
X49405771Y-110628571D01*
X49405771Y-110628571D02*
X49453390Y-110533333D01*
X49453390Y-110533333D02*
X49501009Y-110485714D01*
X49501009Y-110485714D02*
X49596247Y-110438095D01*
X49596247Y-110438095D02*
X49834342Y-110438095D01*
X49834342Y-110438095D02*
X49929580Y-110485714D01*
X49929580Y-110485714D02*
X49977200Y-110533333D01*
X49977200Y-110533333D02*
X50024819Y-110628571D01*
X50024819Y-110628571D02*
X50024819Y-110914285D01*
X50024819Y-110914285D02*
X49977200Y-111009523D01*
X49977200Y-111009523D02*
X49929580Y-111057142D01*
D11*
%TO.C,C1*%
X23690000Y-107540580D02*
X23690000Y-107259420D01*
X24710000Y-107540580D02*
X24710000Y-107259420D01*
%TO.C,D2*%
X30960000Y-118280000D02*
X30960000Y-116870000D01*
X28640000Y-116870000D02*
X28640000Y-118900000D01*
X28640000Y-116870000D02*
X29300000Y-116870000D01*
X30300000Y-116870000D02*
X30960000Y-116870000D01*
%TO.C,Q1*%
X33440000Y-114900000D02*
X33440000Y-116300000D01*
X35760000Y-116300000D02*
X35760000Y-114400000D01*
%TO.C,Q2*%
X18760000Y-118800000D02*
X18760000Y-117125000D01*
X18760000Y-118800000D02*
X18760000Y-119450000D01*
X15640000Y-118800000D02*
X15640000Y-118150000D01*
X15640000Y-118800000D02*
X15640000Y-119450000D01*
%TO.C,R1*%
X33862742Y-119077500D02*
X34337258Y-119077500D01*
X33862742Y-120122500D02*
X34337258Y-120122500D01*
%TO.C,R2*%
X29737258Y-104022500D02*
X29262742Y-104022500D01*
X29737258Y-102977500D02*
X29262742Y-102977500D01*
%TO.C,R4*%
X28762742Y-106977500D02*
X29237258Y-106977500D01*
X28762742Y-108022500D02*
X29237258Y-108022500D01*
%TO.C,R8*%
X32522500Y-115362742D02*
X32522500Y-115837258D01*
X31477500Y-115362742D02*
X31477500Y-115837258D01*
%TO.C,R9*%
X33937258Y-113322500D02*
X33462742Y-113322500D01*
X33937258Y-112277500D02*
X33462742Y-112277500D01*
%TO.C,R10*%
X25749758Y-120222500D02*
X25275242Y-120222500D01*
X25749758Y-119177500D02*
X25275242Y-119177500D01*
%TO.C,R11*%
X21737258Y-120222500D02*
X21262742Y-120222500D01*
X21737258Y-119177500D02*
X21262742Y-119177500D01*
%TO.C,U2*%
X26600000Y-109140000D02*
X23150000Y-109140000D01*
X26600000Y-109140000D02*
X28550000Y-109140000D01*
X26600000Y-114260000D02*
X24650000Y-114260000D01*
X26600000Y-114260000D02*
X28550000Y-114260000D01*
%TO.C,J5*%
X27530000Y-101100000D02*
X27530000Y-102230000D01*
X26770000Y-101100000D02*
X27530000Y-101100000D01*
X26010000Y-101100000D02*
X23535000Y-101100000D01*
X26010000Y-101100000D02*
X26010000Y-101666529D01*
X23535000Y-101100000D02*
X23535000Y-101922470D01*
X23535000Y-102537530D02*
X23535000Y-103192470D01*
X26010000Y-102793471D02*
X26010000Y-102936529D01*
X27465000Y-102990000D02*
X27465000Y-103192470D01*
X27333471Y-102990000D02*
X27465000Y-102990000D01*
X26063471Y-102990000D02*
X26206529Y-102990000D01*
X27465000Y-103807530D02*
X27465000Y-104630000D01*
X23535000Y-103807530D02*
X23535000Y-104630000D01*
X27465000Y-104630000D02*
X23535000Y-104630000D01*
%TO.C,Q3*%
X23760000Y-116500000D02*
X23760000Y-114825000D01*
X23760000Y-116500000D02*
X23760000Y-117150000D01*
X20640000Y-116500000D02*
X20640000Y-115850000D01*
X20640000Y-116500000D02*
X20640000Y-117150000D01*
%TO.C,R12*%
X21622500Y-109450242D02*
X21622500Y-109924758D01*
X20577500Y-109450242D02*
X20577500Y-109924758D01*
%TO.C,R6*%
X37322500Y-117862742D02*
X37322500Y-118337258D01*
X36277500Y-117862742D02*
X36277500Y-118337258D01*
%TO.C,D1*%
X37315000Y-103365000D02*
X37315000Y-104835000D01*
X37315000Y-104835000D02*
X39600000Y-104835000D01*
X39600000Y-103365000D02*
X37315000Y-103365000D01*
%TO.C,R3*%
X29237258Y-106522500D02*
X28762742Y-106522500D01*
X29237258Y-105477500D02*
X28762742Y-105477500D01*
%TO.C,R7*%
X36060000Y-124000000D02*
X35960000Y-124000000D01*
X35960000Y-127120000D02*
X35960000Y-120880000D01*
X35960000Y-120880000D02*
X18720000Y-120880000D01*
X18720000Y-127120000D02*
X35960000Y-127120000D01*
X18720000Y-120880000D02*
X18720000Y-127120000D01*
X18620000Y-124000000D02*
X18720000Y-124000000D01*
%TO.C,J2*%
X20285000Y-101890000D02*
X20285000Y-102940000D01*
X17785000Y-101890000D02*
X20285000Y-101890000D01*
X20285000Y-102940000D02*
X21275000Y-102940000D01*
X15815000Y-103060000D02*
X15815000Y-105940000D01*
X20285000Y-107110000D02*
X20285000Y-106060000D01*
X17785000Y-107110000D02*
X20285000Y-107110000D01*
%TO.C,R13*%
X18777500Y-109937258D02*
X18777500Y-109462742D01*
X19822500Y-109937258D02*
X19822500Y-109462742D01*
%TO.C,U1*%
X26200000Y-114840000D02*
X24525000Y-114840000D01*
X26200000Y-114840000D02*
X26850000Y-114840000D01*
X26200000Y-117960000D02*
X25550000Y-117960000D01*
X26200000Y-117960000D02*
X26850000Y-117960000D01*
%TO.C,R5*%
X35062742Y-103577500D02*
X35537258Y-103577500D01*
X35062742Y-104622500D02*
X35537258Y-104622500D01*
%TO.C,C2*%
X50284420Y-114490000D02*
X50565580Y-114490000D01*
X50284420Y-115510000D02*
X50565580Y-115510000D01*
%TO.C,U4*%
X52200000Y-116140000D02*
X48750000Y-116140000D01*
X52200000Y-116140000D02*
X54150000Y-116140000D01*
X52200000Y-121260000D02*
X50250000Y-121260000D01*
X52200000Y-121260000D02*
X54150000Y-121260000D01*
%TO.C,R16*%
X55262742Y-122577500D02*
X55737258Y-122577500D01*
X55262742Y-123622500D02*
X55737258Y-123622500D01*
%TO.C,R20*%
X66060000Y-102000000D02*
X65960000Y-102000000D01*
X65960000Y-105120000D02*
X65960000Y-98880000D01*
X65960000Y-98880000D02*
X48720000Y-98880000D01*
X48720000Y-105120000D02*
X65960000Y-105120000D01*
X48720000Y-98880000D02*
X48720000Y-105120000D01*
X48620000Y-102000000D02*
X48720000Y-102000000D01*
%TO.C,Q6*%
X43860000Y-123700000D02*
X43860000Y-122025000D01*
X43860000Y-123700000D02*
X43860000Y-124350000D01*
X40740000Y-123700000D02*
X40740000Y-123050000D01*
X40740000Y-123700000D02*
X40740000Y-124350000D01*
%TO.C,D4*%
X58660000Y-110080000D02*
X58660000Y-108670000D01*
X56340000Y-108670000D02*
X56340000Y-110700000D01*
X56340000Y-108670000D02*
X57000000Y-108670000D01*
X58000000Y-108670000D02*
X58660000Y-108670000D01*
%TO.C,Q4*%
X60740000Y-111100000D02*
X60740000Y-112500000D01*
X63060000Y-112500000D02*
X63060000Y-110600000D01*
%TO.C,R24*%
X49977500Y-107237258D02*
X49977500Y-106762742D01*
X51022500Y-107237258D02*
X51022500Y-106762742D01*
%TO.C,R17*%
X58877500Y-112837258D02*
X58877500Y-112362742D01*
X59922500Y-112837258D02*
X59922500Y-112362742D01*
%TO.C,R15*%
X55737258Y-125222500D02*
X55262742Y-125222500D01*
X55737258Y-124177500D02*
X55262742Y-124177500D01*
%TO.C,Q5*%
X47600000Y-108560000D02*
X49275000Y-108560000D01*
X47600000Y-108560000D02*
X46950000Y-108560000D01*
X47600000Y-105440000D02*
X48250000Y-105440000D01*
X47600000Y-105440000D02*
X46950000Y-105440000D01*
%TO.C,R14*%
X53722500Y-112262742D02*
X53722500Y-112737258D01*
X52677500Y-112262742D02*
X52677500Y-112737258D01*
%TO.C,J8*%
X64715000Y-124110000D02*
X64715000Y-123060000D01*
X67215000Y-124110000D02*
X64715000Y-124110000D01*
X64715000Y-123060000D02*
X63725000Y-123060000D01*
X69185000Y-122940000D02*
X69185000Y-120060000D01*
X64715000Y-118890000D02*
X64715000Y-119940000D01*
X67215000Y-118890000D02*
X64715000Y-118890000D01*
%TO.C,J7*%
X45265000Y-125455000D02*
X45265000Y-124325000D01*
X46025000Y-125455000D02*
X45265000Y-125455000D01*
X46785000Y-125455000D02*
X49260000Y-125455000D01*
X46785000Y-125455000D02*
X46785000Y-124888471D01*
X49260000Y-125455000D02*
X49260000Y-124632530D01*
X49260000Y-124017470D02*
X49260000Y-123362530D01*
X46785000Y-123761529D02*
X46785000Y-123618471D01*
X45330000Y-123565000D02*
X45330000Y-123362530D01*
X45461529Y-123565000D02*
X45330000Y-123565000D01*
X46731529Y-123565000D02*
X46588471Y-123565000D01*
X45330000Y-122747470D02*
X45330000Y-121925000D01*
X49260000Y-122747470D02*
X49260000Y-121925000D01*
X45330000Y-121925000D02*
X49260000Y-121925000D01*
%TO.C,D3*%
X65465000Y-108685000D02*
X66935000Y-108685000D01*
X66935000Y-108685000D02*
X66935000Y-106400000D01*
X65465000Y-106400000D02*
X65465000Y-108685000D01*
%TO.C,R22*%
X58022500Y-118462742D02*
X58022500Y-118937258D01*
X56977500Y-118462742D02*
X56977500Y-118937258D01*
%TO.C,R21*%
X62037258Y-109422500D02*
X61562742Y-109422500D01*
X62037258Y-108377500D02*
X61562742Y-108377500D01*
%TO.C,R25*%
X41362742Y-120077500D02*
X41837258Y-120077500D01*
X41362742Y-121122500D02*
X41837258Y-121122500D01*
%TO.C,R18*%
X63077500Y-116712258D02*
X63077500Y-116237742D01*
X64122500Y-116712258D02*
X64122500Y-116237742D01*
%TO.C,U3*%
X51900000Y-121740000D02*
X50225000Y-121740000D01*
X51900000Y-121740000D02*
X52550000Y-121740000D01*
X51900000Y-124860000D02*
X51250000Y-124860000D01*
X51900000Y-124860000D02*
X52550000Y-124860000D01*
%TO.C,R19*%
X60422500Y-121262742D02*
X60422500Y-121737258D01*
X59377500Y-121262742D02*
X59377500Y-121737258D01*
%TO.C,R23*%
X50477500Y-111937258D02*
X50477500Y-111462742D01*
X51522500Y-111937258D02*
X51522500Y-111462742D01*
%TD*%
%LPC*%
D12*
%TO.C,C1*%
X24200000Y-108175000D03*
X24200000Y-106625000D03*
%TD*%
D13*
%TO.C,D2*%
X29150000Y-118600000D03*
X30450000Y-118600000D03*
X29800000Y-116600000D03*
%TD*%
D14*
%TO.C,H2*%
X17000000Y-113000000D03*
%TD*%
D15*
%TO.C,Q1*%
X35250000Y-114650000D03*
X34600000Y-114650000D03*
X33950000Y-114650000D03*
X33950000Y-116550000D03*
X34600000Y-116550000D03*
X35250000Y-116550000D03*
%TD*%
D16*
%TO.C,Q2*%
X18150000Y-117862500D03*
X16250000Y-117862500D03*
X17200000Y-119737500D03*
%TD*%
D17*
%TO.C,R1*%
X33275000Y-119600000D03*
X34925000Y-119600000D03*
%TD*%
D18*
%TO.C,R2*%
X30325000Y-103500000D03*
X28675000Y-103500000D03*
%TD*%
D17*
%TO.C,R4*%
X28175000Y-107500000D03*
X29825000Y-107500000D03*
%TD*%
D19*
%TO.C,R8*%
X32000000Y-114775000D03*
X32000000Y-116425000D03*
%TD*%
D18*
%TO.C,R9*%
X34525000Y-112800000D03*
X32875000Y-112800000D03*
%TD*%
%TO.C,R10*%
X26337500Y-119700000D03*
X24687500Y-119700000D03*
%TD*%
%TO.C,R11*%
X22325000Y-119700000D03*
X20675000Y-119700000D03*
%TD*%
D20*
%TO.C,U2*%
X24125000Y-109795000D03*
X24125000Y-111065000D03*
X24125000Y-112335000D03*
X24125000Y-113605000D03*
X29075000Y-113605000D03*
X29075000Y-112335000D03*
X29075000Y-111065000D03*
X29075000Y-109795000D03*
%TD*%
D21*
%TO.C,J5*%
X26770000Y-102230000D03*
D22*
X26770000Y-103500000D03*
X25500000Y-102230000D03*
X25500000Y-103500000D03*
X24230000Y-102230000D03*
X24230000Y-103500000D03*
%TD*%
D14*
%TO.C,H1*%
X68000000Y-113000000D03*
%TD*%
D16*
%TO.C,Q3*%
X23150000Y-115562500D03*
X21250000Y-115562500D03*
X22200000Y-117437500D03*
%TD*%
D19*
%TO.C,R12*%
X21100000Y-108862500D03*
X21100000Y-110512500D03*
%TD*%
%TO.C,R6*%
X36800000Y-117275000D03*
X36800000Y-118925000D03*
%TD*%
D23*
%TO.C,D1*%
X38012500Y-104100000D03*
X39587500Y-104100000D03*
%TD*%
D18*
%TO.C,R3*%
X29825000Y-106000000D03*
X28175000Y-106000000D03*
%TD*%
D24*
%TO.C,R7*%
X38500000Y-124000000D03*
D25*
X16500000Y-124000000D03*
%TD*%
D26*
%TO.C,J2*%
X20500000Y-103500000D03*
X20500000Y-104500000D03*
X20500000Y-105500000D03*
D27*
X16625000Y-102200000D03*
X16625000Y-106800000D03*
%TD*%
D28*
%TO.C,R13*%
X19300000Y-110525000D03*
X19300000Y-108875000D03*
%TD*%
D29*
%TO.C,U1*%
X25262500Y-115450000D03*
X25262500Y-117350000D03*
X27137500Y-116400000D03*
%TD*%
D17*
%TO.C,R5*%
X34475000Y-104100000D03*
X36125000Y-104100000D03*
%TD*%
D30*
%TO.C,C2*%
X49650000Y-115000000D03*
X51200000Y-115000000D03*
%TD*%
D20*
%TO.C,U4*%
X49725000Y-116795000D03*
X49725000Y-118065000D03*
X49725000Y-119335000D03*
X49725000Y-120605000D03*
X54675000Y-120605000D03*
X54675000Y-119335000D03*
X54675000Y-118065000D03*
X54675000Y-116795000D03*
%TD*%
D17*
%TO.C,R16*%
X54675000Y-123100000D03*
X56325000Y-123100000D03*
%TD*%
D24*
%TO.C,R20*%
X68500000Y-102000000D03*
D25*
X46500000Y-102000000D03*
%TD*%
D16*
%TO.C,Q6*%
X43250000Y-122762500D03*
X41350000Y-122762500D03*
X42300000Y-124637500D03*
%TD*%
D13*
%TO.C,D4*%
X56850000Y-110400000D03*
X58150000Y-110400000D03*
X57500000Y-108400000D03*
%TD*%
D15*
%TO.C,Q4*%
X62550000Y-110850000D03*
X61900000Y-110850000D03*
X61250000Y-110850000D03*
X61250000Y-112750000D03*
X61900000Y-112750000D03*
X62550000Y-112750000D03*
%TD*%
D28*
%TO.C,R24*%
X50500000Y-107825000D03*
X50500000Y-106175000D03*
%TD*%
%TO.C,R17*%
X59400000Y-113425000D03*
X59400000Y-111775000D03*
%TD*%
D18*
%TO.C,R15*%
X56325000Y-124700000D03*
X54675000Y-124700000D03*
%TD*%
D31*
%TO.C,Q5*%
X48537500Y-107950000D03*
X48537500Y-106050000D03*
X46662500Y-107000000D03*
%TD*%
D19*
%TO.C,R14*%
X53200000Y-111675000D03*
X53200000Y-113325000D03*
%TD*%
D32*
%TO.C,J8*%
X64500000Y-122500000D03*
X64500000Y-121500000D03*
X64500000Y-120500000D03*
D33*
X68375000Y-123800000D03*
X68375000Y-119200000D03*
%TD*%
D21*
%TO.C,J7*%
X46025000Y-124325000D03*
D22*
X46025000Y-123055000D03*
X47295000Y-124325000D03*
X47295000Y-123055000D03*
X48565000Y-124325000D03*
X48565000Y-123055000D03*
%TD*%
D34*
%TO.C,H4*%
X39275000Y-113000000D03*
X40219581Y-110719581D03*
X40219581Y-115280419D03*
X42500000Y-109775000D03*
D35*
X42500000Y-113000000D03*
D34*
X42500000Y-116225000D03*
X44780419Y-110719581D03*
X44780419Y-115280419D03*
X45725000Y-113000000D03*
%TD*%
D36*
%TO.C,D3*%
X66200000Y-107987500D03*
X66200000Y-106412500D03*
%TD*%
D19*
%TO.C,R22*%
X57500000Y-117875000D03*
X57500000Y-119525000D03*
%TD*%
D18*
%TO.C,R21*%
X62625000Y-108900000D03*
X60975000Y-108900000D03*
%TD*%
D17*
%TO.C,R25*%
X40775000Y-120600000D03*
X42425000Y-120600000D03*
%TD*%
D28*
%TO.C,R18*%
X63600000Y-117300000D03*
X63600000Y-115650000D03*
%TD*%
D29*
%TO.C,U3*%
X50962500Y-122350000D03*
X50962500Y-124250000D03*
X52837500Y-123300000D03*
%TD*%
D19*
%TO.C,R19*%
X59900000Y-120675000D03*
X59900000Y-122325000D03*
%TD*%
D28*
%TO.C,R23*%
X51000000Y-112525000D03*
X51000000Y-110875000D03*
%TD*%
D37*
%TO.C,J4*%
X18500000Y-103500000D03*
D38*
X18500000Y-105500000D03*
%TD*%
D37*
%TO.C,J6*%
X66600000Y-122500000D03*
D38*
X66600000Y-120500000D03*
%TD*%
D39*
X19600000Y-119700000D03*
X29100000Y-108700000D03*
X21100000Y-111600000D03*
X29100000Y-119900000D03*
X24200000Y-105400000D03*
X23200004Y-117100000D03*
X19300000Y-111599996D03*
X50500000Y-104500000D03*
X48200014Y-104500000D03*
X41000000Y-104100000D03*
X43700000Y-120600000D03*
X33000000Y-117400000D03*
X54700000Y-110200002D03*
X51500000Y-116700000D03*
X49299996Y-104500000D03*
X36200010Y-119900000D03*
X30500000Y-119900000D03*
X31500000Y-103500000D03*
X31000000Y-106000000D03*
X31000000Y-107500000D03*
X54700000Y-115800000D03*
X29800000Y-101600000D03*
X29800000Y-104700000D03*
X52800000Y-124200000D03*
X57300004Y-123900000D03*
X60300006Y-107200000D03*
X65200000Y-105700000D03*
X60300000Y-110200002D03*
%LPD*%
M02*
